<svg width="36" height="36" viewBox="0 0 36 36" fill="none" xmlns="http://www.w3.org/2000/svg">
<mask id="mask0_453_2276" style="mask-type:alpha" maskUnits="userSpaceOnUse" x="1" y="1" width="34" height="34">
<circle cx="17.9996" cy="17.9999" r="16.65" fill="#B4B4B4"/>
</mask>
<g mask="url(#mask0_453_2276)">
<g filter="url(#filter0_ii_453_2276)">
<circle cx="17.9996" cy="17.9999" r="16.65" fill="url(#paint0_radial_453_2276)"/>
</g>
<g filter="url(#filter1_f_453_2276)">
<circle cx="18" cy="17.7749" r="15.75" fill="url(#paint1_radial_453_2276)"/>
</g>
<g filter="url(#filter2_f_453_2276)">
<circle cx="17.8863" cy="14.9624" r="10.4625" fill="url(#paint2_radial_453_2276)"/>
</g>
<g filter="url(#filter3_if_453_2276)">
<circle cx="17.9988" cy="17.9998" r="15.075" fill="url(#paint3_linear_453_2276)" style="mix-blend-mode:hard-light"/>
</g>
</g>
<path d="M15.1583 24.5363L16.9097 25.9621C17.4994 26.4462 18.3531 26.4462 18.9428 25.9621L20.6942 24.5363L22.4456 25.9621C23.0353 26.4462 23.889 26.4462 24.4874 25.9621L25.5435 25.0996C25.7108 24.9676 25.8076 24.7652 25.8076 24.5451C25.8076 24.3251 25.7108 24.1315 25.5435 23.9907C25.2795 23.7794 24.9011 23.7794 24.6458 23.9907L23.4753 24.95L21.6535 23.4714C21.099 23.0226 20.2981 23.0226 19.7437 23.4714L17.9307 24.95L16.1088 23.4714C15.5544 23.0226 14.7535 23.0226 14.199 23.4714L12.386 24.95L11.2067 23.9907C10.9426 23.7794 10.5642 23.7794 10.309 23.9907C10.1417 24.1227 10.0449 24.3251 10.0449 24.5451C10.0449 24.7652 10.1417 24.9588 10.309 25.0996L11.3651 25.9621C11.9547 26.4462 12.8084 26.4462 13.4069 25.9621L15.1583 24.5363Z" fill="#643800"/>
<path d="M25.5602 23.9907C25.2961 23.7794 24.9177 23.7794 24.6625 23.9907L24.0376 24.5011C23.7119 24.7652 23.2543 24.7652 22.9287 24.5011L21.6613 23.4714C21.1068 23.0226 20.3059 23.0226 19.7515 23.4714L18.4841 24.5011C18.1585 24.7652 17.7008 24.7652 17.3752 24.5011L16.1078 23.4714C15.5534 23.0226 14.7525 23.0226 14.198 23.4714L12.9307 24.5011C12.605 24.7652 12.1474 24.7652 11.8217 24.5011L11.1969 23.9907C10.9328 23.7794 10.5544 23.7794 10.2992 23.9907C10.1759 24.0963 10.0879 24.2283 10.0527 24.3867C11.0385 23.8675 11.6017 25.4164 12.3938 25.4164C13.0979 25.4164 14.1716 23.6386 15.1397 23.6386C15.967 23.6386 17.1816 25.3988 17.9297 25.3988C18.6778 25.3988 19.8923 23.6386 20.7196 23.6386C21.6877 23.6386 22.7526 25.4164 23.4655 25.4164C24.2576 25.4164 24.8209 23.8675 25.8066 24.3867C25.7626 24.2371 25.6834 24.0963 25.5602 23.9907Z" fill="url(#paint4_linear_453_2276)"/>
<path d="M8.77699 10.7713C8.69778 11.3345 9.25225 11.7658 10.2908 11.9154C11.1709 12.0386 13.1775 11.8274 14.7617 10.296C15.0521 10.0144 14.7001 9.78553 14.4273 9.96156C13.5031 10.5424 11.1797 11.1233 9.48988 10.7008C8.8122 10.516 8.77699 10.7713 8.77699 10.7713Z" fill="url(#paint5_linear_453_2276)"/>
<path d="M9.15536 13.8253C9.20816 13.6668 9.35778 13.5788 9.525 13.6052C10.3963 13.7812 11.8837 14.4237 13.3006 15.2422C14.4272 15.8847 15.7385 17.5305 15.5801 18.0938C15.4041 18.7098 13.6439 19.1763 12.8958 19.3523C11.7253 19.6251 10.1851 19.8276 9.37538 19.5987C9.16416 19.5371 9.09375 19.3875 9.09375 19.2643C9.10255 19.0971 9.24337 18.9563 9.46339 18.9122C11.8309 18.4458 13.4151 17.8473 13.4415 17.4865C13.4415 17.4865 13.5559 16.9232 12.0685 15.9551C11.162 15.3654 10.1675 14.855 9.5514 14.5557C9.19936 14.3445 9.08495 14.0541 9.15536 13.8253Z" fill="url(#paint6_radial_453_2276)"/>
<path d="M9.52394 13.6052C10.3952 13.7813 11.9266 14.2389 13.2996 15.2422C14.5581 16.1575 15.7375 17.5305 15.5791 18.0938C15.4734 18.4546 14.8398 18.7626 14.1797 18.9915C14.1533 19.0003 14.1269 19.0091 14.1005 19.0179H14.0917C14.7166 18.5338 15.095 17.9265 14.4085 17.0552C13.9685 16.5096 12.6747 14.8286 9.1543 13.8165C9.2071 13.6668 9.35672 13.5788 9.52394 13.6052Z" fill="url(#paint7_linear_453_2276)"/>
<path d="M9.09375 19.2641C9.10255 19.0969 9.24337 18.9561 9.46339 18.9121C11.8309 18.4456 13.4151 17.8472 13.4415 17.4863C13.3975 18.1024 13.3711 18.4016 11.3996 18.8417C9.93865 19.1673 9.25217 19.2905 9.36658 19.5986C9.16416 19.537 9.09375 19.3874 9.09375 19.2641Z" fill="url(#paint8_linear_453_2276)"/>
<path d="M27.0859 10.7713C27.1651 11.3345 26.6106 11.7658 25.5721 11.9154C24.692 12.0386 22.6853 11.8274 21.1012 10.296C20.8107 10.0144 21.1628 9.78553 21.4356 9.96156C22.3597 10.5424 24.6832 11.1233 26.373 10.7008C27.0507 10.516 27.0859 10.7713 27.0859 10.7713Z" fill="url(#paint9_linear_453_2276)"/>
<path d="M26.7054 13.8253C26.6526 13.6668 26.503 13.5788 26.3358 13.6052C25.4645 13.7812 23.9771 14.4237 22.5601 15.2422C21.4336 15.8847 20.1222 17.5305 20.2807 18.0938C20.4567 18.7098 22.2169 19.1763 22.965 19.3523C24.1355 19.6251 25.6757 19.8276 26.4854 19.5987C26.6966 19.5371 26.767 19.3875 26.767 19.2643C26.7582 19.0971 26.6174 18.9563 26.3974 18.9122C24.0299 18.4458 22.4457 17.8473 22.4193 17.4865C22.4193 17.4865 22.3049 16.9232 23.7923 15.9551C24.6988 15.3654 25.6933 14.855 26.3094 14.5557C26.6614 14.3445 26.7758 14.0541 26.7054 13.8253Z" fill="url(#paint10_radial_453_2276)"/>
<path d="M26.3331 13.6052C25.4618 13.7813 23.9305 14.2389 22.5575 15.2422C21.2989 16.1575 20.1196 17.5305 20.278 18.0938C20.3836 18.4546 21.0173 18.7626 21.6774 18.9915C21.7038 19.0003 21.7302 19.0091 21.7566 19.0179H21.7654C21.1405 18.5338 20.7621 17.9265 21.4486 17.0552C21.8886 16.5096 23.1824 14.8286 26.7028 13.8165C26.65 13.6668 26.5004 13.5788 26.3331 13.6052Z" fill="url(#paint11_linear_453_2276)"/>
<path d="M26.7676 19.2641C26.7588 19.0969 26.618 18.9561 26.398 18.9121C24.0305 18.4456 22.4463 17.8472 22.4199 17.4863C22.4639 18.1024 22.4903 18.4016 24.4618 18.8417C25.9227 19.1673 26.6092 19.2905 26.4948 19.5986C26.6972 19.537 26.7676 19.3874 26.7676 19.2641Z" fill="url(#paint12_linear_453_2276)"/>
<defs>
<filter id="filter0_ii_453_2276" x="1.34961" y="1.12485" width="33.3008" height="33.525" filterUnits="userSpaceOnUse" color-interpolation-filters="sRGB">
<feFlood flood-opacity="0" result="BackgroundImageFix"/>
<feBlend mode="normal" in="SourceGraphic" in2="BackgroundImageFix" result="shape"/>
<feColorMatrix in="SourceAlpha" type="matrix" values="0 0 0 0 0 0 0 0 0 0 0 0 0 0 0 0 0 0 127 0" result="hardAlpha"/>
<feOffset/>
<feGaussianBlur stdDeviation="2.925"/>
<feComposite in2="hardAlpha" operator="arithmetic" k2="-1" k3="1"/>
<feColorMatrix type="matrix" values="0 0 0 0 0.823529 0 0 0 0 0.403451 0 0 0 0 0.0156863 0 0 0 1 0"/>
<feBlend mode="normal" in2="shape" result="effect1_innerShadow_453_2276"/>
<feColorMatrix in="SourceAlpha" type="matrix" values="0 0 0 0 0 0 0 0 0 0 0 0 0 0 0 0 0 0 127 0" result="hardAlpha"/>
<feOffset dy="-0.225"/>
<feGaussianBlur stdDeviation="0.3375"/>
<feComposite in2="hardAlpha" operator="arithmetic" k2="-1" k3="1"/>
<feColorMatrix type="matrix" values="0 0 0 0 0 0 0 0 0 0 0 0 0 0 0 0 0 0 0.25 0"/>
<feBlend mode="normal" in2="effect1_innerShadow_453_2276" result="effect2_innerShadow_453_2276"/>
</filter>
<filter id="filter1_f_453_2276" x="1.575" y="1.3499" width="32.85" height="32.85" filterUnits="userSpaceOnUse" color-interpolation-filters="sRGB">
<feFlood flood-opacity="0" result="BackgroundImageFix"/>
<feBlend mode="normal" in="SourceGraphic" in2="BackgroundImageFix" result="shape"/>
<feGaussianBlur stdDeviation="0.3375" result="effect1_foregroundBlur_453_2276"/>
</filter>
<filter id="filter2_f_453_2276" x="0.673828" y="-2.25012" width="34.4258" height="34.425" filterUnits="userSpaceOnUse" color-interpolation-filters="sRGB">
<feFlood flood-opacity="0" result="BackgroundImageFix"/>
<feBlend mode="normal" in="SourceGraphic" in2="BackgroundImageFix" result="shape"/>
<feGaussianBlur stdDeviation="3.375" result="effect1_foregroundBlur_453_2276"/>
</filter>
<filter id="filter3_if_453_2276" x="2.69883" y="2.6998" width="30.6004" height="30.6" filterUnits="userSpaceOnUse" color-interpolation-filters="sRGB">
<feFlood flood-opacity="0" result="BackgroundImageFix"/>
<feBlend mode="normal" in="SourceGraphic" in2="BackgroundImageFix" result="shape"/>
<feColorMatrix in="SourceAlpha" type="matrix" values="0 0 0 0 0 0 0 0 0 0 0 0 0 0 0 0 0 0 127 0" result="hardAlpha"/>
<feOffset dy="0.225"/>
<feGaussianBlur stdDeviation="0.1125"/>
<feComposite in2="hardAlpha" operator="arithmetic" k2="-1" k3="1"/>
<feColorMatrix type="matrix" values="0 0 0 0 1 0 0 0 0 1 0 0 0 0 1 0 0 0 0.1 0"/>
<feBlend mode="normal" in2="shape" result="effect1_innerShadow_453_2276"/>
<feGaussianBlur stdDeviation="0.1125" result="effect2_foregroundBlur_453_2276"/>
</filter>
<radialGradient id="paint0_radial_453_2276" cx="0" cy="0" r="1" gradientUnits="userSpaceOnUse" gradientTransform="translate(17.9996 13.7249) rotate(90) scale(22.1709 22.0211)">
<stop offset="0.197917" stop-color="#FFEF5B"/>
<stop offset="0.911458" stop-color="#F17B00"/>
<stop offset="0.994792" stop-color="#D54D01"/>
</radialGradient>
<radialGradient id="paint1_radial_453_2276" cx="0" cy="0" r="1" gradientUnits="userSpaceOnUse" gradientTransform="translate(18 8.71015) rotate(90) scale(25.9933 20.925)">
<stop stop-color="#FFDF1E"/>
<stop offset="0.681992" stop-color="#FFDF1E" stop-opacity="0"/>
</radialGradient>
<radialGradient id="paint2_radial_453_2276" cx="0" cy="0" r="1" gradientUnits="userSpaceOnUse" gradientTransform="translate(17.8863 6.07488) rotate(90) scale(19.35)">
<stop offset="0.209302" stop-color="white"/>
<stop offset="0.418605" stop-color="#FFF65B"/>
<stop offset="0.860465" stop-color="#FFDD30"/>
</radialGradient>
<linearGradient id="paint3_linear_453_2276" x1="17.9988" y1="2.9248" x2="17.9988" y2="14.9395" gradientUnits="userSpaceOnUse">
<stop stop-color="#FFFFF8"/>
<stop offset="1" stop-color="#FFCF2C" stop-opacity="0"/>
</linearGradient>
<linearGradient id="paint4_linear_453_2276" x1="17.9295" y1="24.1784" x2="17.9295" y2="29.0555" gradientUnits="userSpaceOnUse">
<stop offset="0.00132565" stop-color="#3C2200"/>
<stop offset="1" stop-color="#512D00"/>
</linearGradient>
<linearGradient id="paint5_linear_453_2276" x1="10.836" y1="12.5385" x2="12.1184" y2="9.84665" gradientUnits="userSpaceOnUse">
<stop offset="0.00132565" stop-color="#3C2200"/>
<stop offset="1" stop-color="#7A4400"/>
</linearGradient>
<radialGradient id="paint6_radial_453_2276" cx="0" cy="0" r="1" gradientUnits="userSpaceOnUse" gradientTransform="translate(11.9705 17.3372) rotate(-57.9897) scale(3.31213 2.14266)">
<stop offset="0.00132565" stop-color="#7A4400"/>
<stop offset="1" stop-color="#643800"/>
</radialGradient>
<linearGradient id="paint7_linear_453_2276" x1="15.7738" y1="17.4309" x2="8.70654" y2="15.4221" gradientUnits="userSpaceOnUse">
<stop offset="0.00132565" stop-color="#3C2200"/>
<stop offset="1" stop-color="#512D00"/>
</linearGradient>
<linearGradient id="paint8_linear_453_2276" x1="13.3438" y1="18.6699" x2="9.12835" y2="18.3927" gradientUnits="userSpaceOnUse">
<stop offset="0.00132565" stop-color="#3C2200"/>
<stop offset="1" stop-color="#512D00"/>
</linearGradient>
<linearGradient id="paint9_linear_453_2276" x1="25.0342" y1="12.538" x2="23.7518" y2="9.84615" gradientUnits="userSpaceOnUse">
<stop offset="0.00132565" stop-color="#3C2200"/>
<stop offset="1" stop-color="#7A4400"/>
</linearGradient>
<radialGradient id="paint10_radial_453_2276" cx="0" cy="0" r="1" gradientUnits="userSpaceOnUse" gradientTransform="translate(23.877 17.3192) rotate(-122.01) scale(3.31212 2.14266)">
<stop offset="0.00132565" stop-color="#7A4400"/>
<stop offset="1" stop-color="#643800"/>
</radialGradient>
<linearGradient id="paint11_linear_453_2276" x1="20.0858" y1="17.4257" x2="27.1531" y2="15.417" gradientUnits="userSpaceOnUse">
<stop offset="0.00132565" stop-color="#3C2200"/>
<stop offset="1" stop-color="#512D00"/>
</linearGradient>
<linearGradient id="paint12_linear_453_2276" x1="22.4951" y1="18.6685" x2="26.7106" y2="18.3913" gradientUnits="userSpaceOnUse">
<stop offset="0.00132565" stop-color="#3C2200"/>
<stop offset="1" stop-color="#512D00"/>
</linearGradient>
</defs>
</svg>
