<svg width="144" height="169" viewBox="0 0 144 169" fill="none" xmlns="http://www.w3.org/2000/svg">
<g filter="url(#filter0_d_14_6909)">
<path opacity="0.9" d="M104.844 49.937C106.317 48.4637 108.706 48.4637 110.179 49.937C111.652 51.4104 111.652 53.7991 110.179 55.2724C108.706 56.7458 106.317 56.7458 104.844 55.2724C103.37 53.7991 103.37 51.4104 104.844 49.937Z" fill="url(#paint0_linear_14_6909)"/>
<g filter="url(#filter1_b_14_6909)">
<mask id="path-2-outside-1_14_6909" maskUnits="userSpaceOnUse" x="33.9017" y="-11.5496" width="84.2646" height="69.432" fill="black">
<rect fill="white" x="33.9017" y="-11.5496" width="84.2646" height="69.432"/>
<path fill-rule="evenodd" clip-rule="evenodd" d="M46.7681 33.0949L48.0917 30.1955C53.9393 17.3858 67.8056 11.1656 79.0605 16.3035C90.3154 21.4414 94.6994 35.9928 88.8518 48.8025L87.5282 51.7019"/>
</mask>
<path d="M59.5038 38.9088L60.8274 36.0093L35.356 24.3816L34.0324 27.281L59.5038 38.9088ZM60.8274 36.0093C64.1938 28.6351 70.5239 27.7963 73.2466 29.0392L84.8743 3.56776C65.0873 -5.46502 43.6849 6.13648 35.356 24.3816L60.8274 36.0093ZM73.2466 29.0392C75.9694 30.2822 79.4824 35.6143 76.1161 42.9886L101.588 54.6163C109.916 36.3712 104.661 12.6005 84.8743 3.56776L73.2466 29.0392ZM76.1161 42.9886L74.7925 45.888L100.264 57.5158L101.588 54.6163L76.1161 42.9886Z" fill="url(#paint1_linear_14_6909)" mask="url(#path-2-outside-1_14_6909)"/>
</g>
<g filter="url(#filter2_b_14_6909)">
<path fill-rule="evenodd" clip-rule="evenodd" d="M38.4071 118.878H105.442C112.85 118.878 118.85 112.878 118.85 105.47V51.8421C118.85 44.4347 112.85 38.4351 105.442 38.4351H38.4071C30.9997 38.4351 25 44.4347 25 51.8421V105.47C25 112.878 30.9997 118.878 38.4071 118.878ZM75.6865 66.9146C73.6082 64.8363 70.2385 64.8363 68.1602 66.9146C66.0819 68.993 66.0819 72.3626 68.1602 74.4409C69.0996 75.3803 70.4219 74.4488 70.4219 73.1203C70.4219 72.2918 71.0934 71.6203 71.9219 71.6203C72.7503 71.6203 73.4219 72.2918 73.4219 73.1203C73.4219 74.4506 74.7458 75.3816 75.6865 74.4409C77.7648 72.3626 77.7648 68.993 75.6865 66.9146ZM65.3318 77.2694C67.7018 79.6394 70.4219 82.3412 70.4219 85.693V97.5266C70.4219 98.355 71.0934 99.0266 71.9219 99.0266C72.7503 99.0266 73.4219 98.355 73.4219 97.5266V85.6965C73.4219 82.3432 76.1438 79.6405 78.5149 77.2694C82.1553 73.6289 82.1553 67.7266 78.5149 64.0862C74.8745 60.4458 68.9722 60.4458 65.3318 64.0862C61.6913 67.7266 61.6913 73.6289 65.3318 77.2694Z" fill="white"/>
</g>
</g>
<defs>
<filter id="filter0_d_14_6909" x="0" y="0.436035" width="143.85" height="168.441" filterUnits="userSpaceOnUse" color-interpolation-filters="sRGB">
<feFlood flood-opacity="0" result="BackgroundImageFix"/>
<feColorMatrix in="SourceAlpha" type="matrix" values="0 0 0 0 0 0 0 0 0 0 0 0 0 0 0 0 0 0 127 0" result="hardAlpha"/>
<feOffset dy="25"/>
<feGaussianBlur stdDeviation="12.5"/>
<feColorMatrix type="matrix" values="0 0 0 0 0 0 0 0 0 0 0 0 0 0 0 0 0 0 0.1 0"/>
<feBlend mode="normal" in2="BackgroundImageFix" result="effect1_dropShadow_14_6909"/>
<feBlend mode="normal" in="SourceGraphic" in2="effect1_dropShadow_14_6909" result="shape"/>
</filter>
<filter id="filter1_b_14_6909" x="20.7272" y="-12.8692" width="97.9689" height="83.6901" filterUnits="userSpaceOnUse" color-interpolation-filters="sRGB">
<feFlood flood-opacity="0" result="BackgroundImageFix"/>
<feGaussianBlur in="BackgroundImageFix" stdDeviation="6.65264"/>
<feComposite in2="SourceAlpha" operator="in" result="effect1_backgroundBlur_14_6909"/>
<feBlend mode="normal" in="SourceGraphic" in2="effect1_backgroundBlur_14_6909" result="shape"/>
</filter>
<filter id="filter2_b_14_6909" x="11.6947" y="25.1298" width="120.46" height="107.053" filterUnits="userSpaceOnUse" color-interpolation-filters="sRGB">
<feFlood flood-opacity="0" result="BackgroundImageFix"/>
<feGaussianBlur in="BackgroundImageFix" stdDeviation="6.65264"/>
<feComposite in2="SourceAlpha" operator="in" result="effect1_backgroundBlur_14_6909"/>
<feBlend mode="normal" in="SourceGraphic" in2="effect1_backgroundBlur_14_6909" result="shape"/>
</filter>
<linearGradient id="paint0_linear_14_6909" x1="108.925" y1="48.3457" x2="104.107" y2="58.2241" gradientUnits="userSpaceOnUse">
<stop stop-color="white" stop-opacity="0.92"/>
<stop offset="1" stop-color="white"/>
</linearGradient>
<linearGradient id="paint1_linear_14_6909" x1="82.5457" y1="13.1646" x2="70.8834" y2="37.791" gradientUnits="userSpaceOnUse">
<stop stop-color="white"/>
<stop offset="0.996024" stop-color="white" stop-opacity="0"/>
</linearGradient>
</defs>
</svg>
