<svg width="77" height="76" viewBox="0 0 77 76" fill="none" xmlns="http://www.w3.org/2000/svg">
<mask id="mask0_1_4370" style="mask-type:alpha" maskUnits="userSpaceOnUse" x="0" y="0" width="70" height="70">
<rect width="70" height="70" fill="#D9D9D9"/>
</mask>
<g mask="url(#mask0_1_4370)">
<g filter="url(#filter0_b_1_4370)">
<path d="M3.17822 35.4144C3.17822 28.04 3.17822 24.3528 5.24294 21.6604C7.30767 18.968 10.8687 18.0116 17.9908 16.0989L30.2656 12.8023C32.8442 12.1098 34.1336 11.7635 35.453 11.7635C36.7724 11.7635 38.0618 12.1098 40.6405 12.8023L52.9152 16.0989C60.0373 18.0116 63.5983 18.968 65.6631 21.6604C67.7278 24.3528 67.7278 28.04 67.7278 35.4144V47.7501C67.7278 57.1782 67.7278 61.8922 64.7989 64.8211C61.8699 67.7501 57.1559 67.7501 47.7278 67.7501H23.1782C13.7501 67.7501 9.03609 67.7501 6.10715 64.8211C3.17822 61.8922 3.17822 57.1782 3.17822 47.7501L3.17822 35.4144Z" fill="url(#paint0_linear_1_4370)"/>
</g>
<g filter="url(#filter1_b_1_4370)">
<path fill-rule="evenodd" clip-rule="evenodd" d="M14.4313 3C10.5615 3 7.42432 7.0382 7.42432 12.0196V31.759C21.1473 41.4697 28.3703 50.8834 35.4524 50.9316C42.6846 50.9808 49.7699 41.4609 63.4805 31.759V12.0196C63.4805 7.0382 60.3434 3 56.4735 3H14.4313Z" fill="#B9DDFF" fill-opacity="0.4"/>
<path d="M7.73026 12.0196C7.73026 7.1308 10.7978 3.30595 14.4313 3.30595H56.4735C60.107 3.30595 63.1746 7.1308 63.1746 12.0196V31.6008C58.2832 35.0721 54.2285 38.5223 50.7213 41.5066C49.3509 42.6727 48.064 43.7677 46.8435 44.7651C42.4434 48.3606 38.9452 50.6494 35.4545 50.6257C33.7527 50.6141 32.0244 50.04 30.1628 49.0132C28.3 47.9858 26.3215 46.5153 24.1214 44.7311C22.8885 43.7313 21.5869 42.6336 20.2003 41.4642C16.6814 38.4965 12.6144 35.0665 7.73026 31.6008V12.0196Z" stroke="url(#paint1_linear_1_4370)" stroke-width="0.611895"/>
</g>
<rect x="48.7977" y="15.858" width="4.55594" height="27.5386" rx="2.27797" transform="rotate(90 48.7977 15.858)" fill="url(#paint2_linear_1_4370)" fill-opacity="0.9" stroke="url(#paint3_linear_1_4370)" stroke-width="0.489516"/>
<rect x="48.7977" y="29.3131" width="3.71503" height="27.5386" rx="1.85751" transform="rotate(90 48.7977 29.3131)" fill="url(#paint4_linear_1_4370)" fill-opacity="0.9" stroke="url(#paint5_linear_1_4370)" stroke-width="0.489516"/>
<path fill-rule="evenodd" clip-rule="evenodd" d="M66.7251 26.1888C66.751 26.2518 66.7764 26.3149 66.8014 26.3784C67.3106 27.6709 67.5398 29.108 67.6429 31.0805L36.7814 54.5825C35.9309 55.2301 34.7125 55.2301 33.8621 54.5825L3 31.0801C3.10316 29.1078 3.33233 27.6708 3.84147 26.3784C3.86649 26.3148 3.89199 26.2515 3.91796 26.1885L35.3217 50.1034L66.7251 26.1888Z" fill="#078CFE"/>
</g>
<g filter="url(#filter2_b_1_4370)">
<path d="M56.4733 69.9467C49.0334 69.9467 43 63.9133 43 56.4733C43 49.0334 49.0334 43 56.4733 43C63.916 43 69.9467 49.0334 69.9467 56.4733C69.9467 63.9133 63.916 69.9467 56.4733 69.9467Z" fill="#96C0FF"/>
<path d="M56.4733 69.6407C49.2023 69.6407 43.3059 63.7443 43.3059 56.4733C43.3059 49.2023 49.2023 43.3059 56.4733 43.3059C63.747 43.3059 69.6407 49.2023 69.6407 56.4733C69.6407 63.7444 63.747 69.6407 56.4733 69.6407Z" stroke="url(#paint6_linear_1_4370)" stroke-width="0.611895"/>
</g>
<g filter="url(#filter3_bdii_1_4370)">
<path d="M61.2293 54.0957L55.7795 59.6435L52.5112 56.3144" stroke="url(#paint7_linear_1_4370)" stroke-width="3" stroke-linecap="round" stroke-linejoin="round"/>
</g>
<defs>
<filter id="filter0_b_1_4370" x="-10.127" y="-1.5416" width="91.1599" height="82.5969" filterUnits="userSpaceOnUse" color-interpolation-filters="sRGB">
<feFlood flood-opacity="0" result="BackgroundImageFix"/>
<feGaussianBlur in="BackgroundImageFix" stdDeviation="6.65264"/>
<feComposite in2="SourceAlpha" operator="in" result="effect1_backgroundBlur_1_4370"/>
<feBlend mode="normal" in="SourceGraphic" in2="effect1_backgroundBlur_1_4370" result="shape"/>
</filter>
<filter id="filter1_b_1_4370" x="-5.88095" y="-10.3053" width="82.6667" height="74.5422" filterUnits="userSpaceOnUse" color-interpolation-filters="sRGB">
<feFlood flood-opacity="0" result="BackgroundImageFix"/>
<feGaussianBlur in="BackgroundImageFix" stdDeviation="6.65264"/>
<feComposite in2="SourceAlpha" operator="in" result="effect1_backgroundBlur_1_4370"/>
<feBlend mode="normal" in="SourceGraphic" in2="effect1_backgroundBlur_1_4370" result="shape"/>
</filter>
<filter id="filter2_b_1_4370" x="29.6947" y="29.6947" width="53.5573" height="53.5568" filterUnits="userSpaceOnUse" color-interpolation-filters="sRGB">
<feFlood flood-opacity="0" result="BackgroundImageFix"/>
<feGaussianBlur in="BackgroundImageFix" stdDeviation="6.65264"/>
<feComposite in2="SourceAlpha" operator="in" result="effect1_backgroundBlur_1_4370"/>
<feBlend mode="normal" in="SourceGraphic" in2="effect1_backgroundBlur_1_4370" result="shape"/>
</filter>
<filter id="filter3_bdii_1_4370" x="37.0112" y="38.5957" width="39.7183" height="36.5479" filterUnits="userSpaceOnUse" color-interpolation-filters="sRGB">
<feFlood flood-opacity="0" result="BackgroundImageFix"/>
<feGaussianBlur in="BackgroundImageFix" stdDeviation="7"/>
<feComposite in2="SourceAlpha" operator="in" result="effect1_backgroundBlur_1_4370"/>
<feColorMatrix in="SourceAlpha" type="matrix" values="0 0 0 0 0 0 0 0 0 0 0 0 0 0 0 0 0 0 127 0" result="hardAlpha"/>
<feOffset dx="4" dy="4"/>
<feGaussianBlur stdDeviation="5"/>
<feColorMatrix type="matrix" values="0 0 0 0 0.184314 0 0 0 0 0.721569 0 0 0 0 0.207843 0 0 0 0.12 0"/>
<feBlend mode="normal" in2="effect1_backgroundBlur_1_4370" result="effect2_dropShadow_1_4370"/>
<feBlend mode="normal" in="SourceGraphic" in2="effect2_dropShadow_1_4370" result="shape"/>
<feColorMatrix in="SourceAlpha" type="matrix" values="0 0 0 0 0 0 0 0 0 0 0 0 0 0 0 0 0 0 127 0" result="hardAlpha"/>
<feOffset dy="0.2"/>
<feComposite in2="hardAlpha" operator="arithmetic" k2="-1" k3="1"/>
<feColorMatrix type="matrix" values="0 0 0 0 1 0 0 0 0 1 0 0 0 0 1 0 0 0 0.25 0"/>
<feBlend mode="normal" in2="shape" result="effect3_innerShadow_1_4370"/>
<feColorMatrix in="SourceAlpha" type="matrix" values="0 0 0 0 0 0 0 0 0 0 0 0 0 0 0 0 0 0 127 0" result="hardAlpha"/>
<feOffset dy="-0.2"/>
<feComposite in2="hardAlpha" operator="arithmetic" k2="-1" k3="1"/>
<feColorMatrix type="matrix" values="0 0 0 0 0 0 0 0 0 0 0 0 0 0 0 0 0 0 0.25 0"/>
<feBlend mode="normal" in2="effect3_innerShadow_1_4370" result="effect4_innerShadow_1_4370"/>
</filter>
<linearGradient id="paint0_linear_1_4370" x1="21.7983" y1="23.7337" x2="69.7415" y2="42.6231" gradientUnits="userSpaceOnUse">
<stop stop-color="#96C0FF"/>
<stop offset="1" stop-color="#078CFE"/>
</linearGradient>
<linearGradient id="paint1_linear_1_4370" x1="37.7881" y1="-4.18974" x2="36.935" y2="41.3293" gradientUnits="userSpaceOnUse">
<stop stop-color="white"/>
<stop offset="0.996024" stop-color="white" stop-opacity="0"/>
</linearGradient>
<linearGradient id="paint2_linear_1_4370" x1="51.8524" y1="48.06" x2="51.8524" y2="10.4364" gradientUnits="userSpaceOnUse">
<stop stop-color="white"/>
<stop offset="1" stop-color="white" stop-opacity="0"/>
</linearGradient>
<linearGradient id="paint3_linear_1_4370" x1="39.0108" y1="53.1228" x2="58.2034" y2="9.01719" gradientUnits="userSpaceOnUse">
<stop stop-color="white"/>
<stop offset="1" stop-color="white" stop-opacity="0"/>
</linearGradient>
<linearGradient id="paint4_linear_1_4370" x1="47.55" y1="57.3347" x2="52.1783" y2="23.5456" gradientUnits="userSpaceOnUse">
<stop stop-color="white"/>
<stop offset="1" stop-color="white" stop-opacity="0"/>
</linearGradient>
<linearGradient id="paint5_linear_1_4370" x1="43.1515" y1="58.844" x2="60.333" y2="31.1705" gradientUnits="userSpaceOnUse">
<stop stop-color="white"/>
<stop offset="1" stop-color="white" stop-opacity="0"/>
</linearGradient>
<linearGradient id="paint6_linear_1_4370" x1="57.5961" y1="38.958" x2="57.0353" y2="64.5449" gradientUnits="userSpaceOnUse">
<stop stop-color="white"/>
<stop offset="0.996024" stop-color="white" stop-opacity="0"/>
</linearGradient>
<linearGradient id="paint7_linear_1_4370" x1="58.0962" y1="52.362" x2="56.5038" y2="66.8082" gradientUnits="userSpaceOnUse">
<stop stop-color="white" stop-opacity="0.88"/>
<stop offset="1" stop-color="white" stop-opacity="0"/>
</linearGradient>
</defs>
</svg>
