<?xml version="1.0" encoding="UTF-8"?>
<!DOCTYPE svg PUBLIC "-//W3C//DTD SVG 1.1//EN" "http://www.w3.org/Graphics/SVG/1.1/DTD/svg11.dtd">
<!-- Creator: CorelDRAW X6 -->
<svg xmlns="http://www.w3.org/2000/svg" xml:space="preserve" width="8.5in" height="11in" version="1.1" style="shape-rendering:geometricPrecision; text-rendering:geometricPrecision; image-rendering:optimizeQuality; fill-rule:evenodd; clip-rule:evenodd"
viewBox="0 0 8500 11000"
 xmlns:xlink="http://www.w3.org/1999/xlink">
 <defs>
  <style type="text/css">
   <![CDATA[
    .fil0 {fill:#009F9D}
   ]]>
  </style>
 </defs>
 <g id="Layer_x0020_1">
  <metadata id="CorelCorpID_0Corel-Layer"/>
  <path class="fil0" d="M3425 1932c-1309,136 -3114,958 -2106,1942 1057,1031 4030,1134 5499,287 1713,-987 -129,-2568 -3394,-2229z"/>
  <path class="fil0" d="M7465 3994l-122 115c-407,411 -541,527 -1212,747 -1120,368 -2761,360 -3871,-39 -445,-160 -1138,-542 -1188,-946 -149,1109 20,1475 777,1857 1239,625 3315,648 4618,91 938,-400 1008,-641 998,-1826z"/>
  <path class="fil0" d="M5471 9043c79,-94 77,-155 23,-257 -197,-372 -997,-1739 -1193,-1965 -432,545 -864,1294 -1217,1901 -283,530 425,362 903,364 348,1 1245,88 1484,-43zm-1236 -668l-169 -786 358 -2 -188 788zm9 68c90,0 162,73 162,162 0,90 -73,162 -162,162 -90,0 -162,-73 -162,-162 0,-90 73,-162 162,-162z"/>
  <path class="fil0" d="M3548 7647l609 -1021c-1258,-128 -2377,-176 -3101,-1215 -44,971 -51,1325 642,1722 446,255 1221,510 1849,514z"/>
  <path class="fil0" d="M4429 6615l579 1034c527,16 1395,-280 1784,-502 632,-362 759,-764 656,-1681 -387,384 -384,561 -1237,854 -530,182 -1152,259 -1781,296z"/>
  <path class="fil0" d="M2803 8999l527 -959c-463,-53 -1033,-217 -1401,-383 -317,-143 -878,-528 -851,-824 -104,570 -99,1163 307,1556 301,291 877,571 1418,610z"/>
  <path class="fil0" d="M5244 8037c111,255 380,729 563,955 368,-37 834,-260 1086,-424 666,-436 578,-746 567,-1614 -18,13 -35,15 -41,39 -38,159 -571,540 -908,692 -394,177 -814,266 -1266,353z"/>
 </g>
</svg>
