<svg width="27" height="31" viewBox="0 0 27 31" fill="none" xmlns="http://www.w3.org/2000/svg">
<path fill-rule="evenodd" clip-rule="evenodd" d="M8.76075 28.0991C6.26057 27.3627 3.64297 26.9912 1.10373 26.6508C0.556813 26.5795 0.0490404 26.9777 0.00997517 27.5386C-0.0681554 28.1 0.322726 28.6133 0.830575 28.6847C3.29169 29.0123 5.8307 29.3629 8.21368 30.0719C8.72153 30.2257 9.26867 29.9091 9.42493 29.3646C9.58119 28.8204 9.2686 28.2533 8.76075 28.0991Z" fill="#C1E3FF"/>
<path fill-rule="evenodd" clip-rule="evenodd" d="M16.3391 17.6579C12.3153 13.3478 7.78376 9.59258 3.83817 5.1669C3.48658 4.75357 2.86154 4.73143 2.47089 5.11729C2.08023 5.50355 2.04132 6.15307 2.43197 6.5664C6.37757 11.0048 10.9091 14.7723 14.9329 19.0951C15.3235 19.4986 15.9484 19.5043 16.3391 19.1074C16.6906 18.7109 16.7297 18.0613 16.3391 17.6579Z" fill="#C1E3FF"/>
<path fill-rule="evenodd" clip-rule="evenodd" d="M23.8789 1.08079C23.9961 3.54766 24.1131 6.01451 24.2303 8.48179C24.2303 9.04684 24.6993 9.48313 25.2462 9.45566C25.7931 9.42777 26.1836 8.94678 26.1836 8.38133C26.0664 5.91036 25.9494 3.43981 25.8322 0.969259C25.7931 0.40421 25.3243 -0.0292133 24.7774 0.00154049C24.2695 0.0322942 23.8399 0.516155 23.8789 1.08079Z" fill="#C1E3FF"/>
</svg>
