<svg width="57" height="53" viewBox="0 0 57 53" fill="none" xmlns="http://www.w3.org/2000/svg">
<path fill-rule="evenodd" clip-rule="evenodd" d="M11.3619 13.6669C13.641 10.402 15.4484 6.79008 17.1726 3.27657C17.5411 2.51886 17.2105 1.59022 16.4168 1.26164C15.6415 0.876275 14.7082 1.19362 14.3587 1.89473C12.6907 5.30122 10.9518 8.80943 8.76927 11.9178C8.30027 12.579 8.49357 13.5251 9.20667 14.0155C9.91918 14.5057 10.8923 14.3278 11.3619 13.6669Z" fill="#F3F9FE"/>
<path fill-rule="evenodd" clip-rule="evenodd" d="M22.8131 29.708C31.0079 25.9688 38.6452 21.2248 46.9696 17.6547C47.7389 17.3458 48.074 16.4511 47.7044 15.698C47.3343 14.9448 46.4122 14.5735 45.624 14.939C37.2812 18.5029 29.626 23.2409 21.4128 26.9741C20.6389 27.3444 20.3276 28.2468 20.7132 29.0052C21.1172 29.7068 22.0392 30.0783 22.8131 29.708Z" fill="#F3F9FE"/>
<path fill-rule="evenodd" clip-rule="evenodd" d="M43.1733 48.6695C39.5428 47.6432 35.9124 46.6165 32.2813 45.59C31.4628 45.3161 30.6033 45.784 30.3779 46.5896C30.1531 47.3954 30.6606 48.1942 31.4798 48.4684C35.1162 49.4967 38.752 50.5251 42.3878 51.5532C43.2253 51.7706 44.0806 51.3015 44.3012 50.4943C44.5029 49.7437 44.0102 48.8867 43.1733 48.6695Z" fill="#F3F9FE"/>
</svg>
