<svg width="106" height="93" viewBox="0 0 106 93" fill="none" xmlns="http://www.w3.org/2000/svg">
<g opacity="0.25">
<path opacity="0.5" d="M48.0806 25.7932C41.66 22.3683 33.6546 24.7423 30.2 31.0957C23.9449 42.5996 31.9977 60.3867 38.073 66.7658C46.7939 68.2794 66.2196 65.1502 72.4747 53.6463C75.9293 47.2929 73.5248 39.3659 67.1042 35.941C63.1724 33.8436 58.6461 33.9209 54.9347 35.755C54.4383 31.6763 52.0125 27.8906 48.0806 25.7932Z" fill="#C6DDFF"/>
<path opacity="0.5" d="M17.6578 66.6448C14.2542 64.8292 10.0106 66.0877 8.17933 69.4556C4.86354 75.5538 9.13231 84.9826 12.3528 88.3641C16.9757 89.1665 27.2731 87.5077 30.5889 81.4095C32.4202 78.0416 31.1456 73.8396 27.7421 72.024C25.6578 70.9122 23.2585 70.9532 21.2911 71.9254C21.0279 69.7634 19.742 67.7566 17.6578 66.6448Z" fill="#C6DDFF"/>
<path opacity="0.5" d="M94.0074 21.2405C90.6038 19.4249 86.3602 20.6834 84.5289 24.0513C81.2131 30.1495 85.4819 39.5783 88.7024 42.9598C93.3253 43.7622 103.623 42.1034 106.939 36.0052C108.77 32.6373 107.495 28.4353 104.092 26.6197C102.007 25.5079 99.6081 25.5489 97.6407 26.5212C97.3775 24.3591 96.0916 22.3523 94.0074 21.2405Z" fill="#C6DDFF"/>
<path opacity="0.5" d="M69.5011 1.49457C67.2843 0.312098 64.5204 1.13175 63.3277 3.32528C61.1681 7.29704 63.9484 13.4381 66.0459 15.6405C69.0568 16.163 75.7636 15.0827 77.9232 11.1109C79.1159 8.9174 78.2857 6.18058 76.069 4.99811C74.7115 4.27399 73.1488 4.30067 71.8675 4.93391C71.6961 3.52573 70.8585 2.21869 69.5011 1.49457Z" fill="#C6DDFF"/>
<path opacity="0.5" d="M90.3116 65.7422C88.3036 64.6711 85.7999 65.4135 84.7195 67.4005C82.7633 70.9983 85.2818 76.5612 87.1818 78.5562C89.9092 79.0296 95.9845 78.0509 97.9408 74.4531C99.0212 72.4661 98.2692 69.987 96.2612 68.9159C95.0315 68.2599 93.6159 68.2841 92.4552 68.8577C92.3 67.5821 91.5413 66.3981 90.3116 65.7422Z" fill="#C6DDFF"/>
<path opacity="0.5" d="M101.661 51.5888C100.399 50.9152 98.8242 51.3821 98.1448 52.6317C96.9145 54.8943 98.4983 58.3926 99.6932 59.6472C101.408 59.9449 105.229 59.3295 106.459 57.0669C107.139 55.8173 106.666 54.2583 105.403 53.5847C104.63 53.1722 103.739 53.1874 103.01 53.5481C102.912 52.7459 102.435 52.0013 101.661 51.5888Z" fill="#C6DDFF"/>
<path opacity="0.5" d="M98.2476 -2.67204C96.351 -3.68375 93.9862 -2.98246 92.9657 -1.10569C91.118 2.29252 93.4968 7.54674 95.2914 9.4311C97.8675 9.87821 103.606 8.95386 105.454 5.55565C106.474 3.67888 105.764 1.33728 103.867 0.325569C102.706 -0.293986 101.369 -0.271155 100.272 0.270636C100.126 -0.934192 99.4091 -2.05248 98.2476 -2.67204Z" fill="#C6DDFF"/>
</g>
</svg>
