<svg width="390" height="114" viewBox="0 0 390 114" fill="none" xmlns="http://www.w3.org/2000/svg">
<g filter="url(#filter0_d_1240_4715)">
<rect width="390" height="81" fill="#E15C47"/>
</g>
<mask id="mask0_1240_4715" style="mask-type:alpha" maskUnits="userSpaceOnUse" x="0" y="7" width="390" height="81">
<rect y="7" width="390" height="81" fill="url(#paint0_linear_1240_4715)"/>
</mask>
<g mask="url(#mask0_1240_4715)">
<g opacity="0.25">
<path opacity="0.5" d="M0.371742 12.1913C-4.04736 7.33674 -10.9049 7.67993 -14.945 12.9577C-22.2603 22.5141 -19.4542 41.5898 -15.9093 49.2043C-9.27043 52.7769 6.83612 54.4774 14.1514 44.921C18.1914 39.6432 17.8842 31.4292 13.4651 26.5747C10.7589 23.6019 7.13825 22.5782 3.81024 23.4434C4.24214 19.3968 3.07792 15.1641 0.371742 12.1913Z" fill="#C6DDFF"/>
<path opacity="0.5" d="M36.9236 18.5881C34.8948 16.3594 31.7465 16.517 29.8917 18.94C26.5334 23.3273 27.8216 32.0848 29.4491 35.5805C32.4969 37.2207 39.8913 38.0014 43.2497 33.6141C45.1045 31.1911 44.9634 27.4201 42.9346 25.1915C41.6922 23.8267 40.03 23.3567 38.5021 23.7539C38.7004 21.8961 38.1659 19.9529 36.9236 18.5881Z" fill="#C6DDFF"/>
<path opacity="0.5" d="M22.3593 -6.00335C20.8336 -7.67939 18.466 -7.5609 17.0712 -5.73872C14.5456 -2.43936 15.5144 4.14657 16.7383 6.7755C19.0304 8.00897 24.5912 8.59605 27.1168 5.29669C28.5116 3.47451 28.4056 0.638613 26.8799 -1.03742C25.9456 -2.06379 24.6955 -2.41721 23.5465 -2.11851C23.6956 -3.51562 23.2937 -4.97697 22.3593 -6.00335Z" fill="#C6DDFF"/>
<path opacity="0.5" d="M2.93259 62.4185C1.40688 60.7425 -0.960718 60.861 -2.35557 62.6832C-4.88118 65.9825 -3.91236 72.5684 -2.68848 75.1974C-0.396401 76.4308 5.16443 77.0179 7.69004 73.7186C9.08489 71.8964 8.97881 69.0605 7.45311 67.3845C6.51879 66.3581 5.26874 66.0047 4.11974 66.3034C4.26885 64.9063 3.8669 63.4449 2.93259 62.4185Z" fill="#C6DDFF"/>
<path opacity="0.5" d="M25.903 60.8926C24.5209 59.3743 22.3762 59.4817 21.1127 61.1323C18.8249 64.121 19.7025 70.0868 20.8111 72.4682C22.8874 73.5856 27.9247 74.1174 30.2125 71.1287C31.476 69.478 31.3799 66.9092 29.9979 65.3909C29.1515 64.4612 28.0192 64.141 26.9783 64.4116C27.1134 63.1461 26.7493 61.8223 25.903 60.8926Z" fill="#C6DDFF"/>
<path opacity="0.5" d="M37.814 50.0217C36.9448 49.067 35.5961 49.1345 34.8015 50.1725C33.3627 52.052 33.9146 55.8038 34.6118 57.3014C35.9176 58.0041 39.0854 58.3385 40.5241 56.459C41.3187 55.4209 41.2583 53.8054 40.3891 52.8507C39.8569 52.266 39.1448 52.0646 38.4902 52.2348C38.5752 51.4389 38.3462 50.6064 37.814 50.0217Z" fill="#C6DDFF"/>
<path opacity="0.5" d="M46.1001 -3.03924C44.7947 -4.47325 42.769 -4.37187 41.5756 -2.81283C39.4147 0.0100857 40.2436 5.64496 41.2907 7.89425C43.2518 8.9496 48.0096 9.4519 50.1705 6.62899C51.3639 5.06994 51.2732 2.64357 49.9678 1.20957C49.1684 0.331415 48.0989 0.0290286 47.1158 0.284596C47.2434 -0.910762 46.8995 -2.16108 46.1001 -3.03924Z" fill="#C6DDFF"/>
</g>
<g opacity="0.25">
<path opacity="0.5" d="M332.081 38.1828C325.66 34.0422 317.655 36.9123 314.2 44.5933C307.945 58.501 315.998 80.0047 322.073 87.7168C330.794 89.5467 350.22 85.7636 356.475 71.8559C359.929 64.1749 357.525 54.5915 351.104 50.4509C347.172 47.9153 342.646 48.0088 338.935 50.2261C338.438 45.2952 336.012 40.7184 332.081 38.1828Z" fill="#C6DDFF"/>
<path opacity="0.5" d="M301.658 87.5709C298.254 85.376 294.011 86.8974 292.179 90.9691C288.864 98.3415 293.132 109.741 296.353 113.829C300.976 114.799 311.273 112.793 314.589 105.421C316.42 101.349 315.146 96.2691 311.742 94.0742C309.658 92.7301 307.258 92.7796 305.291 93.955C305.028 91.3412 303.742 88.915 301.658 87.5709Z" fill="#C6DDFF"/>
<path opacity="0.5" d="M378.007 32.6783C374.604 30.4834 370.36 32.0049 368.529 36.0765C365.213 43.4489 369.482 54.848 372.702 58.9361C377.325 59.9061 387.623 57.9007 390.939 50.5283C392.77 46.4566 391.495 41.3765 388.092 39.1816C386.007 37.8375 383.608 37.887 381.641 39.0625C381.378 36.4486 380.092 34.0225 378.007 32.6783Z" fill="#C6DDFF"/>
<path opacity="0.5" d="M353.501 8.80719C351.284 7.37763 348.52 8.36855 347.328 11.0204C345.168 15.8221 347.948 23.2463 350.046 25.909C353.057 26.5407 359.764 25.2346 361.923 20.4329C363.116 17.7811 362.286 14.4724 360.069 13.0428C358.712 12.1674 357.149 12.1996 355.867 12.9652C355.696 11.2628 354.859 9.68262 353.501 8.80719Z" fill="#C6DDFF"/>
<path opacity="0.5" d="M374.312 86.4795C372.304 85.1845 369.8 86.0822 368.72 88.4844C366.763 92.8339 369.282 99.5592 371.182 101.971C373.909 102.543 379.985 101.36 381.941 97.0106C383.021 94.6084 382.269 91.6113 380.261 90.3163C379.032 89.5233 377.616 89.5525 376.455 90.246C376.3 88.7039 375.541 87.2725 374.312 86.4795Z" fill="#C6DDFF"/>
<path opacity="0.5" d="M385.661 69.3681C384.399 68.5537 382.824 69.1182 382.145 70.6289C380.915 73.3642 382.498 77.5936 383.693 79.1103C385.408 79.4702 389.229 78.7262 390.459 75.9909C391.139 74.4802 390.666 72.5953 389.403 71.781C388.63 71.2823 387.739 71.3006 387.01 71.7368C386.912 70.7669 386.435 69.8668 385.661 69.3681Z" fill="#C6DDFF"/>
<path opacity="0.5" d="M382.248 3.76934C380.351 2.54622 377.986 3.39404 376.966 5.66297C375.118 9.77126 377.497 16.1234 379.291 18.4015C381.868 18.942 387.606 17.8245 389.454 13.7162C390.474 11.4473 389.764 8.61642 387.867 7.39331C386.706 6.64429 385.369 6.67189 384.272 7.32689C384.126 5.87031 383.409 4.51835 382.248 3.76934Z" fill="#C6DDFF"/>
</g>
</g>
<path d="M69.1349 55.6637L71.4929 55.1777C72.5969 56.3057 73.5689 57.3137 74.4089 58.2017C75.2489 59.0777 75.9389 59.7797 76.4789 60.3077C76.4789 60.6917 76.3529 60.9977 76.1009 61.2257C75.8609 61.4417 75.5789 61.5497 75.2549 61.5497C74.9069 61.5497 74.6129 61.4597 74.3729 61.2797C74.1449 61.0997 73.9169 60.8897 73.6889 60.6497L69.1349 55.6637ZM71.6009 56.4557L68.8649 56.4377L74.4269 50.3717C74.9789 50.3837 75.3809 50.4977 75.6329 50.7137C75.8849 50.9297 76.0109 51.1937 76.0109 51.5057C76.0109 51.7337 75.9509 51.9497 75.8309 52.1537C75.7229 52.3577 75.5429 52.5797 75.2909 52.8197L71.6009 56.4557ZM67.7669 54.1337H70.0529V61.3697C69.9569 61.3937 69.8069 61.4237 69.6029 61.4597C69.4109 61.4957 69.2069 61.5137 68.9909 61.5137C68.5589 61.5137 68.2469 61.4357 68.0549 61.2797C67.8629 61.1117 67.7669 60.8357 67.7669 60.4517V54.1337ZM70.0529 56.7617H67.7669V50.4617C67.8749 50.4377 68.0249 50.4077 68.2169 50.3717C68.4209 50.3357 68.6249 50.3177 68.8289 50.3177C69.2609 50.3177 69.5729 50.3957 69.7649 50.5517C69.9569 50.6957 70.0529 50.9717 70.0529 51.3797V56.7617ZM78.7353 58.2557L78.6453 56.7077L83.4693 55.9877C83.4333 55.5317 83.2593 55.1357 82.9473 54.7997C82.6353 54.4637 82.1793 54.2957 81.5793 54.2957C80.9673 54.2957 80.4573 54.5117 80.0493 54.9437C79.6413 55.3637 79.4313 55.9697 79.4193 56.7617L79.4733 57.6977C79.5813 58.4657 79.8753 59.0297 80.3553 59.3897C80.8473 59.7497 81.4653 59.9297 82.2093 59.9297C82.7133 59.9297 83.1813 59.8577 83.6133 59.7137C84.0453 59.5577 84.3873 59.3897 84.6393 59.2097C84.8073 59.3177 84.9393 59.4557 85.0353 59.6237C85.1433 59.7797 85.1973 59.9537 85.1973 60.1457C85.1973 60.4577 85.0593 60.7277 84.7833 60.9557C84.5073 61.1717 84.1353 61.3397 83.6673 61.4597C83.1993 61.5797 82.6653 61.6397 82.0653 61.6397C81.1413 61.6397 80.3193 61.4717 79.5993 61.1357C78.8913 60.7877 78.3333 60.2717 77.9253 59.5877C77.5293 58.9037 77.3313 58.0517 77.3313 57.0317C77.3313 56.2997 77.4453 55.6577 77.6733 55.1057C77.9013 54.5537 78.2073 54.0977 78.5913 53.7377C78.9873 53.3657 79.4433 53.0897 79.9593 52.9097C80.4753 52.7177 81.0153 52.6217 81.5793 52.6217C82.3713 52.6217 83.0613 52.7837 83.6493 53.1077C84.2493 53.4197 84.7173 53.8577 85.0533 54.4217C85.4013 54.9857 85.5753 55.6337 85.5753 56.3657C85.5753 56.7017 85.4853 56.9537 85.3053 57.1217C85.1373 57.2777 84.8973 57.3737 84.5853 57.4097L78.7353 58.2557ZM88.333 58.2557L88.243 56.7077L93.067 55.9877C93.031 55.5317 92.857 55.1357 92.545 54.7997C92.233 54.4637 91.777 54.2957 91.177 54.2957C90.565 54.2957 90.055 54.5117 89.647 54.9437C89.239 55.3637 89.029 55.9697 89.017 56.7617L89.071 57.6977C89.179 58.4657 89.473 59.0297 89.953 59.3897C90.445 59.7497 91.063 59.9297 91.807 59.9297C92.311 59.9297 92.779 59.8577 93.211 59.7137C93.643 59.5577 93.985 59.3897 94.237 59.2097C94.405 59.3177 94.537 59.4557 94.633 59.6237C94.741 59.7797 94.795 59.9537 94.795 60.1457C94.795 60.4577 94.657 60.7277 94.381 60.9557C94.105 61.1717 93.733 61.3397 93.265 61.4597C92.797 61.5797 92.263 61.6397 91.663 61.6397C90.739 61.6397 89.917 61.4717 89.197 61.1357C88.489 60.7877 87.931 60.2717 87.523 59.5877C87.127 58.9037 86.929 58.0517 86.929 57.0317C86.929 56.2997 87.043 55.6577 87.271 55.1057C87.499 54.5537 87.805 54.0977 88.189 53.7377C88.585 53.3657 89.041 53.0897 89.557 52.9097C90.073 52.7177 90.613 52.6217 91.177 52.6217C91.969 52.6217 92.659 52.7837 93.247 53.1077C93.847 53.4197 94.315 53.8577 94.651 54.4217C94.999 54.9857 95.173 55.6337 95.173 56.3657C95.173 56.7017 95.083 56.9537 94.903 57.1217C94.735 57.2777 94.495 57.3737 94.183 57.4097L88.333 58.2557ZM100.973 61.6397C100.493 61.6397 100.055 61.5737 99.6586 61.4417C99.2746 61.3217 98.9566 61.1837 98.7046 61.0277V59.1197C98.9326 59.3117 99.2026 59.4857 99.5146 59.6417C99.8386 59.7857 100.217 59.8577 100.649 59.8577C101.369 59.8577 101.939 59.6357 102.359 59.1917C102.779 58.7357 102.989 58.0337 102.989 57.0857C102.989 56.4257 102.887 55.9037 102.683 55.5197C102.491 55.1237 102.221 54.8357 101.873 54.6557C101.525 54.4757 101.135 54.3857 100.703 54.3857C100.367 54.3857 100.073 54.4277 99.8206 54.5117C99.5686 54.5837 99.3526 54.6737 99.1726 54.7817V60.4697H96.9586V54.5657C96.9586 54.2897 97.0126 54.0617 97.1206 53.8817C97.2286 53.7017 97.4086 53.5337 97.6606 53.3777C98.0086 53.1737 98.4406 52.9997 98.9566 52.8557C99.4726 52.6997 100.055 52.6217 100.703 52.6217C101.579 52.6217 102.359 52.7777 103.043 53.0897C103.727 53.3897 104.261 53.8697 104.645 54.5297C105.041 55.1897 105.239 56.0417 105.239 57.0857C105.239 58.0937 105.053 58.9337 104.681 59.6057C104.321 60.2777 103.817 60.7877 103.169 61.1357C102.533 61.4717 101.801 61.6397 100.973 61.6397ZM99.1726 59.8577V64.6097C99.0766 64.6457 98.9386 64.6757 98.7586 64.6997C98.5786 64.7357 98.3806 64.7537 98.1646 64.7537C97.7566 64.7537 97.4506 64.6757 97.2466 64.5197C97.0546 64.3637 96.9586 64.0937 96.9586 63.7097V59.8397L99.1726 59.8577ZM110.632 50.3357C110.632 49.9877 110.752 49.6937 110.992 49.4537C111.244 49.2137 111.556 49.0937 111.928 49.0937C112.312 49.0937 112.618 49.2137 112.846 49.4537C113.086 49.6937 113.206 49.9877 113.206 50.3357C113.206 50.6717 113.086 50.9657 112.846 51.2177C112.618 51.4577 112.312 51.5777 111.928 51.5777C111.556 51.5777 111.244 51.4577 110.992 51.2177C110.752 50.9657 110.632 50.6717 110.632 50.3357ZM110.812 56.6357H113.044V61.3517C112.948 61.3877 112.81 61.4177 112.63 61.4417C112.45 61.4777 112.252 61.4957 112.036 61.4957C111.628 61.4957 111.322 61.4237 111.118 61.2797C110.914 61.1237 110.812 60.8537 110.812 60.4697V56.6357ZM113.044 57.7697H110.812V52.9457C110.908 52.9097 111.046 52.8797 111.226 52.8557C111.418 52.8197 111.622 52.8017 111.838 52.8017C112.258 52.8017 112.564 52.8797 112.756 53.0357C112.948 53.1797 113.044 53.4497 113.044 53.8457V57.7697ZM115.451 56.6357H117.665V58.7597C117.665 59.1557 117.779 59.4377 118.007 59.6057C118.247 59.7737 118.583 59.8577 119.015 59.8577C119.207 59.8577 119.411 59.8337 119.627 59.7857C119.855 59.7377 120.047 59.6777 120.203 59.6057C120.287 59.7017 120.365 59.8157 120.437 59.9477C120.509 60.0797 120.545 60.2417 120.545 60.4337C120.545 60.7817 120.377 61.0697 120.041 61.2977C119.717 61.5257 119.207 61.6397 118.511 61.6397C117.563 61.6397 116.813 61.4297 116.261 61.0097C115.721 60.5777 115.451 59.8817 115.451 58.9217V56.6357ZM116.801 54.7997V53.0537H120.329C120.377 53.1377 120.425 53.2577 120.473 53.4137C120.533 53.5697 120.563 53.7317 120.563 53.8997C120.563 54.1997 120.491 54.4277 120.347 54.5837C120.203 54.7277 120.017 54.7997 119.789 54.7997H116.801ZM117.665 57.1217H115.451V50.6417C115.547 50.6057 115.685 50.5697 115.865 50.5337C116.057 50.4977 116.255 50.4797 116.459 50.4797C116.879 50.4797 117.185 50.5577 117.377 50.7137C117.569 50.8577 117.665 51.1217 117.665 51.5057V57.1217ZM130.319 54.4037C129.599 54.4037 128.993 54.6377 128.501 55.1057C128.021 55.5737 127.781 56.2577 127.781 57.1577C127.781 58.0457 128.015 58.7177 128.483 59.1737C128.951 59.6297 129.557 59.8577 130.301 59.8577C130.745 59.8577 131.117 59.8037 131.417 59.6957C131.729 59.5757 131.999 59.4497 132.227 59.3177C132.407 59.4257 132.545 59.5577 132.641 59.7137C132.749 59.8577 132.803 60.0377 132.803 60.2537C132.803 60.6617 132.557 60.9977 132.065 61.2617C131.573 61.5137 130.925 61.6397 130.121 61.6397C129.209 61.6397 128.405 61.4777 127.709 61.1537C127.025 60.8177 126.485 60.3137 126.089 59.6417C125.705 58.9697 125.513 58.1417 125.513 57.1577C125.513 56.1377 125.717 55.2917 126.125 54.6197C126.545 53.9477 127.097 53.4497 127.781 53.1257C128.477 52.7897 129.239 52.6217 130.067 52.6217C130.859 52.6217 131.495 52.7597 131.975 53.0357C132.455 53.3117 132.695 53.6537 132.695 54.0617C132.695 54.2417 132.647 54.4097 132.551 54.5657C132.455 54.7217 132.341 54.8477 132.209 54.9437C131.969 54.7997 131.699 54.6737 131.399 54.5657C131.099 54.4577 130.739 54.4037 130.319 54.4037ZM134.772 56.6357L136.986 56.7437V61.3517C136.89 61.3877 136.752 61.4177 136.572 61.4417C136.392 61.4777 136.194 61.4957 135.978 61.4957C135.57 61.4957 135.264 61.4237 135.06 61.2797C134.868 61.1237 134.772 60.8537 134.772 60.4697V56.6357ZM136.986 57.8777L134.772 57.7697V49.6877C134.856 49.6637 134.988 49.6337 135.168 49.5977C135.36 49.5617 135.558 49.5437 135.762 49.5437C136.194 49.5437 136.506 49.6217 136.698 49.7777C136.89 49.9217 136.986 50.1857 136.986 50.5697V57.8777ZM140.364 58.2557L140.274 56.7077L145.098 55.9877C145.062 55.5317 144.888 55.1357 144.576 54.7997C144.264 54.4637 143.808 54.2957 143.208 54.2957C142.596 54.2957 142.086 54.5117 141.678 54.9437C141.27 55.3637 141.06 55.9697 141.048 56.7617L141.102 57.6977C141.21 58.4657 141.504 59.0297 141.984 59.3897C142.476 59.7497 143.094 59.9297 143.838 59.9297C144.342 59.9297 144.81 59.8577 145.242 59.7137C145.674 59.5577 146.016 59.3897 146.268 59.2097C146.436 59.3177 146.568 59.4557 146.664 59.6237C146.772 59.7797 146.826 59.9537 146.826 60.1457C146.826 60.4577 146.688 60.7277 146.412 60.9557C146.136 61.1717 145.764 61.3397 145.296 61.4597C144.828 61.5797 144.294 61.6397 143.694 61.6397C142.77 61.6397 141.948 61.4717 141.228 61.1357C140.52 60.7877 139.962 60.2717 139.554 59.5877C139.158 58.9037 138.96 58.0517 138.96 57.0317C138.96 56.2997 139.074 55.6577 139.302 55.1057C139.53 54.5537 139.836 54.0977 140.22 53.7377C140.616 53.3657 141.072 53.0897 141.588 52.9097C142.104 52.7177 142.644 52.6217 143.208 52.6217C144 52.6217 144.69 52.7837 145.278 53.1077C145.878 53.4197 146.346 53.8577 146.682 54.4217C147.03 54.9857 147.204 55.6337 147.204 56.3657C147.204 56.7017 147.114 56.9537 146.934 57.1217C146.766 57.2777 146.526 57.3737 146.214 57.4097L140.364 58.2557ZM152.338 59.9657C152.698 59.9657 153.022 59.9297 153.31 59.8577C153.598 59.7857 153.808 59.7077 153.94 59.6237V57.5717L152.158 57.7517C151.666 57.7877 151.288 57.8957 151.024 58.0757C150.772 58.2437 150.646 58.4957 150.646 58.8317C150.646 59.1797 150.784 59.4557 151.06 59.6597C151.336 59.8637 151.762 59.9657 152.338 59.9657ZM152.248 52.6217C153.424 52.6217 154.36 52.8737 155.056 53.3777C155.752 53.8697 156.1 54.6497 156.1 55.7177V59.8577C156.1 60.1457 156.028 60.3737 155.884 60.5417C155.752 60.7097 155.578 60.8597 155.362 60.9917C155.026 61.1837 154.6 61.3397 154.084 61.4597C153.568 61.5917 152.986 61.6577 152.338 61.6577C151.138 61.6577 150.196 61.4297 149.512 60.9737C148.828 60.5057 148.486 59.8157 148.486 58.9037C148.486 58.0997 148.738 57.4877 149.242 57.0677C149.758 56.6357 150.502 56.3717 151.474 56.2757L153.922 56.0237V55.6997C153.922 55.2197 153.754 54.8717 153.418 54.6557C153.094 54.4397 152.632 54.3317 152.032 54.3317C151.564 54.3317 151.108 54.3917 150.664 54.5117C150.22 54.6317 149.824 54.7757 149.476 54.9437C149.356 54.8477 149.248 54.7157 149.152 54.5477C149.056 54.3797 149.008 54.2057 149.008 54.0257C149.008 53.5937 149.248 53.2757 149.728 53.0717C150.064 52.9157 150.454 52.8017 150.898 52.7297C151.354 52.6577 151.804 52.6217 152.248 52.6217ZM166.243 55.8257V57.5717H164.029V55.9157C164.029 55.3877 163.879 55.0037 163.579 54.7637C163.279 54.5117 162.877 54.3857 162.373 54.3857C162.001 54.3857 161.665 54.4337 161.365 54.5297C161.077 54.6137 160.819 54.7157 160.591 54.8357V57.5717H158.377V54.6917C158.377 54.4037 158.437 54.1697 158.557 53.9897C158.677 53.7977 158.857 53.6237 159.097 53.4677C159.457 53.2277 159.919 53.0297 160.483 52.8737C161.059 52.7057 161.695 52.6217 162.391 52.6217C163.603 52.6217 164.545 52.8917 165.217 53.4317C165.901 53.9717 166.243 54.7697 166.243 55.8257ZM158.377 56.6897H160.591V61.3517C160.495 61.3877 160.357 61.4177 160.177 61.4417C159.997 61.4777 159.799 61.4957 159.583 61.4957C159.175 61.4957 158.869 61.4237 158.665 61.2797C158.473 61.1237 158.377 60.8537 158.377 60.4697V56.6897ZM164.029 56.6897H166.243V61.3517C166.159 61.3877 166.021 61.4177 165.829 61.4417C165.649 61.4777 165.457 61.4957 165.253 61.4957C164.833 61.4957 164.521 61.4237 164.317 61.2797C164.125 61.1237 164.029 60.8537 164.029 60.4697V56.6897ZM167.762 60.2897C167.762 59.9057 167.882 59.5817 168.122 59.3177C168.362 59.0537 168.692 58.9217 169.112 58.9217C169.532 58.9217 169.862 59.0537 170.102 59.3177C170.342 59.5817 170.462 59.9057 170.462 60.2897C170.462 60.6737 170.342 60.9977 170.102 61.2617C169.862 61.5257 169.532 61.6577 169.112 61.6577C168.692 61.6577 168.362 61.5257 168.122 61.2617C167.882 60.9977 167.762 60.6737 167.762 60.2897ZM175.802 52.8917L177.836 52.8377C177.884 53.2937 177.92 53.7737 177.944 54.2777C177.98 54.7817 177.998 55.2797 177.998 55.7717C178.01 56.2637 178.016 56.7377 178.016 57.1937V61.3697C177.932 61.3937 177.788 61.4177 177.584 61.4417C177.392 61.4777 177.2 61.4957 177.008 61.4957C176.576 61.4957 176.264 61.4237 176.072 61.2797C175.892 61.1237 175.802 60.8537 175.802 60.4697V52.8917ZM185.072 58.9217L183.02 58.9757C182.924 58.0517 182.87 57.1517 182.858 56.2757C182.846 55.3877 182.84 54.5297 182.84 53.7017V50.4617C182.948 50.4377 183.092 50.4077 183.272 50.3717C183.464 50.3357 183.668 50.3177 183.884 50.3177C184.304 50.3177 184.604 50.3957 184.784 50.5517C184.976 50.7077 185.072 50.9717 185.072 51.3437V58.9217ZM185.072 58.1837V61.0997C184.928 61.2197 184.736 61.3157 184.496 61.3877C184.256 61.4717 183.98 61.5137 183.668 61.5137C183.296 61.5137 182.96 61.4537 182.66 61.3337C182.372 61.2137 182.126 60.9497 181.922 60.5417L179.276 55.8077C179.132 55.5197 178.976 55.2197 178.808 54.9077C178.652 54.5957 178.502 54.2897 178.358 53.9897C178.214 53.6897 178.082 53.4137 177.962 53.1617L175.802 53.6657V50.8397C175.934 50.6717 176.126 50.5457 176.378 50.4617C176.642 50.3777 176.924 50.3357 177.224 50.3357C177.584 50.3357 177.914 50.3957 178.214 50.5157C178.514 50.6357 178.766 50.8937 178.97 51.2897L181.616 56.0237C181.772 56.3117 181.928 56.6117 182.084 56.9237C182.252 57.2357 182.402 57.5417 182.534 57.8417C182.678 58.1417 182.804 58.4177 182.912 58.6697L185.072 58.1837ZM195.961 57.1217C195.961 58.0457 195.781 58.8497 195.421 59.5337C195.061 60.2057 194.551 60.7277 193.891 61.0997C193.243 61.4597 192.475 61.6397 191.587 61.6397C190.699 61.6397 189.925 61.4597 189.265 61.0997C188.605 60.7277 188.089 60.2057 187.717 59.5337C187.357 58.8617 187.177 58.0577 187.177 57.1217C187.177 56.1977 187.363 55.3997 187.735 54.7277C188.107 54.0557 188.623 53.5397 189.283 53.1797C189.943 52.8077 190.711 52.6217 191.587 52.6217C192.463 52.6217 193.225 52.8077 193.873 53.1797C194.533 53.5397 195.043 54.0617 195.403 54.7457C195.775 55.4177 195.961 56.2097 195.961 57.1217ZM191.587 54.3857C190.927 54.3857 190.405 54.6257 190.021 55.1057C189.649 55.5857 189.463 56.2577 189.463 57.1217C189.463 58.0097 189.649 58.6937 190.021 59.1737C190.393 59.6417 190.915 59.8757 191.587 59.8757C192.247 59.8757 192.763 59.6357 193.135 59.1557C193.507 58.6757 193.693 57.9977 193.693 57.1217C193.693 56.2697 193.507 55.6037 193.135 55.1237C192.763 54.6317 192.247 54.3857 191.587 54.3857ZM202.433 58.2557L202.343 56.7077L207.167 55.9877C207.131 55.5317 206.957 55.1357 206.645 54.7997C206.333 54.4637 205.877 54.2957 205.277 54.2957C204.665 54.2957 204.155 54.5117 203.747 54.9437C203.339 55.3637 203.129 55.9697 203.117 56.7617L203.171 57.6977C203.279 58.4657 203.573 59.0297 204.053 59.3897C204.545 59.7497 205.163 59.9297 205.907 59.9297C206.411 59.9297 206.879 59.8577 207.311 59.7137C207.743 59.5577 208.085 59.3897 208.337 59.2097C208.505 59.3177 208.637 59.4557 208.733 59.6237C208.841 59.7797 208.895 59.9537 208.895 60.1457C208.895 60.4577 208.757 60.7277 208.481 60.9557C208.205 61.1717 207.833 61.3397 207.365 61.4597C206.897 61.5797 206.363 61.6397 205.763 61.6397C204.839 61.6397 204.017 61.4717 203.297 61.1357C202.589 60.7877 202.031 60.2717 201.623 59.5877C201.227 58.9037 201.029 58.0517 201.029 57.0317C201.029 56.2997 201.143 55.6577 201.371 55.1057C201.599 54.5537 201.905 54.0977 202.289 53.7377C202.685 53.3657 203.141 53.0897 203.657 52.9097C204.173 52.7177 204.713 52.6217 205.277 52.6217C206.069 52.6217 206.759 52.7837 207.347 53.1077C207.947 53.4197 208.415 53.8577 208.751 54.4217C209.099 54.9857 209.273 55.6337 209.273 56.3657C209.273 56.7017 209.183 56.9537 209.003 57.1217C208.835 57.2777 208.595 57.3737 208.283 57.4097L202.433 58.2557ZM213.74 56.2577L214.136 56.1857C214.592 55.5977 215.024 55.0337 215.432 54.4937C215.852 53.9417 216.284 53.3597 216.728 52.7477C216.776 52.7357 216.818 52.7297 216.854 52.7297C216.89 52.7297 216.926 52.7297 216.962 52.7297C217.37 52.7297 217.688 52.8197 217.916 52.9997C218.156 53.1797 218.276 53.4077 218.276 53.6837C218.276 53.8997 218.222 54.0977 218.114 54.2777C218.018 54.4577 217.844 54.6977 217.592 54.9977C217.232 55.4177 216.866 55.8437 216.494 56.2757C216.134 56.6957 215.78 57.1157 215.432 57.5357L214.748 57.9137C214.328 58.5017 213.896 59.1017 213.452 59.7137C213.02 60.3137 212.594 60.9077 212.174 61.4957C212.126 61.4957 212.072 61.4957 212.012 61.4957C211.964 61.5077 211.916 61.5137 211.868 61.5137C211.436 61.5137 211.106 61.4237 210.878 61.2437C210.65 61.0517 210.536 60.8237 210.536 60.5597C210.536 60.3677 210.578 60.1937 210.662 60.0377C210.746 59.8697 210.914 59.6417 211.166 59.3537C211.574 58.8377 211.994 58.3277 212.426 57.8237C212.87 57.3077 213.308 56.7857 213.74 56.2577ZM215.054 56.4197L215.558 56.7077C216.026 57.3317 216.5 57.9557 216.98 58.5797C217.472 59.2037 217.952 59.8277 218.42 60.4517C218.384 60.7877 218.258 61.0517 218.042 61.2437C217.826 61.4357 217.562 61.5317 217.25 61.5317C216.938 61.5317 216.68 61.4477 216.476 61.2797C216.284 61.0997 216.08 60.8657 215.864 60.5777C215.54 60.1217 215.204 59.6477 214.856 59.1557C214.52 58.6637 214.19 58.1957 213.866 57.7517L213.434 57.4097C212.918 56.8097 212.42 56.2217 211.94 55.6457C211.472 55.0577 210.998 54.4697 210.518 53.8817C210.59 53.5337 210.728 53.2577 210.932 53.0537C211.136 52.8377 211.388 52.7297 211.688 52.7297C211.988 52.7297 212.216 52.8077 212.372 52.9637C212.54 53.1077 212.72 53.3057 212.912 53.5577C213.248 54.0017 213.59 54.4697 213.938 54.9617C214.298 55.4537 214.67 55.9397 215.054 56.4197ZM224.107 61.6397C223.627 61.6397 223.189 61.5737 222.793 61.4417C222.409 61.3217 222.091 61.1837 221.839 61.0277V59.1197C222.067 59.3117 222.337 59.4857 222.649 59.6417C222.973 59.7857 223.351 59.8577 223.783 59.8577C224.503 59.8577 225.073 59.6357 225.493 59.1917C225.913 58.7357 226.123 58.0337 226.123 57.0857C226.123 56.4257 226.021 55.9037 225.817 55.5197C225.625 55.1237 225.355 54.8357 225.007 54.6557C224.659 54.4757 224.269 54.3857 223.837 54.3857C223.501 54.3857 223.207 54.4277 222.955 54.5117C222.703 54.5837 222.487 54.6737 222.307 54.7817V60.4697H220.093V54.5657C220.093 54.2897 220.147 54.0617 220.255 53.8817C220.363 53.7017 220.543 53.5337 220.795 53.3777C221.143 53.1737 221.575 52.9997 222.091 52.8557C222.607 52.6997 223.189 52.6217 223.837 52.6217C224.713 52.6217 225.493 52.7777 226.177 53.0897C226.861 53.3897 227.395 53.8697 227.779 54.5297C228.175 55.1897 228.373 56.0417 228.373 57.0857C228.373 58.0937 228.187 58.9337 227.815 59.6057C227.455 60.2777 226.951 60.7877 226.303 61.1357C225.667 61.4717 224.935 61.6397 224.107 61.6397ZM222.307 59.8577V64.6097C222.211 64.6457 222.073 64.6757 221.893 64.6997C221.713 64.7357 221.515 64.7537 221.299 64.7537C220.891 64.7537 220.585 64.6757 220.381 64.5197C220.189 64.3637 220.093 64.0937 220.093 63.7097V59.8397L222.307 59.8577ZM230.397 56.6357L232.611 56.7437V61.3517C232.515 61.3877 232.377 61.4177 232.197 61.4417C232.017 61.4777 231.819 61.4957 231.603 61.4957C231.195 61.4957 230.889 61.4237 230.685 61.2797C230.493 61.1237 230.397 60.8537 230.397 60.4697V56.6357ZM232.611 57.8777L230.397 57.7697V49.6877C230.481 49.6637 230.613 49.6337 230.793 49.5977C230.985 49.5617 231.183 49.5437 231.387 49.5437C231.819 49.5437 232.131 49.6217 232.323 49.7777C232.515 49.9217 232.611 50.1857 232.611 50.5697V57.8777ZM234.927 50.3357C234.927 49.9877 235.047 49.6937 235.287 49.4537C235.539 49.2137 235.851 49.0937 236.223 49.0937C236.607 49.0937 236.913 49.2137 237.141 49.4537C237.381 49.6937 237.501 49.9877 237.501 50.3357C237.501 50.6717 237.381 50.9657 237.141 51.2177C236.913 51.4577 236.607 51.5777 236.223 51.5777C235.851 51.5777 235.539 51.4577 235.287 51.2177C235.047 50.9657 234.927 50.6717 234.927 50.3357ZM235.107 56.6357H237.339V61.3517C237.243 61.3877 237.105 61.4177 236.925 61.4417C236.745 61.4777 236.547 61.4957 236.331 61.4957C235.923 61.4957 235.617 61.4237 235.413 61.2797C235.209 61.1237 235.107 60.8537 235.107 60.4697V56.6357ZM237.339 57.7697H235.107V52.9457C235.203 52.9097 235.341 52.8797 235.521 52.8557C235.713 52.8197 235.917 52.8017 236.133 52.8017C236.553 52.8017 236.859 52.8797 237.051 53.0357C237.243 53.1797 237.339 53.4497 237.339 53.8457V57.7697ZM244.102 54.4037C243.382 54.4037 242.776 54.6377 242.284 55.1057C241.804 55.5737 241.564 56.2577 241.564 57.1577C241.564 58.0457 241.798 58.7177 242.266 59.1737C242.734 59.6297 243.34 59.8577 244.084 59.8577C244.528 59.8577 244.9 59.8037 245.2 59.6957C245.512 59.5757 245.782 59.4497 246.01 59.3177C246.19 59.4257 246.328 59.5577 246.424 59.7137C246.532 59.8577 246.586 60.0377 246.586 60.2537C246.586 60.6617 246.34 60.9977 245.848 61.2617C245.356 61.5137 244.708 61.6397 243.904 61.6397C242.992 61.6397 242.188 61.4777 241.492 61.1537C240.808 60.8177 240.268 60.3137 239.872 59.6417C239.488 58.9697 239.296 58.1417 239.296 57.1577C239.296 56.1377 239.5 55.2917 239.908 54.6197C240.328 53.9477 240.88 53.4497 241.564 53.1257C242.26 52.7897 243.022 52.6217 243.85 52.6217C244.642 52.6217 245.278 52.7597 245.758 53.0357C246.238 53.3117 246.478 53.6537 246.478 54.0617C246.478 54.2417 246.43 54.4097 246.334 54.5657C246.238 54.7217 246.124 54.8477 245.992 54.9437C245.752 54.7997 245.482 54.6737 245.182 54.5657C244.882 54.4577 244.522 54.4037 244.102 54.4037ZM248.447 56.6357H250.661V58.7597C250.661 59.1557 250.775 59.4377 251.003 59.6057C251.243 59.7737 251.579 59.8577 252.011 59.8577C252.203 59.8577 252.407 59.8337 252.623 59.7857C252.851 59.7377 253.043 59.6777 253.199 59.6057C253.283 59.7017 253.361 59.8157 253.433 59.9477C253.505 60.0797 253.541 60.2417 253.541 60.4337C253.541 60.7817 253.373 61.0697 253.037 61.2977C252.713 61.5257 252.203 61.6397 251.507 61.6397C250.559 61.6397 249.809 61.4297 249.257 61.0097C248.717 60.5777 248.447 59.8817 248.447 58.9217V56.6357ZM249.797 54.7997V53.0537H253.325C253.373 53.1377 253.421 53.2577 253.469 53.4137C253.529 53.5697 253.559 53.7317 253.559 53.8997C253.559 54.1997 253.487 54.4277 253.343 54.5837C253.199 54.7277 253.013 54.7997 252.785 54.7997H249.797ZM250.661 57.1217H248.447V50.6417C248.543 50.6057 248.681 50.5697 248.861 50.5337C249.053 50.4977 249.251 50.4797 249.455 50.4797C249.875 50.4797 250.181 50.5577 250.373 50.7137C250.565 50.8577 250.661 51.1217 250.661 51.5057V57.1217ZM263.315 54.4037C262.595 54.4037 261.989 54.6377 261.497 55.1057C261.017 55.5737 260.777 56.2577 260.777 57.1577C260.777 58.0457 261.011 58.7177 261.479 59.1737C261.947 59.6297 262.553 59.8577 263.297 59.8577C263.741 59.8577 264.113 59.8037 264.413 59.6957C264.725 59.5757 264.995 59.4497 265.223 59.3177C265.403 59.4257 265.541 59.5577 265.637 59.7137C265.745 59.8577 265.799 60.0377 265.799 60.2537C265.799 60.6617 265.553 60.9977 265.061 61.2617C264.569 61.5137 263.921 61.6397 263.117 61.6397C262.205 61.6397 261.401 61.4777 260.705 61.1537C260.021 60.8177 259.481 60.3137 259.085 59.6417C258.701 58.9697 258.509 58.1417 258.509 57.1577C258.509 56.1377 258.713 55.2917 259.121 54.6197C259.541 53.9477 260.093 53.4497 260.777 53.1257C261.473 52.7897 262.235 52.6217 263.063 52.6217C263.855 52.6217 264.491 52.7597 264.971 53.0357C265.451 53.3117 265.691 53.6537 265.691 54.0617C265.691 54.2417 265.643 54.4097 265.547 54.5657C265.451 54.7217 265.337 54.8477 265.205 54.9437C264.965 54.7997 264.695 54.6737 264.395 54.5657C264.095 54.4577 263.735 54.4037 263.315 54.4037ZM275.766 57.1217C275.766 58.0457 275.586 58.8497 275.226 59.5337C274.866 60.2057 274.356 60.7277 273.696 61.0997C273.048 61.4597 272.28 61.6397 271.392 61.6397C270.504 61.6397 269.73 61.4597 269.07 61.0997C268.41 60.7277 267.894 60.2057 267.522 59.5337C267.162 58.8617 266.982 58.0577 266.982 57.1217C266.982 56.1977 267.168 55.3997 267.54 54.7277C267.912 54.0557 268.428 53.5397 269.088 53.1797C269.748 52.8077 270.516 52.6217 271.392 52.6217C272.268 52.6217 273.03 52.8077 273.678 53.1797C274.338 53.5397 274.848 54.0617 275.208 54.7457C275.58 55.4177 275.766 56.2097 275.766 57.1217ZM271.392 54.3857C270.732 54.3857 270.21 54.6257 269.826 55.1057C269.454 55.5857 269.268 56.2577 269.268 57.1217C269.268 58.0097 269.454 58.6937 269.826 59.1737C270.198 59.6417 270.72 59.8757 271.392 59.8757C272.052 59.8757 272.568 59.6357 272.94 59.1557C273.312 58.6757 273.498 57.9977 273.498 57.1217C273.498 56.2697 273.312 55.6037 272.94 55.1237C272.568 54.6317 272.052 54.3857 271.392 54.3857ZM285.528 55.8257V57.5717H283.314V55.9157C283.314 55.3877 283.164 55.0037 282.864 54.7637C282.564 54.5117 282.162 54.3857 281.658 54.3857C281.286 54.3857 280.95 54.4337 280.65 54.5297C280.362 54.6137 280.104 54.7157 279.876 54.8357V57.5717H277.662V54.6917C277.662 54.4037 277.722 54.1697 277.842 53.9897C277.962 53.7977 278.142 53.6237 278.382 53.4677C278.742 53.2277 279.204 53.0297 279.768 52.8737C280.344 52.7057 280.98 52.6217 281.676 52.6217C282.888 52.6217 283.83 52.8917 284.502 53.4317C285.186 53.9717 285.528 54.7697 285.528 55.8257ZM277.662 56.6897H279.876V61.3517C279.78 61.3877 279.642 61.4177 279.462 61.4417C279.282 61.4777 279.084 61.4957 278.868 61.4957C278.46 61.4957 278.154 61.4237 277.95 61.2797C277.758 61.1237 277.662 60.8537 277.662 60.4697V56.6897ZM283.314 56.6897H285.528V61.3517C285.444 61.3877 285.306 61.4177 285.114 61.4417C284.934 61.4777 284.742 61.4957 284.538 61.4957C284.118 61.4957 283.806 61.4237 283.602 61.2797C283.41 61.1237 283.314 60.8537 283.314 60.4697V56.6897ZM287.875 56.6357H290.089V58.7597C290.089 59.1557 290.203 59.4377 290.431 59.6057C290.671 59.7737 291.007 59.8577 291.439 59.8577C291.631 59.8577 291.835 59.8337 292.051 59.7857C292.279 59.7377 292.471 59.6777 292.627 59.6057C292.711 59.7017 292.789 59.8157 292.861 59.9477C292.933 60.0797 292.969 60.2417 292.969 60.4337C292.969 60.7817 292.801 61.0697 292.465 61.2977C292.141 61.5257 291.631 61.6397 290.935 61.6397C289.987 61.6397 289.237 61.4297 288.685 61.0097C288.145 60.5777 287.875 59.8817 287.875 58.9217V56.6357ZM289.225 54.7997V53.0537H292.753C292.801 53.1377 292.849 53.2577 292.897 53.4137C292.957 53.5697 292.987 53.7317 292.987 53.8997C292.987 54.1997 292.915 54.4277 292.771 54.5837C292.627 54.7277 292.441 54.7997 292.213 54.7997H289.225ZM290.089 57.1217H287.875V50.6417C287.971 50.6057 288.109 50.5697 288.289 50.5337C288.481 50.4977 288.679 50.4797 288.883 50.4797C289.303 50.4797 289.609 50.5577 289.801 50.7137C289.993 50.8577 290.089 51.1217 290.089 51.5057V57.1217ZM295.562 58.2557L295.472 56.7077L300.296 55.9877C300.26 55.5317 300.086 55.1357 299.774 54.7997C299.462 54.4637 299.006 54.2957 298.406 54.2957C297.794 54.2957 297.284 54.5117 296.876 54.9437C296.468 55.3637 296.258 55.9697 296.246 56.7617L296.3 57.6977C296.408 58.4657 296.702 59.0297 297.182 59.3897C297.674 59.7497 298.292 59.9297 299.036 59.9297C299.54 59.9297 300.008 59.8577 300.44 59.7137C300.872 59.5577 301.214 59.3897 301.466 59.2097C301.634 59.3177 301.766 59.4557 301.862 59.6237C301.97 59.7797 302.024 59.9537 302.024 60.1457C302.024 60.4577 301.886 60.7277 301.61 60.9557C301.334 61.1717 300.962 61.3397 300.494 61.4597C300.026 61.5797 299.492 61.6397 298.892 61.6397C297.968 61.6397 297.146 61.4717 296.426 61.1357C295.718 60.7877 295.16 60.2717 294.752 59.5877C294.356 58.9037 294.158 58.0517 294.158 57.0317C294.158 56.2997 294.272 55.6577 294.5 55.1057C294.728 54.5537 295.034 54.0977 295.418 53.7377C295.814 53.3657 296.27 53.0897 296.786 52.9097C297.302 52.7177 297.842 52.6217 298.406 52.6217C299.198 52.6217 299.888 52.7837 300.476 53.1077C301.076 53.4197 301.544 53.8577 301.88 54.4217C302.228 54.9857 302.402 55.6337 302.402 56.3657C302.402 56.7017 302.312 56.9537 302.132 57.1217C301.964 57.2777 301.724 57.3737 301.412 57.4097L295.562 58.2557ZM312.053 55.8257V57.5717H309.839V55.9157C309.839 55.3877 309.689 55.0037 309.389 54.7637C309.089 54.5117 308.687 54.3857 308.183 54.3857C307.811 54.3857 307.475 54.4337 307.175 54.5297C306.887 54.6137 306.629 54.7157 306.401 54.8357V57.5717H304.187V54.6917C304.187 54.4037 304.247 54.1697 304.367 53.9897C304.487 53.7977 304.667 53.6237 304.907 53.4677C305.267 53.2277 305.729 53.0297 306.293 52.8737C306.869 52.7057 307.505 52.6217 308.201 52.6217C309.413 52.6217 310.355 52.8917 311.027 53.4317C311.711 53.9717 312.053 54.7697 312.053 55.8257ZM304.187 56.6897H306.401V61.3517C306.305 61.3877 306.167 61.4177 305.987 61.4417C305.807 61.4777 305.609 61.4957 305.393 61.4957C304.985 61.4957 304.679 61.4237 304.475 61.2797C304.283 61.1237 304.187 60.8537 304.187 60.4697V56.6897ZM309.839 56.6897H312.053V61.3517C311.969 61.3877 311.831 61.4177 311.639 61.4417C311.459 61.4777 311.267 61.4957 311.063 61.4957C310.643 61.4957 310.331 61.4237 310.127 61.2797C309.935 61.1237 309.839 60.8537 309.839 60.4697V56.6897ZM314.4 56.6357H316.614V58.7597C316.614 59.1557 316.728 59.4377 316.956 59.6057C317.196 59.7737 317.532 59.8577 317.964 59.8577C318.156 59.8577 318.36 59.8337 318.576 59.7857C318.804 59.7377 318.996 59.6777 319.152 59.6057C319.236 59.7017 319.314 59.8157 319.386 59.9477C319.458 60.0797 319.494 60.2417 319.494 60.4337C319.494 60.7817 319.326 61.0697 318.99 61.2977C318.666 61.5257 318.156 61.6397 317.46 61.6397C316.512 61.6397 315.762 61.4297 315.21 61.0097C314.67 60.5777 314.4 59.8817 314.4 58.9217V56.6357ZM315.75 54.7997V53.0537H319.278C319.326 53.1377 319.374 53.2577 319.422 53.4137C319.482 53.5697 319.512 53.7317 319.512 53.8997C319.512 54.1997 319.44 54.4277 319.296 54.5837C319.152 54.7277 318.966 54.7997 318.738 54.7997H315.75ZM316.614 57.1217H314.4V50.6417C314.496 50.6057 314.634 50.5697 314.814 50.5337C315.006 50.4977 315.204 50.4797 315.408 50.4797C315.828 50.4797 316.134 50.5577 316.326 50.7137C316.518 50.8577 316.614 51.1217 316.614 51.5057V57.1217ZM320.569 60.2897C320.569 59.9057 320.689 59.5817 320.929 59.3177C321.169 59.0537 321.499 58.9217 321.919 58.9217C322.339 58.9217 322.669 59.0537 322.909 59.3177C323.149 59.5817 323.269 59.9057 323.269 60.2897C323.269 60.6737 323.149 60.9977 322.909 61.2617C322.669 61.5257 322.339 61.6577 321.919 61.6577C321.499 61.6577 321.169 61.5257 320.929 61.2617C320.689 60.9977 320.569 60.6737 320.569 60.2897Z" fill="white"/>
<defs>
<filter id="filter0_d_1240_4715" x="-16" y="-6" width="422" height="113" filterUnits="userSpaceOnUse" color-interpolation-filters="sRGB">
<feFlood flood-opacity="0" result="BackgroundImageFix"/>
<feColorMatrix in="SourceAlpha" type="matrix" values="0 0 0 0 0 0 0 0 0 0 0 0 0 0 0 0 0 0 127 0" result="hardAlpha"/>
<feOffset dy="10"/>
<feGaussianBlur stdDeviation="8"/>
<feColorMatrix type="matrix" values="0 0 0 0 0 0 0 0 0 0 0 0 0 0 0 0 0 0 0.05 0"/>
<feBlend mode="normal" in2="BackgroundImageFix" result="effect1_dropShadow_1240_4715"/>
<feBlend mode="normal" in="SourceGraphic" in2="effect1_dropShadow_1240_4715" result="shape"/>
</filter>
<linearGradient id="paint0_linear_1240_4715" x1="190.5" y1="25.5266" x2="189.386" y2="95.3306" gradientUnits="userSpaceOnUse">
<stop stop-color="#4D6EFF"/>
<stop offset="1" stop-color="#2850FF"/>
</linearGradient>
</defs>
</svg>
