<svg width="390" height="454" viewBox="0 0 390 454" fill="none" xmlns="http://www.w3.org/2000/svg">
<g opacity="0.25">
<path opacity="0.5" d="M165.431 412.139C146.763 432.15 147.83 463.493 167.813 482.144C203.996 515.916 276.834 503.796 305.994 487.88C319.852 457.68 326.904 384.157 290.721 350.385C270.739 331.734 239.406 332.836 220.739 352.847C209.308 365.102 205.277 381.606 208.458 396.842C193.043 394.721 176.862 399.884 165.431 412.139Z" fill="#96C0FF"/>
<path opacity="0.5" d="M192.532 241.051C182.636 251.658 183.202 268.273 193.795 278.16C212.975 296.062 251.586 289.638 267.044 281.201C274.389 265.192 278.128 226.218 258.948 208.315C248.355 198.428 231.746 199.013 221.85 209.62C215.791 216.116 213.654 224.865 215.34 232.942C207.169 231.817 198.591 234.554 192.532 241.051Z" fill="#96C0FF"/>
<path opacity="0.5" d="M96.8315 311.012C90.3866 317.921 90.7549 328.742 97.6541 335.182C110.146 346.842 135.294 342.657 145.362 337.162C150.146 326.736 152.581 301.352 140.089 289.692C133.189 283.252 122.372 283.633 115.927 290.542C111.98 294.773 110.588 300.471 111.687 305.731C106.365 304.999 100.778 306.781 96.8315 311.012Z" fill="#96C0FF"/>
<path opacity="0.5" d="M357.052 402.281C350.607 409.19 350.975 420.011 357.875 426.451C370.367 438.11 395.514 433.926 405.582 428.431C410.366 418.004 412.801 392.62 400.309 380.961C393.41 374.521 382.592 374.902 376.148 381.811C372.201 386.041 370.809 391.74 371.908 397C366.585 396.267 360.999 398.05 357.052 402.281Z" fill="#96C0FF"/>
<path opacity="0.5" d="M352.043 297.279C346.204 303.537 346.538 313.339 352.788 319.172C364.104 329.734 386.883 325.944 396.003 320.966C400.337 311.522 402.543 288.527 391.227 277.965C384.977 272.132 375.178 272.477 369.34 278.735C365.765 282.568 364.504 287.73 365.499 292.495C360.678 291.831 355.618 293.446 352.043 297.279Z" fill="#96C0FF"/>
<path opacity="0.5" d="M311.01 242.462C307.338 246.398 307.548 252.562 311.478 256.231C318.595 262.873 332.92 260.489 338.656 257.359C341.381 251.419 342.768 236.959 335.652 230.317C331.722 226.648 325.559 226.865 321.888 230.801C319.64 233.211 318.847 236.457 319.473 239.454C316.441 239.036 313.258 240.052 311.01 242.462Z" fill="#96C0FF"/>
<path opacity="0.5" d="M389.607 231.914C386.521 235.222 386.698 240.404 390.001 243.488C395.983 249.072 408.026 247.068 412.847 244.436C415.138 239.443 416.304 227.288 410.322 221.704C407.018 218.621 401.838 218.803 398.752 222.111C396.862 224.137 396.195 226.866 396.721 229.385C394.173 229.034 391.497 229.888 389.607 231.914Z" fill="#96C0FF"/>
<path opacity="0.5" d="M108.969 202.658C103.455 208.569 103.77 217.827 109.673 223.337C120.361 233.313 141.877 229.733 150.491 225.031C154.584 216.11 156.667 194.392 145.979 184.416C140.076 178.906 130.821 179.232 125.307 185.143C121.93 188.763 120.739 193.638 121.679 198.139C117.125 197.512 112.345 199.038 108.969 202.658Z" fill="#96C0FF"/>
<path opacity="0.5" d="M25.5792 206.842C20.5949 212.185 20.8797 220.554 26.2154 225.534C35.8764 234.552 55.3249 231.316 63.1111 227.066C66.8111 219.002 68.6941 199.371 59.0331 190.353C53.6974 185.373 45.3314 185.668 40.3471 191.011C37.2949 194.283 36.2185 198.69 37.0681 202.758C32.952 202.191 28.6315 203.57 25.5792 206.842Z" fill="#96C0FF"/>
<path opacity="0.5" d="M12.3661 130.428C8.30204 134.785 8.53431 141.609 12.8849 145.669C20.7623 153.022 36.6202 150.383 42.9688 146.918C45.9858 140.343 47.5211 124.336 39.6437 116.984C35.2931 112.923 28.4717 113.163 24.4076 117.52C21.9188 120.188 21.0412 123.781 21.7339 127.098C18.3778 126.636 14.8549 127.76 12.3661 130.428Z" fill="#96C0FF"/>
</g>
</svg>
