<svg width="390" height="99" viewBox="0 0 390 99" fill="none" xmlns="http://www.w3.org/2000/svg">
<g filter="url(#filter0_d_471_8146)">
<rect y="6" width="390" height="67" fill="#E15C47"/>
</g>
<mask id="mask0_471_8146" style="mask-type:alpha" maskUnits="userSpaceOnUse" x="0" y="6" width="390" height="67">
<rect y="6" width="390" height="67" fill="url(#paint0_linear_471_8146)"/>
</mask>
<g mask="url(#mask0_471_8146)">
<g opacity="0.25">
<path opacity="0.5" d="M0.371743 10.2941C-4.04736 6.27862 -10.9049 6.56249 -14.945 10.9281C-22.2603 18.8327 -19.4542 34.6114 -15.9093 40.9098C-9.27043 43.8649 6.83612 45.2715 14.1514 37.3668C18.1914 33.0012 17.8842 26.207 13.4651 22.1915C10.7589 19.7325 7.13825 18.8858 3.81025 19.6014C4.24214 16.2542 3.07792 12.7531 0.371743 10.2941Z" fill="#C6DDFF"/>
<path opacity="0.5" d="M36.9236 15.586C34.8948 13.7425 31.7465 13.8728 29.8917 15.877C26.5334 19.506 27.8216 26.7499 29.4491 29.6414C32.4969 30.9981 39.8913 31.6438 43.2497 28.0149C45.1045 26.0106 44.9634 22.8914 42.9346 21.048C41.6922 19.9191 40.03 19.5303 38.5021 19.8589C38.7004 18.3222 38.1659 16.7149 36.9236 15.586Z" fill="#C6DDFF"/>
<path opacity="0.5" d="M22.3593 -4.75541C20.8336 -6.14176 18.466 -6.04376 17.0712 -4.53652C14.5456 -1.80742 15.5144 3.64021 16.7383 5.81475C19.0304 6.83502 24.5912 7.32064 27.1168 4.59153C28.5116 3.0843 28.4056 0.738558 26.8799 -0.647787C25.9456 -1.49676 24.6955 -1.7891 23.5465 -1.54203C23.6956 -2.69766 23.2937 -3.90643 22.3593 -4.75541Z" fill="#C6DDFF"/>
<path opacity="0.5" d="M2.93259 51.8403C1.40688 50.4539 -0.960718 50.5519 -2.35557 52.0592C-4.88118 54.7883 -3.91236 60.2359 -2.68848 62.4104C-0.3964 63.4307 5.16443 63.9163 7.69004 61.1872C9.08489 59.68 8.97881 57.3343 7.45311 55.9479C6.51879 55.0989 5.26874 54.8066 4.11974 55.0537C4.26885 53.898 3.8669 52.6893 2.93259 51.8403Z" fill="#C6DDFF"/>
<path opacity="0.5" d="M25.903 50.5786C24.5209 49.3227 22.3762 49.4115 21.1127 50.7768C18.8249 53.249 19.7025 58.1837 20.8111 60.1535C22.8874 61.0777 27.9247 61.5176 30.2125 59.0455C31.476 57.6801 31.3799 55.5552 29.9979 54.2994C29.1515 53.5304 28.0192 53.2656 26.9783 53.4894C27.1134 52.4426 26.7493 51.3476 25.903 50.5786Z" fill="#C6DDFF"/>
<path opacity="0.5" d="M37.814 41.5862C36.9448 40.7965 35.5961 40.8523 34.8015 41.7109C33.3627 43.2656 33.9146 46.3689 34.6118 47.6077C35.9176 48.1889 39.0854 48.4655 40.5241 46.9108C41.3187 46.0522 41.2583 44.7159 40.3891 43.9262C39.8569 43.4426 39.1448 43.276 38.4902 43.4168C38.5752 42.7585 38.3462 42.0699 37.814 41.5862Z" fill="#C6DDFF"/>
<path opacity="0.5" d="M46.1001 -2.30345C44.7947 -3.4896 42.769 -3.40575 41.5756 -2.11617C39.4147 0.218834 40.2436 4.87978 41.2907 6.7403C43.2518 7.61325 48.0096 8.02873 50.1705 5.69373C51.3639 4.40415 51.2732 2.39715 49.9678 1.211C49.1684 0.484625 48.0989 0.234503 47.1158 0.445898C47.2434 -0.542855 46.8995 -1.57707 46.1001 -2.30345Z" fill="#C6DDFF"/>
</g>
<g opacity="0.25">
<path opacity="0.5" d="M332.081 31.7932C325.66 28.3683 317.655 30.7423 314.2 37.0957C307.945 48.5996 315.998 66.3867 322.073 72.7658C330.794 74.2794 350.22 71.1502 356.475 59.6463C359.929 53.2929 357.525 45.3659 351.104 41.941C347.172 39.8436 342.646 39.9209 338.935 41.755C338.438 37.6763 336.012 33.8906 332.081 31.7932Z" fill="#C6DDFF"/>
<path opacity="0.5" d="M301.658 72.6448C298.254 70.8292 294.011 72.0877 292.179 75.4556C288.864 81.5538 293.132 90.9826 296.353 94.3641C300.976 95.1665 311.273 93.5077 314.589 87.4095C316.42 84.0416 315.146 79.8396 311.742 78.024C309.658 76.9122 307.258 76.9532 305.291 77.9254C305.028 75.7634 303.742 73.7566 301.658 72.6448Z" fill="#C6DDFF"/>
<path opacity="0.5" d="M378.007 27.2405C374.604 25.4249 370.36 26.6834 368.529 30.0513C365.213 36.1495 369.482 45.5783 372.702 48.9598C377.325 49.7622 387.623 48.1034 390.939 42.0052C392.77 38.6373 391.495 34.4353 388.092 32.6197C386.007 31.5079 383.608 31.5489 381.641 32.5212C381.378 30.3591 380.092 28.3523 378.007 27.2405Z" fill="#C6DDFF"/>
<path opacity="0.5" d="M353.501 7.49457C351.284 6.3121 348.52 7.13175 347.328 9.32528C345.168 13.297 347.948 19.4381 350.046 21.6405C353.057 22.163 359.764 21.0827 361.923 17.1109C363.116 14.9174 362.286 12.1806 360.069 10.9981C358.712 10.274 357.149 10.3007 355.867 10.9339C355.696 9.52573 354.859 8.21869 353.501 7.49457Z" fill="#C6DDFF"/>
<path opacity="0.5" d="M374.312 71.7422C372.304 70.6711 369.8 71.4135 368.72 73.4005C366.763 76.9983 369.282 82.5612 371.182 84.5562C373.909 85.0296 379.985 84.0509 381.941 80.4531C383.021 78.4661 382.269 75.987 380.261 74.9159C379.032 74.2599 377.616 74.2841 376.455 74.8577C376.3 73.5821 375.541 72.3981 374.312 71.7422Z" fill="#C6DDFF"/>
<path opacity="0.5" d="M385.661 57.5888C384.399 56.9152 382.824 57.3821 382.145 58.6317C380.915 60.8943 382.498 64.3926 383.693 65.6472C385.408 65.9449 389.229 65.3295 390.459 63.0669C391.139 61.8173 390.666 60.2583 389.403 59.5847C388.63 59.1722 387.739 59.1874 387.01 59.5481C386.912 58.7459 386.435 58.0013 385.661 57.5888Z" fill="#C6DDFF"/>
<path opacity="0.5" d="M382.248 3.32796C380.351 2.31625 377.986 3.01754 376.966 4.89431C375.118 8.29252 377.497 13.5467 379.291 15.4311C381.868 15.8782 387.606 14.9539 389.454 11.5557C390.474 9.67888 389.764 7.33728 387.867 6.32557C386.706 5.70601 385.369 5.72884 384.272 6.27064C384.126 5.06581 383.409 3.94752 382.248 3.32796Z" fill="#C6DDFF"/>
</g>
</g>
<path d="M129.769 37.538V39.212H125.413V37.538H129.769ZM128.167 39.212L128.509 37.934C129.433 37.934 130.201 38.06 130.813 38.312C131.437 38.564 131.905 38.912 132.217 39.356C132.529 39.788 132.685 40.298 132.685 40.886C132.685 42.026 132.265 42.872 131.425 43.424C130.585 43.964 129.397 44.234 127.861 44.234C127.561 44.234 127.231 44.222 126.871 44.198C126.523 44.186 126.169 44.15 125.809 44.09C125.461 44.03 125.137 43.958 124.837 43.874C124.249 43.67 123.955 43.316 123.955 42.812V33.974C123.955 33.758 124.015 33.59 124.135 33.47C124.267 33.338 124.435 33.242 124.639 33.182C125.047 33.05 125.521 32.96 126.061 32.912C126.601 32.852 127.159 32.822 127.735 32.822C129.175 32.822 130.291 33.074 131.083 33.578C131.875 34.082 132.271 34.85 132.271 35.882C132.271 36.434 132.115 36.92 131.803 37.34C131.503 37.748 131.047 38.066 130.435 38.294C129.835 38.522 129.079 38.636 128.167 38.636L128.023 37.538C128.683 37.538 129.175 37.406 129.499 37.142C129.823 36.878 129.985 36.506 129.985 36.026C129.985 35.558 129.799 35.204 129.427 34.964C129.055 34.712 128.497 34.586 127.753 34.586C127.453 34.586 127.165 34.598 126.889 34.622C126.613 34.646 126.379 34.676 126.187 34.712V42.29C126.415 42.35 126.691 42.392 127.015 42.416C127.339 42.44 127.657 42.452 127.969 42.452C128.713 42.452 129.295 42.32 129.715 42.056C130.147 41.78 130.363 41.36 130.363 40.796C130.363 40.28 130.177 39.89 129.805 39.626C129.433 39.35 128.887 39.212 128.167 39.212ZM142.989 39.734C142.989 40.658 142.809 41.462 142.449 42.146C142.089 42.818 141.579 43.34 140.919 43.712C140.271 44.072 139.503 44.252 138.615 44.252C137.727 44.252 136.953 44.072 136.293 43.712C135.633 43.34 135.117 42.818 134.745 42.146C134.385 41.474 134.205 40.67 134.205 39.734C134.205 38.81 134.391 38.012 134.763 37.34C135.135 36.668 135.651 36.152 136.311 35.792C136.971 35.42 137.739 35.234 138.615 35.234C139.491 35.234 140.253 35.42 140.901 35.792C141.561 36.152 142.071 36.674 142.431 37.358C142.803 38.03 142.989 38.822 142.989 39.734ZM138.615 36.998C137.955 36.998 137.433 37.238 137.049 37.718C136.677 38.198 136.491 38.87 136.491 39.734C136.491 40.622 136.677 41.306 137.049 41.786C137.421 42.254 137.943 42.488 138.615 42.488C139.275 42.488 139.791 42.248 140.163 41.768C140.535 41.288 140.721 40.61 140.721 39.734C140.721 38.882 140.535 38.216 140.163 37.736C139.791 37.244 139.275 36.998 138.615 36.998ZM153.237 39.734C153.237 40.658 153.057 41.462 152.697 42.146C152.337 42.818 151.827 43.34 151.167 43.712C150.519 44.072 149.751 44.252 148.863 44.252C147.975 44.252 147.201 44.072 146.541 43.712C145.881 43.34 145.365 42.818 144.993 42.146C144.633 41.474 144.453 40.67 144.453 39.734C144.453 38.81 144.639 38.012 145.011 37.34C145.383 36.668 145.899 36.152 146.559 35.792C147.219 35.42 147.987 35.234 148.863 35.234C149.739 35.234 150.501 35.42 151.149 35.792C151.809 36.152 152.319 36.674 152.679 37.358C153.051 38.03 153.237 38.822 153.237 39.734ZM148.863 36.998C148.203 36.998 147.681 37.238 147.297 37.718C146.925 38.198 146.739 38.87 146.739 39.734C146.739 40.622 146.925 41.306 147.297 41.786C147.669 42.254 148.191 42.488 148.863 42.488C149.523 42.488 150.039 42.248 150.411 41.768C150.783 41.288 150.969 40.61 150.969 39.734C150.969 38.882 150.783 38.216 150.411 37.736C150.039 37.244 149.523 36.998 148.863 36.998ZM158.391 40.418L156.843 39.392L160.929 35.324C161.373 35.336 161.727 35.444 161.991 35.648C162.255 35.84 162.387 36.092 162.387 36.404C162.387 36.656 162.297 36.884 162.117 37.088C161.949 37.292 161.691 37.544 161.343 37.844L158.391 40.418ZM156.897 39.716L158.607 38.906L162.801 42.848C162.765 43.244 162.645 43.556 162.441 43.784C162.237 44.012 161.955 44.126 161.595 44.126C161.319 44.126 161.067 44.06 160.839 43.928C160.611 43.784 160.377 43.568 160.137 43.28L156.897 39.716ZM155.169 39.212L157.383 39.32V43.964C157.287 44 157.149 44.03 156.969 44.054C156.789 44.09 156.591 44.108 156.375 44.108C155.967 44.108 155.661 44.036 155.457 43.892C155.265 43.736 155.169 43.466 155.169 43.082V39.212ZM157.383 40.454L155.169 40.346V32.3C155.265 32.276 155.403 32.246 155.583 32.21C155.763 32.174 155.961 32.156 156.177 32.156C156.597 32.156 156.903 32.234 157.095 32.39C157.287 32.534 157.383 32.798 157.383 33.182V40.454ZM164.377 32.948C164.377 32.6 164.497 32.306 164.737 32.066C164.989 31.826 165.301 31.706 165.673 31.706C166.057 31.706 166.363 31.826 166.591 32.066C166.831 32.306 166.951 32.6 166.951 32.948C166.951 33.284 166.831 33.578 166.591 33.83C166.363 34.07 166.057 34.19 165.673 34.19C165.301 34.19 164.989 34.07 164.737 33.83C164.497 33.578 164.377 33.284 164.377 32.948ZM164.557 39.248H166.789V43.964C166.693 44 166.555 44.03 166.375 44.054C166.195 44.09 165.997 44.108 165.781 44.108C165.373 44.108 165.067 44.036 164.863 43.892C164.659 43.736 164.557 43.466 164.557 43.082V39.248ZM166.789 40.382H164.557V35.558C164.653 35.522 164.791 35.492 164.971 35.468C165.163 35.432 165.367 35.414 165.583 35.414C166.003 35.414 166.309 35.492 166.501 35.648C166.693 35.792 166.789 36.062 166.789 36.458V40.382ZM177.044 38.438V40.184H174.83V38.528C174.83 38 174.68 37.616 174.38 37.376C174.08 37.124 173.678 36.998 173.174 36.998C172.802 36.998 172.466 37.046 172.166 37.142C171.878 37.226 171.62 37.328 171.392 37.448V40.184H169.178V37.304C169.178 37.016 169.238 36.782 169.358 36.602C169.478 36.41 169.658 36.236 169.898 36.08C170.258 35.84 170.72 35.642 171.284 35.486C171.86 35.318 172.496 35.234 173.192 35.234C174.404 35.234 175.346 35.504 176.018 36.044C176.702 36.584 177.044 37.382 177.044 38.438ZM169.178 39.302H171.392V43.964C171.296 44 171.158 44.03 170.978 44.054C170.798 44.09 170.6 44.108 170.384 44.108C169.976 44.108 169.67 44.036 169.466 43.892C169.274 43.736 169.178 43.466 169.178 43.082V39.302ZM174.83 39.302H177.044V43.964C176.96 44 176.822 44.03 176.63 44.054C176.45 44.09 176.258 44.108 176.054 44.108C175.634 44.108 175.322 44.036 175.118 43.892C174.926 43.736 174.83 43.466 174.83 43.082V39.302ZM182.902 43.694C182.194 43.694 181.54 43.562 180.94 43.298C180.34 43.022 179.86 42.572 179.5 41.948C179.14 41.324 178.96 40.502 178.96 39.482C178.96 38.546 179.14 37.766 179.5 37.142C179.872 36.506 180.388 36.032 181.048 35.72C181.72 35.396 182.488 35.234 183.352 35.234C183.964 35.234 184.528 35.312 185.044 35.468C185.572 35.624 185.992 35.804 186.304 36.008C186.508 36.14 186.67 36.302 186.79 36.494C186.922 36.674 186.988 36.896 186.988 37.16V42.776H184.828V37.358C184.672 37.262 184.48 37.178 184.252 37.106C184.024 37.034 183.742 36.998 183.406 36.998C182.746 36.998 182.206 37.202 181.786 37.61C181.378 38.018 181.174 38.642 181.174 39.482C181.174 40.406 181.372 41.054 181.768 41.426C182.176 41.798 182.674 41.984 183.262 41.984C183.718 41.984 184.084 41.906 184.36 41.75C184.648 41.594 184.888 41.426 185.08 41.246L185.152 43.046C184.936 43.214 184.636 43.364 184.252 43.496C183.88 43.628 183.43 43.694 182.902 43.694ZM184.864 44.054V42.29H186.988V44.126C186.988 44.942 186.802 45.602 186.43 46.106C186.058 46.622 185.548 47 184.9 47.24C184.264 47.48 183.55 47.6 182.758 47.6C182.134 47.6 181.588 47.54 181.12 47.42C180.664 47.3 180.328 47.174 180.112 47.042C179.716 46.802 179.518 46.472 179.518 46.052C179.518 45.836 179.566 45.644 179.662 45.476C179.758 45.308 179.872 45.182 180.004 45.098C180.304 45.29 180.676 45.458 181.12 45.602C181.576 45.746 182.056 45.818 182.56 45.818C183.28 45.818 183.844 45.674 184.252 45.386C184.66 45.11 184.864 44.666 184.864 44.054ZM197.248 37.016C196.528 37.016 195.922 37.25 195.43 37.718C194.95 38.186 194.71 38.87 194.71 39.77C194.71 40.658 194.944 41.33 195.412 41.786C195.88 42.242 196.486 42.47 197.23 42.47C197.674 42.47 198.046 42.416 198.346 42.308C198.658 42.188 198.928 42.062 199.156 41.93C199.336 42.038 199.474 42.17 199.57 42.326C199.678 42.47 199.732 42.65 199.732 42.866C199.732 43.274 199.486 43.61 198.994 43.874C198.502 44.126 197.854 44.252 197.05 44.252C196.138 44.252 195.334 44.09 194.638 43.766C193.954 43.43 193.414 42.926 193.018 42.254C192.634 41.582 192.442 40.754 192.442 39.77C192.442 38.75 192.646 37.904 193.054 37.232C193.474 36.56 194.026 36.062 194.71 35.738C195.406 35.402 196.168 35.234 196.996 35.234C197.788 35.234 198.424 35.372 198.904 35.648C199.384 35.924 199.624 36.266 199.624 36.674C199.624 36.854 199.576 37.022 199.48 37.178C199.384 37.334 199.27 37.46 199.138 37.556C198.898 37.412 198.628 37.286 198.328 37.178C198.028 37.07 197.668 37.016 197.248 37.016ZM204.958 42.578C205.318 42.578 205.642 42.542 205.93 42.47C206.218 42.398 206.428 42.32 206.56 42.236V40.184L204.778 40.364C204.286 40.4 203.908 40.508 203.644 40.688C203.392 40.856 203.266 41.108 203.266 41.444C203.266 41.792 203.404 42.068 203.68 42.272C203.956 42.476 204.382 42.578 204.958 42.578ZM204.868 35.234C206.044 35.234 206.98 35.486 207.676 35.99C208.372 36.482 208.72 37.262 208.72 38.33V42.47C208.72 42.758 208.648 42.986 208.504 43.154C208.372 43.322 208.198 43.472 207.982 43.604C207.646 43.796 207.22 43.952 206.704 44.072C206.188 44.204 205.606 44.27 204.958 44.27C203.758 44.27 202.816 44.042 202.132 43.586C201.448 43.118 201.106 42.428 201.106 41.516C201.106 40.712 201.358 40.1 201.862 39.68C202.378 39.248 203.122 38.984 204.094 38.888L206.542 38.636V38.312C206.542 37.832 206.374 37.484 206.038 37.268C205.714 37.052 205.252 36.944 204.652 36.944C204.184 36.944 203.728 37.004 203.284 37.124C202.84 37.244 202.444 37.388 202.096 37.556C201.976 37.46 201.868 37.328 201.772 37.16C201.676 36.992 201.628 36.818 201.628 36.638C201.628 36.206 201.868 35.888 202.348 35.684C202.684 35.528 203.074 35.414 203.518 35.342C203.974 35.27 204.424 35.234 204.868 35.234ZM218.863 38.438V40.184H216.649V38.528C216.649 38 216.499 37.616 216.199 37.376C215.899 37.124 215.497 36.998 214.993 36.998C214.621 36.998 214.285 37.046 213.985 37.142C213.697 37.226 213.439 37.328 213.211 37.448V40.184H210.997V37.304C210.997 37.016 211.057 36.782 211.177 36.602C211.297 36.41 211.477 36.236 211.717 36.08C212.077 35.84 212.539 35.642 213.103 35.486C213.679 35.318 214.315 35.234 215.011 35.234C216.223 35.234 217.165 35.504 217.837 36.044C218.521 36.584 218.863 37.382 218.863 38.438ZM210.997 39.302H213.211V43.964C213.115 44 212.977 44.03 212.797 44.054C212.617 44.09 212.419 44.108 212.203 44.108C211.795 44.108 211.489 44.036 211.285 43.892C211.093 43.736 210.997 43.466 210.997 43.082V39.302ZM216.649 39.302H218.863V43.964C218.779 44 218.641 44.03 218.449 44.054C218.269 44.09 218.077 44.108 217.873 44.108C217.453 44.108 217.141 44.036 216.937 43.892C216.745 43.736 216.649 43.466 216.649 43.082V39.302ZM225.566 37.016C224.846 37.016 224.24 37.25 223.748 37.718C223.268 38.186 223.028 38.87 223.028 39.77C223.028 40.658 223.262 41.33 223.73 41.786C224.198 42.242 224.804 42.47 225.548 42.47C225.992 42.47 226.364 42.416 226.664 42.308C226.976 42.188 227.246 42.062 227.474 41.93C227.654 42.038 227.792 42.17 227.888 42.326C227.996 42.47 228.05 42.65 228.05 42.866C228.05 43.274 227.804 43.61 227.312 43.874C226.82 44.126 226.172 44.252 225.368 44.252C224.456 44.252 223.652 44.09 222.956 43.766C222.272 43.43 221.732 42.926 221.336 42.254C220.952 41.582 220.76 40.754 220.76 39.77C220.76 38.75 220.964 37.904 221.372 37.232C221.792 36.56 222.344 36.062 223.028 35.738C223.724 35.402 224.486 35.234 225.314 35.234C226.106 35.234 226.742 35.372 227.222 35.648C227.702 35.924 227.942 36.266 227.942 36.674C227.942 36.854 227.894 37.022 227.798 37.178C227.702 37.334 227.588 37.46 227.456 37.556C227.216 37.412 226.946 37.286 226.646 37.178C226.346 37.07 225.986 37.016 225.566 37.016ZM230.637 40.868L230.547 39.32L235.371 38.6C235.335 38.144 235.161 37.748 234.849 37.412C234.537 37.076 234.081 36.908 233.481 36.908C232.869 36.908 232.359 37.124 231.951 37.556C231.543 37.976 231.333 38.582 231.321 39.374L231.375 40.31C231.483 41.078 231.777 41.642 232.257 42.002C232.749 42.362 233.367 42.542 234.111 42.542C234.615 42.542 235.083 42.47 235.515 42.326C235.947 42.17 236.289 42.002 236.541 41.822C236.709 41.93 236.841 42.068 236.937 42.236C237.045 42.392 237.099 42.566 237.099 42.758C237.099 43.07 236.961 43.34 236.685 43.568C236.409 43.784 236.037 43.952 235.569 44.072C235.101 44.192 234.567 44.252 233.967 44.252C233.043 44.252 232.221 44.084 231.501 43.748C230.793 43.4 230.235 42.884 229.827 42.2C229.431 41.516 229.233 40.664 229.233 39.644C229.233 38.912 229.347 38.27 229.575 37.718C229.803 37.166 230.109 36.71 230.493 36.35C230.889 35.978 231.345 35.702 231.861 35.522C232.377 35.33 232.917 35.234 233.481 35.234C234.273 35.234 234.963 35.396 235.551 35.72C236.151 36.032 236.619 36.47 236.955 37.034C237.303 37.598 237.477 38.246 237.477 38.978C237.477 39.314 237.387 39.566 237.207 39.734C237.039 39.89 236.799 39.986 236.487 40.022L230.637 40.868ZM239.388 39.248L241.602 39.356V43.964C241.506 44 241.368 44.03 241.188 44.054C241.008 44.09 240.81 44.108 240.594 44.108C240.186 44.108 239.88 44.036 239.676 43.892C239.484 43.736 239.388 43.466 239.388 43.082V39.248ZM241.602 40.49L239.388 40.382V32.3C239.472 32.276 239.604 32.246 239.784 32.21C239.976 32.174 240.174 32.156 240.378 32.156C240.81 32.156 241.122 32.234 241.314 32.39C241.506 32.534 241.602 32.798 241.602 33.182V40.49ZM244.17 39.248L246.384 39.356V43.964C246.288 44 246.15 44.03 245.97 44.054C245.79 44.09 245.592 44.108 245.376 44.108C244.968 44.108 244.662 44.036 244.458 43.892C244.266 43.736 244.17 43.466 244.17 43.082V39.248ZM246.384 40.49L244.17 40.382V32.3C244.254 32.276 244.386 32.246 244.566 32.21C244.758 32.174 244.956 32.156 245.16 32.156C245.592 32.156 245.904 32.234 246.096 32.39C246.288 32.534 246.384 32.798 246.384 33.182V40.49ZM249.762 40.868L249.672 39.32L254.496 38.6C254.46 38.144 254.286 37.748 253.974 37.412C253.662 37.076 253.206 36.908 252.606 36.908C251.994 36.908 251.484 37.124 251.076 37.556C250.668 37.976 250.458 38.582 250.446 39.374L250.5 40.31C250.608 41.078 250.902 41.642 251.382 42.002C251.874 42.362 252.492 42.542 253.236 42.542C253.74 42.542 254.208 42.47 254.64 42.326C255.072 42.17 255.414 42.002 255.666 41.822C255.834 41.93 255.966 42.068 256.062 42.236C256.17 42.392 256.224 42.566 256.224 42.758C256.224 43.07 256.086 43.34 255.81 43.568C255.534 43.784 255.162 43.952 254.694 44.072C254.226 44.192 253.692 44.252 253.092 44.252C252.168 44.252 251.346 44.084 250.626 43.748C249.918 43.4 249.36 42.884 248.952 42.2C248.556 41.516 248.358 40.664 248.358 39.644C248.358 38.912 248.472 38.27 248.7 37.718C248.928 37.166 249.234 36.71 249.618 36.35C250.014 35.978 250.47 35.702 250.986 35.522C251.502 35.33 252.042 35.234 252.606 35.234C253.398 35.234 254.088 35.396 254.676 35.72C255.276 36.032 255.744 36.47 256.08 37.034C256.428 37.598 256.602 38.246 256.602 38.978C256.602 39.314 256.512 39.566 256.332 39.734C256.164 39.89 255.924 39.986 255.612 40.022L249.762 40.868ZM264.021 42.128V36.476H266.235V42.362C266.235 42.626 266.175 42.848 266.055 43.028C265.947 43.196 265.767 43.358 265.515 43.514C265.227 43.706 264.831 43.874 264.327 44.018C263.835 44.174 263.271 44.252 262.635 44.252C261.687 44.252 260.859 44.096 260.151 43.784C259.455 43.46 258.915 42.968 258.531 42.308C258.147 41.636 257.955 40.79 257.955 39.77C257.955 38.726 258.147 37.868 258.531 37.196C258.927 36.524 259.455 36.032 260.115 35.72C260.775 35.396 261.507 35.234 262.311 35.234C262.755 35.234 263.157 35.288 263.517 35.396C263.889 35.504 264.189 35.63 264.417 35.774V37.664C264.225 37.484 263.973 37.328 263.661 37.196C263.349 37.064 262.989 36.998 262.581 36.998C262.137 36.998 261.735 37.094 261.375 37.286C261.015 37.466 260.733 37.766 260.529 38.186C260.325 38.594 260.223 39.128 260.223 39.788C260.223 40.724 260.439 41.408 260.871 41.84C261.303 42.272 261.885 42.488 262.617 42.488C262.941 42.488 263.217 42.452 263.445 42.38C263.673 42.308 263.865 42.224 264.021 42.128ZM266.235 36.926L264.021 36.944V32.3C264.105 32.276 264.237 32.246 264.417 32.21C264.609 32.174 264.807 32.156 265.011 32.156C265.443 32.156 265.755 32.234 265.947 32.39C266.139 32.534 266.235 32.798 266.235 33.182V36.926Z" fill="white"/>
<defs>
<filter id="filter0_d_471_8146" x="-16" y="0" width="422" height="99" filterUnits="userSpaceOnUse" color-interpolation-filters="sRGB">
<feFlood flood-opacity="0" result="BackgroundImageFix"/>
<feColorMatrix in="SourceAlpha" type="matrix" values="0 0 0 0 0 0 0 0 0 0 0 0 0 0 0 0 0 0 127 0" result="hardAlpha"/>
<feOffset dy="10"/>
<feGaussianBlur stdDeviation="8"/>
<feColorMatrix type="matrix" values="0 0 0 0 0 0 0 0 0 0 0 0 0 0 0 0 0 0 0.05 0"/>
<feBlend mode="normal" in2="BackgroundImageFix" result="effect1_dropShadow_471_8146"/>
<feBlend mode="normal" in="SourceGraphic" in2="effect1_dropShadow_471_8146" result="shape"/>
</filter>
<linearGradient id="paint0_linear_471_8146" x1="190.5" y1="21.3245" x2="189.738" y2="79.0682" gradientUnits="userSpaceOnUse">
<stop stop-color="#4D6EFF"/>
<stop offset="1" stop-color="#2850FF"/>
</linearGradient>
</defs>
</svg>
