<svg width="390" height="93" viewBox="0 0 390 93" fill="none" xmlns="http://www.w3.org/2000/svg">
<g filter="url(#filter0_d_977_4180)">
<rect width="390" height="67" fill="#E15C47"/>
</g>
<mask id="mask0_977_4180" style="mask-type:alpha" maskUnits="userSpaceOnUse" x="0" y="0" width="390" height="67">
<rect width="390" height="67" fill="url(#paint0_linear_977_4180)"/>
</mask>
<g mask="url(#mask0_977_4180)">
<g opacity="0.25">
<path opacity="0.5" d="M0.371621 4.29409C-4.04749 0.278622 -10.9051 0.562495 -14.9451 4.92809C-22.2604 12.8327 -19.4543 28.6114 -15.9094 34.9098C-9.27055 37.8649 6.836 39.2715 14.1512 31.3668C18.1913 27.0012 17.8841 20.207 13.465 16.1915C10.7588 13.7325 7.13813 12.8858 3.81012 13.6014C4.24202 10.2542 3.0778 6.75309 0.371621 4.29409Z" fill="#C6DDFF"/>
<path opacity="0.5" d="M36.9234 9.58595C34.8947 7.74248 31.7464 7.8728 29.8916 9.87702C26.5332 13.506 27.8215 20.7499 29.4489 23.6414C32.4968 24.9981 39.8912 25.6438 43.2496 22.0149C45.1043 20.0106 44.9633 16.8914 42.9345 15.048C41.6921 13.9191 40.0299 13.5303 38.502 13.8589C38.7003 12.3222 38.1658 10.7149 36.9234 9.58595Z" fill="#C6DDFF"/>
<path opacity="0.5" d="M22.3592 -10.7554C20.8335 -12.1418 18.4659 -12.0438 17.0711 -10.5365C14.5455 -7.80742 15.5143 -2.35979 16.7382 -0.185254C19.0302 0.835023 24.5911 1.32064 27.1167 -1.40847C28.5115 -2.9157 28.4054 -5.26144 26.8797 -6.64779C25.9454 -7.49676 24.6954 -7.7891 23.5464 -7.54203C23.6955 -8.69766 23.2935 -9.90643 22.3592 -10.7554Z" fill="#C6DDFF"/>
<path opacity="0.5" d="M2.93246 45.8403C1.40675 44.4539 -0.96084 44.5519 -2.35569 46.0592C-4.8813 48.7883 -3.91249 54.2359 -2.6886 56.4104C-0.396522 57.4307 5.16431 57.9163 7.68992 55.1872C9.08477 53.68 8.97869 51.3343 7.45299 49.9479C6.51867 49.0989 5.26862 48.8066 4.11962 49.0537C4.26873 47.898 3.86678 46.6893 2.93246 45.8403Z" fill="#C6DDFF"/>
<path opacity="0.5" d="M25.9028 44.5786C24.5208 43.3227 22.3761 43.4115 21.1126 44.7768C18.8248 47.249 19.7024 52.1837 20.811 54.1535C22.8873 55.0777 27.9245 55.5176 30.2124 53.0455C31.4759 51.6801 31.3798 49.5552 29.9977 48.2994C29.1514 47.5304 28.019 47.2656 26.9782 47.4894C27.1133 46.4426 26.7492 45.3476 25.9028 44.5786Z" fill="#C6DDFF"/>
<path opacity="0.5" d="M37.814 35.5865C36.9448 34.7967 35.5961 34.8525 34.8015 35.7112C33.3627 37.2658 33.9146 40.3691 34.6118 41.6079C35.9176 42.1891 39.0854 42.4658 40.5241 40.9111C41.3187 40.0525 41.2583 38.7162 40.3891 37.9264C39.8569 37.4428 39.1448 37.2763 38.4902 37.417C38.5752 36.7587 38.3462 36.0701 37.814 35.5865Z" fill="#C6DDFF"/>
<path opacity="0.5" d="M46.0999 -8.30345C44.7946 -9.4896 42.7689 -9.40575 41.5754 -8.11617C39.4145 -5.78117 40.2434 -1.12022 41.2906 0.740302C43.2517 1.61325 48.0095 2.02873 50.1704 -0.306271C51.3638 -1.59585 51.273 -3.60285 49.9677 -4.789C49.1683 -5.51538 48.0987 -5.7655 47.1157 -5.5541C47.2432 -6.54286 46.8993 -7.57707 46.0999 -8.30345Z" fill="#C6DDFF"/>
</g>
<g opacity="0.25">
<path opacity="0.5" d="M332.081 25.7932C325.66 22.3683 317.655 24.7423 314.2 31.0957C307.945 42.5996 315.998 60.3867 322.073 66.7658C330.794 68.2794 350.22 65.1502 356.475 53.6463C359.929 47.2929 357.525 39.3659 351.104 35.941C347.172 33.8436 342.646 33.9209 338.935 35.755C338.438 31.6763 336.012 27.8906 332.081 25.7932Z" fill="#C6DDFF"/>
<path opacity="0.5" d="M301.658 66.6448C298.254 64.8292 294.011 66.0877 292.179 69.4556C288.864 75.5538 293.132 84.9826 296.353 88.3641C300.976 89.1665 311.273 87.5077 314.589 81.4095C316.42 78.0416 315.146 73.8396 311.742 72.024C309.658 70.9122 307.258 70.9532 305.291 71.9254C305.028 69.7634 303.742 67.7566 301.658 66.6448Z" fill="#C6DDFF"/>
<path opacity="0.5" d="M378.007 21.2405C374.604 19.4249 370.36 20.6834 368.529 24.0513C365.213 30.1495 369.482 39.5783 372.702 42.9598C377.325 43.7622 387.623 42.1034 390.939 36.0052C392.77 32.6373 391.495 28.4353 388.092 26.6197C386.007 25.5079 383.608 25.5489 381.641 26.5212C381.378 24.3591 380.092 22.3523 378.007 21.2405Z" fill="#C6DDFF"/>
<path opacity="0.5" d="M353.501 1.49457C351.284 0.312098 348.52 1.13175 347.328 3.32528C345.168 7.29704 347.948 13.4381 350.046 15.6405C353.057 16.163 359.764 15.0827 361.923 11.1109C363.116 8.9174 362.286 6.18058 360.069 4.99811C358.712 4.27399 357.149 4.30067 355.867 4.93391C355.696 3.52573 354.859 2.21869 353.501 1.49457Z" fill="#C6DDFF"/>
<path opacity="0.5" d="M374.312 65.7422C372.304 64.6711 369.8 65.4135 368.72 67.4005C366.763 70.9983 369.282 76.5612 371.182 78.5562C373.909 79.0296 379.985 78.0509 381.941 74.4531C383.021 72.4661 382.269 69.987 380.261 68.9159C379.032 68.2599 377.616 68.2841 376.455 68.8577C376.3 67.5821 375.541 66.3981 374.312 65.7422Z" fill="#C6DDFF"/>
<path opacity="0.5" d="M385.661 51.5888C384.399 50.9152 382.824 51.3821 382.145 52.6317C380.915 54.8943 382.498 58.3926 383.693 59.6472C385.408 59.9449 389.229 59.3295 390.459 57.0669C391.139 55.8173 390.666 54.2583 389.403 53.5847C388.63 53.1722 387.739 53.1874 387.01 53.5481C386.912 52.7459 386.435 52.0013 385.661 51.5888Z" fill="#C6DDFF"/>
<path opacity="0.5" d="M382.248 -2.67204C380.351 -3.68375 377.986 -2.98246 376.966 -1.10569C375.118 2.29252 377.497 7.54674 379.291 9.4311C381.868 9.87821 387.606 8.95386 389.454 5.55565C390.474 3.67888 389.764 1.33728 387.867 0.325569C386.706 -0.293986 385.369 -0.271155 384.272 0.270636C384.126 -0.934192 383.409 -2.05248 382.248 -2.67204Z" fill="#C6DDFF"/>
</g>
</g>
<path d="M110.623 32.366H112.117C112.825 32.366 113.389 32.21 113.809 31.898C114.229 31.586 114.439 31.124 114.439 30.512C114.439 29.912 114.229 29.456 113.809 29.144C113.389 28.832 112.771 28.676 111.955 28.676C111.715 28.676 111.481 28.688 111.253 28.712C111.025 28.724 110.815 28.748 110.623 28.784V32.366ZM112.279 34.148H108.355V27.974C108.355 27.758 108.415 27.59 108.535 27.47C108.667 27.35 108.835 27.254 109.039 27.182C109.423 27.062 109.873 26.972 110.389 26.912C110.917 26.852 111.451 26.822 111.991 26.822C113.575 26.822 114.757 27.152 115.537 27.812C116.329 28.46 116.725 29.354 116.725 30.494C116.725 31.214 116.539 31.85 116.167 32.402C115.807 32.954 115.297 33.386 114.637 33.698C113.977 33.998 113.191 34.148 112.279 34.148ZM111.973 33.572L113.917 33.014C114.217 33.41 114.523 33.812 114.835 34.22C115.159 34.616 115.465 35.006 115.753 35.39C116.053 35.762 116.317 36.104 116.545 36.416C116.785 36.728 116.971 36.986 117.103 37.19C117.019 37.49 116.857 37.724 116.617 37.892C116.389 38.06 116.137 38.144 115.861 38.144C115.501 38.144 115.219 38.066 115.015 37.91C114.823 37.742 114.637 37.52 114.457 37.244L111.973 33.572ZM108.355 33.356H110.641V37.964C110.545 38 110.395 38.03 110.191 38.054C109.999 38.09 109.795 38.108 109.579 38.108C109.147 38.108 108.835 38.03 108.643 37.874C108.451 37.706 108.355 37.43 108.355 37.046V33.356ZM119.657 34.868L119.567 33.32L124.391 32.6C124.355 32.144 124.181 31.748 123.869 31.412C123.557 31.076 123.101 30.908 122.501 30.908C121.889 30.908 121.379 31.124 120.971 31.556C120.563 31.976 120.353 32.582 120.341 33.374L120.395 34.31C120.503 35.078 120.797 35.642 121.277 36.002C121.769 36.362 122.387 36.542 123.131 36.542C123.635 36.542 124.103 36.47 124.535 36.326C124.967 36.17 125.309 36.002 125.561 35.822C125.729 35.93 125.861 36.068 125.957 36.236C126.065 36.392 126.119 36.566 126.119 36.758C126.119 37.07 125.981 37.34 125.705 37.568C125.429 37.784 125.057 37.952 124.589 38.072C124.121 38.192 123.587 38.252 122.987 38.252C122.063 38.252 121.241 38.084 120.521 37.748C119.813 37.4 119.255 36.884 118.847 36.2C118.451 35.516 118.253 34.664 118.253 33.644C118.253 32.912 118.367 32.27 118.595 31.718C118.823 31.166 119.129 30.71 119.513 30.35C119.909 29.978 120.365 29.702 120.881 29.522C121.397 29.33 121.937 29.234 122.501 29.234C123.293 29.234 123.983 29.396 124.571 29.72C125.171 30.032 125.639 30.47 125.975 31.034C126.323 31.598 126.497 32.246 126.497 32.978C126.497 33.314 126.407 33.566 126.227 33.734C126.059 33.89 125.819 33.986 125.507 34.022L119.657 34.868ZM135.717 32.114V34.166H133.503V32.366C133.503 31.898 133.359 31.556 133.071 31.34C132.795 31.112 132.441 30.998 132.009 30.998C131.697 30.998 131.409 31.046 131.145 31.142C130.893 31.226 130.677 31.328 130.497 31.448V34.166H128.283V31.304C128.283 31.016 128.343 30.782 128.463 30.602C128.583 30.41 128.763 30.236 129.003 30.08C129.375 29.828 129.831 29.624 130.371 29.468C130.923 29.312 131.493 29.234 132.081 29.234C132.669 29.234 133.209 29.324 133.701 29.504C134.193 29.684 134.595 29.948 134.907 30.296C134.991 30.368 135.069 30.44 135.141 30.512C135.213 30.584 135.273 30.668 135.321 30.764C135.429 30.944 135.519 31.154 135.591 31.394C135.675 31.622 135.717 31.862 135.717 32.114ZM140.919 32.294V34.166H138.705V32.366C138.705 31.898 138.573 31.556 138.309 31.34C138.045 31.112 137.691 30.998 137.247 30.998C136.923 30.998 136.605 31.064 136.293 31.196C135.993 31.328 135.735 31.502 135.519 31.718L134.403 30.368C134.775 30.056 135.213 29.792 135.717 29.576C136.221 29.348 136.821 29.234 137.517 29.234C138.153 29.234 138.729 29.336 139.245 29.54C139.761 29.744 140.169 30.074 140.469 30.53C140.769 30.986 140.919 31.574 140.919 32.294ZM128.283 33.302H130.497V37.964C130.401 38 130.263 38.03 130.083 38.054C129.903 38.09 129.705 38.108 129.489 38.108C129.081 38.108 128.775 38.036 128.571 37.892C128.379 37.736 128.283 37.466 128.283 37.082V33.302ZM133.503 33.302H135.717V37.964C135.621 38 135.477 38.03 135.285 38.054C135.105 38.09 134.913 38.108 134.709 38.108C134.289 38.108 133.983 38.036 133.791 37.892C133.599 37.736 133.503 37.466 133.503 37.082V33.302ZM138.705 33.302H140.919V37.964C140.835 38 140.697 38.03 140.505 38.054C140.325 38.09 140.133 38.108 139.929 38.108C139.509 38.108 139.197 38.036 138.993 37.892C138.801 37.736 138.705 37.466 138.705 37.082V33.302ZM151.594 33.734C151.594 34.658 151.414 35.462 151.054 36.146C150.694 36.818 150.184 37.34 149.524 37.712C148.876 38.072 148.108 38.252 147.22 38.252C146.332 38.252 145.558 38.072 144.898 37.712C144.238 37.34 143.722 36.818 143.35 36.146C142.99 35.474 142.81 34.67 142.81 33.734C142.81 32.81 142.996 32.012 143.368 31.34C143.74 30.668 144.256 30.152 144.916 29.792C145.576 29.42 146.344 29.234 147.22 29.234C148.096 29.234 148.858 29.42 149.506 29.792C150.166 30.152 150.676 30.674 151.036 31.358C151.408 32.03 151.594 32.822 151.594 33.734ZM147.22 30.998C146.56 30.998 146.038 31.238 145.654 31.718C145.282 32.198 145.096 32.87 145.096 33.734C145.096 34.622 145.282 35.306 145.654 35.786C146.026 36.254 146.548 36.488 147.22 36.488C147.88 36.488 148.396 36.248 148.768 35.768C149.14 35.288 149.326 34.61 149.326 33.734C149.326 32.882 149.14 32.216 148.768 31.736C148.396 31.244 147.88 30.998 147.22 30.998ZM159.831 29.306C160.143 29.306 160.401 29.378 160.605 29.522C160.809 29.666 160.911 29.894 160.911 30.206C160.911 30.398 160.845 30.722 160.713 31.178C160.593 31.622 160.431 32.144 160.227 32.744C160.023 33.344 159.795 33.962 159.543 34.598C159.303 35.234 159.057 35.84 158.805 36.416C158.553 36.98 158.325 37.454 158.121 37.838C158.013 37.922 157.839 37.994 157.599 38.054C157.371 38.114 157.113 38.144 156.825 38.144C156.489 38.144 156.201 38.096 155.961 38C155.721 37.916 155.553 37.778 155.457 37.586C155.325 37.334 155.157 36.98 154.953 36.524C154.761 36.068 154.551 35.546 154.323 34.958C154.095 34.37 153.867 33.764 153.639 33.14C153.411 32.516 153.201 31.916 153.009 31.34C152.829 30.764 152.679 30.254 152.559 29.81C152.691 29.666 152.859 29.546 153.063 29.45C153.279 29.354 153.501 29.306 153.729 29.306C154.041 29.306 154.293 29.378 154.485 29.522C154.689 29.654 154.839 29.9 154.935 30.26L155.853 33.266C155.949 33.578 156.057 33.92 156.177 34.292C156.309 34.652 156.429 35 156.537 35.336C156.645 35.66 156.735 35.936 156.807 36.164H156.879C157.239 35.108 157.587 34.01 157.923 32.87C158.271 31.73 158.571 30.62 158.823 29.54C159.111 29.384 159.447 29.306 159.831 29.306ZM163.444 34.868L163.354 33.32L168.178 32.6C168.142 32.144 167.968 31.748 167.656 31.412C167.344 31.076 166.888 30.908 166.288 30.908C165.676 30.908 165.166 31.124 164.758 31.556C164.35 31.976 164.14 32.582 164.128 33.374L164.182 34.31C164.29 35.078 164.584 35.642 165.064 36.002C165.556 36.362 166.174 36.542 166.918 36.542C167.422 36.542 167.89 36.47 168.322 36.326C168.754 36.17 169.096 36.002 169.348 35.822C169.516 35.93 169.648 36.068 169.744 36.236C169.852 36.392 169.906 36.566 169.906 36.758C169.906 37.07 169.768 37.34 169.492 37.568C169.216 37.784 168.844 37.952 168.376 38.072C167.908 38.192 167.374 38.252 166.774 38.252C165.85 38.252 165.028 38.084 164.308 37.748C163.6 37.4 163.042 36.884 162.634 36.2C162.238 35.516 162.04 34.664 162.04 33.644C162.04 32.912 162.154 32.27 162.382 31.718C162.61 31.166 162.916 30.71 163.3 30.35C163.696 29.978 164.152 29.702 164.668 29.522C165.184 29.33 165.724 29.234 166.288 29.234C167.08 29.234 167.77 29.396 168.358 29.72C168.958 30.032 169.426 30.47 169.762 31.034C170.11 31.598 170.284 32.246 170.284 32.978C170.284 33.314 170.194 33.566 170.014 33.734C169.846 33.89 169.606 33.986 169.294 34.022L163.444 34.868ZM177.704 36.128V30.476H179.918V36.362C179.918 36.626 179.858 36.848 179.738 37.028C179.63 37.196 179.45 37.358 179.198 37.514C178.91 37.706 178.514 37.874 178.01 38.018C177.518 38.174 176.954 38.252 176.318 38.252C175.37 38.252 174.542 38.096 173.834 37.784C173.138 37.46 172.598 36.968 172.214 36.308C171.83 35.636 171.638 34.79 171.638 33.77C171.638 32.726 171.83 31.868 172.214 31.196C172.61 30.524 173.138 30.032 173.798 29.72C174.458 29.396 175.19 29.234 175.994 29.234C176.438 29.234 176.84 29.288 177.2 29.396C177.572 29.504 177.872 29.63 178.1 29.774V31.664C177.908 31.484 177.656 31.328 177.344 31.196C177.032 31.064 176.672 30.998 176.264 30.998C175.82 30.998 175.418 31.094 175.058 31.286C174.698 31.466 174.416 31.766 174.212 32.186C174.008 32.594 173.906 33.128 173.906 33.788C173.906 34.724 174.122 35.408 174.554 35.84C174.986 36.272 175.568 36.488 176.3 36.488C176.624 36.488 176.9 36.452 177.128 36.38C177.356 36.308 177.548 36.224 177.704 36.128ZM179.918 30.926L177.704 30.944V26.3C177.788 26.276 177.92 26.246 178.1 26.21C178.292 26.174 178.49 26.156 178.694 26.156C179.126 26.156 179.438 26.234 179.63 26.39C179.822 26.534 179.918 26.798 179.918 27.182V30.926ZM192.457 35.588C192.457 36.428 192.145 37.088 191.521 37.568C190.897 38.036 189.991 38.27 188.803 38.27C187.843 38.27 187.057 38.126 186.445 37.838C185.833 37.55 185.527 37.166 185.527 36.686C185.527 36.482 185.575 36.296 185.671 36.128C185.767 35.948 185.893 35.81 186.049 35.714C186.385 35.93 186.775 36.122 187.219 36.29C187.663 36.458 188.167 36.542 188.731 36.542C189.751 36.542 190.261 36.23 190.261 35.606C190.261 35.342 190.171 35.132 189.991 34.976C189.811 34.808 189.535 34.688 189.163 34.616L188.137 34.346C187.261 34.154 186.607 33.854 186.175 33.446C185.755 33.038 185.545 32.492 185.545 31.808C185.545 31.052 185.857 30.434 186.481 29.954C187.105 29.462 187.969 29.216 189.073 29.216C189.649 29.216 190.165 29.276 190.621 29.396C191.077 29.504 191.431 29.666 191.683 29.882C191.947 30.098 192.079 30.356 192.079 30.656C192.079 30.86 192.031 31.046 191.935 31.214C191.851 31.37 191.737 31.49 191.593 31.574C191.449 31.49 191.251 31.4 190.999 31.304C190.759 31.196 190.483 31.112 190.171 31.052C189.859 30.98 189.547 30.944 189.235 30.944C188.767 30.944 188.395 31.022 188.119 31.178C187.855 31.322 187.723 31.532 187.723 31.808C187.723 32.012 187.801 32.186 187.957 32.33C188.113 32.474 188.377 32.588 188.749 32.672L189.667 32.888C190.639 33.116 191.347 33.452 191.791 33.896C192.235 34.328 192.457 34.892 192.457 35.588ZM194.306 34.742V33.32H196.52V34.706C196.52 35.342 196.682 35.798 197.006 36.074C197.342 36.35 197.804 36.488 198.392 36.488C198.776 36.488 199.1 36.452 199.364 36.38C199.628 36.308 199.826 36.23 199.958 36.146V33.32H202.172V36.326C202.172 36.602 202.124 36.836 202.028 37.028C201.944 37.208 201.776 37.376 201.524 37.532C201.176 37.736 200.732 37.904 200.192 38.036C199.664 38.18 199.058 38.252 198.374 38.252C197.546 38.252 196.826 38.132 196.214 37.892C195.602 37.652 195.128 37.274 194.792 36.758C194.468 36.23 194.306 35.558 194.306 34.742ZM202.172 34.184H199.958V29.504C200.054 29.48 200.192 29.456 200.372 29.432C200.564 29.396 200.762 29.378 200.966 29.378C201.386 29.378 201.692 29.45 201.884 29.594C202.076 29.738 202.172 30.008 202.172 30.404V34.184ZM196.52 34.184H194.306V29.504C194.402 29.48 194.54 29.456 194.72 29.432C194.9 29.396 195.098 29.378 195.314 29.378C195.734 29.378 196.04 29.45 196.232 29.594C196.424 29.738 196.52 30.008 196.52 30.404V34.184ZM208.858 31.016C208.138 31.016 207.532 31.25 207.04 31.718C206.56 32.186 206.32 32.87 206.32 33.77C206.32 34.658 206.554 35.33 207.022 35.786C207.49 36.242 208.096 36.47 208.84 36.47C209.284 36.47 209.656 36.416 209.956 36.308C210.268 36.188 210.538 36.062 210.766 35.93C210.946 36.038 211.084 36.17 211.18 36.326C211.288 36.47 211.342 36.65 211.342 36.866C211.342 37.274 211.096 37.61 210.604 37.874C210.112 38.126 209.464 38.252 208.66 38.252C207.748 38.252 206.944 38.09 206.248 37.766C205.564 37.43 205.024 36.926 204.628 36.254C204.244 35.582 204.052 34.754 204.052 33.77C204.052 32.75 204.256 31.904 204.664 31.232C205.084 30.56 205.636 30.062 206.32 29.738C207.016 29.402 207.778 29.234 208.606 29.234C209.398 29.234 210.034 29.372 210.514 29.648C210.994 29.924 211.234 30.266 211.234 30.674C211.234 30.854 211.186 31.022 211.09 31.178C210.994 31.334 210.88 31.46 210.748 31.556C210.508 31.412 210.238 31.286 209.938 31.178C209.638 31.07 209.278 31.016 208.858 31.016ZM217.331 31.016C216.611 31.016 216.005 31.25 215.513 31.718C215.033 32.186 214.793 32.87 214.793 33.77C214.793 34.658 215.027 35.33 215.495 35.786C215.963 36.242 216.569 36.47 217.313 36.47C217.757 36.47 218.129 36.416 218.429 36.308C218.741 36.188 219.011 36.062 219.239 35.93C219.419 36.038 219.557 36.17 219.653 36.326C219.761 36.47 219.815 36.65 219.815 36.866C219.815 37.274 219.569 37.61 219.077 37.874C218.585 38.126 217.937 38.252 217.133 38.252C216.221 38.252 215.417 38.09 214.721 37.766C214.037 37.43 213.497 36.926 213.101 36.254C212.717 35.582 212.525 34.754 212.525 33.77C212.525 32.75 212.729 31.904 213.137 31.232C213.557 30.56 214.109 30.062 214.793 29.738C215.489 29.402 216.251 29.234 217.079 29.234C217.871 29.234 218.507 29.372 218.987 29.648C219.467 29.924 219.707 30.266 219.707 30.674C219.707 30.854 219.659 31.022 219.563 31.178C219.467 31.334 219.353 31.46 219.221 31.556C218.981 31.412 218.711 31.286 218.411 31.178C218.111 31.07 217.751 31.016 217.331 31.016ZM222.401 34.868L222.311 33.32L227.135 32.6C227.099 32.144 226.925 31.748 226.613 31.412C226.301 31.076 225.845 30.908 225.245 30.908C224.633 30.908 224.123 31.124 223.715 31.556C223.307 31.976 223.097 32.582 223.085 33.374L223.139 34.31C223.247 35.078 223.541 35.642 224.021 36.002C224.513 36.362 225.131 36.542 225.875 36.542C226.379 36.542 226.847 36.47 227.279 36.326C227.711 36.17 228.053 36.002 228.305 35.822C228.473 35.93 228.605 36.068 228.701 36.236C228.809 36.392 228.863 36.566 228.863 36.758C228.863 37.07 228.725 37.34 228.449 37.568C228.173 37.784 227.801 37.952 227.333 38.072C226.865 38.192 226.331 38.252 225.731 38.252C224.807 38.252 223.985 38.084 223.265 37.748C222.557 37.4 221.999 36.884 221.591 36.2C221.195 35.516 220.997 34.664 220.997 33.644C220.997 32.912 221.111 32.27 221.339 31.718C221.567 31.166 221.873 30.71 222.257 30.35C222.653 29.978 223.109 29.702 223.625 29.522C224.141 29.33 224.681 29.234 225.245 29.234C226.037 29.234 226.727 29.396 227.315 29.72C227.915 30.032 228.383 30.47 228.719 31.034C229.067 31.598 229.241 32.246 229.241 32.978C229.241 33.314 229.151 33.566 228.971 33.734C228.803 33.89 228.563 33.986 228.251 34.022L222.401 34.868ZM237.668 35.588C237.668 36.428 237.356 37.088 236.732 37.568C236.108 38.036 235.202 38.27 234.014 38.27C233.054 38.27 232.268 38.126 231.656 37.838C231.044 37.55 230.738 37.166 230.738 36.686C230.738 36.482 230.786 36.296 230.882 36.128C230.978 35.948 231.104 35.81 231.26 35.714C231.596 35.93 231.986 36.122 232.43 36.29C232.874 36.458 233.378 36.542 233.942 36.542C234.962 36.542 235.472 36.23 235.472 35.606C235.472 35.342 235.382 35.132 235.202 34.976C235.022 34.808 234.746 34.688 234.374 34.616L233.348 34.346C232.472 34.154 231.818 33.854 231.386 33.446C230.966 33.038 230.756 32.492 230.756 31.808C230.756 31.052 231.068 30.434 231.692 29.954C232.316 29.462 233.18 29.216 234.284 29.216C234.86 29.216 235.376 29.276 235.832 29.396C236.288 29.504 236.642 29.666 236.894 29.882C237.158 30.098 237.29 30.356 237.29 30.656C237.29 30.86 237.242 31.046 237.146 31.214C237.062 31.37 236.948 31.49 236.804 31.574C236.66 31.49 236.462 31.4 236.21 31.304C235.97 31.196 235.694 31.112 235.382 31.052C235.07 30.98 234.758 30.944 234.446 30.944C233.978 30.944 233.606 31.022 233.33 31.178C233.066 31.322 232.934 31.532 232.934 31.808C232.934 32.012 233.012 32.186 233.168 32.33C233.324 32.474 233.588 32.588 233.96 32.672L234.878 32.888C235.85 33.116 236.558 33.452 237.002 33.896C237.446 34.328 237.668 34.892 237.668 35.588ZM246.105 35.588C246.105 36.428 245.793 37.088 245.169 37.568C244.545 38.036 243.639 38.27 242.451 38.27C241.491 38.27 240.705 38.126 240.093 37.838C239.481 37.55 239.175 37.166 239.175 36.686C239.175 36.482 239.223 36.296 239.319 36.128C239.415 35.948 239.541 35.81 239.697 35.714C240.033 35.93 240.423 36.122 240.867 36.29C241.311 36.458 241.815 36.542 242.379 36.542C243.399 36.542 243.909 36.23 243.909 35.606C243.909 35.342 243.819 35.132 243.639 34.976C243.459 34.808 243.183 34.688 242.811 34.616L241.785 34.346C240.909 34.154 240.255 33.854 239.823 33.446C239.403 33.038 239.193 32.492 239.193 31.808C239.193 31.052 239.505 30.434 240.129 29.954C240.753 29.462 241.617 29.216 242.721 29.216C243.297 29.216 243.813 29.276 244.269 29.396C244.725 29.504 245.079 29.666 245.331 29.882C245.595 30.098 245.727 30.356 245.727 30.656C245.727 30.86 245.679 31.046 245.583 31.214C245.499 31.37 245.385 31.49 245.241 31.574C245.097 31.49 244.899 31.4 244.647 31.304C244.407 31.196 244.131 31.112 243.819 31.052C243.507 30.98 243.195 30.944 242.883 30.944C242.415 30.944 242.043 31.022 241.767 31.178C241.503 31.322 241.371 31.532 241.371 31.808C241.371 32.012 241.449 32.186 241.605 32.33C241.761 32.474 242.025 32.588 242.397 32.672L243.315 32.888C244.287 33.116 244.995 33.452 245.439 33.896C245.883 34.328 246.105 34.892 246.105 35.588ZM249.773 31.772V30.044H253.391C253.439 30.128 253.487 30.248 253.535 30.404C253.595 30.548 253.625 30.716 253.625 30.908C253.625 31.208 253.553 31.43 253.409 31.574C253.277 31.706 253.085 31.772 252.833 31.772H249.773ZM250.115 29.18V31.502H247.991V29.09C247.991 28.334 248.141 27.722 248.441 27.254C248.753 26.774 249.179 26.426 249.719 26.21C250.271 25.982 250.895 25.868 251.591 25.868C252.371 25.868 252.965 25.97 253.373 26.174C253.781 26.378 253.985 26.684 253.985 27.092C253.985 27.272 253.943 27.44 253.859 27.596C253.787 27.74 253.697 27.86 253.589 27.956C253.361 27.86 253.103 27.782 252.815 27.722C252.539 27.662 252.245 27.632 251.933 27.632C251.297 27.632 250.835 27.752 250.547 27.992C250.259 28.232 250.115 28.628 250.115 29.18ZM247.991 30.872H250.205V37.964C250.109 38 249.971 38.03 249.791 38.054C249.611 38.09 249.413 38.108 249.197 38.108C248.789 38.108 248.483 38.036 248.279 37.892C248.087 37.736 247.991 37.466 247.991 37.082V30.872ZM255.144 34.742V33.32H257.358V34.706C257.358 35.342 257.52 35.798 257.844 36.074C258.18 36.35 258.642 36.488 259.23 36.488C259.614 36.488 259.938 36.452 260.202 36.38C260.466 36.308 260.664 36.23 260.796 36.146V33.32H263.01V36.326C263.01 36.602 262.962 36.836 262.866 37.028C262.782 37.208 262.614 37.376 262.362 37.532C262.014 37.736 261.57 37.904 261.03 38.036C260.502 38.18 259.896 38.252 259.212 38.252C258.384 38.252 257.664 38.132 257.052 37.892C256.44 37.652 255.966 37.274 255.63 36.758C255.306 36.23 255.144 35.558 255.144 34.742ZM263.01 34.184H260.796V29.504C260.892 29.48 261.03 29.456 261.21 29.432C261.402 29.396 261.6 29.378 261.804 29.378C262.224 29.378 262.53 29.45 262.722 29.594C262.914 29.738 263.01 30.008 263.01 30.404V34.184ZM257.358 34.184H255.144V29.504C255.24 29.48 255.378 29.456 255.558 29.432C255.738 29.396 255.936 29.378 256.152 29.378C256.572 29.378 256.878 29.45 257.07 29.594C257.262 29.738 257.358 30.008 257.358 30.404V34.184ZM265.448 33.248L267.662 33.356V37.964C267.566 38 267.428 38.03 267.248 38.054C267.068 38.09 266.87 38.108 266.654 38.108C266.246 38.108 265.94 38.036 265.736 37.892C265.544 37.736 265.448 37.466 265.448 37.082V33.248ZM267.662 34.49L265.448 34.382V26.3C265.532 26.276 265.664 26.246 265.844 26.21C266.036 26.174 266.234 26.156 266.438 26.156C266.87 26.156 267.182 26.234 267.374 26.39C267.566 26.534 267.662 26.798 267.662 27.182V34.49ZM270.229 33.248L272.443 33.356V37.964C272.347 38 272.209 38.03 272.029 38.054C271.849 38.09 271.651 38.108 271.435 38.108C271.027 38.108 270.721 38.036 270.517 37.892C270.325 37.736 270.229 37.466 270.229 37.082V33.248ZM272.443 34.49L270.229 34.382V26.3C270.313 26.276 270.445 26.246 270.625 26.21C270.817 26.174 271.015 26.156 271.219 26.156C271.651 26.156 271.963 26.234 272.155 26.39C272.347 26.534 272.443 26.798 272.443 27.182V34.49ZM276.379 35.966C276.187 35.57 275.965 35.078 275.713 34.49C275.473 33.89 275.221 33.2 274.957 32.42C274.693 31.628 274.423 30.758 274.147 29.81C274.279 29.666 274.447 29.546 274.651 29.45C274.855 29.354 275.077 29.306 275.317 29.306C275.629 29.306 275.881 29.378 276.073 29.522C276.277 29.654 276.433 29.9 276.541 30.26C276.853 31.196 277.165 32.12 277.477 33.032C277.801 33.944 278.143 34.874 278.503 35.822H278.575C278.803 35.294 279.031 34.676 279.259 33.968C279.487 33.248 279.703 32.504 279.907 31.736C280.123 30.968 280.303 30.236 280.447 29.54C280.591 29.468 280.741 29.414 280.897 29.378C281.053 29.33 281.221 29.306 281.401 29.306C281.701 29.306 281.959 29.378 282.175 29.522C282.403 29.654 282.517 29.882 282.517 30.206C282.517 30.494 282.463 30.878 282.355 31.358C282.259 31.826 282.121 32.348 281.941 32.924C281.761 33.5 281.551 34.1 281.311 34.724C281.083 35.348 280.837 35.954 280.573 36.542C280.321 37.118 280.063 37.64 279.799 38.108C279.187 39.2 278.623 40.022 278.107 40.574C277.591 41.138 277.093 41.42 276.613 41.42C276.241 41.42 275.935 41.306 275.695 41.078C275.467 40.862 275.329 40.592 275.281 40.268C275.545 40.04 275.821 39.764 276.109 39.44C276.409 39.128 276.697 38.792 276.973 38.432C277.249 38.072 277.483 37.718 277.675 37.37C277.471 37.31 277.267 37.19 277.063 37.01C276.859 36.818 276.631 36.47 276.379 35.966Z" fill="white"/>
<defs>
<filter id="filter0_d_977_4180" x="-16" y="-6" width="422" height="99" filterUnits="userSpaceOnUse" color-interpolation-filters="sRGB">
<feFlood flood-opacity="0" result="BackgroundImageFix"/>
<feColorMatrix in="SourceAlpha" type="matrix" values="0 0 0 0 0 0 0 0 0 0 0 0 0 0 0 0 0 0 127 0" result="hardAlpha"/>
<feOffset dy="10"/>
<feGaussianBlur stdDeviation="8"/>
<feColorMatrix type="matrix" values="0 0 0 0 0 0 0 0 0 0 0 0 0 0 0 0 0 0 0.05 0"/>
<feBlend mode="normal" in2="BackgroundImageFix" result="effect1_dropShadow_977_4180"/>
<feBlend mode="normal" in="SourceGraphic" in2="effect1_dropShadow_977_4180" result="shape"/>
</filter>
<linearGradient id="paint0_linear_977_4180" x1="190.5" y1="15.3245" x2="189.738" y2="73.0682" gradientUnits="userSpaceOnUse">
<stop stop-color="#4D6EFF"/>
<stop offset="1" stop-color="#2850FF"/>
</linearGradient>
</defs>
</svg>
