<svg width="390" height="90" viewBox="0 0 390 90" fill="none" xmlns="http://www.w3.org/2000/svg">
<g filter="url(#filter0_d_1043_9666)">
<rect y="-3" width="390" height="67" fill="#67AD5C"/>
</g>
<mask id="mask0_1043_9666" style="mask-type:alpha" maskUnits="userSpaceOnUse" x="0" y="-3" width="390" height="67">
<rect y="-3" width="390" height="67" fill="url(#paint0_linear_1043_9666)"/>
</mask>
<g mask="url(#mask0_1043_9666)">
<g opacity="0.25">
<path opacity="0.5" d="M0.371133 1.2936C-4.04797 -2.72187 -10.9055 -2.43799 -14.9456 1.9276C-22.2609 9.83226 -19.4548 25.6109 -15.9099 31.9093C-9.27104 34.8645 6.83551 36.271 14.1508 28.3663C18.1908 24.0007 17.8836 17.2065 13.4645 13.191C10.7583 10.732 7.13764 9.8853 3.80963 10.6009C4.24153 7.25372 3.07731 3.7526 0.371133 1.2936Z" fill="#C6DDFF"/>
<path opacity="0.5" d="M36.9237 6.58693C34.8949 4.74346 31.7466 4.87378 29.8919 6.878C26.5335 10.507 27.8217 17.7508 29.4492 20.6424C32.497 21.9991 39.8914 22.6448 43.2498 19.0158C45.1046 17.0116 44.9635 13.8924 42.9348 12.049C41.6924 10.92 40.0301 10.5313 38.5023 10.8599C38.7006 9.32318 38.1661 7.71584 36.9237 6.58693Z" fill="#C6DDFF"/>
<path opacity="0.5" d="M22.3597 -13.7549C20.834 -15.1413 18.4664 -15.0433 17.0716 -13.536C14.5459 -10.8069 15.5148 -5.35931 16.7386 -3.18477C19.0307 -2.16449 24.5916 -1.67888 27.1172 -4.40798C28.512 -5.91521 28.4059 -8.26095 26.8802 -9.6473C25.9459 -10.4963 24.6959 -10.7886 23.5469 -10.5415C23.696 -11.6972 23.294 -12.9059 22.3597 -13.7549Z" fill="#C6DDFF"/>
<path opacity="0.5" d="M2.93222 42.8403C1.40651 41.4539 -0.961084 41.5519 -2.35593 43.0592C-4.88154 45.7883 -3.91273 51.2359 -2.68885 53.4104C-0.396766 54.4307 5.16407 54.9163 7.68968 52.1872C9.08452 50.68 8.97845 48.3343 7.45274 46.9479C6.51843 46.0989 5.26838 45.8066 4.11937 46.0537C4.26849 44.898 3.86654 43.6893 2.93222 42.8403Z" fill="#C6DDFF"/>
<path opacity="0.5" d="M25.9031 41.5786C24.521 40.3227 22.3763 40.4115 21.1128 41.7768C18.825 44.249 19.7026 49.1837 20.8113 51.1535C22.8875 52.0777 27.9248 52.5176 30.2126 50.0455C31.4761 48.6801 31.38 46.5552 29.998 45.2994C29.1516 44.5304 28.0193 44.2656 26.9785 44.4894C27.1135 43.4426 26.7494 42.3476 25.9031 41.5786Z" fill="#C6DDFF"/>
<path opacity="0.5" d="M37.814 32.5862C36.9448 31.7965 35.5961 31.8523 34.8015 32.7109C33.3627 34.2656 33.9146 37.3689 34.6118 38.6077C35.9176 39.1889 39.0854 39.4655 40.5241 37.9108C41.3187 37.0522 41.2583 35.7159 40.3891 34.9262C39.8569 34.4426 39.1448 34.276 38.4902 34.4168C38.5752 33.7585 38.3462 33.0699 37.814 32.5862Z" fill="#C6DDFF"/>
<path opacity="0.5" d="M46.1002 -11.3039C44.7948 -12.4901 42.7691 -12.4062 41.5757 -11.1167C39.4148 -8.78165 40.2437 -4.12071 41.2908 -2.26019C43.2519 -1.38724 48.0097 -0.971757 50.1706 -3.30676C51.3641 -4.59634 51.2733 -6.60334 49.9679 -7.78948C49.1685 -8.51586 48.099 -8.76599 47.1159 -8.55459C47.2435 -9.54334 46.8996 -10.5776 46.1002 -11.3039Z" fill="#C6DDFF"/>
</g>
<g opacity="0.25">
<path opacity="0.5" d="M332.081 22.7922C325.66 19.3673 317.655 21.7413 314.2 28.0947C307.945 39.5987 315.998 57.3857 322.073 63.7648C330.794 65.2784 350.22 62.1492 356.475 50.6453C359.929 44.2919 357.525 36.3649 351.104 32.94C347.172 30.8426 342.646 30.9199 338.935 32.754C338.438 28.6753 336.012 24.8896 332.081 22.7922Z" fill="#C6DDFF"/>
<path opacity="0.5" d="M301.658 63.6438C298.254 61.8282 294.011 63.0867 292.179 66.4546C288.864 72.5528 293.132 81.9816 296.353 85.3631C300.976 86.1655 311.273 84.5067 314.589 78.4086C316.42 75.0406 315.146 70.8386 311.742 69.0231C309.658 67.9112 307.258 67.9522 305.291 68.9245C305.028 66.7624 303.742 64.7556 301.658 63.6438Z" fill="#C6DDFF"/>
<path opacity="0.5" d="M378.008 18.2409C374.604 16.4254 370.36 17.6839 368.529 21.0518C365.213 27.15 369.482 36.5788 372.703 39.9603C377.326 40.7627 387.623 39.1039 390.939 33.0057C392.77 29.6378 391.495 25.4358 388.092 23.6202C386.008 22.5084 383.608 22.5494 381.641 23.5216C381.378 21.3595 380.092 19.3528 378.008 18.2409Z" fill="#C6DDFF"/>
<path opacity="0.5" d="M353.501 -1.50543C351.284 -2.6879 348.52 -1.86825 347.327 0.325278C345.168 4.29704 347.948 10.4381 350.045 12.6405C353.056 13.163 359.763 12.0827 361.923 8.11093C363.115 5.9174 362.285 3.18058 360.069 1.99811C358.711 1.27399 357.148 1.30067 355.867 1.93391C355.696 0.525727 354.858 -0.781307 353.501 -1.50543Z" fill="#C6DDFF"/>
<path opacity="0.5" d="M374.311 62.7432C372.303 61.672 369.8 62.4145 368.719 64.4015C366.763 67.9993 369.282 73.5622 371.182 75.5572C373.909 76.0306 379.984 75.0519 381.941 71.4541C383.021 69.4671 382.269 66.988 380.261 65.9168C379.031 65.2609 377.616 65.2851 376.455 65.8587C376.3 64.5831 375.541 63.3991 374.311 62.7432Z" fill="#C6DDFF"/>
<path opacity="0.5" d="M385.662 48.5893C384.399 47.9157 382.824 48.3826 382.145 49.6322C380.915 51.8948 382.499 55.3931 383.693 56.6477C385.409 56.9454 389.229 56.33 390.46 54.0674C391.139 52.8178 390.666 51.2588 389.403 50.5851C388.63 50.1726 387.74 50.1878 387.01 50.5486C386.912 49.7464 386.435 49.0018 385.662 48.5893Z" fill="#C6DDFF"/>
<path opacity="0.5" d="M382.247 -5.67252C380.351 -6.68424 377.986 -5.98295 376.966 -4.10618C375.118 -0.707971 377.497 4.54625 379.291 6.43061C381.867 6.87772 387.606 5.95337 389.453 2.55516C390.474 0.678392 389.763 -1.66321 387.867 -2.67492C386.705 -3.29447 385.368 -3.27164 384.272 -2.72985C384.125 -3.93468 383.409 -5.05297 382.247 -5.67252Z" fill="#C6DDFF"/>
</g>
</g>
<path d="M117.07 29.366H118.564C119.272 29.366 119.836 29.21 120.256 28.898C120.676 28.586 120.886 28.124 120.886 27.512C120.886 26.912 120.676 26.456 120.256 26.144C119.836 25.832 119.218 25.676 118.402 25.676C118.162 25.676 117.928 25.688 117.7 25.712C117.472 25.724 117.262 25.748 117.07 25.784V29.366ZM118.726 31.148H114.802V24.974C114.802 24.758 114.862 24.59 114.982 24.47C115.114 24.35 115.282 24.254 115.486 24.182C115.87 24.062 116.32 23.972 116.836 23.912C117.364 23.852 117.898 23.822 118.438 23.822C120.022 23.822 121.204 24.152 121.984 24.812C122.776 25.46 123.172 26.354 123.172 27.494C123.172 28.214 122.986 28.85 122.614 29.402C122.254 29.954 121.744 30.386 121.084 30.698C120.424 30.998 119.638 31.148 118.726 31.148ZM118.42 30.572L120.364 30.014C120.664 30.41 120.97 30.812 121.282 31.22C121.606 31.616 121.912 32.006 122.2 32.39C122.5 32.762 122.764 33.104 122.992 33.416C123.232 33.728 123.418 33.986 123.55 34.19C123.466 34.49 123.304 34.724 123.064 34.892C122.836 35.06 122.584 35.144 122.308 35.144C121.948 35.144 121.666 35.066 121.462 34.91C121.27 34.742 121.084 34.52 120.904 34.244L118.42 30.572ZM114.802 30.356H117.088V34.964C116.992 35 116.842 35.03 116.638 35.054C116.446 35.09 116.242 35.108 116.026 35.108C115.594 35.108 115.282 35.03 115.09 34.874C114.898 34.706 114.802 34.43 114.802 34.046V30.356ZM126.104 31.868L126.014 30.32L130.838 29.6C130.802 29.144 130.628 28.748 130.316 28.412C130.004 28.076 129.548 27.908 128.948 27.908C128.336 27.908 127.826 28.124 127.418 28.556C127.01 28.976 126.8 29.582 126.788 30.374L126.842 31.31C126.95 32.078 127.244 32.642 127.724 33.002C128.216 33.362 128.834 33.542 129.578 33.542C130.082 33.542 130.55 33.47 130.982 33.326C131.414 33.17 131.756 33.002 132.008 32.822C132.176 32.93 132.308 33.068 132.404 33.236C132.512 33.392 132.566 33.566 132.566 33.758C132.566 34.07 132.428 34.34 132.152 34.568C131.876 34.784 131.504 34.952 131.036 35.072C130.568 35.192 130.034 35.252 129.434 35.252C128.51 35.252 127.688 35.084 126.968 34.748C126.26 34.4 125.702 33.884 125.294 33.2C124.898 32.516 124.7 31.664 124.7 30.644C124.7 29.912 124.814 29.27 125.042 28.718C125.27 28.166 125.576 27.71 125.96 27.35C126.356 26.978 126.812 26.702 127.328 26.522C127.844 26.33 128.384 26.234 128.948 26.234C129.74 26.234 130.43 26.396 131.018 26.72C131.618 27.032 132.086 27.47 132.422 28.034C132.77 28.598 132.944 29.246 132.944 29.978C132.944 30.314 132.854 30.566 132.674 30.734C132.506 30.89 132.266 30.986 131.954 31.022L126.104 31.868ZM138.744 35.252C138.264 35.252 137.826 35.186 137.43 35.054C137.046 34.934 136.728 34.796 136.476 34.64V32.732C136.704 32.924 136.974 33.098 137.286 33.254C137.61 33.398 137.988 33.47 138.42 33.47C139.14 33.47 139.71 33.248 140.13 32.804C140.55 32.348 140.76 31.646 140.76 30.698C140.76 30.038 140.658 29.516 140.454 29.132C140.262 28.736 139.992 28.448 139.644 28.268C139.296 28.088 138.906 27.998 138.474 27.998C138.138 27.998 137.844 28.04 137.592 28.124C137.34 28.196 137.124 28.286 136.944 28.394V34.082H134.73V28.178C134.73 27.902 134.784 27.674 134.892 27.494C135 27.314 135.18 27.146 135.432 26.99C135.78 26.786 136.212 26.612 136.728 26.468C137.244 26.312 137.826 26.234 138.474 26.234C139.35 26.234 140.13 26.39 140.814 26.702C141.498 27.002 142.032 27.482 142.416 28.142C142.812 28.802 143.01 29.654 143.01 30.698C143.01 31.706 142.824 32.546 142.452 33.218C142.092 33.89 141.588 34.4 140.94 34.748C140.304 35.084 139.572 35.252 138.744 35.252ZM136.944 33.47V38.222C136.848 38.258 136.71 38.288 136.53 38.312C136.35 38.348 136.152 38.366 135.936 38.366C135.528 38.366 135.222 38.288 135.018 38.132C134.826 37.976 134.73 37.706 134.73 37.322V33.452L136.944 33.47ZM153.26 30.734C153.26 31.658 153.08 32.462 152.72 33.146C152.36 33.818 151.85 34.34 151.19 34.712C150.542 35.072 149.774 35.252 148.886 35.252C147.998 35.252 147.224 35.072 146.564 34.712C145.904 34.34 145.388 33.818 145.016 33.146C144.656 32.474 144.476 31.67 144.476 30.734C144.476 29.81 144.662 29.012 145.034 28.34C145.406 27.668 145.922 27.152 146.582 26.792C147.242 26.42 148.01 26.234 148.886 26.234C149.762 26.234 150.524 26.42 151.172 26.792C151.832 27.152 152.342 27.674 152.702 28.358C153.074 29.03 153.26 29.822 153.26 30.734ZM148.886 27.998C148.226 27.998 147.704 28.238 147.32 28.718C146.948 29.198 146.762 29.87 146.762 30.734C146.762 31.622 146.948 32.306 147.32 32.786C147.692 33.254 148.214 33.488 148.886 33.488C149.546 33.488 150.062 33.248 150.434 32.768C150.806 32.288 150.992 31.61 150.992 30.734C150.992 29.882 150.806 29.216 150.434 28.736C150.062 28.244 149.546 27.998 148.886 27.998ZM157.37 28.52V30.986H155.156V28.34C155.156 28.04 155.228 27.788 155.372 27.584C155.516 27.368 155.72 27.17 155.984 26.99C156.344 26.774 156.8 26.594 157.352 26.45C157.904 26.306 158.498 26.234 159.134 26.234C160.262 26.234 160.826 26.582 160.826 27.278C160.826 27.446 160.802 27.602 160.754 27.746C160.706 27.878 160.646 27.998 160.574 28.106C160.454 28.082 160.304 28.064 160.124 28.052C159.944 28.028 159.752 28.016 159.548 28.016C159.116 28.016 158.708 28.064 158.324 28.16C157.952 28.244 157.634 28.364 157.37 28.52ZM155.156 30.248L157.37 30.356V34.964C157.274 35 157.136 35.03 156.956 35.054C156.776 35.09 156.578 35.108 156.362 35.108C155.954 35.108 155.648 35.036 155.444 34.892C155.252 34.736 155.156 34.466 155.156 34.082V30.248ZM162.311 30.248H164.525V32.372C164.525 32.768 164.639 33.05 164.867 33.218C165.107 33.386 165.443 33.47 165.875 33.47C166.067 33.47 166.271 33.446 166.487 33.398C166.715 33.35 166.907 33.29 167.063 33.218C167.147 33.314 167.225 33.428 167.297 33.56C167.369 33.692 167.405 33.854 167.405 34.046C167.405 34.394 167.237 34.682 166.901 34.91C166.577 35.138 166.067 35.252 165.371 35.252C164.423 35.252 163.673 35.042 163.121 34.622C162.581 34.19 162.311 33.494 162.311 32.534V30.248ZM163.661 28.412V26.666H167.189C167.237 26.75 167.285 26.87 167.333 27.026C167.393 27.182 167.423 27.344 167.423 27.512C167.423 27.812 167.351 28.04 167.207 28.196C167.063 28.34 166.877 28.412 166.649 28.412H163.661ZM164.525 30.734H162.311V24.254C162.407 24.218 162.545 24.182 162.725 24.146C162.917 24.11 163.115 24.092 163.319 24.092C163.739 24.092 164.045 24.17 164.237 24.326C164.429 24.47 164.525 24.734 164.525 25.118V30.734ZM169.997 31.868L169.907 30.32L174.731 29.6C174.695 29.144 174.521 28.748 174.209 28.412C173.897 28.076 173.441 27.908 172.841 27.908C172.229 27.908 171.719 28.124 171.311 28.556C170.903 28.976 170.693 29.582 170.681 30.374L170.735 31.31C170.843 32.078 171.137 32.642 171.617 33.002C172.109 33.362 172.727 33.542 173.471 33.542C173.975 33.542 174.443 33.47 174.875 33.326C175.307 33.17 175.649 33.002 175.901 32.822C176.069 32.93 176.201 33.068 176.297 33.236C176.405 33.392 176.459 33.566 176.459 33.758C176.459 34.07 176.321 34.34 176.045 34.568C175.769 34.784 175.397 34.952 174.929 35.072C174.461 35.192 173.927 35.252 173.327 35.252C172.403 35.252 171.581 35.084 170.861 34.748C170.153 34.4 169.595 33.884 169.187 33.2C168.791 32.516 168.593 31.664 168.593 30.644C168.593 29.912 168.707 29.27 168.935 28.718C169.163 28.166 169.469 27.71 169.853 27.35C170.249 26.978 170.705 26.702 171.221 26.522C171.737 26.33 172.277 26.234 172.841 26.234C173.633 26.234 174.323 26.396 174.911 26.72C175.511 27.032 175.979 27.47 176.315 28.034C176.663 28.598 176.837 29.246 176.837 29.978C176.837 30.314 176.747 30.566 176.567 30.734C176.399 30.89 176.159 30.986 175.847 31.022L169.997 31.868ZM184.257 33.128V27.476H186.471V33.362C186.471 33.626 186.411 33.848 186.291 34.028C186.183 34.196 186.003 34.358 185.751 34.514C185.463 34.706 185.067 34.874 184.563 35.018C184.071 35.174 183.507 35.252 182.871 35.252C181.923 35.252 181.095 35.096 180.387 34.784C179.691 34.46 179.151 33.968 178.767 33.308C178.383 32.636 178.191 31.79 178.191 30.77C178.191 29.726 178.383 28.868 178.767 28.196C179.163 27.524 179.691 27.032 180.351 26.72C181.011 26.396 181.743 26.234 182.547 26.234C182.991 26.234 183.393 26.288 183.753 26.396C184.125 26.504 184.425 26.63 184.653 26.774V28.664C184.461 28.484 184.209 28.328 183.897 28.196C183.585 28.064 183.225 27.998 182.817 27.998C182.373 27.998 181.971 28.094 181.611 28.286C181.251 28.466 180.969 28.766 180.765 29.186C180.561 29.594 180.459 30.128 180.459 30.788C180.459 31.724 180.675 32.408 181.107 32.84C181.539 33.272 182.121 33.488 182.853 33.488C183.177 33.488 183.453 33.452 183.681 33.38C183.909 33.308 184.101 33.224 184.257 33.128ZM186.471 27.926L184.257 27.944V23.3C184.341 23.276 184.473 23.246 184.653 23.21C184.845 23.174 185.043 23.156 185.247 23.156C185.679 23.156 185.991 23.234 186.183 23.39C186.375 23.534 186.471 23.798 186.471 24.182V27.926ZM199.01 32.588C199.01 33.428 198.698 34.088 198.074 34.568C197.45 35.036 196.544 35.27 195.356 35.27C194.396 35.27 193.61 35.126 192.998 34.838C192.386 34.55 192.08 34.166 192.08 33.686C192.08 33.482 192.128 33.296 192.224 33.128C192.32 32.948 192.446 32.81 192.602 32.714C192.938 32.93 193.328 33.122 193.772 33.29C194.216 33.458 194.72 33.542 195.284 33.542C196.304 33.542 196.814 33.23 196.814 32.606C196.814 32.342 196.724 32.132 196.544 31.976C196.364 31.808 196.088 31.688 195.716 31.616L194.69 31.346C193.814 31.154 193.16 30.854 192.728 30.446C192.308 30.038 192.098 29.492 192.098 28.808C192.098 28.052 192.41 27.434 193.034 26.954C193.658 26.462 194.522 26.216 195.626 26.216C196.202 26.216 196.718 26.276 197.174 26.396C197.63 26.504 197.984 26.666 198.236 26.882C198.5 27.098 198.632 27.356 198.632 27.656C198.632 27.86 198.584 28.046 198.488 28.214C198.404 28.37 198.29 28.49 198.146 28.574C198.002 28.49 197.804 28.4 197.552 28.304C197.312 28.196 197.036 28.112 196.724 28.052C196.412 27.98 196.1 27.944 195.788 27.944C195.32 27.944 194.948 28.022 194.672 28.178C194.408 28.322 194.276 28.532 194.276 28.808C194.276 29.012 194.354 29.186 194.51 29.33C194.666 29.474 194.93 29.588 195.302 29.672L196.22 29.888C197.192 30.116 197.9 30.452 198.344 30.896C198.788 31.328 199.01 31.892 199.01 32.588ZM200.859 31.742V30.32H203.073V31.706C203.073 32.342 203.235 32.798 203.559 33.074C203.895 33.35 204.357 33.488 204.945 33.488C205.329 33.488 205.653 33.452 205.917 33.38C206.181 33.308 206.379 33.23 206.511 33.146V30.32H208.725V33.326C208.725 33.602 208.677 33.836 208.581 34.028C208.497 34.208 208.329 34.376 208.077 34.532C207.729 34.736 207.285 34.904 206.745 35.036C206.217 35.18 205.611 35.252 204.927 35.252C204.099 35.252 203.379 35.132 202.767 34.892C202.155 34.652 201.681 34.274 201.345 33.758C201.021 33.23 200.859 32.558 200.859 31.742ZM208.725 31.184H206.511V26.504C206.607 26.48 206.745 26.456 206.925 26.432C207.117 26.396 207.315 26.378 207.519 26.378C207.939 26.378 208.245 26.45 208.437 26.594C208.629 26.738 208.725 27.008 208.725 27.404V31.184ZM203.073 31.184H200.859V26.504C200.955 26.48 201.093 26.456 201.273 26.432C201.453 26.396 201.651 26.378 201.867 26.378C202.287 26.378 202.593 26.45 202.785 26.594C202.977 26.738 203.073 27.008 203.073 27.404V31.184ZM215.411 28.016C214.691 28.016 214.085 28.25 213.593 28.718C213.113 29.186 212.873 29.87 212.873 30.77C212.873 31.658 213.107 32.33 213.575 32.786C214.043 33.242 214.649 33.47 215.393 33.47C215.837 33.47 216.209 33.416 216.509 33.308C216.821 33.188 217.091 33.062 217.319 32.93C217.499 33.038 217.637 33.17 217.733 33.326C217.841 33.47 217.895 33.65 217.895 33.866C217.895 34.274 217.649 34.61 217.157 34.874C216.665 35.126 216.017 35.252 215.213 35.252C214.301 35.252 213.497 35.09 212.801 34.766C212.117 34.43 211.577 33.926 211.181 33.254C210.797 32.582 210.605 31.754 210.605 30.77C210.605 29.75 210.809 28.904 211.217 28.232C211.637 27.56 212.189 27.062 212.873 26.738C213.569 26.402 214.331 26.234 215.159 26.234C215.951 26.234 216.587 26.372 217.067 26.648C217.547 26.924 217.787 27.266 217.787 27.674C217.787 27.854 217.739 28.022 217.643 28.178C217.547 28.334 217.433 28.46 217.301 28.556C217.061 28.412 216.791 28.286 216.491 28.178C216.191 28.07 215.831 28.016 215.411 28.016ZM223.883 28.016C223.163 28.016 222.557 28.25 222.065 28.718C221.585 29.186 221.345 29.87 221.345 30.77C221.345 31.658 221.579 32.33 222.047 32.786C222.515 33.242 223.121 33.47 223.865 33.47C224.309 33.47 224.681 33.416 224.981 33.308C225.293 33.188 225.563 33.062 225.791 32.93C225.971 33.038 226.109 33.17 226.205 33.326C226.313 33.47 226.367 33.65 226.367 33.866C226.367 34.274 226.121 34.61 225.629 34.874C225.137 35.126 224.489 35.252 223.685 35.252C222.773 35.252 221.969 35.09 221.273 34.766C220.589 34.43 220.049 33.926 219.653 33.254C219.269 32.582 219.077 31.754 219.077 30.77C219.077 29.75 219.281 28.904 219.689 28.232C220.109 27.56 220.661 27.062 221.345 26.738C222.041 26.402 222.803 26.234 223.631 26.234C224.423 26.234 225.059 26.372 225.539 26.648C226.019 26.924 226.259 27.266 226.259 27.674C226.259 27.854 226.211 28.022 226.115 28.178C226.019 28.334 225.905 28.46 225.773 28.556C225.533 28.412 225.263 28.286 224.963 28.178C224.663 28.07 224.303 28.016 223.883 28.016ZM228.954 31.868L228.864 30.32L233.688 29.6C233.652 29.144 233.478 28.748 233.166 28.412C232.854 28.076 232.398 27.908 231.798 27.908C231.186 27.908 230.676 28.124 230.268 28.556C229.86 28.976 229.65 29.582 229.638 30.374L229.692 31.31C229.8 32.078 230.094 32.642 230.574 33.002C231.066 33.362 231.684 33.542 232.428 33.542C232.932 33.542 233.4 33.47 233.832 33.326C234.264 33.17 234.606 33.002 234.858 32.822C235.026 32.93 235.158 33.068 235.254 33.236C235.362 33.392 235.416 33.566 235.416 33.758C235.416 34.07 235.278 34.34 235.002 34.568C234.726 34.784 234.354 34.952 233.886 35.072C233.418 35.192 232.884 35.252 232.284 35.252C231.36 35.252 230.538 35.084 229.818 34.748C229.11 34.4 228.552 33.884 228.144 33.2C227.748 32.516 227.55 31.664 227.55 30.644C227.55 29.912 227.664 29.27 227.892 28.718C228.12 28.166 228.426 27.71 228.81 27.35C229.206 26.978 229.662 26.702 230.178 26.522C230.694 26.33 231.234 26.234 231.798 26.234C232.59 26.234 233.28 26.396 233.868 26.72C234.468 27.032 234.936 27.47 235.272 28.034C235.62 28.598 235.794 29.246 235.794 29.978C235.794 30.314 235.704 30.566 235.524 30.734C235.356 30.89 235.116 30.986 234.804 31.022L228.954 31.868ZM244.22 32.588C244.22 33.428 243.908 34.088 243.284 34.568C242.66 35.036 241.754 35.27 240.566 35.27C239.606 35.27 238.82 35.126 238.208 34.838C237.596 34.55 237.29 34.166 237.29 33.686C237.29 33.482 237.338 33.296 237.434 33.128C237.53 32.948 237.656 32.81 237.812 32.714C238.148 32.93 238.538 33.122 238.982 33.29C239.426 33.458 239.93 33.542 240.494 33.542C241.514 33.542 242.024 33.23 242.024 32.606C242.024 32.342 241.934 32.132 241.754 31.976C241.574 31.808 241.298 31.688 240.926 31.616L239.9 31.346C239.024 31.154 238.37 30.854 237.938 30.446C237.518 30.038 237.308 29.492 237.308 28.808C237.308 28.052 237.62 27.434 238.244 26.954C238.868 26.462 239.732 26.216 240.836 26.216C241.412 26.216 241.928 26.276 242.384 26.396C242.84 26.504 243.194 26.666 243.446 26.882C243.71 27.098 243.842 27.356 243.842 27.656C243.842 27.86 243.794 28.046 243.698 28.214C243.614 28.37 243.5 28.49 243.356 28.574C243.212 28.49 243.014 28.4 242.762 28.304C242.522 28.196 242.246 28.112 241.934 28.052C241.622 27.98 241.31 27.944 240.998 27.944C240.53 27.944 240.158 28.022 239.882 28.178C239.618 28.322 239.486 28.532 239.486 28.808C239.486 29.012 239.564 29.186 239.72 29.33C239.876 29.474 240.14 29.588 240.512 29.672L241.43 29.888C242.402 30.116 243.11 30.452 243.554 30.896C243.998 31.328 244.22 31.892 244.22 32.588ZM252.658 32.588C252.658 33.428 252.346 34.088 251.722 34.568C251.098 35.036 250.192 35.27 249.004 35.27C248.044 35.27 247.258 35.126 246.646 34.838C246.034 34.55 245.728 34.166 245.728 33.686C245.728 33.482 245.776 33.296 245.872 33.128C245.968 32.948 246.094 32.81 246.25 32.714C246.586 32.93 246.976 33.122 247.42 33.29C247.864 33.458 248.368 33.542 248.932 33.542C249.952 33.542 250.462 33.23 250.462 32.606C250.462 32.342 250.372 32.132 250.192 31.976C250.012 31.808 249.736 31.688 249.364 31.616L248.338 31.346C247.462 31.154 246.808 30.854 246.376 30.446C245.956 30.038 245.746 29.492 245.746 28.808C245.746 28.052 246.058 27.434 246.682 26.954C247.306 26.462 248.17 26.216 249.274 26.216C249.85 26.216 250.366 26.276 250.822 26.396C251.278 26.504 251.632 26.666 251.884 26.882C252.148 27.098 252.28 27.356 252.28 27.656C252.28 27.86 252.232 28.046 252.136 28.214C252.052 28.37 251.938 28.49 251.794 28.574C251.65 28.49 251.452 28.4 251.2 28.304C250.96 28.196 250.684 28.112 250.372 28.052C250.06 27.98 249.748 27.944 249.436 27.944C248.968 27.944 248.596 28.022 248.32 28.178C248.056 28.322 247.924 28.532 247.924 28.808C247.924 29.012 248.002 29.186 248.158 29.33C248.314 29.474 248.578 29.588 248.95 29.672L249.868 29.888C250.84 30.116 251.548 30.452 251.992 30.896C252.436 31.328 252.658 31.892 252.658 32.588ZM256.325 28.772V27.044H259.943C259.991 27.128 260.039 27.248 260.087 27.404C260.147 27.548 260.177 27.716 260.177 27.908C260.177 28.208 260.105 28.43 259.961 28.574C259.829 28.706 259.637 28.772 259.385 28.772H256.325ZM256.667 26.18V28.502H254.543V26.09C254.543 25.334 254.693 24.722 254.993 24.254C255.305 23.774 255.731 23.426 256.271 23.21C256.823 22.982 257.447 22.868 258.143 22.868C258.923 22.868 259.517 22.97 259.925 23.174C260.333 23.378 260.537 23.684 260.537 24.092C260.537 24.272 260.495 24.44 260.411 24.596C260.339 24.74 260.249 24.86 260.141 24.956C259.913 24.86 259.655 24.782 259.367 24.722C259.091 24.662 258.797 24.632 258.485 24.632C257.849 24.632 257.387 24.752 257.099 24.992C256.811 25.232 256.667 25.628 256.667 26.18ZM254.543 27.872H256.757V34.964C256.661 35 256.523 35.03 256.343 35.054C256.163 35.09 255.965 35.108 255.749 35.108C255.341 35.108 255.035 35.036 254.831 34.892C254.639 34.736 254.543 34.466 254.543 34.082V27.872ZM261.697 31.742V30.32H263.911V31.706C263.911 32.342 264.073 32.798 264.397 33.074C264.733 33.35 265.195 33.488 265.783 33.488C266.167 33.488 266.491 33.452 266.755 33.38C267.019 33.308 267.217 33.23 267.349 33.146V30.32H269.563V33.326C269.563 33.602 269.515 33.836 269.419 34.028C269.335 34.208 269.167 34.376 268.915 34.532C268.567 34.736 268.123 34.904 267.583 35.036C267.055 35.18 266.449 35.252 265.765 35.252C264.937 35.252 264.217 35.132 263.605 34.892C262.993 34.652 262.519 34.274 262.183 33.758C261.859 33.23 261.697 32.558 261.697 31.742ZM269.563 31.184H267.349V26.504C267.445 26.48 267.583 26.456 267.763 26.432C267.955 26.396 268.153 26.378 268.357 26.378C268.777 26.378 269.083 26.45 269.275 26.594C269.467 26.738 269.563 27.008 269.563 27.404V31.184ZM263.911 31.184H261.697V26.504C261.793 26.48 261.931 26.456 262.111 26.432C262.291 26.396 262.489 26.378 262.705 26.378C263.125 26.378 263.431 26.45 263.623 26.594C263.815 26.738 263.911 27.008 263.911 27.404V31.184ZM272.001 30.248L274.215 30.356V34.964C274.119 35 273.981 35.03 273.801 35.054C273.621 35.09 273.423 35.108 273.207 35.108C272.799 35.108 272.493 35.036 272.289 34.892C272.097 34.736 272.001 34.466 272.001 34.082V30.248ZM274.215 31.49L272.001 31.382V23.3C272.085 23.276 272.217 23.246 272.397 23.21C272.589 23.174 272.787 23.156 272.991 23.156C273.423 23.156 273.735 23.234 273.927 23.39C274.119 23.534 274.215 23.798 274.215 24.182V31.49ZM276.782 30.248L278.996 30.356V34.964C278.9 35 278.762 35.03 278.582 35.054C278.402 35.09 278.204 35.108 277.988 35.108C277.58 35.108 277.274 35.036 277.07 34.892C276.878 34.736 276.782 34.466 276.782 34.082V30.248ZM278.996 31.49L276.782 31.382V23.3C276.866 23.276 276.998 23.246 277.178 23.21C277.37 23.174 277.568 23.156 277.772 23.156C278.204 23.156 278.516 23.234 278.708 23.39C278.9 23.534 278.996 23.798 278.996 24.182V31.49ZM282.932 32.966C282.74 32.57 282.518 32.078 282.266 31.49C282.026 30.89 281.774 30.2 281.51 29.42C281.246 28.628 280.976 27.758 280.7 26.81C280.832 26.666 281 26.546 281.204 26.45C281.408 26.354 281.63 26.306 281.87 26.306C282.182 26.306 282.434 26.378 282.626 26.522C282.83 26.654 282.986 26.9 283.094 27.26C283.406 28.196 283.718 29.12 284.03 30.032C284.354 30.944 284.696 31.874 285.056 32.822H285.128C285.356 32.294 285.584 31.676 285.812 30.968C286.04 30.248 286.256 29.504 286.46 28.736C286.676 27.968 286.856 27.236 287 26.54C287.144 26.468 287.294 26.414 287.45 26.378C287.606 26.33 287.774 26.306 287.954 26.306C288.254 26.306 288.512 26.378 288.728 26.522C288.956 26.654 289.07 26.882 289.07 27.206C289.07 27.494 289.016 27.878 288.908 28.358C288.812 28.826 288.674 29.348 288.494 29.924C288.314 30.5 288.104 31.1 287.864 31.724C287.636 32.348 287.39 32.954 287.126 33.542C286.874 34.118 286.616 34.64 286.352 35.108C285.74 36.2 285.176 37.022 284.66 37.574C284.144 38.138 283.646 38.42 283.166 38.42C282.794 38.42 282.488 38.306 282.248 38.078C282.02 37.862 281.882 37.592 281.834 37.268C282.098 37.04 282.374 36.764 282.662 36.44C282.962 36.128 283.25 35.792 283.526 35.432C283.802 35.072 284.036 34.718 284.228 34.37C284.024 34.31 283.82 34.19 283.616 34.01C283.412 33.818 283.184 33.47 282.932 32.966Z" fill="white"/>
<defs>
<filter id="filter0_d_1043_9666" x="-16" y="-9" width="422" height="99" filterUnits="userSpaceOnUse" color-interpolation-filters="sRGB">
<feFlood flood-opacity="0" result="BackgroundImageFix"/>
<feColorMatrix in="SourceAlpha" type="matrix" values="0 0 0 0 0 0 0 0 0 0 0 0 0 0 0 0 0 0 127 0" result="hardAlpha"/>
<feOffset dy="10"/>
<feGaussianBlur stdDeviation="8"/>
<feColorMatrix type="matrix" values="0 0 0 0 0 0 0 0 0 0 0 0 0 0 0 0 0 0 0.05 0"/>
<feBlend mode="normal" in2="BackgroundImageFix" result="effect1_dropShadow_1043_9666"/>
<feBlend mode="normal" in="SourceGraphic" in2="effect1_dropShadow_1043_9666" result="shape"/>
</filter>
<linearGradient id="paint0_linear_1043_9666" x1="190.5" y1="12.3245" x2="189.738" y2="70.0682" gradientUnits="userSpaceOnUse">
<stop stop-color="#4D6EFF"/>
<stop offset="1" stop-color="#2850FF"/>
</linearGradient>
</defs>
</svg>
