<svg width="390" height="99" viewBox="0 0 390 99" fill="none" xmlns="http://www.w3.org/2000/svg">
<g filter="url(#filter0_d_389_5870)">
<rect y="6" width="390" height="67" fill="#67AD5C"/>
</g>
<mask id="mask0_389_5870" style="mask-type:alpha" maskUnits="userSpaceOnUse" x="0" y="6" width="390" height="67">
<rect y="6" width="390" height="67" fill="url(#paint0_linear_389_5870)"/>
</mask>
<g mask="url(#mask0_389_5870)">
<g opacity="0.25">
<path opacity="0.5" d="M0.371133 10.2931C-4.04797 6.27765 -10.9055 6.56152 -14.9456 10.9271C-22.2609 18.8318 -19.4548 34.6104 -15.9099 40.9088C-9.27104 43.864 6.83551 45.2705 14.1508 37.3659C18.1908 33.0003 17.8836 26.206 13.4645 22.1905C10.7583 19.7315 7.13764 18.8848 3.80963 19.6004C4.24153 16.2532 3.07731 12.7521 0.371133 10.2931Z" fill="#C6DDFF"/>
<path opacity="0.5" d="M36.9239 15.5869C34.8951 13.7435 31.7469 13.8738 29.8921 15.878C26.5337 19.507 27.822 26.7508 29.4494 29.6424C32.4973 30.9991 39.8917 31.6448 43.2501 28.0158C45.1048 26.0116 44.9638 22.8924 42.935 21.049C41.6926 19.92 40.0304 19.5313 38.5025 19.8599C38.7008 18.3232 38.1663 16.7158 36.9239 15.5869Z" fill="#C6DDFF"/>
<path opacity="0.5" d="M22.3597 -4.75443C20.834 -6.14079 18.4664 -6.04278 17.0716 -4.53554C14.5459 -1.80644 15.5148 3.64118 16.7386 5.81572C19.0307 6.836 24.5916 7.32161 27.1172 4.59251C28.512 3.08527 28.4059 0.739535 26.8802 -0.646811C25.9459 -1.49579 24.6959 -1.78813 23.5469 -1.54105C23.696 -2.69669 23.294 -3.90546 22.3597 -4.75443Z" fill="#C6DDFF"/>
<path opacity="0.5" d="M2.93198 51.8403C1.40627 50.4539 -0.961328 50.5519 -2.35618 52.0592C-4.88179 54.7883 -3.91297 60.2359 -2.68909 62.4104C-0.39701 63.4307 5.16382 63.9163 7.68943 61.1872C9.08428 59.68 8.9782 57.3343 7.4525 55.9479C6.51818 55.0989 5.26813 54.8066 4.11913 55.0537C4.26824 53.898 3.86629 52.6893 2.93198 51.8403Z" fill="#C6DDFF"/>
<path opacity="0.5" d="M25.9028 50.5786C24.5208 49.3227 22.3761 49.4115 21.1126 50.7768C18.8248 53.249 19.7024 58.1837 20.811 60.1535C22.8873 61.0777 27.9245 61.5176 30.2124 59.0455C31.4759 57.6801 31.3798 55.5552 29.9977 54.2994C29.1514 53.5304 28.019 53.2656 26.9782 53.4894C27.1133 52.4426 26.7492 51.3476 25.9028 50.5786Z" fill="#C6DDFF"/>
<path opacity="0.5" d="M37.814 41.5862C36.9448 40.7965 35.5961 40.8523 34.8015 41.7109C33.3627 43.2656 33.9146 46.3689 34.6118 47.6077C35.9176 48.1889 39.0854 48.4655 40.5241 46.9108C41.3187 46.0522 41.2583 44.7159 40.3891 43.9262C39.8569 43.4426 39.1448 43.276 38.4902 43.4168C38.5752 42.7585 38.3462 42.0699 37.814 41.5862Z" fill="#C6DDFF"/>
<path opacity="0.5" d="M46.1004 -2.30345C44.795 -3.4896 42.7693 -3.40575 41.5759 -2.11617C39.415 0.218834 40.2439 4.87978 41.2911 6.7403C43.2522 7.61325 48.01 8.02873 50.1709 5.69373C51.3643 4.40415 51.2735 2.39715 49.9682 1.211C49.1688 0.484625 48.0992 0.234503 47.1161 0.445898C47.2437 -0.542855 46.8998 -1.57707 46.1004 -2.30345Z" fill="#C6DDFF"/>
</g>
<g opacity="0.25">
<path opacity="0.5" d="M332.081 31.7922C325.66 28.3673 317.655 30.7413 314.2 37.0947C307.945 48.5987 315.998 66.3857 322.073 72.7648C330.794 74.2784 350.22 71.1492 356.475 59.6453C359.929 53.2919 357.525 45.3649 351.104 41.94C347.172 39.8426 342.646 39.9199 338.935 41.754C338.438 37.6753 336.012 33.8896 332.081 31.7922Z" fill="#C6DDFF"/>
<path opacity="0.5" d="M301.658 72.6438C298.254 70.8282 294.011 72.0867 292.179 75.4546C288.864 81.5528 293.132 90.9816 296.353 94.3631C300.976 95.1655 311.273 93.5067 314.589 87.4086C316.42 84.0406 315.146 79.8386 311.742 78.0231C309.658 76.9112 307.258 76.9522 305.291 77.9245C305.028 75.7624 303.742 73.7556 301.658 72.6438Z" fill="#C6DDFF"/>
<path opacity="0.5" d="M378.008 27.2414C374.604 25.4259 370.361 26.6844 368.529 30.0523C365.214 36.1504 369.482 45.5793 372.703 48.9608C377.326 49.7631 387.623 48.1044 390.939 42.0062C392.77 38.6383 391.496 34.4362 388.092 32.6207C386.008 31.5089 383.609 31.5499 381.641 32.5221C381.378 30.36 380.092 28.3532 378.008 27.2414Z" fill="#C6DDFF"/>
<path opacity="0.5" d="M353.501 7.49457C351.284 6.3121 348.52 7.13175 347.327 9.32528C345.168 13.297 347.948 19.4381 350.045 21.6405C353.056 22.163 359.763 21.0827 361.923 17.1109C363.115 14.9174 362.285 12.1806 360.069 10.9981C358.711 10.274 357.148 10.3007 355.867 10.9339C355.696 9.52573 354.858 8.21869 353.501 7.49457Z" fill="#C6DDFF"/>
<path opacity="0.5" d="M374.312 71.7432C372.304 70.672 369.8 71.4145 368.72 73.4015C366.763 76.9993 369.282 82.5622 371.182 84.5572C373.909 85.0306 379.985 84.0519 381.941 80.4541C383.021 78.4671 382.269 75.988 380.261 74.9168C379.032 74.2609 377.616 74.2851 376.455 74.8587C376.3 73.5831 375.541 72.3991 374.312 71.7432Z" fill="#C6DDFF"/>
<path opacity="0.5" d="M385.661 57.5888C384.399 56.9152 382.824 57.3821 382.145 58.6317C380.915 60.8943 382.498 64.3926 383.693 65.6472C385.408 65.9449 389.229 65.3295 390.459 63.0669C391.139 61.8173 390.666 60.2583 389.403 59.5847C388.63 59.1722 387.739 59.1874 387.01 59.5481C386.912 58.7459 386.435 58.0013 385.661 57.5888Z" fill="#C6DDFF"/>
<path opacity="0.5" d="M382.248 3.32796C380.351 2.31625 377.986 3.01754 376.966 4.89431C375.118 8.29252 377.497 13.5467 379.291 15.4311C381.868 15.8782 387.606 14.9539 389.454 11.5557C390.474 9.67888 389.764 7.33728 387.867 6.32557C386.706 5.70601 385.369 5.72884 384.272 6.27064C384.126 5.06581 383.409 3.94752 382.248 3.32796Z" fill="#C6DDFF"/>
</g>
</g>
<path d="M110.575 44.27C109.627 44.27 108.811 44.102 108.127 43.766C107.443 43.418 106.921 42.932 106.561 42.308C106.213 41.684 106.039 40.952 106.039 40.112V38.816H108.307V40.022C108.307 40.79 108.517 41.384 108.937 41.804C109.369 42.212 109.915 42.416 110.575 42.416C111.223 42.416 111.763 42.212 112.195 41.804C112.627 41.384 112.843 40.79 112.843 40.022V38.816H115.129V40.112C115.129 40.952 114.949 41.684 114.589 42.308C114.229 42.932 113.707 43.418 113.023 43.766C112.351 44.102 111.535 44.27 110.575 44.27ZM108.307 39.446H106.039V33.074C106.135 33.05 106.279 33.02 106.471 32.984C106.675 32.948 106.879 32.93 107.083 32.93C107.515 32.93 107.827 33.008 108.019 33.164C108.211 33.308 108.307 33.584 108.307 33.992V39.446ZM115.129 39.464H112.843V33.074C112.939 33.05 113.089 33.02 113.293 32.984C113.497 32.948 113.701 32.93 113.905 32.93C114.325 32.93 114.631 33.008 114.823 33.164C115.027 33.308 115.129 33.584 115.129 33.992V39.464ZM125.449 38.438V40.184H123.235V38.528C123.235 38 123.085 37.616 122.785 37.376C122.485 37.124 122.083 36.998 121.579 36.998C121.207 36.998 120.871 37.046 120.571 37.142C120.283 37.226 120.025 37.328 119.797 37.448V40.184H117.583V37.304C117.583 37.016 117.643 36.782 117.763 36.602C117.883 36.41 118.063 36.236 118.303 36.08C118.663 35.84 119.125 35.642 119.689 35.486C120.265 35.318 120.901 35.234 121.597 35.234C122.809 35.234 123.751 35.504 124.423 36.044C125.107 36.584 125.449 37.382 125.449 38.438ZM117.583 39.302H119.797V43.964C119.701 44 119.563 44.03 119.383 44.054C119.203 44.09 119.005 44.108 118.789 44.108C118.381 44.108 118.075 44.036 117.871 43.892C117.679 43.736 117.583 43.466 117.583 43.082V39.302ZM123.235 39.302H125.449V43.964C125.365 44 125.227 44.03 125.035 44.054C124.855 44.09 124.663 44.108 124.459 44.108C124.039 44.108 123.727 44.036 123.523 43.892C123.331 43.736 123.235 43.466 123.235 43.082V39.302ZM135.212 38.114V40.166H132.998V38.366C132.998 37.898 132.854 37.556 132.566 37.34C132.29 37.112 131.936 36.998 131.504 36.998C131.192 36.998 130.904 37.046 130.64 37.142C130.388 37.226 130.172 37.328 129.992 37.448V40.166H127.778V37.304C127.778 37.016 127.838 36.782 127.958 36.602C128.078 36.41 128.258 36.236 128.498 36.08C128.87 35.828 129.326 35.624 129.866 35.468C130.418 35.312 130.988 35.234 131.576 35.234C132.164 35.234 132.704 35.324 133.196 35.504C133.688 35.684 134.09 35.948 134.402 36.296C134.486 36.368 134.564 36.44 134.636 36.512C134.708 36.584 134.768 36.668 134.816 36.764C134.924 36.944 135.014 37.154 135.086 37.394C135.17 37.622 135.212 37.862 135.212 38.114ZM140.414 38.294V40.166H138.2V38.366C138.2 37.898 138.068 37.556 137.804 37.34C137.54 37.112 137.186 36.998 136.742 36.998C136.418 36.998 136.1 37.064 135.788 37.196C135.488 37.328 135.23 37.502 135.014 37.718L133.898 36.368C134.27 36.056 134.708 35.792 135.212 35.576C135.716 35.348 136.316 35.234 137.012 35.234C137.648 35.234 138.224 35.336 138.74 35.54C139.256 35.744 139.664 36.074 139.964 36.53C140.264 36.986 140.414 37.574 140.414 38.294ZM127.778 39.302H129.992V43.964C129.896 44 129.758 44.03 129.578 44.054C129.398 44.09 129.2 44.108 128.984 44.108C128.576 44.108 128.27 44.036 128.066 43.892C127.874 43.736 127.778 43.466 127.778 43.082V39.302ZM132.998 39.302H135.212V43.964C135.116 44 134.972 44.03 134.78 44.054C134.6 44.09 134.408 44.108 134.204 44.108C133.784 44.108 133.478 44.036 133.286 43.892C133.094 43.736 132.998 43.466 132.998 43.082V39.302ZM138.2 39.302H140.414V43.964C140.33 44 140.192 44.03 140 44.054C139.82 44.09 139.628 44.108 139.424 44.108C139.004 44.108 138.692 44.036 138.488 43.892C138.296 43.736 138.2 43.466 138.2 43.082V39.302ZM146.085 42.578C146.445 42.578 146.769 42.542 147.057 42.47C147.345 42.398 147.555 42.32 147.687 42.236V40.184L145.905 40.364C145.413 40.4 145.035 40.508 144.771 40.688C144.519 40.856 144.393 41.108 144.393 41.444C144.393 41.792 144.531 42.068 144.807 42.272C145.083 42.476 145.509 42.578 146.085 42.578ZM145.995 35.234C147.171 35.234 148.107 35.486 148.803 35.99C149.499 36.482 149.847 37.262 149.847 38.33V42.47C149.847 42.758 149.775 42.986 149.631 43.154C149.499 43.322 149.325 43.472 149.109 43.604C148.773 43.796 148.347 43.952 147.831 44.072C147.315 44.204 146.733 44.27 146.085 44.27C144.885 44.27 143.943 44.042 143.259 43.586C142.575 43.118 142.233 42.428 142.233 41.516C142.233 40.712 142.485 40.1 142.989 39.68C143.505 39.248 144.249 38.984 145.221 38.888L147.669 38.636V38.312C147.669 37.832 147.501 37.484 147.165 37.268C146.841 37.052 146.379 36.944 145.779 36.944C145.311 36.944 144.855 37.004 144.411 37.124C143.967 37.244 143.571 37.388 143.223 37.556C143.103 37.46 142.995 37.328 142.899 37.16C142.803 36.992 142.755 36.818 142.755 36.638C142.755 36.206 142.995 35.888 143.475 35.684C143.811 35.528 144.201 35.414 144.645 35.342C145.101 35.27 145.551 35.234 145.995 35.234ZM152.142 39.248H154.356V41.372C154.356 41.768 154.47 42.05 154.698 42.218C154.938 42.386 155.274 42.47 155.706 42.47C155.898 42.47 156.102 42.446 156.318 42.398C156.546 42.35 156.738 42.29 156.894 42.218C156.978 42.314 157.056 42.428 157.128 42.56C157.2 42.692 157.236 42.854 157.236 43.046C157.236 43.394 157.068 43.682 156.732 43.91C156.408 44.138 155.898 44.252 155.202 44.252C154.254 44.252 153.504 44.042 152.952 43.622C152.412 43.19 152.142 42.494 152.142 41.534V39.248ZM153.492 37.412V35.666H157.02C157.068 35.75 157.116 35.87 157.164 36.026C157.224 36.182 157.254 36.344 157.254 36.512C157.254 36.812 157.182 37.04 157.038 37.196C156.894 37.34 156.708 37.412 156.48 37.412H153.492ZM154.356 39.734H152.142V33.254C152.238 33.218 152.376 33.182 152.556 33.146C152.748 33.11 152.946 33.092 153.15 33.092C153.57 33.092 153.876 33.17 154.068 33.326C154.26 33.47 154.356 33.734 154.356 34.118V39.734ZM163.23 37.016C162.51 37.016 161.904 37.25 161.412 37.718C160.932 38.186 160.692 38.87 160.692 39.77C160.692 40.658 160.926 41.33 161.394 41.786C161.862 42.242 162.468 42.47 163.212 42.47C163.656 42.47 164.028 42.416 164.328 42.308C164.64 42.188 164.91 42.062 165.138 41.93C165.318 42.038 165.456 42.17 165.552 42.326C165.66 42.47 165.714 42.65 165.714 42.866C165.714 43.274 165.468 43.61 164.976 43.874C164.484 44.126 163.836 44.252 163.032 44.252C162.12 44.252 161.316 44.09 160.62 43.766C159.936 43.43 159.396 42.926 159 42.254C158.616 41.582 158.424 40.754 158.424 39.77C158.424 38.75 158.628 37.904 159.036 37.232C159.456 36.56 160.008 36.062 160.692 35.738C161.388 35.402 162.15 35.234 162.978 35.234C163.77 35.234 164.406 35.372 164.886 35.648C165.366 35.924 165.606 36.266 165.606 36.674C165.606 36.854 165.558 37.022 165.462 37.178C165.366 37.334 165.252 37.46 165.12 37.556C164.88 37.412 164.61 37.286 164.31 37.178C164.01 37.07 163.65 37.016 163.23 37.016ZM175.459 40.364H173.245V38.744C173.245 38.132 173.077 37.688 172.741 37.412C172.417 37.136 172.003 36.998 171.499 36.998C171.091 36.998 170.713 37.076 170.365 37.232C170.029 37.388 169.735 37.568 169.483 37.772L169.357 35.972C169.633 35.804 169.987 35.642 170.419 35.486C170.851 35.318 171.337 35.234 171.877 35.234C172.957 35.234 173.821 35.516 174.469 36.08C175.129 36.644 175.459 37.496 175.459 38.636V40.364ZM167.593 39.248H169.807V43.964C169.711 44 169.573 44.03 169.393 44.054C169.213 44.09 169.015 44.108 168.799 44.108C168.391 44.108 168.085 44.036 167.881 43.892C167.689 43.736 167.593 43.466 167.593 43.082V39.248ZM173.245 39.266H175.459V43.964C175.363 44 175.219 44.03 175.027 44.054C174.847 44.09 174.655 44.108 174.451 44.108C174.031 44.108 173.725 44.036 173.533 43.892C173.341 43.736 173.245 43.466 173.245 43.082V39.266ZM169.807 40.382H167.593V32.3C167.689 32.276 167.827 32.246 168.007 32.21C168.187 32.174 168.385 32.156 168.601 32.156C169.021 32.156 169.327 32.234 169.519 32.39C169.711 32.534 169.807 32.798 169.807 33.182V40.382ZM178.742 40.868L178.652 39.32L183.476 38.6C183.44 38.144 183.266 37.748 182.954 37.412C182.642 37.076 182.186 36.908 181.586 36.908C180.974 36.908 180.464 37.124 180.056 37.556C179.648 37.976 179.438 38.582 179.426 39.374L179.48 40.31C179.588 41.078 179.882 41.642 180.362 42.002C180.854 42.362 181.472 42.542 182.216 42.542C182.72 42.542 183.188 42.47 183.62 42.326C184.052 42.17 184.394 42.002 184.646 41.822C184.814 41.93 184.946 42.068 185.042 42.236C185.15 42.392 185.204 42.566 185.204 42.758C185.204 43.07 185.066 43.34 184.79 43.568C184.514 43.784 184.142 43.952 183.674 44.072C183.206 44.192 182.672 44.252 182.072 44.252C181.148 44.252 180.326 44.084 179.606 43.748C178.898 43.4 178.34 42.884 177.932 42.2C177.536 41.516 177.338 40.664 177.338 39.644C177.338 38.912 177.452 38.27 177.68 37.718C177.908 37.166 178.214 36.71 178.598 36.35C178.994 35.978 179.45 35.702 179.966 35.522C180.482 35.33 181.022 35.234 181.586 35.234C182.378 35.234 183.068 35.396 183.656 35.72C184.256 36.032 184.724 36.47 185.06 37.034C185.408 37.598 185.582 38.246 185.582 38.978C185.582 39.314 185.492 39.566 185.312 39.734C185.144 39.89 184.904 39.986 184.592 40.022L178.742 40.868ZM193.002 42.128V36.476H195.216V42.362C195.216 42.626 195.156 42.848 195.036 43.028C194.928 43.196 194.748 43.358 194.496 43.514C194.208 43.706 193.812 43.874 193.308 44.018C192.816 44.174 192.252 44.252 191.616 44.252C190.668 44.252 189.84 44.096 189.132 43.784C188.436 43.46 187.896 42.968 187.512 42.308C187.128 41.636 186.936 40.79 186.936 39.77C186.936 38.726 187.128 37.868 187.512 37.196C187.908 36.524 188.436 36.032 189.096 35.72C189.756 35.396 190.488 35.234 191.292 35.234C191.736 35.234 192.138 35.288 192.498 35.396C192.87 35.504 193.17 35.63 193.398 35.774V37.664C193.206 37.484 192.954 37.328 192.642 37.196C192.33 37.064 191.97 36.998 191.562 36.998C191.118 36.998 190.716 37.094 190.356 37.286C189.996 37.466 189.714 37.766 189.51 38.186C189.306 38.594 189.204 39.128 189.204 39.788C189.204 40.724 189.42 41.408 189.852 41.84C190.284 42.272 190.866 42.488 191.598 42.488C191.922 42.488 192.198 42.452 192.426 42.38C192.654 42.308 192.846 42.224 193.002 42.128ZM195.216 36.926L193.002 36.944V32.3C193.086 32.276 193.218 32.246 193.398 32.21C193.59 32.174 193.788 32.156 193.992 32.156C194.424 32.156 194.736 32.234 194.928 32.39C195.12 32.534 195.216 32.798 195.216 33.182V36.926ZM207.755 41.588C207.755 42.428 207.443 43.088 206.819 43.568C206.195 44.036 205.289 44.27 204.101 44.27C203.141 44.27 202.355 44.126 201.743 43.838C201.131 43.55 200.825 43.166 200.825 42.686C200.825 42.482 200.873 42.296 200.969 42.128C201.065 41.948 201.191 41.81 201.347 41.714C201.683 41.93 202.073 42.122 202.517 42.29C202.961 42.458 203.465 42.542 204.029 42.542C205.049 42.542 205.559 42.23 205.559 41.606C205.559 41.342 205.469 41.132 205.289 40.976C205.109 40.808 204.833 40.688 204.461 40.616L203.435 40.346C202.559 40.154 201.905 39.854 201.473 39.446C201.053 39.038 200.843 38.492 200.843 37.808C200.843 37.052 201.155 36.434 201.779 35.954C202.403 35.462 203.267 35.216 204.371 35.216C204.947 35.216 205.463 35.276 205.919 35.396C206.375 35.504 206.729 35.666 206.981 35.882C207.245 36.098 207.377 36.356 207.377 36.656C207.377 36.86 207.329 37.046 207.233 37.214C207.149 37.37 207.035 37.49 206.891 37.574C206.747 37.49 206.549 37.4 206.297 37.304C206.057 37.196 205.781 37.112 205.469 37.052C205.157 36.98 204.845 36.944 204.533 36.944C204.065 36.944 203.693 37.022 203.417 37.178C203.153 37.322 203.021 37.532 203.021 37.808C203.021 38.012 203.099 38.186 203.255 38.33C203.411 38.474 203.675 38.588 204.047 38.672L204.965 38.888C205.937 39.116 206.645 39.452 207.089 39.896C207.533 40.328 207.755 40.892 207.755 41.588ZM209.604 40.742V39.32H211.818V40.706C211.818 41.342 211.98 41.798 212.304 42.074C212.64 42.35 213.102 42.488 213.69 42.488C214.074 42.488 214.398 42.452 214.662 42.38C214.926 42.308 215.124 42.23 215.256 42.146V39.32H217.47V42.326C217.47 42.602 217.422 42.836 217.326 43.028C217.242 43.208 217.074 43.376 216.822 43.532C216.474 43.736 216.03 43.904 215.49 44.036C214.962 44.18 214.356 44.252 213.672 44.252C212.844 44.252 212.124 44.132 211.512 43.892C210.9 43.652 210.426 43.274 210.09 42.758C209.766 42.23 209.604 41.558 209.604 40.742ZM217.47 40.184H215.256V35.504C215.352 35.48 215.49 35.456 215.67 35.432C215.862 35.396 216.06 35.378 216.264 35.378C216.684 35.378 216.99 35.45 217.182 35.594C217.374 35.738 217.47 36.008 217.47 36.404V40.184ZM211.818 40.184H209.604V35.504C209.7 35.48 209.838 35.456 210.018 35.432C210.198 35.396 210.396 35.378 210.612 35.378C211.032 35.378 211.338 35.45 211.53 35.594C211.722 35.738 211.818 36.008 211.818 36.404V40.184ZM224.156 37.016C223.436 37.016 222.83 37.25 222.338 37.718C221.858 38.186 221.618 38.87 221.618 39.77C221.618 40.658 221.852 41.33 222.32 41.786C222.788 42.242 223.394 42.47 224.138 42.47C224.582 42.47 224.954 42.416 225.254 42.308C225.566 42.188 225.836 42.062 226.064 41.93C226.244 42.038 226.382 42.17 226.478 42.326C226.586 42.47 226.64 42.65 226.64 42.866C226.64 43.274 226.394 43.61 225.902 43.874C225.41 44.126 224.762 44.252 223.958 44.252C223.046 44.252 222.242 44.09 221.546 43.766C220.862 43.43 220.322 42.926 219.926 42.254C219.542 41.582 219.35 40.754 219.35 39.77C219.35 38.75 219.554 37.904 219.962 37.232C220.382 36.56 220.934 36.062 221.618 35.738C222.314 35.402 223.076 35.234 223.904 35.234C224.696 35.234 225.332 35.372 225.812 35.648C226.292 35.924 226.532 36.266 226.532 36.674C226.532 36.854 226.484 37.022 226.388 37.178C226.292 37.334 226.178 37.46 226.046 37.556C225.806 37.412 225.536 37.286 225.236 37.178C224.936 37.07 224.576 37.016 224.156 37.016ZM232.629 37.016C231.909 37.016 231.303 37.25 230.811 37.718C230.331 38.186 230.091 38.87 230.091 39.77C230.091 40.658 230.325 41.33 230.793 41.786C231.261 42.242 231.867 42.47 232.611 42.47C233.055 42.47 233.427 42.416 233.727 42.308C234.039 42.188 234.309 42.062 234.537 41.93C234.717 42.038 234.855 42.17 234.951 42.326C235.059 42.47 235.113 42.65 235.113 42.866C235.113 43.274 234.867 43.61 234.375 43.874C233.883 44.126 233.235 44.252 232.431 44.252C231.519 44.252 230.715 44.09 230.019 43.766C229.335 43.43 228.795 42.926 228.399 42.254C228.015 41.582 227.823 40.754 227.823 39.77C227.823 38.75 228.027 37.904 228.435 37.232C228.855 36.56 229.407 36.062 230.091 35.738C230.787 35.402 231.549 35.234 232.377 35.234C233.169 35.234 233.805 35.372 234.285 35.648C234.765 35.924 235.005 36.266 235.005 36.674C235.005 36.854 234.957 37.022 234.861 37.178C234.765 37.334 234.651 37.46 234.519 37.556C234.279 37.412 234.009 37.286 233.709 37.178C233.409 37.07 233.049 37.016 232.629 37.016ZM237.699 40.868L237.609 39.32L242.433 38.6C242.397 38.144 242.223 37.748 241.911 37.412C241.599 37.076 241.143 36.908 240.543 36.908C239.931 36.908 239.421 37.124 239.013 37.556C238.605 37.976 238.395 38.582 238.383 39.374L238.437 40.31C238.545 41.078 238.839 41.642 239.319 42.002C239.811 42.362 240.429 42.542 241.173 42.542C241.677 42.542 242.145 42.47 242.577 42.326C243.009 42.17 243.351 42.002 243.603 41.822C243.771 41.93 243.903 42.068 243.999 42.236C244.107 42.392 244.161 42.566 244.161 42.758C244.161 43.07 244.023 43.34 243.747 43.568C243.471 43.784 243.099 43.952 242.631 44.072C242.163 44.192 241.629 44.252 241.029 44.252C240.105 44.252 239.283 44.084 238.563 43.748C237.855 43.4 237.297 42.884 236.889 42.2C236.493 41.516 236.295 40.664 236.295 39.644C236.295 38.912 236.409 38.27 236.637 37.718C236.865 37.166 237.171 36.71 237.555 36.35C237.951 35.978 238.407 35.702 238.923 35.522C239.439 35.33 239.979 35.234 240.543 35.234C241.335 35.234 242.025 35.396 242.613 35.72C243.213 36.032 243.681 36.47 244.017 37.034C244.365 37.598 244.539 38.246 244.539 38.978C244.539 39.314 244.449 39.566 244.269 39.734C244.101 39.89 243.861 39.986 243.549 40.022L237.699 40.868ZM252.966 41.588C252.966 42.428 252.654 43.088 252.03 43.568C251.406 44.036 250.5 44.27 249.312 44.27C248.352 44.27 247.566 44.126 246.954 43.838C246.342 43.55 246.036 43.166 246.036 42.686C246.036 42.482 246.084 42.296 246.18 42.128C246.276 41.948 246.402 41.81 246.558 41.714C246.894 41.93 247.284 42.122 247.728 42.29C248.172 42.458 248.676 42.542 249.24 42.542C250.26 42.542 250.77 42.23 250.77 41.606C250.77 41.342 250.68 41.132 250.5 40.976C250.32 40.808 250.044 40.688 249.672 40.616L248.646 40.346C247.77 40.154 247.116 39.854 246.684 39.446C246.264 39.038 246.054 38.492 246.054 37.808C246.054 37.052 246.366 36.434 246.99 35.954C247.614 35.462 248.478 35.216 249.582 35.216C250.158 35.216 250.674 35.276 251.13 35.396C251.586 35.504 251.94 35.666 252.192 35.882C252.456 36.098 252.588 36.356 252.588 36.656C252.588 36.86 252.54 37.046 252.444 37.214C252.36 37.37 252.246 37.49 252.102 37.574C251.958 37.49 251.76 37.4 251.508 37.304C251.268 37.196 250.992 37.112 250.68 37.052C250.368 36.98 250.056 36.944 249.744 36.944C249.276 36.944 248.904 37.022 248.628 37.178C248.364 37.322 248.232 37.532 248.232 37.808C248.232 38.012 248.31 38.186 248.466 38.33C248.622 38.474 248.886 38.588 249.258 38.672L250.176 38.888C251.148 39.116 251.856 39.452 252.3 39.896C252.744 40.328 252.966 40.892 252.966 41.588ZM261.403 41.588C261.403 42.428 261.091 43.088 260.467 43.568C259.843 44.036 258.937 44.27 257.749 44.27C256.789 44.27 256.003 44.126 255.391 43.838C254.779 43.55 254.473 43.166 254.473 42.686C254.473 42.482 254.521 42.296 254.617 42.128C254.713 41.948 254.839 41.81 254.995 41.714C255.331 41.93 255.721 42.122 256.165 42.29C256.609 42.458 257.113 42.542 257.677 42.542C258.697 42.542 259.207 42.23 259.207 41.606C259.207 41.342 259.117 41.132 258.937 40.976C258.757 40.808 258.481 40.688 258.109 40.616L257.083 40.346C256.207 40.154 255.553 39.854 255.121 39.446C254.701 39.038 254.491 38.492 254.491 37.808C254.491 37.052 254.803 36.434 255.427 35.954C256.051 35.462 256.915 35.216 258.019 35.216C258.595 35.216 259.111 35.276 259.567 35.396C260.023 35.504 260.377 35.666 260.629 35.882C260.893 36.098 261.025 36.356 261.025 36.656C261.025 36.86 260.977 37.046 260.881 37.214C260.797 37.37 260.683 37.49 260.539 37.574C260.395 37.49 260.197 37.4 259.945 37.304C259.705 37.196 259.429 37.112 259.117 37.052C258.805 36.98 258.493 36.944 258.181 36.944C257.713 36.944 257.341 37.022 257.065 37.178C256.801 37.322 256.669 37.532 256.669 37.808C256.669 38.012 256.747 38.186 256.903 38.33C257.059 38.474 257.323 38.588 257.695 38.672L258.613 38.888C259.585 39.116 260.293 39.452 260.737 39.896C261.181 40.328 261.403 40.892 261.403 41.588ZM265.071 37.772V36.044H268.689C268.737 36.128 268.785 36.248 268.833 36.404C268.893 36.548 268.923 36.716 268.923 36.908C268.923 37.208 268.851 37.43 268.707 37.574C268.575 37.706 268.383 37.772 268.131 37.772H265.071ZM265.413 35.18V37.502H263.289V35.09C263.289 34.334 263.439 33.722 263.739 33.254C264.051 32.774 264.477 32.426 265.017 32.21C265.569 31.982 266.193 31.868 266.889 31.868C267.669 31.868 268.263 31.97 268.671 32.174C269.079 32.378 269.283 32.684 269.283 33.092C269.283 33.272 269.241 33.44 269.157 33.596C269.085 33.74 268.995 33.86 268.887 33.956C268.659 33.86 268.401 33.782 268.113 33.722C267.837 33.662 267.543 33.632 267.231 33.632C266.595 33.632 266.133 33.752 265.845 33.992C265.557 34.232 265.413 34.628 265.413 35.18ZM263.289 36.872H265.503V43.964C265.407 44 265.269 44.03 265.089 44.054C264.909 44.09 264.711 44.108 264.495 44.108C264.087 44.108 263.781 44.036 263.577 43.892C263.385 43.736 263.289 43.466 263.289 43.082V36.872ZM270.442 40.742V39.32H272.656V40.706C272.656 41.342 272.818 41.798 273.142 42.074C273.478 42.35 273.94 42.488 274.528 42.488C274.912 42.488 275.236 42.452 275.5 42.38C275.764 42.308 275.962 42.23 276.094 42.146V39.32H278.308V42.326C278.308 42.602 278.26 42.836 278.164 43.028C278.08 43.208 277.912 43.376 277.66 43.532C277.312 43.736 276.868 43.904 276.328 44.036C275.8 44.18 275.194 44.252 274.51 44.252C273.682 44.252 272.962 44.132 272.35 43.892C271.738 43.652 271.264 43.274 270.928 42.758C270.604 42.23 270.442 41.558 270.442 40.742ZM278.308 40.184H276.094V35.504C276.19 35.48 276.328 35.456 276.508 35.432C276.7 35.396 276.898 35.378 277.102 35.378C277.522 35.378 277.828 35.45 278.02 35.594C278.212 35.738 278.308 36.008 278.308 36.404V40.184ZM272.656 40.184H270.442V35.504C270.538 35.48 270.676 35.456 270.856 35.432C271.036 35.396 271.234 35.378 271.45 35.378C271.87 35.378 272.176 35.45 272.368 35.594C272.56 35.738 272.656 36.008 272.656 36.404V40.184ZM280.746 39.248L282.96 39.356V43.964C282.864 44 282.726 44.03 282.546 44.054C282.366 44.09 282.168 44.108 281.952 44.108C281.544 44.108 281.238 44.036 281.034 43.892C280.842 43.736 280.746 43.466 280.746 43.082V39.248ZM282.96 40.49L280.746 40.382V32.3C280.83 32.276 280.962 32.246 281.142 32.21C281.334 32.174 281.532 32.156 281.736 32.156C282.168 32.156 282.48 32.234 282.672 32.39C282.864 32.534 282.96 32.798 282.96 33.182V40.49ZM285.527 39.248L287.741 39.356V43.964C287.645 44 287.507 44.03 287.327 44.054C287.147 44.09 286.949 44.108 286.733 44.108C286.325 44.108 286.019 44.036 285.815 43.892C285.623 43.736 285.527 43.466 285.527 43.082V39.248ZM287.741 40.49L285.527 40.382V32.3C285.611 32.276 285.743 32.246 285.923 32.21C286.115 32.174 286.313 32.156 286.517 32.156C286.949 32.156 287.261 32.234 287.453 32.39C287.645 32.534 287.741 32.798 287.741 33.182V40.49ZM291.677 41.966C291.485 41.57 291.263 41.078 291.011 40.49C290.771 39.89 290.519 39.2 290.255 38.42C289.991 37.628 289.721 36.758 289.445 35.81C289.577 35.666 289.745 35.546 289.949 35.45C290.153 35.354 290.375 35.306 290.615 35.306C290.927 35.306 291.179 35.378 291.371 35.522C291.575 35.654 291.731 35.9 291.839 36.26C292.151 37.196 292.463 38.12 292.775 39.032C293.099 39.944 293.441 40.874 293.801 41.822H293.873C294.101 41.294 294.329 40.676 294.557 39.968C294.785 39.248 295.001 38.504 295.205 37.736C295.421 36.968 295.601 36.236 295.745 35.54C295.889 35.468 296.039 35.414 296.195 35.378C296.351 35.33 296.519 35.306 296.699 35.306C296.999 35.306 297.257 35.378 297.473 35.522C297.701 35.654 297.815 35.882 297.815 36.206C297.815 36.494 297.761 36.878 297.653 37.358C297.557 37.826 297.419 38.348 297.239 38.924C297.059 39.5 296.849 40.1 296.609 40.724C296.381 41.348 296.135 41.954 295.871 42.542C295.619 43.118 295.361 43.64 295.097 44.108C294.485 45.2 293.921 46.022 293.405 46.574C292.889 47.138 292.391 47.42 291.911 47.42C291.539 47.42 291.233 47.306 290.993 47.078C290.765 46.862 290.627 46.592 290.579 46.268C290.843 46.04 291.119 45.764 291.407 45.44C291.707 45.128 291.995 44.792 292.271 44.432C292.547 44.072 292.781 43.718 292.973 43.37C292.769 43.31 292.565 43.19 292.361 43.01C292.157 42.818 291.929 42.47 291.677 41.966Z" fill="white"/>
<defs>
<filter id="filter0_d_389_5870" x="-16" y="0" width="422" height="99" filterUnits="userSpaceOnUse" color-interpolation-filters="sRGB">
<feFlood flood-opacity="0" result="BackgroundImageFix"/>
<feColorMatrix in="SourceAlpha" type="matrix" values="0 0 0 0 0 0 0 0 0 0 0 0 0 0 0 0 0 0 127 0" result="hardAlpha"/>
<feOffset dy="10"/>
<feGaussianBlur stdDeviation="8"/>
<feColorMatrix type="matrix" values="0 0 0 0 0 0 0 0 0 0 0 0 0 0 0 0 0 0 0.05 0"/>
<feBlend mode="normal" in2="BackgroundImageFix" result="effect1_dropShadow_389_5870"/>
<feBlend mode="normal" in="SourceGraphic" in2="effect1_dropShadow_389_5870" result="shape"/>
</filter>
<linearGradient id="paint0_linear_389_5870" x1="190.5" y1="21.3245" x2="189.738" y2="79.0682" gradientUnits="userSpaceOnUse">
<stop stop-color="#4D6EFF"/>
<stop offset="1" stop-color="#2850FF"/>
</linearGradient>
</defs>
</svg>
