<svg width="390" height="92" viewBox="0 0 390 92" fill="none" xmlns="http://www.w3.org/2000/svg">
<g filter="url(#filter0_d_627_8090)">
<rect x="-1" y="-1" width="390" height="67" fill="#0562B2"/>
</g>
<mask id="mask0_627_8090" style="mask-type:alpha" maskUnits="userSpaceOnUse" x="-1" y="-1" width="390" height="67">
<rect x="-1" y="-1" width="390" height="67" fill="url(#paint0_linear_627_8090)"/>
</mask>
<g mask="url(#mask0_627_8090)">
<g opacity="0.25">
<path opacity="0.5" d="M-0.628867 3.29311C-5.04797 -0.722355 -11.9055 -0.438482 -15.9456 3.92712C-23.2609 11.8318 -20.4548 27.6104 -16.9099 33.9088C-10.271 36.864 5.83551 38.2705 13.1508 30.3659C17.1908 26.0003 16.8836 19.206 12.4645 15.1905C9.75832 12.7315 6.13764 11.8848 2.80963 12.6004C3.24153 9.25323 2.07731 5.75212 -0.628867 3.29311Z" fill="#FFDDC5"/>
<path opacity="0.5" d="M35.9239 8.58693C33.8951 6.74346 30.7469 6.87378 28.8921 8.878C25.5337 12.507 26.822 19.7508 28.4494 22.6424C31.4973 23.9991 38.8917 24.6448 42.2501 21.0158C44.1048 19.0116 43.9638 15.8924 41.935 14.049C40.6926 12.92 39.0304 12.5313 37.5025 12.8599C37.7008 11.3232 37.1663 9.71584 35.9239 8.58693Z" fill="#FFDDC5"/>
<path opacity="0.5" d="M21.3597 -11.7544C19.834 -13.1408 17.4664 -13.0428 16.0716 -11.5355C13.5459 -8.80644 14.5148 -3.35882 15.7386 -1.18428C18.0307 -0.164 23.5916 0.321613 26.1172 -2.40749C27.512 -3.91473 27.4059 -6.26047 25.8802 -7.64681C24.9459 -8.49579 23.6959 -8.78813 22.5469 -8.54105C22.696 -9.69669 22.294 -10.9055 21.3597 -11.7544Z" fill="#FFDDC5"/>
<path opacity="0.5" d="M1.93198 44.8403C0.406267 43.4539 -1.96133 43.5519 -3.35618 45.0592C-5.88179 47.7883 -4.91297 53.2359 -3.68909 55.4104C-1.39701 56.4307 4.16382 56.9163 6.68943 54.1872C8.08428 52.68 7.9782 50.3343 6.4525 48.9479C5.51818 48.0989 4.26813 47.8066 3.11913 48.0537C3.26824 46.898 2.86629 45.6893 1.93198 44.8403Z" fill="#FFDDC5"/>
<path opacity="0.5" d="M24.9028 43.5786C23.5208 42.3227 21.3761 42.4115 20.1126 43.7768C17.8248 46.249 18.7024 51.1837 19.811 53.1535C21.8873 54.0777 26.9245 54.5176 29.2124 52.0455C30.4759 50.6801 30.3798 48.5552 28.9977 47.2994C28.1514 46.5304 27.019 46.2656 25.9782 46.4894C26.1133 45.4426 25.7492 44.3476 24.9028 43.5786Z" fill="#FFDDC5"/>
<path opacity="0.5" d="M36.814 34.5862C35.9448 33.7965 34.5961 33.8523 33.8015 34.7109C32.3627 36.2656 32.9146 39.3689 33.6118 40.6077C34.9176 41.1889 38.0854 41.4655 39.5241 39.9108C40.3187 39.0522 40.2583 37.7159 39.3891 36.9262C38.8569 36.4426 38.1448 36.276 37.4902 36.4168C37.5752 35.7585 37.3462 35.0699 36.814 34.5862Z" fill="#FFDDC5"/>
<path opacity="0.5" d="M45.1004 -9.30345C43.795 -10.4896 41.7693 -10.4057 40.5759 -9.11617C38.415 -6.78117 39.2439 -2.12022 40.2911 -0.259698C42.2522 0.613245 47.01 1.02873 49.1709 -1.30627C50.3643 -2.59585 50.2735 -4.60285 48.9682 -5.789C48.1688 -6.51538 47.0992 -6.7655 46.1161 -6.5541C46.2437 -7.54286 45.8998 -8.57707 45.1004 -9.30345Z" fill="#FFDDC5"/>
</g>
<g opacity="0.15">
<path opacity="0.5" d="M331.081 24.7922C324.66 21.3673 316.655 23.7413 313.2 30.0947C306.945 41.5987 314.998 59.3857 321.073 65.7648C329.794 67.2784 349.22 64.1492 355.475 52.6453C358.929 46.2919 356.525 38.3649 350.104 34.94C346.172 32.8426 341.646 32.9199 337.935 34.754C337.438 30.6753 335.012 26.8896 331.081 24.7922Z" fill="#FFDDC5"/>
<path opacity="0.5" d="M300.658 65.6438C297.254 63.8282 293.011 65.0867 291.179 68.4546C287.864 74.5528 292.132 83.9816 295.353 87.3631C299.976 88.1655 310.273 86.5067 313.589 80.4086C315.42 77.0406 314.146 72.8386 310.742 71.0231C308.658 69.9112 306.258 69.9522 304.291 70.9245C304.028 68.7624 302.742 66.7556 300.658 65.6438Z" fill="#FFDDC5"/>
<path opacity="0.5" d="M377.008 20.2414C373.604 18.4259 369.36 19.6844 367.529 23.0523C364.213 29.1504 368.482 38.5793 371.703 41.9608C376.326 42.7631 386.623 41.1044 389.939 35.0062C391.77 31.6383 390.495 27.4362 387.092 25.6207C385.008 24.5089 382.608 24.5499 380.641 25.5221C380.378 23.36 379.092 21.3532 377.008 20.2414Z" fill="#FFDDC5"/>
<path opacity="0.5" d="M352.501 0.494569C350.284 -0.687902 347.52 0.131746 346.327 2.32528C344.168 6.29704 346.948 12.4381 349.045 14.6405C352.056 15.163 358.763 14.0827 360.923 10.1109C362.115 7.9174 361.285 5.18058 359.069 3.99811C357.711 3.27399 356.148 3.30067 354.867 3.93391C354.696 2.52573 353.858 1.21869 352.501 0.494569Z" fill="#FFDDC5"/>
<path opacity="0.5" d="M373.311 64.7432C371.303 63.672 368.8 64.4145 367.719 66.4015C365.763 69.9993 368.282 75.5622 370.182 77.5572C372.909 78.0306 378.984 77.0519 380.941 73.4541C382.021 71.4671 381.269 68.988 379.261 67.9168C378.031 67.2609 376.616 67.2851 375.455 67.8587C375.3 66.5831 374.541 65.3991 373.311 64.7432Z" fill="#FFDDC5"/>
<path opacity="0.5" d="M384.662 50.5888C383.399 49.9152 381.824 50.3821 381.145 51.6317C379.915 53.8943 381.499 57.3926 382.693 58.6472C384.409 58.9449 388.229 58.3295 389.46 56.0669C390.139 54.8173 389.666 53.2583 388.403 52.5847C387.63 52.1722 386.74 52.1874 386.01 52.5481C385.912 51.7459 385.435 51.0013 384.662 50.5888Z" fill="#FFDDC5"/>
<path opacity="0.5" d="M381.247 -3.67204C379.351 -4.68375 376.986 -3.98246 375.966 -2.10569C374.118 1.29252 376.497 6.54674 378.291 8.4311C380.867 8.87821 386.606 7.95386 388.453 4.55565C389.474 2.67888 388.763 0.337277 386.867 -0.674431C385.705 -1.29399 384.368 -1.27116 383.272 -0.729364C383.125 -1.93419 382.409 -3.05248 381.247 -3.67204Z" fill="#FFDDC5"/>
</g>
</g>
<path d="M64.0356 27.928H63.9456C63.7896 28.36 63.6156 28.852 63.4236 29.404C63.2436 29.956 63.0516 30.532 62.8476 31.132C62.6436 31.72 62.4516 32.29 62.2716 32.842L62.0196 33.958C61.9476 34.186 61.8696 34.438 61.7856 34.714C61.7136 34.99 61.6296 35.272 61.5336 35.56C61.4496 35.836 61.3656 36.1 61.2816 36.352C61.2096 36.604 61.1436 36.826 61.0836 37.018C60.9636 37.054 60.8316 37.084 60.6876 37.108C60.5556 37.144 60.3936 37.162 60.2016 37.162C59.8176 37.162 59.5116 37.09 59.2836 36.946C59.0676 36.79 58.9596 36.562 58.9596 36.262C58.9596 36.13 58.9776 35.992 59.0136 35.848C59.0616 35.704 59.1096 35.542 59.1576 35.362C59.2776 34.966 59.4396 34.474 59.6436 33.886C59.8476 33.286 60.0696 32.638 60.3096 31.942C60.5496 31.246 60.7956 30.544 61.0476 29.836C61.3116 29.128 61.5576 28.468 61.7856 27.856C62.0136 27.232 62.2116 26.71 62.3796 26.29C62.5236 26.206 62.7456 26.128 63.0456 26.056C63.3456 25.984 63.6516 25.948 63.9636 25.948C64.3716 25.948 64.7436 26.008 65.0796 26.128C65.4276 26.248 65.6436 26.44 65.7276 26.704C65.9796 27.364 66.2496 28.12 66.5376 28.972C66.8256 29.824 67.1196 30.712 67.4196 31.636C67.7196 32.56 68.0076 33.46 68.2836 34.336C68.5596 35.212 68.8056 36.004 69.0216 36.712C68.9016 36.844 68.7336 36.952 68.5176 37.036C68.3136 37.12 68.0736 37.162 67.7976 37.162C67.4016 37.162 67.1136 37.09 66.9336 36.946C66.7656 36.79 66.6336 36.556 66.5376 36.244L65.7996 33.886L65.5656 32.734C65.3736 32.122 65.1816 31.522 64.9896 30.934C64.8096 30.334 64.6356 29.776 64.4676 29.26C64.2996 28.744 64.1556 28.3 64.0356 27.928ZM61.0116 34.39L61.8576 32.608H66.3576L66.6996 34.39H61.0116ZM74.9156 30.016C74.1956 30.016 73.5896 30.25 73.0976 30.718C72.6176 31.186 72.3776 31.87 72.3776 32.77C72.3776 33.658 72.6116 34.33 73.0796 34.786C73.5476 35.242 74.1536 35.47 74.8976 35.47C75.3416 35.47 75.7136 35.416 76.0136 35.308C76.3256 35.188 76.5956 35.062 76.8236 34.93C77.0036 35.038 77.1416 35.17 77.2376 35.326C77.3456 35.47 77.3996 35.65 77.3996 35.866C77.3996 36.274 77.1536 36.61 76.6616 36.874C76.1696 37.126 75.5216 37.252 74.7176 37.252C73.8056 37.252 73.0016 37.09 72.3056 36.766C71.6216 36.43 71.0816 35.926 70.6856 35.254C70.3016 34.582 70.1096 33.754 70.1096 32.77C70.1096 31.75 70.3136 30.904 70.7216 30.232C71.1416 29.56 71.6936 29.062 72.3776 28.738C73.0736 28.402 73.8356 28.234 74.6636 28.234C75.4556 28.234 76.0916 28.372 76.5716 28.648C77.0516 28.924 77.2916 29.266 77.2916 29.674C77.2916 29.854 77.2436 30.022 77.1476 30.178C77.0516 30.334 76.9376 30.46 76.8056 30.556C76.5656 30.412 76.2956 30.286 75.9956 30.178C75.6956 30.07 75.3356 30.016 74.9156 30.016ZM83.3883 30.016C82.6683 30.016 82.0623 30.25 81.5703 30.718C81.0903 31.186 80.8503 31.87 80.8503 32.77C80.8503 33.658 81.0843 34.33 81.5523 34.786C82.0203 35.242 82.6263 35.47 83.3703 35.47C83.8143 35.47 84.1863 35.416 84.4863 35.308C84.7983 35.188 85.0683 35.062 85.2963 34.93C85.4763 35.038 85.6143 35.17 85.7103 35.326C85.8183 35.47 85.8723 35.65 85.8723 35.866C85.8723 36.274 85.6263 36.61 85.1343 36.874C84.6423 37.126 83.9943 37.252 83.1903 37.252C82.2783 37.252 81.4743 37.09 80.7783 36.766C80.0943 36.43 79.5543 35.926 79.1583 35.254C78.7743 34.582 78.5823 33.754 78.5823 32.77C78.5823 31.75 78.7863 30.904 79.1943 30.232C79.6143 29.56 80.1663 29.062 80.8503 28.738C81.5463 28.402 82.3083 28.234 83.1363 28.234C83.9283 28.234 84.5643 28.372 85.0443 28.648C85.5243 28.924 85.7643 29.266 85.7643 29.674C85.7643 29.854 85.7163 30.022 85.6203 30.178C85.5243 30.334 85.4103 30.46 85.2783 30.556C85.0383 30.412 84.7683 30.286 84.4683 30.178C84.1683 30.07 83.8083 30.016 83.3883 30.016ZM95.839 32.734C95.839 33.658 95.659 34.462 95.299 35.146C94.939 35.818 94.429 36.34 93.769 36.712C93.121 37.072 92.353 37.252 91.465 37.252C90.577 37.252 89.803 37.072 89.143 36.712C88.483 36.34 87.967 35.818 87.595 35.146C87.235 34.474 87.055 33.67 87.055 32.734C87.055 31.81 87.241 31.012 87.613 30.34C87.985 29.668 88.501 29.152 89.161 28.792C89.821 28.42 90.589 28.234 91.465 28.234C92.341 28.234 93.103 28.42 93.751 28.792C94.411 29.152 94.921 29.674 95.281 30.358C95.653 31.03 95.839 31.822 95.839 32.734ZM91.465 29.998C90.805 29.998 90.283 30.238 89.899 30.718C89.527 31.198 89.341 31.87 89.341 32.734C89.341 33.622 89.527 34.306 89.899 34.786C90.271 35.254 90.793 35.488 91.465 35.488C92.125 35.488 92.641 35.248 93.013 34.768C93.385 34.288 93.571 33.61 93.571 32.734C93.571 31.882 93.385 31.216 93.013 30.736C92.641 30.244 92.125 29.998 91.465 29.998ZM97.735 33.742V32.32H99.949V33.706C99.949 34.342 100.111 34.798 100.435 35.074C100.771 35.35 101.233 35.488 101.821 35.488C102.205 35.488 102.529 35.452 102.793 35.38C103.057 35.308 103.255 35.23 103.387 35.146V32.32H105.601V35.326C105.601 35.602 105.553 35.836 105.457 36.028C105.373 36.208 105.205 36.376 104.953 36.532C104.605 36.736 104.161 36.904 103.621 37.036C103.093 37.18 102.487 37.252 101.803 37.252C100.975 37.252 100.255 37.132 99.643 36.892C99.031 36.652 98.557 36.274 98.221 35.758C97.897 35.23 97.735 34.558 97.735 33.742ZM105.601 33.184H103.387V28.504C103.483 28.48 103.621 28.456 103.801 28.432C103.993 28.396 104.191 28.378 104.395 28.378C104.815 28.378 105.121 28.45 105.313 28.594C105.505 28.738 105.601 29.008 105.601 29.404V33.184ZM99.949 33.184H97.735V28.504C97.831 28.48 97.969 28.456 98.149 28.432C98.329 28.396 98.527 28.378 98.743 28.378C99.163 28.378 99.469 28.45 99.661 28.594C99.853 28.738 99.949 29.008 99.949 29.404V33.184ZM115.779 31.438V33.184H113.565V31.528C113.565 31 113.415 30.616 113.115 30.376C112.815 30.124 112.413 29.998 111.909 29.998C111.537 29.998 111.201 30.046 110.901 30.142C110.613 30.226 110.355 30.328 110.127 30.448V33.184H107.913V30.304C107.913 30.016 107.973 29.782 108.093 29.602C108.213 29.41 108.393 29.236 108.633 29.08C108.993 28.84 109.455 28.642 110.019 28.486C110.595 28.318 111.231 28.234 111.927 28.234C113.139 28.234 114.081 28.504 114.753 29.044C115.437 29.584 115.779 30.382 115.779 31.438ZM107.913 32.302H110.127V36.964C110.031 37 109.893 37.03 109.713 37.054C109.533 37.09 109.335 37.108 109.119 37.108C108.711 37.108 108.405 37.036 108.201 36.892C108.009 36.736 107.913 36.466 107.913 36.082V32.302ZM113.565 32.302H115.779V36.964C115.695 37 115.557 37.03 115.365 37.054C115.185 37.09 114.993 37.108 114.789 37.108C114.369 37.108 114.057 37.036 113.853 36.892C113.661 36.736 113.565 36.466 113.565 36.082V32.302ZM118.126 32.248H120.34V34.372C120.34 34.768 120.454 35.05 120.682 35.218C120.922 35.386 121.258 35.47 121.69 35.47C121.882 35.47 122.086 35.446 122.302 35.398C122.53 35.35 122.722 35.29 122.878 35.218C122.962 35.314 123.04 35.428 123.112 35.56C123.184 35.692 123.22 35.854 123.22 36.046C123.22 36.394 123.052 36.682 122.716 36.91C122.392 37.138 121.882 37.252 121.186 37.252C120.238 37.252 119.488 37.042 118.936 36.622C118.396 36.19 118.126 35.494 118.126 34.534V32.248ZM119.476 30.412V28.666H123.004C123.052 28.75 123.1 28.87 123.148 29.026C123.208 29.182 123.238 29.344 123.238 29.512C123.238 29.812 123.166 30.04 123.022 30.196C122.878 30.34 122.692 30.412 122.464 30.412H119.476ZM120.34 32.734H118.126V26.254C118.222 26.218 118.36 26.182 118.54 26.146C118.732 26.11 118.93 26.092 119.134 26.092C119.554 26.092 119.86 26.17 120.052 26.326C120.244 26.47 120.34 26.734 120.34 27.118V32.734ZM135.19 28.306C135.502 28.306 135.76 28.378 135.964 28.522C136.168 28.666 136.27 28.894 136.27 29.206C136.27 29.398 136.204 29.722 136.072 30.178C135.952 30.622 135.79 31.144 135.586 31.744C135.382 32.344 135.154 32.962 134.902 33.598C134.662 34.234 134.416 34.84 134.164 35.416C133.912 35.98 133.684 36.454 133.48 36.838C133.372 36.922 133.198 36.994 132.958 37.054C132.73 37.114 132.472 37.144 132.184 37.144C131.848 37.144 131.56 37.096 131.32 37C131.08 36.916 130.912 36.778 130.816 36.586C130.684 36.334 130.516 35.98 130.312 35.524C130.12 35.068 129.91 34.546 129.682 33.958C129.454 33.37 129.226 32.764 128.998 32.14C128.77 31.516 128.56 30.916 128.368 30.34C128.188 29.764 128.038 29.254 127.918 28.81C128.05 28.666 128.218 28.546 128.422 28.45C128.638 28.354 128.86 28.306 129.088 28.306C129.4 28.306 129.652 28.378 129.844 28.522C130.048 28.654 130.198 28.9 130.294 29.26L131.212 32.266C131.308 32.578 131.416 32.92 131.536 33.292C131.668 33.652 131.788 34 131.896 34.336C132.004 34.66 132.094 34.936 132.166 35.164H132.238C132.598 34.108 132.946 33.01 133.282 31.87C133.63 30.73 133.93 29.62 134.182 28.54C134.47 28.384 134.806 28.306 135.19 28.306ZM138.803 33.868L138.713 32.32L143.537 31.6C143.501 31.144 143.327 30.748 143.015 30.412C142.703 30.076 142.247 29.908 141.647 29.908C141.035 29.908 140.525 30.124 140.117 30.556C139.709 30.976 139.499 31.582 139.487 32.374L139.541 33.31C139.649 34.078 139.943 34.642 140.423 35.002C140.915 35.362 141.533 35.542 142.277 35.542C142.781 35.542 143.249 35.47 143.681 35.326C144.113 35.17 144.455 35.002 144.707 34.822C144.875 34.93 145.007 35.068 145.103 35.236C145.211 35.392 145.265 35.566 145.265 35.758C145.265 36.07 145.127 36.34 144.851 36.568C144.575 36.784 144.203 36.952 143.735 37.072C143.267 37.192 142.733 37.252 142.133 37.252C141.209 37.252 140.387 37.084 139.667 36.748C138.959 36.4 138.401 35.884 137.993 35.2C137.597 34.516 137.399 33.664 137.399 32.644C137.399 31.912 137.513 31.27 137.741 30.718C137.969 30.166 138.275 29.71 138.659 29.35C139.055 28.978 139.511 28.702 140.027 28.522C140.543 28.33 141.083 28.234 141.647 28.234C142.439 28.234 143.129 28.396 143.717 28.72C144.317 29.032 144.785 29.47 145.121 30.034C145.469 30.598 145.643 31.246 145.643 31.978C145.643 32.314 145.553 32.566 145.373 32.734C145.205 32.89 144.965 32.986 144.653 33.022L138.803 33.868ZM149.642 30.52V32.986H147.428V30.34C147.428 30.04 147.5 29.788 147.644 29.584C147.788 29.368 147.992 29.17 148.256 28.99C148.616 28.774 149.072 28.594 149.624 28.45C150.176 28.306 150.77 28.234 151.406 28.234C152.534 28.234 153.098 28.582 153.098 29.278C153.098 29.446 153.074 29.602 153.026 29.746C152.978 29.878 152.918 29.998 152.846 30.106C152.726 30.082 152.576 30.064 152.396 30.052C152.216 30.028 152.024 30.016 151.82 30.016C151.388 30.016 150.98 30.064 150.596 30.16C150.224 30.244 149.906 30.364 149.642 30.52ZM147.428 32.248L149.642 32.356V36.964C149.546 37 149.408 37.03 149.228 37.054C149.048 37.09 148.85 37.108 148.634 37.108C148.226 37.108 147.92 37.036 147.716 36.892C147.524 36.736 147.428 36.466 147.428 36.082V32.248ZM154.457 25.948C154.457 25.6 154.577 25.306 154.817 25.066C155.069 24.826 155.381 24.706 155.753 24.706C156.137 24.706 156.443 24.826 156.671 25.066C156.911 25.306 157.031 25.6 157.031 25.948C157.031 26.284 156.911 26.578 156.671 26.83C156.443 27.07 156.137 27.19 155.753 27.19C155.381 27.19 155.069 27.07 154.817 26.83C154.577 26.578 154.457 26.284 154.457 25.948ZM154.637 32.248H156.869V36.964C156.773 37 156.635 37.03 156.455 37.054C156.275 37.09 156.077 37.108 155.861 37.108C155.453 37.108 155.147 37.036 154.943 36.892C154.739 36.736 154.637 36.466 154.637 36.082V32.248ZM156.869 33.382H154.637V28.558C154.733 28.522 154.871 28.492 155.051 28.468C155.243 28.432 155.447 28.414 155.663 28.414C156.083 28.414 156.389 28.492 156.581 28.648C156.773 28.792 156.869 29.062 156.869 29.458V33.382ZM161.076 30.772V29.044H164.694C164.742 29.128 164.79 29.248 164.838 29.404C164.898 29.548 164.928 29.716 164.928 29.908C164.928 30.208 164.856 30.43 164.712 30.574C164.58 30.706 164.388 30.772 164.136 30.772H161.076ZM161.418 28.18V30.502H159.294V28.09C159.294 27.334 159.444 26.722 159.744 26.254C160.056 25.774 160.482 25.426 161.022 25.21C161.574 24.982 162.198 24.868 162.894 24.868C163.674 24.868 164.268 24.97 164.676 25.174C165.084 25.378 165.288 25.684 165.288 26.092C165.288 26.272 165.246 26.44 165.162 26.596C165.09 26.74 165 26.86 164.892 26.956C164.664 26.86 164.406 26.782 164.118 26.722C163.842 26.662 163.548 26.632 163.236 26.632C162.6 26.632 162.138 26.752 161.85 26.992C161.562 27.232 161.418 27.628 161.418 28.18ZM159.294 29.872H161.508V36.964C161.412 37 161.274 37.03 161.094 37.054C160.914 37.09 160.716 37.108 160.5 37.108C160.092 37.108 159.786 37.036 159.582 36.892C159.39 36.736 159.294 36.466 159.294 36.082V29.872ZM166.566 25.948C166.566 25.6 166.686 25.306 166.926 25.066C167.178 24.826 167.49 24.706 167.862 24.706C168.246 24.706 168.552 24.826 168.78 25.066C169.02 25.306 169.14 25.6 169.14 25.948C169.14 26.284 169.02 26.578 168.78 26.83C168.552 27.07 168.246 27.19 167.862 27.19C167.49 27.19 167.178 27.07 166.926 26.83C166.686 26.578 166.566 26.284 166.566 25.948ZM166.746 32.248H168.978V36.964C168.882 37 168.744 37.03 168.564 37.054C168.384 37.09 168.186 37.108 167.97 37.108C167.562 37.108 167.256 37.036 167.052 36.892C166.848 36.736 166.746 36.466 166.746 36.082V32.248ZM168.978 33.382H166.746V28.558C166.842 28.522 166.98 28.492 167.16 28.468C167.352 28.432 167.556 28.414 167.772 28.414C168.192 28.414 168.498 28.492 168.69 28.648C168.882 28.792 168.978 29.062 168.978 29.458V33.382ZM175.744 30.016C175.024 30.016 174.418 30.25 173.926 30.718C173.446 31.186 173.206 31.87 173.206 32.77C173.206 33.658 173.44 34.33 173.908 34.786C174.376 35.242 174.982 35.47 175.726 35.47C176.17 35.47 176.542 35.416 176.842 35.308C177.154 35.188 177.424 35.062 177.652 34.93C177.832 35.038 177.97 35.17 178.066 35.326C178.174 35.47 178.228 35.65 178.228 35.866C178.228 36.274 177.982 36.61 177.49 36.874C176.998 37.126 176.35 37.252 175.546 37.252C174.634 37.252 173.83 37.09 173.134 36.766C172.45 36.43 171.91 35.926 171.514 35.254C171.13 34.582 170.938 33.754 170.938 32.77C170.938 31.75 171.142 30.904 171.55 30.232C171.97 29.56 172.522 29.062 173.206 28.738C173.902 28.402 174.664 28.234 175.492 28.234C176.284 28.234 176.92 28.372 177.4 28.648C177.88 28.924 178.12 29.266 178.12 29.674C178.12 29.854 178.072 30.022 177.976 30.178C177.88 30.334 177.766 30.46 177.634 30.556C177.394 30.412 177.124 30.286 176.824 30.178C176.524 30.07 176.164 30.016 175.744 30.016ZM183.454 35.578C183.814 35.578 184.138 35.542 184.426 35.47C184.714 35.398 184.924 35.32 185.056 35.236V33.184L183.274 33.364C182.782 33.4 182.404 33.508 182.14 33.688C181.888 33.856 181.762 34.108 181.762 34.444C181.762 34.792 181.9 35.068 182.176 35.272C182.452 35.476 182.878 35.578 183.454 35.578ZM183.364 28.234C184.54 28.234 185.476 28.486 186.172 28.99C186.868 29.482 187.216 30.262 187.216 31.33V35.47C187.216 35.758 187.144 35.986 187 36.154C186.868 36.322 186.694 36.472 186.478 36.604C186.142 36.796 185.716 36.952 185.2 37.072C184.684 37.204 184.102 37.27 183.454 37.27C182.254 37.27 181.312 37.042 180.628 36.586C179.944 36.118 179.602 35.428 179.602 34.516C179.602 33.712 179.854 33.1 180.358 32.68C180.874 32.248 181.618 31.984 182.59 31.888L185.038 31.636V31.312C185.038 30.832 184.87 30.484 184.534 30.268C184.21 30.052 183.748 29.944 183.148 29.944C182.68 29.944 182.224 30.004 181.78 30.124C181.336 30.244 180.94 30.388 180.592 30.556C180.472 30.46 180.364 30.328 180.268 30.16C180.172 29.992 180.124 29.818 180.124 29.638C180.124 29.206 180.364 28.888 180.844 28.684C181.18 28.528 181.57 28.414 182.014 28.342C182.47 28.27 182.92 28.234 183.364 28.234ZM189.511 32.248H191.725V34.372C191.725 34.768 191.839 35.05 192.067 35.218C192.307 35.386 192.643 35.47 193.075 35.47C193.267 35.47 193.471 35.446 193.687 35.398C193.915 35.35 194.107 35.29 194.263 35.218C194.347 35.314 194.425 35.428 194.497 35.56C194.569 35.692 194.605 35.854 194.605 36.046C194.605 36.394 194.437 36.682 194.101 36.91C193.777 37.138 193.267 37.252 192.571 37.252C191.623 37.252 190.873 37.042 190.321 36.622C189.781 36.19 189.511 35.494 189.511 34.534V32.248ZM190.861 30.412V28.666H194.389C194.437 28.75 194.485 28.87 194.533 29.026C194.593 29.182 194.623 29.344 194.623 29.512C194.623 29.812 194.551 30.04 194.407 30.196C194.263 30.34 194.077 30.412 193.849 30.412H190.861ZM191.725 32.734H189.511V26.254C189.607 26.218 189.745 26.182 189.925 26.146C190.117 26.11 190.315 26.092 190.519 26.092C190.939 26.092 191.245 26.17 191.437 26.326C191.629 26.47 191.725 26.734 191.725 27.118V32.734ZM196.293 25.948C196.293 25.6 196.413 25.306 196.653 25.066C196.905 24.826 197.217 24.706 197.589 24.706C197.973 24.706 198.279 24.826 198.507 25.066C198.747 25.306 198.867 25.6 198.867 25.948C198.867 26.284 198.747 26.578 198.507 26.83C198.279 27.07 197.973 27.19 197.589 27.19C197.217 27.19 196.905 27.07 196.653 26.83C196.413 26.578 196.293 26.284 196.293 25.948ZM196.473 32.248H198.705V36.964C198.609 37 198.471 37.03 198.291 37.054C198.111 37.09 197.913 37.108 197.697 37.108C197.289 37.108 196.983 37.036 196.779 36.892C196.575 36.736 196.473 36.466 196.473 36.082V32.248ZM198.705 33.382H196.473V28.558C196.569 28.522 196.707 28.492 196.887 28.468C197.079 28.432 197.283 28.414 197.499 28.414C197.919 28.414 198.225 28.492 198.417 28.648C198.609 28.792 198.705 29.062 198.705 29.458V33.382ZM209.446 32.734C209.446 33.658 209.266 34.462 208.906 35.146C208.546 35.818 208.036 36.34 207.376 36.712C206.728 37.072 205.96 37.252 205.072 37.252C204.184 37.252 203.41 37.072 202.75 36.712C202.09 36.34 201.574 35.818 201.202 35.146C200.842 34.474 200.662 33.67 200.662 32.734C200.662 31.81 200.848 31.012 201.22 30.34C201.592 29.668 202.108 29.152 202.768 28.792C203.428 28.42 204.196 28.234 205.072 28.234C205.948 28.234 206.71 28.42 207.358 28.792C208.018 29.152 208.528 29.674 208.888 30.358C209.26 31.03 209.446 31.822 209.446 32.734ZM205.072 29.998C204.412 29.998 203.89 30.238 203.506 30.718C203.134 31.198 202.948 31.87 202.948 32.734C202.948 33.622 203.134 34.306 203.506 34.786C203.878 35.254 204.4 35.488 205.072 35.488C205.732 35.488 206.248 35.248 206.62 34.768C206.992 34.288 207.178 33.61 207.178 32.734C207.178 31.882 206.992 31.216 206.62 30.736C206.248 30.244 205.732 29.998 205.072 29.998ZM219.208 31.438V33.184H216.994V31.528C216.994 31 216.844 30.616 216.544 30.376C216.244 30.124 215.842 29.998 215.338 29.998C214.966 29.998 214.63 30.046 214.33 30.142C214.042 30.226 213.784 30.328 213.556 30.448V33.184H211.342V30.304C211.342 30.016 211.402 29.782 211.522 29.602C211.642 29.41 211.822 29.236 212.062 29.08C212.422 28.84 212.884 28.642 213.448 28.486C214.024 28.318 214.66 28.234 215.356 28.234C216.568 28.234 217.51 28.504 218.182 29.044C218.866 29.584 219.208 30.382 219.208 31.438ZM211.342 32.302H213.556V36.964C213.46 37 213.322 37.03 213.142 37.054C212.962 37.09 212.764 37.108 212.548 37.108C212.14 37.108 211.834 37.036 211.63 36.892C211.438 36.736 211.342 36.466 211.342 36.082V32.302ZM216.994 32.302H219.208V36.964C219.124 37 218.986 37.03 218.794 37.054C218.614 37.09 218.422 37.108 218.218 37.108C217.798 37.108 217.486 37.036 217.282 36.892C217.09 36.736 216.994 36.466 216.994 36.082V32.302ZM225.141 33.742V32.32H227.355V33.706C227.355 34.342 227.517 34.798 227.841 35.074C228.177 35.35 228.639 35.488 229.227 35.488C229.611 35.488 229.935 35.452 230.199 35.38C230.463 35.308 230.661 35.23 230.793 35.146V32.32H233.007V35.326C233.007 35.602 232.959 35.836 232.863 36.028C232.779 36.208 232.611 36.376 232.359 36.532C232.011 36.736 231.567 36.904 231.027 37.036C230.499 37.18 229.893 37.252 229.209 37.252C228.381 37.252 227.661 37.132 227.049 36.892C226.437 36.652 225.963 36.274 225.627 35.758C225.303 35.23 225.141 34.558 225.141 33.742ZM233.007 33.184H230.793V28.504C230.889 28.48 231.027 28.456 231.207 28.432C231.399 28.396 231.597 28.378 231.801 28.378C232.221 28.378 232.527 28.45 232.719 28.594C232.911 28.738 233.007 29.008 233.007 29.404V33.184ZM227.355 33.184H225.141V28.504C225.237 28.48 225.375 28.456 225.555 28.432C225.735 28.396 225.933 28.378 226.149 28.378C226.569 28.378 226.875 28.45 227.067 28.594C227.259 28.738 227.355 29.008 227.355 29.404V33.184ZM243.185 31.438V33.184H240.971V31.528C240.971 31 240.821 30.616 240.521 30.376C240.221 30.124 239.819 29.998 239.315 29.998C238.943 29.998 238.607 30.046 238.307 30.142C238.019 30.226 237.761 30.328 237.533 30.448V33.184H235.319V30.304C235.319 30.016 235.379 29.782 235.499 29.602C235.619 29.41 235.799 29.236 236.039 29.08C236.399 28.84 236.861 28.642 237.425 28.486C238.001 28.318 238.637 28.234 239.333 28.234C240.545 28.234 241.487 28.504 242.159 29.044C242.843 29.584 243.185 30.382 243.185 31.438ZM235.319 32.302H237.533V36.964C237.437 37 237.299 37.03 237.119 37.054C236.939 37.09 236.741 37.108 236.525 37.108C236.117 37.108 235.811 37.036 235.607 36.892C235.415 36.736 235.319 36.466 235.319 36.082V32.302ZM240.971 32.302H243.185V36.964C243.101 37 242.963 37.03 242.771 37.054C242.591 37.09 242.399 37.108 242.195 37.108C241.775 37.108 241.463 37.036 241.259 36.892C241.067 36.736 240.971 36.466 240.971 36.082V32.302ZM251.148 35.128V29.476H253.362V35.362C253.362 35.626 253.302 35.848 253.182 36.028C253.074 36.196 252.894 36.358 252.642 36.514C252.354 36.706 251.958 36.874 251.454 37.018C250.962 37.174 250.398 37.252 249.762 37.252C248.814 37.252 247.986 37.096 247.278 36.784C246.582 36.46 246.042 35.968 245.658 35.308C245.274 34.636 245.082 33.79 245.082 32.77C245.082 31.726 245.274 30.868 245.658 30.196C246.054 29.524 246.582 29.032 247.242 28.72C247.902 28.396 248.634 28.234 249.438 28.234C249.882 28.234 250.284 28.288 250.644 28.396C251.016 28.504 251.316 28.63 251.544 28.774V30.664C251.352 30.484 251.1 30.328 250.788 30.196C250.476 30.064 250.116 29.998 249.708 29.998C249.264 29.998 248.862 30.094 248.502 30.286C248.142 30.466 247.86 30.766 247.656 31.186C247.452 31.594 247.35 32.128 247.35 32.788C247.35 33.724 247.566 34.408 247.998 34.84C248.43 35.272 249.012 35.488 249.744 35.488C250.068 35.488 250.344 35.452 250.572 35.38C250.8 35.308 250.992 35.224 251.148 35.128ZM253.362 29.926L251.148 29.944V25.3C251.232 25.276 251.364 25.246 251.544 25.21C251.736 25.174 251.934 25.156 252.138 25.156C252.57 25.156 252.882 25.234 253.074 25.39C253.266 25.534 253.362 25.798 253.362 26.182V29.926ZM256.682 33.868L256.592 32.32L261.416 31.6C261.38 31.144 261.206 30.748 260.894 30.412C260.582 30.076 260.126 29.908 259.526 29.908C258.914 29.908 258.404 30.124 257.996 30.556C257.588 30.976 257.378 31.582 257.366 32.374L257.42 33.31C257.528 34.078 257.822 34.642 258.302 35.002C258.794 35.362 259.412 35.542 260.156 35.542C260.66 35.542 261.128 35.47 261.56 35.326C261.992 35.17 262.334 35.002 262.586 34.822C262.754 34.93 262.886 35.068 262.982 35.236C263.09 35.392 263.144 35.566 263.144 35.758C263.144 36.07 263.006 36.34 262.73 36.568C262.454 36.784 262.082 36.952 261.614 37.072C261.146 37.192 260.612 37.252 260.012 37.252C259.088 37.252 258.266 37.084 257.546 36.748C256.838 36.4 256.28 35.884 255.872 35.2C255.476 34.516 255.278 33.664 255.278 32.644C255.278 31.912 255.392 31.27 255.62 30.718C255.848 30.166 256.154 29.71 256.538 29.35C256.934 28.978 257.39 28.702 257.906 28.522C258.422 28.33 258.962 28.234 259.526 28.234C260.318 28.234 261.008 28.396 261.596 28.72C262.196 29.032 262.664 29.47 263 30.034C263.348 30.598 263.522 31.246 263.522 31.978C263.522 32.314 263.432 32.566 263.252 32.734C263.084 32.89 262.844 32.986 262.532 33.022L256.682 33.868ZM267.521 30.52V32.986H265.307V30.34C265.307 30.04 265.379 29.788 265.523 29.584C265.667 29.368 265.871 29.17 266.135 28.99C266.495 28.774 266.951 28.594 267.503 28.45C268.055 28.306 268.649 28.234 269.285 28.234C270.413 28.234 270.977 28.582 270.977 29.278C270.977 29.446 270.953 29.602 270.905 29.746C270.857 29.878 270.797 29.998 270.725 30.106C270.605 30.082 270.455 30.064 270.275 30.052C270.095 30.028 269.903 30.016 269.699 30.016C269.267 30.016 268.859 30.064 268.475 30.16C268.103 30.244 267.785 30.364 267.521 30.52ZM265.307 32.248L267.521 32.356V36.964C267.425 37 267.287 37.03 267.107 37.054C266.927 37.09 266.729 37.108 266.513 37.108C266.105 37.108 265.799 37.036 265.595 36.892C265.403 36.736 265.307 36.466 265.307 36.082V32.248ZM278.262 30.52V32.986H276.048V30.34C276.048 30.04 276.12 29.788 276.264 29.584C276.408 29.368 276.612 29.17 276.876 28.99C277.236 28.774 277.692 28.594 278.244 28.45C278.796 28.306 279.39 28.234 280.026 28.234C281.154 28.234 281.718 28.582 281.718 29.278C281.718 29.446 281.694 29.602 281.646 29.746C281.598 29.878 281.538 29.998 281.466 30.106C281.346 30.082 281.196 30.064 281.016 30.052C280.836 30.028 280.644 30.016 280.44 30.016C280.008 30.016 279.6 30.064 279.216 30.16C278.844 30.244 278.526 30.364 278.262 30.52ZM276.048 32.248L278.262 32.356V36.964C278.166 37 278.028 37.03 277.848 37.054C277.668 37.09 277.47 37.108 277.254 37.108C276.846 37.108 276.54 37.036 276.336 36.892C276.144 36.736 276.048 36.466 276.048 36.082V32.248ZM283.91 33.868L283.82 32.32L288.644 31.6C288.608 31.144 288.434 30.748 288.122 30.412C287.81 30.076 287.354 29.908 286.754 29.908C286.142 29.908 285.632 30.124 285.224 30.556C284.816 30.976 284.606 31.582 284.594 32.374L284.648 33.31C284.756 34.078 285.05 34.642 285.53 35.002C286.022 35.362 286.64 35.542 287.384 35.542C287.888 35.542 288.356 35.47 288.788 35.326C289.22 35.17 289.562 35.002 289.814 34.822C289.982 34.93 290.114 35.068 290.21 35.236C290.318 35.392 290.372 35.566 290.372 35.758C290.372 36.07 290.234 36.34 289.958 36.568C289.682 36.784 289.31 36.952 288.842 37.072C288.374 37.192 287.84 37.252 287.24 37.252C286.316 37.252 285.494 37.084 284.774 36.748C284.066 36.4 283.508 35.884 283.1 35.2C282.704 34.516 282.506 33.664 282.506 32.644C282.506 31.912 282.62 31.27 282.848 30.718C283.076 30.166 283.382 29.71 283.766 29.35C284.162 28.978 284.618 28.702 285.134 28.522C285.65 28.33 286.19 28.234 286.754 28.234C287.546 28.234 288.236 28.396 288.824 28.72C289.424 29.032 289.892 29.47 290.228 30.034C290.576 30.598 290.75 31.246 290.75 31.978C290.75 32.314 290.66 32.566 290.48 32.734C290.312 32.89 290.072 32.986 289.76 33.022L283.91 33.868ZM299.035 28.306C299.347 28.306 299.605 28.378 299.809 28.522C300.013 28.666 300.115 28.894 300.115 29.206C300.115 29.398 300.049 29.722 299.917 30.178C299.797 30.622 299.635 31.144 299.431 31.744C299.227 32.344 298.999 32.962 298.747 33.598C298.507 34.234 298.261 34.84 298.009 35.416C297.757 35.98 297.529 36.454 297.325 36.838C297.217 36.922 297.043 36.994 296.803 37.054C296.575 37.114 296.317 37.144 296.029 37.144C295.693 37.144 295.405 37.096 295.165 37C294.925 36.916 294.757 36.778 294.661 36.586C294.529 36.334 294.361 35.98 294.157 35.524C293.965 35.068 293.755 34.546 293.527 33.958C293.299 33.37 293.071 32.764 292.843 32.14C292.615 31.516 292.405 30.916 292.213 30.34C292.033 29.764 291.883 29.254 291.763 28.81C291.895 28.666 292.063 28.546 292.267 28.45C292.483 28.354 292.705 28.306 292.933 28.306C293.245 28.306 293.497 28.378 293.689 28.522C293.893 28.654 294.043 28.9 294.139 29.26L295.057 32.266C295.153 32.578 295.261 32.92 295.381 33.292C295.513 33.652 295.633 34 295.741 34.336C295.849 34.66 295.939 34.936 296.011 35.164H296.083C296.443 34.108 296.791 33.01 297.127 31.87C297.475 30.73 297.775 29.62 298.027 28.54C298.315 28.384 298.651 28.306 299.035 28.306ZM301.691 25.948C301.691 25.6 301.811 25.306 302.051 25.066C302.303 24.826 302.615 24.706 302.987 24.706C303.371 24.706 303.677 24.826 303.905 25.066C304.145 25.306 304.265 25.6 304.265 25.948C304.265 26.284 304.145 26.578 303.905 26.83C303.677 27.07 303.371 27.19 302.987 27.19C302.615 27.19 302.303 27.07 302.051 26.83C301.811 26.578 301.691 26.284 301.691 25.948ZM301.871 32.248H304.103V36.964C304.007 37 303.869 37.03 303.689 37.054C303.509 37.09 303.311 37.108 303.095 37.108C302.687 37.108 302.381 37.036 302.177 36.892C301.973 36.736 301.871 36.466 301.871 36.082V32.248ZM304.103 33.382H301.871V28.558C301.967 28.522 302.105 28.492 302.285 28.468C302.477 28.432 302.681 28.414 302.897 28.414C303.317 28.414 303.623 28.492 303.815 28.648C304.007 28.792 304.103 29.062 304.103 29.458V33.382ZM307.465 33.868L307.375 32.32L312.199 31.6C312.163 31.144 311.989 30.748 311.677 30.412C311.365 30.076 310.909 29.908 310.309 29.908C309.697 29.908 309.187 30.124 308.779 30.556C308.371 30.976 308.161 31.582 308.149 32.374L308.203 33.31C308.311 34.078 308.605 34.642 309.085 35.002C309.577 35.362 310.195 35.542 310.939 35.542C311.443 35.542 311.911 35.47 312.343 35.326C312.775 35.17 313.117 35.002 313.369 34.822C313.537 34.93 313.669 35.068 313.765 35.236C313.873 35.392 313.927 35.566 313.927 35.758C313.927 36.07 313.789 36.34 313.513 36.568C313.237 36.784 312.865 36.952 312.397 37.072C311.929 37.192 311.395 37.252 310.795 37.252C309.871 37.252 309.049 37.084 308.329 36.748C307.621 36.4 307.063 35.884 306.655 35.2C306.259 34.516 306.061 33.664 306.061 32.644C306.061 31.912 306.175 31.27 306.403 30.718C306.631 30.166 306.937 29.71 307.321 29.35C307.717 28.978 308.173 28.702 308.689 28.522C309.205 28.33 309.745 28.234 310.309 28.234C311.101 28.234 311.791 28.396 312.379 28.72C312.979 29.032 313.447 29.47 313.783 30.034C314.131 30.598 314.305 31.246 314.305 31.978C314.305 32.314 314.215 32.566 314.035 32.734C313.867 32.89 313.627 32.986 313.315 33.022L307.465 33.868ZM321.744 31.42C321.588 32.08 321.402 32.752 321.186 33.436C320.97 34.108 320.766 34.744 320.574 35.344C320.382 35.932 320.214 36.418 320.07 36.802C319.95 36.91 319.788 36.994 319.584 37.054C319.38 37.114 319.128 37.144 318.828 37.144C318.504 37.144 318.21 37.096 317.946 37C317.694 36.892 317.52 36.742 317.424 36.55C317.316 36.31 317.19 35.968 317.046 35.524C316.902 35.068 316.752 34.552 316.596 33.976C316.452 33.4 316.302 32.8 316.146 32.176C316.002 31.552 315.864 30.946 315.732 30.358C315.612 29.77 315.51 29.248 315.426 28.792C315.558 28.66 315.72 28.546 315.912 28.45C316.116 28.354 316.344 28.306 316.596 28.306C316.92 28.306 317.178 28.384 317.37 28.54C317.562 28.696 317.682 28.954 317.73 29.314C317.85 30.01 317.964 30.67 318.072 31.294C318.18 31.906 318.288 32.464 318.396 32.968C318.504 33.472 318.594 33.904 318.666 34.264C318.75 34.612 318.81 34.876 318.846 35.056H318.918C319.002 34.78 319.128 34.342 319.296 33.742C319.464 33.142 319.662 32.458 319.89 31.69C320.13 30.91 320.364 30.118 320.592 29.314C320.76 29.23 320.934 29.164 321.114 29.116C321.306 29.056 321.522 29.026 321.762 29.026C322.074 29.026 322.338 29.08 322.554 29.188C322.77 29.284 322.914 29.44 322.986 29.656C323.226 30.424 323.448 31.174 323.652 31.906C323.868 32.626 324.054 33.268 324.21 33.832C324.378 34.384 324.498 34.798 324.57 35.074H324.66C324.864 34.078 325.08 33.022 325.308 31.906C325.536 30.79 325.728 29.68 325.884 28.576C326.184 28.396 326.514 28.306 326.874 28.306C327.186 28.306 327.438 28.378 327.63 28.522C327.822 28.654 327.918 28.876 327.918 29.188C327.918 29.356 327.882 29.626 327.81 29.998C327.75 30.37 327.66 30.802 327.54 31.294C327.432 31.786 327.306 32.308 327.162 32.86C327.018 33.412 326.868 33.946 326.712 34.462C326.568 34.978 326.43 35.44 326.298 35.848C326.166 36.256 326.052 36.574 325.956 36.802C325.848 36.898 325.674 36.976 325.434 37.036C325.194 37.108 324.93 37.144 324.642 37.144C323.898 37.144 323.466 36.964 323.346 36.604C323.202 36.244 323.034 35.782 322.842 35.218C322.662 34.654 322.476 34.042 322.284 33.382C322.104 32.722 321.924 32.068 321.744 31.42Z" fill="white"/>
<defs>
<filter id="filter0_d_627_8090" x="-17" y="-7" width="422" height="99" filterUnits="userSpaceOnUse" color-interpolation-filters="sRGB">
<feFlood flood-opacity="0" result="BackgroundImageFix"/>
<feColorMatrix in="SourceAlpha" type="matrix" values="0 0 0 0 0 0 0 0 0 0 0 0 0 0 0 0 0 0 127 0" result="hardAlpha"/>
<feOffset dy="10"/>
<feGaussianBlur stdDeviation="8"/>
<feColorMatrix type="matrix" values="0 0 0 0 0 0 0 0 0 0 0 0 0 0 0 0 0 0 0.05 0"/>
<feBlend mode="normal" in2="BackgroundImageFix" result="effect1_dropShadow_627_8090"/>
<feBlend mode="normal" in="SourceGraphic" in2="effect1_dropShadow_627_8090" result="shape"/>
</filter>
<linearGradient id="paint0_linear_627_8090" x1="189.5" y1="14.3245" x2="188.738" y2="72.0682" gradientUnits="userSpaceOnUse">
<stop stop-color="#4D6EFF"/>
<stop offset="1" stop-color="#2850FF"/>
</linearGradient>
</defs>
</svg>
