<svg width="169" height="42" viewBox="0 0 169 42" fill="none" xmlns="http://www.w3.org/2000/svg">
<rect y="2" width="167" height="40" rx="8" fill="#E6F0FF"/>
<rect x="25.5" y="10" width="24" height="24" rx="12" fill="white"/>
<path d="M36.0375 22C36.0375 21.2233 36.6923 20.5938 37.5 20.5938C38.3077 20.5938 38.9625 21.2233 38.9625 22C38.9625 22.7767 38.3077 23.4062 37.5 23.4062C36.6923 23.4062 36.0375 22.7767 36.0375 22Z" fill="#078CFE"/>
<path fill-rule="evenodd" clip-rule="evenodd" d="M31 22C31 23.0246 31.2762 23.3697 31.8287 24.0598C32.9318 25.4378 34.7818 27 37.5 27C40.2182 27 42.0682 25.4378 43.1713 24.0598C43.7238 23.3697 44 23.0246 44 22C44 20.9754 43.7238 20.6303 43.1713 19.9402C42.0682 18.5622 40.2182 17 37.5 17C34.7818 17 32.9318 18.5622 31.8287 19.9402C31.2762 20.6303 31 20.9754 31 22ZM37.5 19.6562C36.1538 19.6562 35.0625 20.7056 35.0625 22C35.0625 23.2944 36.1538 24.3438 37.5 24.3438C38.8462 24.3438 39.9375 23.2944 39.9375 22C39.9375 20.7056 38.8462 19.6562 37.5 19.6562Z" fill="#078CFE"/>
<path d="M57.9688 16.2969H59.6172L62.8594 25.0859L66.1094 16.2969H67.7266L63.5 27.5H62.2031L57.9688 16.2969ZM69.3594 16.1875C69.625 16.1875 69.8568 16.2865 70.0547 16.4844C70.2526 16.6823 70.3516 16.9141 70.3516 17.1797C70.3516 17.4505 70.2526 17.6849 70.0547 17.8828C69.8568 18.0755 69.625 18.1719 69.3594 18.1719C69.0833 18.1719 68.849 18.0755 68.6562 17.8828C68.4635 17.6901 68.3672 17.4557 68.3672 17.1797C68.3672 16.9141 68.4635 16.6823 68.6562 16.4844C68.8542 16.2865 69.0885 16.1875 69.3594 16.1875ZM68.6094 19.6953H70.1016V27.5H68.6094V19.6953ZM79.4375 23.2578C79.4375 23.4036 79.4271 23.6068 79.4062 23.8672H73.1641C73.2318 24.6172 73.5026 25.2161 73.9766 25.6641C74.4557 26.1068 75.0547 26.3281 75.7734 26.3281C76.2682 26.3281 76.7214 26.224 77.1328 26.0156C77.5443 25.8073 77.849 25.5286 78.0469 25.1797L79.2266 25.9453C78.9297 26.4766 78.4714 26.8958 77.8516 27.2031C77.2318 27.5052 76.5234 27.6562 75.7266 27.6562C75.1797 27.6562 74.6589 27.5521 74.1641 27.3438C73.6693 27.1354 73.2422 26.8516 72.8828 26.4922C72.5286 26.1276 72.2474 25.6927 72.0391 25.1875C71.8307 24.6771 71.7266 24.1354 71.7266 23.5625C71.7266 22.8229 71.901 22.1458 72.25 21.5312C72.599 20.9115 73.0781 20.4245 73.6875 20.0703C74.3021 19.7109 74.9766 19.5312 75.7109 19.5312C76.7578 19.5312 77.6406 19.8906 78.3594 20.6094C79.0781 21.3281 79.4375 22.2109 79.4375 23.2578ZM73.2266 22.75H77.9141C77.8672 22.1667 77.6328 21.6901 77.2109 21.3203C76.7891 20.9505 76.2682 20.7656 75.6484 20.7656C75.0339 20.7656 74.5104 20.9453 74.0781 21.3047C73.6458 21.6641 73.362 22.1458 73.2266 22.75ZM82.7969 27.5L79.9688 19.6953H81.5312L83.4062 25.2734L85.3906 19.6953H86.625L88.6406 25.2734L90.4922 19.6953H92.0781L89.2344 27.5H88.0469L86.0156 21.8984L83.9688 27.5H82.7969ZM101.445 16.2969C102.43 16.2969 103.25 16.6146 103.906 17.25C104.562 17.8802 104.891 18.6719 104.891 19.625C104.891 20.5781 104.562 21.375 103.906 22.0156C103.25 22.651 102.43 22.9688 101.445 22.9688H98.6953V27.5H97.1406V16.2969H101.445ZM101.445 21.5C101.982 21.5 102.432 21.3203 102.797 20.9609C103.167 20.5964 103.352 20.151 103.352 19.625C103.352 19.099 103.167 18.6589 102.797 18.3047C102.432 17.9505 101.982 17.7734 101.445 17.7734H98.6953V21.5H101.445ZM109.852 19.5312C110.122 19.5312 110.409 19.5729 110.711 19.6562L110.633 21.0547C110.362 20.9557 110.068 20.9062 109.75 20.9062C109.411 20.9062 109.057 21.0339 108.688 21.2891C108.323 21.5391 108.029 21.875 107.805 22.2969V27.5H106.312V19.6953H107.805V20.8281C108.018 20.4427 108.318 20.1302 108.703 19.8906C109.089 19.651 109.471 19.5312 109.852 19.5312ZM115.086 19.5312C115.831 19.5312 116.51 19.7109 117.125 20.0703C117.74 20.4245 118.224 20.9141 118.578 21.5391C118.938 22.1641 119.117 22.8542 119.117 23.6094C119.117 24.75 118.727 25.7109 117.945 26.4922C117.169 27.2682 116.216 27.6562 115.086 27.6562C114.341 27.6562 113.659 27.4792 113.039 27.125C112.424 26.7708 111.94 26.2839 111.586 25.6641C111.232 25.0443 111.055 24.3594 111.055 23.6094C111.055 22.4583 111.443 21.4922 112.219 20.7109C112.995 19.9245 113.951 19.5312 115.086 19.5312ZM115.086 20.9375C114.352 20.9375 113.734 21.1927 113.234 21.7031C112.74 22.2135 112.492 22.849 112.492 23.6094C112.492 24.3542 112.74 24.9818 113.234 25.4922C113.734 25.9974 114.352 26.25 115.086 26.25C115.815 26.25 116.43 25.9948 116.93 25.4844C117.43 24.974 117.68 24.349 117.68 23.6094C117.68 22.849 117.43 22.2135 116.93 21.7031C116.43 21.1927 115.815 20.9375 115.086 20.9375ZM124.336 17.3594C123.888 17.3594 123.521 17.5026 123.234 17.7891C122.948 18.0755 122.805 18.4688 122.805 18.9688V19.6953H124.914V21.1016H122.805V27.5H121.328V21.1016H119.812V19.6953H121.328V18.9062C121.328 17.9948 121.586 17.2786 122.102 16.7578C122.622 16.237 123.305 15.9766 124.148 15.9766C124.445 15.9766 124.727 16.0312 124.992 16.1406L124.914 17.4375C124.742 17.3854 124.549 17.3594 124.336 17.3594ZM127.188 16.1875C127.453 16.1875 127.685 16.2865 127.883 16.4844C128.081 16.6823 128.18 16.9141 128.18 17.1797C128.18 17.4505 128.081 17.6849 127.883 17.8828C127.685 18.0755 127.453 18.1719 127.188 18.1719C126.911 18.1719 126.677 18.0755 126.484 17.8828C126.292 17.6901 126.195 17.4557 126.195 17.1797C126.195 16.9141 126.292 16.6823 126.484 16.4844C126.682 16.2865 126.917 16.1875 127.188 16.1875ZM126.438 19.6953H127.93V27.5H126.438V19.6953ZM131.523 16.2969V27.5H130.031V16.2969H131.523ZM140.672 23.2578C140.672 23.4036 140.661 23.6068 140.641 23.8672H134.398C134.466 24.6172 134.737 25.2161 135.211 25.6641C135.69 26.1068 136.289 26.3281 137.008 26.3281C137.503 26.3281 137.956 26.224 138.367 26.0156C138.779 25.8073 139.083 25.5286 139.281 25.1797L140.461 25.9453C140.164 26.4766 139.706 26.8958 139.086 27.2031C138.466 27.5052 137.758 27.6562 136.961 27.6562C136.414 27.6562 135.893 27.5521 135.398 27.3438C134.904 27.1354 134.477 26.8516 134.117 26.4922C133.763 26.1276 133.482 25.6927 133.273 25.1875C133.065 24.6771 132.961 24.1354 132.961 23.5625C132.961 22.8229 133.135 22.1458 133.484 21.5312C133.833 20.9115 134.312 20.4245 134.922 20.0703C135.536 19.7109 136.211 19.5312 136.945 19.5312C137.992 19.5312 138.875 19.8906 139.594 20.6094C140.312 21.3281 140.672 22.2109 140.672 23.2578ZM134.461 22.75H139.148C139.102 22.1667 138.867 21.6901 138.445 21.3203C138.023 20.9505 137.503 20.7656 136.883 20.7656C136.268 20.7656 135.745 20.9453 135.312 21.3047C134.88 21.6641 134.596 22.1458 134.461 22.75Z" fill="#1C1D20"/>
<circle cx="164" cy="5" r="4" fill="#DB3B21" stroke="white" stroke-width="2"/>
</svg>
