<svg width="51" height="51" viewBox="0 0 51 51" fill="none" xmlns="http://www.w3.org/2000/svg">
<path opacity="0.5" d="M31.9346 26.8819C28.078 26.3949 24.5562 29.1228 24.0686 32.9748C23.1856 39.9496 30.6355 47.3327 34.8926 49.3689C39.5231 48.4551 48.5785 43.1567 49.4614 36.1819C49.9491 32.3298 47.218 28.8122 43.3614 28.3251C40.9997 28.0268 38.7635 28.9342 37.2728 30.5671C36.236 28.615 34.2963 27.1802 31.9346 26.8819Z" fill="white"/>
<path opacity="0.5" d="M4.66036 0.404281C2.89249 0.181003 1.27813 1.43146 1.05459 3.19723C0.649834 6.39447 4.06488 9.77883 6.01629 10.7122C8.13889 10.2934 12.2899 7.86458 12.6946 4.66735C12.9182 2.90157 11.6662 1.28911 9.89837 1.06583C8.81576 0.9291 7.7907 1.34504 7.10738 2.09353C6.63211 1.19871 5.74297 0.541013 4.66036 0.404281Z" fill="white"/>
</svg>
