<svg width="49" height="48" viewBox="0 0 49 48" fill="none" xmlns="http://www.w3.org/2000/svg">
<g clip-path="url(#clip0_1_10790)">
<path fill-rule="evenodd" clip-rule="evenodd" d="M19.2836 13C19.7075 13 20.0511 13.3518 20.0511 13.7857V14.5848C20.7285 14.5714 21.4748 14.5714 22.2957 14.5714H26.5041C27.325 14.5714 28.0713 14.5714 28.7487 14.5848V13.7857C28.7487 13.3518 29.0923 13 29.5162 13C29.94 13 30.2836 13.3518 30.2836 13.7857V14.6522C30.5496 14.6729 30.8015 14.699 31.0398 14.7319C32.2395 14.897 33.2105 15.2449 33.9763 16.0289C34.7421 16.8129 35.0819 17.8071 35.2432 19.0353C35.2948 19.4278 35.3293 19.8562 35.3526 20.3229C35.3832 20.4078 35.3999 20.4995 35.3999 20.5952C35.3999 20.6679 35.3903 20.7382 35.3723 20.8049C35.3999 21.6451 35.3999 22.5991 35.3999 23.679V25.8924C35.3999 27.8177 35.3999 29.3427 35.2432 30.5361C35.0819 31.7644 34.7421 32.7585 33.9763 33.5425C33.2105 34.3265 32.2395 34.6744 31.0398 34.8396C29.8741 35 28.3846 35 26.5041 35H22.2957C20.4152 35 18.9257 35 17.76 34.8396C16.5603 34.6744 15.5893 34.3265 14.8235 33.5425C14.0577 32.7585 13.7179 31.7644 13.5566 30.5361C13.3999 29.3427 13.3999 27.8177 13.3999 25.8924V23.679C13.3999 22.5991 13.3999 21.6451 13.4275 20.8049C13.4095 20.7382 13.3999 20.6679 13.3999 20.5952C13.3999 20.4995 13.4166 20.4078 13.4472 20.3229C13.4705 19.8562 13.5051 19.4278 13.5566 19.0353C13.7179 17.8071 14.0577 16.8129 14.8235 16.0289C15.5893 15.2449 16.5603 14.897 17.76 14.7319C17.9983 14.699 18.2502 14.6729 18.5162 14.6522V13.7857C18.5162 13.3518 18.8598 13 19.2836 13ZM14.9482 21.381C14.9351 22.0648 14.9348 22.8434 14.9348 23.7381V25.8333C14.9348 27.831 14.9364 29.2501 15.0778 30.3267C15.2162 31.3807 15.4758 31.988 15.9088 32.4313C16.3419 32.8747 16.935 33.1404 17.9645 33.2822C19.0161 33.4269 20.4022 33.4286 22.3534 33.4286H26.4464C28.3976 33.4286 29.7838 33.4269 30.8353 33.2822C31.8648 33.1404 32.4579 32.8747 32.891 32.4313C33.324 31.988 33.5836 31.3807 33.722 30.3267C33.8634 29.2501 33.865 27.831 33.865 25.8333V23.7381C33.865 22.8434 33.8647 22.0648 33.8516 21.381H14.9482ZM33.7814 19.8095H15.0184C15.0348 19.6111 15.0544 19.4232 15.0778 19.2447C15.2162 18.1907 15.4758 17.5835 15.9088 17.1401C16.3419 16.6967 16.935 16.431 17.9645 16.2893C19.0161 16.1445 20.4022 16.1429 22.3534 16.1429H26.4464C28.3976 16.1429 29.7838 16.1445 30.8353 16.2893C31.8648 16.431 32.4579 16.6967 32.891 17.1401C33.324 17.5835 33.5836 18.1907 33.722 19.2447C33.7455 19.4232 33.765 19.6111 33.7814 19.8095Z" fill="#1C1D20"/>
</g>
<defs>
<clipPath id="clip0_1_10790">
<rect x="12.6001" y="12" width="24" height="24" rx="5" fill="white"/>
</clipPath>
</defs>
</svg>
