<svg width="49" height="48" viewBox="0 0 49 48" fill="none" xmlns="http://www.w3.org/2000/svg">
<g clip-path="url(#clip0_1_11211)">
<path d="M20.8581 31.7461L21.3234 31.1579L20.8581 31.7461ZM24.2002 16.9455L23.659 17.4647C23.8004 17.6121 23.9959 17.6955 24.2002 17.6955C24.4045 17.6955 24.6 17.6121 24.7414 17.4647L24.2002 16.9455ZM27.5423 31.7461L28.0076 32.3344L27.5423 31.7461ZM21.3234 31.1579C19.6607 29.8427 17.8292 28.5488 16.3771 26.9081C14.9506 25.2965 13.9502 23.4093 13.9502 20.959H12.4502C12.4502 23.8758 13.6605 26.1021 15.2538 27.9023C16.8215 29.6735 18.819 31.0895 20.3928 32.3344L21.3234 31.1579ZM13.9502 20.959C13.9502 18.5546 15.3044 16.5358 17.1567 15.6863C18.961 14.8588 21.3757 15.0845 23.659 17.4647L24.7414 16.4263C22.0748 13.6465 18.9896 13.1954 16.5314 14.3228C14.1211 15.4283 12.4502 17.9962 12.4502 20.959H13.9502ZM20.3928 32.3344C20.957 32.7806 21.5578 33.2525 22.1656 33.6088C22.7731 33.965 23.4592 34.25 24.2002 34.25V32.75C23.8412 32.75 23.4273 32.6098 22.9243 32.3148C22.4215 32.0201 21.9013 31.615 21.3234 31.1579L20.3928 32.3344ZM28.0076 32.3344C29.5814 31.0895 31.5789 29.6735 33.1466 27.9023C34.7399 26.1021 35.9502 23.8758 35.9502 20.959H34.4502C34.4502 23.4093 33.4498 25.2965 32.0233 26.9081C30.5712 28.5488 28.7397 29.8427 27.077 31.1579L28.0076 32.3344ZM35.9502 20.959C35.9502 17.9962 34.2793 15.4283 31.869 14.3228C29.4108 13.1954 26.3256 13.6465 23.659 16.4263L24.7414 17.4647C27.0247 15.0845 29.4394 14.8588 31.2437 15.6863C33.096 16.5358 34.4502 18.5546 34.4502 20.959H35.9502ZM27.077 31.1579C26.4991 31.615 25.9789 32.0201 25.4761 32.3148C24.9731 32.6098 24.5592 32.75 24.2002 32.75V34.25C24.9412 34.25 25.6273 33.965 26.2348 33.6088C26.8426 33.2525 27.4434 32.7806 28.0076 32.3344L27.077 31.1579Z" fill="#1C1D20"/>
</g>
<defs>
<clipPath id="clip0_1_11211">
<rect x="12.2002" y="12" width="24" height="24" rx="5" fill="white"/>
</clipPath>
</defs>
</svg>
