<svg width="25" height="24" viewBox="0 0 25 24" fill="none" xmlns="http://www.w3.org/2000/svg">
<g clip-path="url(#clip0_1_11212)">
<path d="M8.8581 19.7461L9.32337 19.1579L8.8581 19.7461ZM12.2002 4.94545L11.659 5.46465C11.8004 5.6121 11.9959 5.69545 12.2002 5.69545C12.4045 5.69545 12.6 5.6121 12.7414 5.46465L12.2002 4.94545ZM15.5423 19.7461L16.0076 20.3344L15.5423 19.7461ZM9.32337 19.1579C7.66066 17.8427 5.8292 16.5488 4.37706 14.9081C2.95061 13.2965 1.9502 11.4093 1.9502 8.95896H0.450195C0.450195 11.8758 1.66047 14.1021 3.25384 15.9023C4.82151 17.6735 6.819 19.0895 8.39283 20.3344L9.32337 19.1579ZM1.9502 8.95896C1.9502 6.5546 3.30438 4.53581 5.15667 3.68629C6.961 2.85876 9.37574 3.08452 11.659 5.46465L12.7414 4.42626C10.0748 1.64648 6.98957 1.19543 4.53135 2.32284C2.1211 3.42826 0.450195 5.99618 0.450195 8.95896H1.9502ZM8.39283 20.3344C8.95697 20.7806 9.55782 21.2525 10.1656 21.6088C10.7731 21.965 11.4592 22.25 12.2002 22.25V20.75C11.8412 20.75 11.4273 20.6098 10.9243 20.3148C10.4215 20.0201 9.90133 19.615 9.32337 19.1579L8.39283 20.3344ZM16.0076 20.3344C17.5814 19.0895 19.5789 17.6735 21.1466 15.9023C22.7399 14.1021 23.9502 11.8758 23.9502 8.95896H22.4502C22.4502 11.4093 21.4498 13.2965 20.0233 14.9081C18.5712 16.5488 16.7397 17.8427 15.077 19.1579L16.0076 20.3344ZM23.9502 8.95896C23.9502 5.99618 22.2793 3.42826 19.869 2.32284C17.4108 1.19543 14.3256 1.64648 11.659 4.42626L12.7414 5.46465C15.0247 3.08452 17.4394 2.85876 19.2437 3.68629C21.096 4.53581 22.4502 6.5546 22.4502 8.95896H23.9502ZM15.077 19.1579C14.4991 19.615 13.9789 20.0201 13.4761 20.3148C12.9731 20.6098 12.5592 20.75 12.2002 20.75V22.25C12.9412 22.25 13.6273 21.965 14.2348 21.6088C14.8426 21.2525 15.4434 20.7806 16.0076 20.3344L15.077 19.1579Z" fill="#1C1D20"/>
</g>
<defs>
<clipPath id="clip0_1_11212">
<rect x="0.200195" width="24" height="24" rx="5" fill="white"/>
</clipPath>
</defs>
</svg>
