<svg width="49" height="48" viewBox="0 0 49 48" fill="none" xmlns="http://www.w3.org/2000/svg">
<g clip-path="url(#clip0_1_11197)">
<path d="M22.0003 24C22.0003 24.5523 21.5078 25 20.9003 25C20.2928 25 19.8003 24.5523 19.8003 24C19.8003 23.4477 20.2928 23 20.9003 23C21.5078 23 22.0003 23.4477 22.0003 24Z" fill="#1C1D20"/>
<path d="M26.4003 24C26.4003 24.5523 25.9078 25 25.3003 25C24.6928 25 24.2003 24.5523 24.2003 24C24.2003 23.4477 24.6928 23 25.3003 23C25.9078 23 26.4003 23.4477 26.4003 24Z" fill="#1C1D20"/>
<path d="M30.8003 24C30.8003 24.5523 30.3078 25 29.7003 25C29.0928 25 28.6003 24.5523 28.6003 24C28.6003 23.4477 29.0928 23 29.7003 23C30.3078 23 30.8003 23.4477 30.8003 24Z" fill="#1C1D20"/>
<path d="M24.8003 35C30.8754 35 35.8003 30.0751 35.8003 24C35.8003 17.9249 30.8754 13 24.8003 13C18.7252 13 13.8003 17.9249 13.8003 24C13.8003 25.7597 14.2135 27.4228 14.9481 28.8977C15.1433 29.2897 15.2083 29.7377 15.0951 30.1607L14.44 32.6093C14.1555 33.6723 15.128 34.6448 16.191 34.3603L18.6396 33.7052C19.0626 33.592 19.5106 33.657 19.9026 33.8522C21.3775 34.5868 23.0406 35 24.8003 35Z" stroke="#1C1D20" stroke-width="1.5"/>
</g>
<defs>
<clipPath id="clip0_1_11197">
<rect width="24" height="24" fill="white" transform="translate(12.8003 12)"/>
</clipPath>
</defs>
</svg>
