<svg width="48" height="48" viewBox="0 0 48 48" fill="none" xmlns="http://www.w3.org/2000/svg">
<g clip-path="url(#clip0_1_11202)">
<path d="M13 24C13 18.8146 13 16.2218 14.6109 14.6109C16.2218 13 18.8146 13 24 13C29.1854 13 31.7782 13 33.3891 14.6109C35 16.2218 35 18.8146 35 24C35 29.1854 35 31.7782 33.3891 33.3891C31.7782 35 29.1854 35 24 35C18.8146 35 16.2218 35 14.6109 33.3891C13 31.7782 13 29.1854 13 24Z" stroke="#1C1D20" stroke-width="1.5"/>
<path d="M34.4479 19.6016H13.5479" stroke="#1C1D20" stroke-width="1.5" stroke-linecap="round"/>
<path d="M22.35 13.5469L18.5 19.5969" stroke="#1C1D20" stroke-width="1.5" stroke-linecap="round"/>
<path d="M29.5043 13.5469L25.6543 19.5969" stroke="#1C1D20" stroke-width="1.5" stroke-linecap="round"/>
<path d="M27.2979 26.7531C27.2979 26.0564 26.5696 25.5866 25.1132 24.6469C23.6369 23.6943 22.8987 23.218 22.3483 23.5677C21.7979 23.9174 21.7979 24.8627 21.7979 26.7531C21.7979 28.6436 21.7979 29.5888 22.3483 29.9385C22.8987 30.2882 23.6369 29.8119 25.1132 28.8594C26.5696 27.9197 27.2979 27.4498 27.2979 26.7531Z" stroke="#1C1D20" stroke-width="1.5" stroke-linecap="round"/>
</g>
<defs>
<clipPath id="clip0_1_11202">
<rect width="24" height="24" fill="white" transform="translate(12 12)"/>
</clipPath>
</defs>
</svg>
