<svg width="49" height="48" viewBox="0 0 49 48" fill="none" xmlns="http://www.w3.org/2000/svg">
<rect x="0.600098" width="48" height="48" rx="24" fill="#2850FF" fill-opacity="0.1"/>
<path d="M19.9251 13.8148C19.9251 13.3648 19.5557 13 19.1001 13C18.6445 13 18.2751 13.3648 18.2751 13.8148V15.5306C16.6918 15.6558 15.6524 15.9631 14.8888 16.7173C14.1252 17.4715 13.8141 18.498 13.6873 20.0617H35.5129C35.3861 18.498 35.075 17.4715 34.3114 16.7173C33.5477 15.9631 32.5084 15.6558 30.9251 15.5306V13.8148C30.9251 13.3648 30.5557 13 30.1001 13C29.6445 13 29.2751 13.3648 29.2751 13.8148V15.4585C28.5433 15.4444 27.723 15.4444 26.8001 15.4444H22.4001C21.4772 15.4444 20.6569 15.4444 19.9251 15.4585V13.8148Z" fill="#2850FF"/>
<path fill-rule="evenodd" clip-rule="evenodd" d="M35.6001 24.1358V26.3086C35.6001 30.4058 35.6001 32.4544 34.3114 33.7272C33.0226 35 30.9485 35 26.8001 35H22.4001C18.2517 35 16.1776 35 14.8888 33.7272C13.6001 32.4544 13.6001 30.4058 13.6001 26.3086V24.1358C13.6001 23.2243 13.6001 22.4141 13.6143 21.6914H35.5859C35.6001 22.4141 35.6001 23.2243 35.6001 24.1358ZM29.5501 30.6543C30.4614 30.6543 31.2001 29.9247 31.2001 29.0247C31.2001 28.1247 30.4614 27.3951 29.5501 27.3951C28.6388 27.3951 27.9001 28.1247 27.9001 29.0247C27.9001 29.9247 28.6388 30.6543 29.5501 30.6543Z" fill="#2850FF"/>
</svg>
