<svg width="47" height="46" viewBox="0 0 47 46" fill="none" xmlns="http://www.w3.org/2000/svg">
<g clip-path="url(#clip0_70_12026)">
<path d="M46.8003 23C46.8003 10.2975 36.5028 0 23.8003 0C11.0977 0 0.800293 10.2975 0.800293 23C0.800293 35.7025 11.0977 46 23.8003 46C36.5028 46 46.8003 35.7025 46.8003 23Z" fill="#2850FF" fill-opacity="0.1"/>
<path d="M23.8003 34C29.8754 34 34.8003 29.0751 34.8003 23C34.8003 16.9249 29.8754 12 23.8003 12C17.7252 12 12.8003 16.9249 12.8003 23C12.8003 24.7597 13.2135 26.4228 13.9481 27.8977C14.1433 28.2897 14.2083 28.7377 14.0951 29.1607L13.44 31.6093C13.1555 32.6723 14.128 33.6448 15.191 33.3603L17.6396 32.7052C18.0626 32.592 18.5106 32.657 18.9026 32.8522C20.3775 33.5868 22.0406 34 23.8003 34Z" fill="#2850FF"/>
<path d="M27.1001 23.0004C27.1001 23.6079 27.5926 24.1004 28.2001 24.1004C28.8076 24.1004 29.3001 23.6079 29.3001 23.0004C29.3001 22.3929 28.8076 21.9004 28.2001 21.9004C27.5926 21.9004 27.1001 22.3929 27.1001 23.0004Z" fill="#2850FF"/>
<path d="M22.7002 23.0004C22.7002 23.6079 23.1927 24.1004 23.8002 24.1004C24.4077 24.1004 24.9002 23.6079 24.9002 23.0004C24.9002 22.3929 24.4077 21.9004 23.8002 21.9004C23.1927 21.9004 22.7002 22.3929 22.7002 23.0004Z" fill="#2850FF"/>
<path d="M18.3003 23.0004C18.3003 23.6079 18.7928 24.1004 19.4003 24.1004C20.0078 24.1004 20.5003 23.6079 20.5003 23.0004C20.5003 22.3929 20.0078 21.9004 19.4003 21.9004C18.7928 21.9004 18.3003 22.3929 18.3003 23.0004Z" fill="#2850FF"/>
<path d="M22.4004 23.1C22.4004 23.7075 22.8929 24.2 23.5004 24.2C24.1079 24.2 24.6004 23.7075 24.6004 23.1C24.6004 22.4925 24.1079 22 23.5004 22C22.8929 22 22.4004 22.4925 22.4004 23.1Z" fill="white"/>
<path d="M18.0005 23.1C18.0005 23.7075 18.493 24.2 19.1005 24.2C19.708 24.2 20.2005 23.7075 20.2005 23.1C20.2005 22.4925 19.708 22 19.1005 22C18.493 22 18.0005 22.4925 18.0005 23.1Z" fill="white"/>
<path d="M26.8003 23.1C26.8003 23.7075 27.2928 24.2 27.9003 24.2C28.5078 24.2 29.0003 23.7075 29.0003 23.1C29.0003 22.4925 28.5078 22 27.9003 22C27.2928 22 26.8003 22.4925 26.8003 23.1Z" fill="white"/>
<path d="M32 20C34.2091 20 36 18.2091 36 16C36 13.7909 34.2091 12 32 12C29.7909 12 28 13.7909 28 16C28 18.2091 29.7909 20 32 20Z" fill="#DB3B21" stroke="#E9EDFF" stroke-width="2"/>
</g>
<defs>
<clipPath id="clip0_70_12026">
<rect width="47" height="46" fill="white"/>
</clipPath>
</defs>
</svg>
