<svg width="47" height="46" viewBox="0 0 47 46" fill="none" xmlns="http://www.w3.org/2000/svg">
<rect x="0.800293" width="46" height="46" rx="23" fill="#2850FF" fill-opacity="0.1"/>
<path d="M23.8003 34C29.8754 34 34.8003 29.0751 34.8003 23C34.8003 16.9249 29.8754 12 23.8003 12C17.7252 12 12.8003 16.9249 12.8003 23C12.8003 24.7597 13.2135 26.4228 13.9481 27.8977C14.1433 28.2897 14.2083 28.7377 14.0951 29.1607L13.44 31.6093C13.1555 32.6723 14.128 33.6448 15.191 33.3603L17.6396 32.7052C18.0626 32.592 18.5106 32.657 18.9026 32.8522C20.3775 33.5868 22.0406 34 23.8003 34Z" fill="#2850FF"/>
<path d="M27.1003 23C27.1003 23.6075 27.5928 24.1 28.2003 24.1C28.8078 24.1 29.3003 23.6075 29.3003 23C29.3003 22.3925 28.8078 21.9 28.2003 21.9C27.5928 21.9 27.1003 22.3925 27.1003 23Z" fill="#2850FF"/>
<path d="M22.7003 23C22.7003 23.6075 23.1928 24.1 23.8003 24.1C24.4078 24.1 24.9003 23.6075 24.9003 23C24.9003 22.3925 24.4078 21.9 23.8003 21.9C23.1928 21.9 22.7003 22.3925 22.7003 23Z" fill="#2850FF"/>
<path d="M18.3003 23C18.3003 23.6075 18.7928 24.1 19.4003 24.1C20.0078 24.1 20.5003 23.6075 20.5003 23C20.5003 22.3925 20.0078 21.9 19.4003 21.9C18.7928 21.9 18.3003 22.3925 18.3003 23Z" fill="#2850FF"/>
<path d="M22.4005 23.1C22.4005 23.7075 22.893 24.2 23.5005 24.2C24.108 24.2 24.6005 23.7075 24.6005 23.1C24.6005 22.4925 24.108 22 23.5005 22C22.893 22 22.4005 22.4925 22.4005 23.1Z" fill="white"/>
<path d="M18.0005 23.1C18.0005 23.7075 18.493 24.2 19.1005 24.2C19.708 24.2 20.2005 23.7075 20.2005 23.1C20.2005 22.4925 19.708 22 19.1005 22C18.493 22 18.0005 22.4925 18.0005 23.1Z" fill="white"/>
<path d="M26.8005 23.1C26.8005 23.7075 27.293 24.2 27.9005 24.2C28.508 24.2 29.0005 23.7075 29.0005 23.1C29.0005 22.4925 28.508 22 27.9005 22C27.293 22 26.8005 22.4925 26.8005 23.1Z" fill="white"/>
</svg>
