<svg width="48" height="48" viewBox="0 0 48 48" fill="none" xmlns="http://www.w3.org/2000/svg">
<rect width="48" height="48" rx="24" fill="#2850FF" fill-opacity="0.1"/>
<g clip-path="url(#clip0_1_10872)">
<path fill-rule="evenodd" clip-rule="evenodd" d="M13 23.9998C13 22.6394 13 21.4574 13.0291 20.4248H34.9709C35 21.4574 35 22.6394 35 23.9998C35 29.1852 35 31.778 33.3891 33.3889C31.7782 34.9998 29.1854 34.9998 24 34.9998C18.8146 34.9998 16.2218 34.9998 14.6109 33.3889C13 31.778 13 29.1852 13 23.9998Z" fill="#2850FF"/>
<path d="M27.2998 26.7502C27.2998 26.0535 26.5716 25.5836 25.1152 24.6439C23.6388 23.6914 22.9007 23.2151 22.3502 23.5648C21.7998 23.9145 21.7998 24.8597 21.7998 26.7502C21.7998 28.6407 21.7998 29.5859 22.3502 29.9356C22.9007 30.2853 23.6389 29.809 25.1152 28.8565C26.5716 27.9167 27.2998 27.4469 27.2998 26.7502Z" fill="white"/>
<path d="M23.9997 13C26.0294 13 27.6619 13 28.9937 13.0966L25.2081 18.775H20.0412L23.8912 13H23.9997Z" fill="#2850FF"/>
<path d="M14.6106 14.6109C15.9882 13.2333 18.0838 13.0338 21.9049 13.0049L18.0581 18.775H13.1143C13.2762 16.8345 13.6671 15.5543 14.6106 14.6109Z" fill="#2850FF"/>
<path d="M34.8851 18.775C34.7231 16.8345 34.3322 15.5543 33.3887 14.6109C32.7317 13.9539 31.9113 13.5648 30.8183 13.3344L27.1912 18.775H34.8851Z" fill="#2850FF"/>
</g>
<defs>
<clipPath id="clip0_1_10872">
<rect x="12" y="12" width="24" height="24" rx="5" fill="white"/>
</clipPath>
</defs>
</svg>
