<svg width="22" height="22" viewBox="0 0 22 22" fill="none" xmlns="http://www.w3.org/2000/svg">
<path fill-rule="evenodd" clip-rule="evenodd" d="M0 5.09756C0 2.28226 2.28226 0 5.09756 0C7.91287 0 10.1951 2.28226 10.1951 5.09756C10.1951 7.91287 7.91287 10.1951 5.09756 10.1951C2.28226 10.1951 0 7.91287 0 5.09756Z" fill="url(#paint0_linear_2255_4839)"/>
<path fill-rule="evenodd" clip-rule="evenodd" d="M11.8049 16.9024C11.8049 14.0871 14.0871 11.8049 16.9024 11.8049C19.7177 11.8049 22 14.0871 22 16.9024C22 19.7177 19.7177 22 16.9024 22C14.0871 22 11.8049 19.7177 11.8049 16.9024Z" fill="url(#paint1_linear_2255_4839)"/>
<path d="M0 17.05C0 14.7165 0 13.5498 0.724911 12.8249C1.44982 12.1 2.61655 12.1 4.95 12.1C7.28345 12.1 8.45018 12.1 9.17509 12.8249C9.9 13.5498 9.9 14.7165 9.9 17.05C9.9 19.3835 9.9 20.5502 9.17509 21.2751C8.45018 22 7.28345 22 4.95 22C2.61655 22 1.44982 22 0.724911 21.2751C0 20.5502 0 19.3835 0 17.05Z" fill="url(#paint2_linear_2255_4839)"/>
<path d="M12.1 4.95C12.1 2.61655 12.1 1.44982 12.8249 0.724911C13.5498 0 14.7165 0 17.05 0C19.3835 0 20.5502 0 21.2751 0.724911C22 1.44982 22 2.61655 22 4.95C22 7.28345 22 8.45018 21.2751 9.17509C20.5502 9.9 19.3835 9.9 17.05 9.9C14.7165 9.9 13.5498 9.9 12.8249 9.17509C12.1 8.45018 12.1 7.28345 12.1 4.95Z" fill="url(#paint3_linear_2255_4839)"/>
<defs>
<linearGradient id="paint0_linear_2255_4839" x1="11" y1="0" x2="11.0001" y2="38" gradientUnits="userSpaceOnUse">
<stop stop-color="#078CFE"/>
<stop offset="1" stop-color="#2850FF"/>
</linearGradient>
<linearGradient id="paint1_linear_2255_4839" x1="11" y1="0" x2="11.0001" y2="38" gradientUnits="userSpaceOnUse">
<stop stop-color="#078CFE"/>
<stop offset="1" stop-color="#2850FF"/>
</linearGradient>
<linearGradient id="paint2_linear_2255_4839" x1="11" y1="0" x2="11.0001" y2="38" gradientUnits="userSpaceOnUse">
<stop stop-color="#078CFE"/>
<stop offset="1" stop-color="#2850FF"/>
</linearGradient>
<linearGradient id="paint3_linear_2255_4839" x1="11" y1="0" x2="11.0001" y2="38" gradientUnits="userSpaceOnUse">
<stop stop-color="#078CFE"/>
<stop offset="1" stop-color="#2850FF"/>
</linearGradient>
</defs>
</svg>
