<svg width="22" height="24" viewBox="0 0 22 24" fill="none" xmlns="http://www.w3.org/2000/svg">
<path d="M16.9715 0.824653C16.641 1.14931 16.641 1.67183 16.641 2.71687V17.1265C16.641 18.1715 16.641 18.6941 16.9715 19.0187C17.3019 19.3434 17.8338 19.3434 18.8974 19.3434C19.9611 19.3434 20.493 19.3434 20.8234 19.0187C21.1538 18.6941 21.1538 18.1715 21.1538 17.1265V2.71687C21.1538 1.67183 21.1538 1.14931 20.8234 0.824653C20.493 0.5 19.9611 0.5 18.8974 0.5C17.8338 0.5 17.3019 0.5 16.9715 0.824653Z" fill="url(#paint0_linear_1_11077)"/>
<path d="M8.74359 6.04217C8.74359 4.99713 8.74359 4.47461 9.07403 4.14995C9.40448 3.8253 9.93632 3.8253 11 3.8253C12.0637 3.8253 12.5955 3.8253 12.926 4.14995C13.2564 4.47461 13.2564 4.99713 13.2564 6.04217V17.1265C13.2564 18.1715 13.2564 18.6941 12.926 19.0187C12.5955 19.3434 12.0637 19.3434 11 19.3434C9.93632 19.3434 9.40448 19.3434 9.07403 19.0187C8.74359 18.6941 8.74359 18.1715 8.74359 17.1265V6.04217Z" fill="url(#paint1_linear_1_11077)"/>
<path d="M1.1766 8.58369C0.846154 8.90834 0.846154 9.43086 0.846154 10.4759V17.1265C0.846154 18.1715 0.846154 18.6941 1.1766 19.0187C1.50704 19.3434 2.03888 19.3434 3.10256 19.3434C4.16625 19.3434 4.69809 19.3434 5.02853 19.0187C5.35897 18.6941 5.35897 18.1715 5.35897 17.1265V10.4759C5.35897 9.43086 5.35897 8.90834 5.02853 8.58369C4.69809 8.25904 4.16625 8.25904 3.10256 8.25904C2.03888 8.25904 1.50704 8.25904 1.1766 8.58369Z" fill="url(#paint2_linear_1_11077)"/>
<path d="M0.846154 21.8373C0.378836 21.8373 0 22.2095 0 22.6687C0 23.1278 0.378836 23.5 0.846154 23.5H21.1538C21.6212 23.5 22 23.1278 22 22.6687C22 22.2095 21.6212 21.8373 21.1538 21.8373H0.846154Z" fill="url(#paint3_linear_1_11077)"/>
<defs>
<linearGradient id="paint0_linear_1_11077" x1="11" y1="0.5" x2="11.0001" y2="40.2273" gradientUnits="userSpaceOnUse">
<stop stop-color="#078CFE"/>
<stop offset="1" stop-color="#2850FF"/>
</linearGradient>
<linearGradient id="paint1_linear_1_11077" x1="11" y1="0.5" x2="11.0001" y2="40.2273" gradientUnits="userSpaceOnUse">
<stop stop-color="#078CFE"/>
<stop offset="1" stop-color="#2850FF"/>
</linearGradient>
<linearGradient id="paint2_linear_1_11077" x1="11" y1="0.5" x2="11.0001" y2="40.2273" gradientUnits="userSpaceOnUse">
<stop stop-color="#078CFE"/>
<stop offset="1" stop-color="#2850FF"/>
</linearGradient>
<linearGradient id="paint3_linear_1_11077" x1="11" y1="0.5" x2="11.0001" y2="40.2273" gradientUnits="userSpaceOnUse">
<stop stop-color="#078CFE"/>
<stop offset="1" stop-color="#2850FF"/>
</linearGradient>
</defs>
</svg>
