<svg width="20" height="25" viewBox="0 0 20 25" fill="none" xmlns="http://www.w3.org/2000/svg">
<path d="M6.72184 0.5H13.2782C15.4185 0.5 16.4886 0.5 17.3304 1.03318C17.4756 1.12518 17.6141 1.228 17.7448 1.34082C18.502 1.99474 18.8408 3.04072 19.5182 5.1326L19.56 5.2615C19.9312 6.40782 20.1168 6.98098 19.9207 7.41435C19.8588 7.55111 19.7725 7.67462 19.6662 7.7784C19.3293 8.10724 18.7429 8.10724 17.57 8.10724L17.0737 11.6H2.92618L2.4299 8.10724C1.25712 8.10724 0.670719 8.10724 0.333835 7.7784C0.227518 7.67462 0.141151 7.55111 0.0792636 7.41434C-0.116841 6.98098 0.0687775 6.40782 0.440016 5.2615L0.481735 5.13267C1.15922 3.04073 1.49796 1.99475 2.25525 1.34082C2.3859 1.228 2.5244 1.12518 2.66963 1.03318C3.51135 0.5 4.58151 0.5 6.72184 0.5Z" fill="url(#paint0_linear_1_11071)"/>
<path d="M16.2211 17.6H3.77872L3.18194 13.4H16.8179L16.2211 17.6Z" fill="url(#paint1_linear_1_11071)"/>
<path d="M11.2146 24.5H8.78525C6.86518 24.5 5.90514 24.5 5.24913 23.9158C4.59312 23.3316 4.45405 22.3529 4.17591 20.3953L4.03448 19.4H15.9654L15.824 20.3953C15.5458 22.3529 15.4067 23.3316 14.7507 23.9158C14.0947 24.5 13.1347 24.5 11.2146 24.5Z" fill="url(#paint2_linear_1_11071)"/>
<defs>
<linearGradient id="paint0_linear_1_11071" x1="10" y1="0.5" x2="10.0001" y2="41.9545" gradientUnits="userSpaceOnUse">
<stop stop-color="#078CFE"/>
<stop offset="1" stop-color="#2850FF"/>
</linearGradient>
<linearGradient id="paint1_linear_1_11071" x1="10" y1="0.5" x2="10.0001" y2="41.9545" gradientUnits="userSpaceOnUse">
<stop stop-color="#078CFE"/>
<stop offset="1" stop-color="#2850FF"/>
</linearGradient>
<linearGradient id="paint2_linear_1_11071" x1="10" y1="0.5" x2="10.0001" y2="41.9545" gradientUnits="userSpaceOnUse">
<stop stop-color="#078CFE"/>
<stop offset="1" stop-color="#2850FF"/>
</linearGradient>
</defs>
</svg>
