<svg width="30" height="31" viewBox="0 0 30 31" fill="none" xmlns="http://www.w3.org/2000/svg">
<g clip-path="url(#clip0_1_11057)">
<path d="M17.9148 3.52301C16.3217 3.34064 14.8101 4.25752 14.2638 5.73745C14.1407 6.07098 14.0975 6.43158 14.0772 6.80956C14.0619 7.09471 14.0583 7.43462 14.0574 7.83494L14.0571 8.39628C14.0571 8.40221 14.0571 8.40813 14.0571 8.41403V13.8799C14.0571 15.4124 14.0571 16.1786 13.7823 16.4681C13.7648 16.4865 13.7641 16.4872 13.7456 16.5047C13.4562 16.7795 12.2946 16.7795 9.9714 16.7795C6.67349 16.7795 4 19.4032 4 22.6398C4 25.8763 6.67349 28.5 9.9714 28.5C13.2693 28.5 15.9428 25.8763 15.9428 22.6398V12.2777C15.9428 12.0585 16.1768 11.915 16.3736 12.0115L19.7773 13.6816C20.3031 13.9396 20.7311 14.1496 21.0817 14.2996C21.4353 14.4509 21.7832 14.5742 22.1423 14.6153C23.7354 14.7977 25.247 13.8808 25.7933 12.4009C25.9164 12.0673 25.9596 11.7067 25.9799 11.3287C26 10.9539 26 10.4844 26 9.90747L26 9.80528C26.0002 9.37625 26.0003 9.04062 25.9383 8.72256C25.7786 7.90385 25.3174 7.17148 24.6427 6.66517C24.3805 6.46848 24.0746 6.31853 23.6834 6.12683L20.2798 4.45672C19.7539 4.19868 19.326 3.9887 18.9754 3.83869C18.6218 3.68745 18.2739 3.56411 17.9148 3.52301Z" fill="url(#paint0_linear_1_11057)"/>
</g>
<defs>
<linearGradient id="paint0_linear_1_11057" x1="15" y1="3.5" x2="15.0001" y2="46.6818" gradientUnits="userSpaceOnUse">
<stop stop-color="#078CFE"/>
<stop offset="1" stop-color="#2850FF"/>
</linearGradient>
<clipPath id="clip0_1_11057">
<rect width="30" height="30" fill="white" transform="translate(0 0.5)"/>
</clipPath>
</defs>
</svg>
