<svg width="72" height="72" viewBox="0 0 72 72" fill="none" xmlns="http://www.w3.org/2000/svg">
<g clip-path="url(#clip0_1647_205)">
<path d="M36 72C55.8823 72 72 55.8823 72 36C72 16.1177 55.8823 0 36 0C16.1177 0 0 16.1177 0 36C0 55.8823 16.1177 72 36 72Z" fill="#1B68FE"/>
<path fill-rule="evenodd" clip-rule="evenodd" d="M29.832 46.7965L29.8301 46.7972C28.1336 45.783 26.6645 44.3339 25.6063 42.4991C24.5802 40.7198 24.061 38.7868 24.0039 36.8677C24.0012 36.7768 24.084 36.7078 24.1732 36.7254C27.7077 37.4222 31.7286 36.1623 35.0336 34.1309C35.5331 33.8239 35.7829 33.6704 36.0235 33.6518C36.2185 33.6366 36.4215 33.6816 36.5919 33.7776C36.8022 33.8962 36.9394 34.1038 37.2137 34.5191C37.3532 34.7301 37.484 34.9409 37.605 35.1507C37.7871 35.4664 37.9621 35.8065 38.1301 36.1652C38.4699 36.8911 38.6398 37.2541 38.5263 37.6229C38.4128 37.9916 38.0174 38.2263 37.2266 38.6958C37.1551 38.7382 37.0839 38.781 37.0131 38.8242C33.6671 40.8624 30.8125 43.8354 29.832 46.7965ZM41.0283 46.9136C41.0657 47.1765 40.928 47.4346 40.6839 47.5391C37.7516 48.7942 34.5308 48.7888 31.6982 47.7046C31.5618 47.6523 31.4925 47.5015 31.5384 47.3628C32.3337 44.9611 34.7977 42.2804 37.9476 40.3616C38.2591 40.1718 38.4149 40.077 38.5982 40.0438C38.9512 39.98 39.3776 40.1522 39.5873 40.4432C39.6962 40.5944 39.745 40.7804 39.8424 41.1524C39.9635 41.6148 40.0757 42.0715 40.179 42.5148C40.4658 43.7452 40.6786 44.8481 40.8197 45.6431C40.8902 46.0403 40.9426 46.3599 40.9773 46.5793C40.9947 46.689 41.0076 46.7736 41.0161 46.8302L41.0255 46.8939L41.0277 46.9093L41.0283 46.9136Z" fill="white"/>
<path d="M41.5655 40.6352C41.3288 39.7355 41.2104 39.2857 41.423 38.9262C41.6355 38.5666 42.0365 38.4661 42.8385 38.2651C44.5046 37.8475 46.1439 37.7524 47.6148 38.0755C47.7533 38.1059 47.8456 38.2377 47.8233 38.3778C47.6685 39.3524 47.3945 40.3055 47.0076 41.214C46.1395 43.2527 44.7028 45.0666 42.7679 46.393L42.753 46.298C42.7167 46.0687 42.6624 45.7378 42.5897 45.3284C42.4445 44.51 42.2255 43.3747 41.9297 42.106C41.8198 41.6342 41.6985 41.1406 41.5655 40.6352Z" fill="white"/>
<path d="M38.8584 33.7504C38.3507 32.9518 38.0968 32.5525 38.1314 32.2082C38.1659 31.8638 38.4905 31.5266 39.1398 30.8523C40.5291 29.409 41.5957 27.8233 42.128 26.2399C42.1345 26.2207 42.157 26.2123 42.1744 26.2228C43.8568 27.2361 45.3137 28.6782 46.3649 30.501C47.4229 32.3355 47.942 34.3335 47.9713 36.3111C46.1887 35.9254 44.2763 36.0473 42.3909 36.5219C41.441 36.761 40.9661 36.8805 40.6429 36.7287C40.3198 36.5768 40.112 36.1418 39.6963 35.2717C39.5259 34.915 39.3478 34.5731 39.1619 34.2507C39.0656 34.0838 38.9643 33.9169 38.8584 33.7504Z" fill="white"/>
<path d="M31.574 26.2469C31.2719 26.0078 31.0259 25.8191 30.8546 25.6895L30.8278 25.6692C32.9401 24.6583 35.2242 24.3211 37.4188 24.5874C38.3865 24.7048 39.3368 24.9396 40.2473 25.2857C40.3993 25.3435 40.476 25.5117 40.4242 25.6658C40.0042 26.9152 39.1344 28.2389 37.9528 29.4907C37.3694 30.1088 37.0777 30.4178 36.6588 30.4265C36.2399 30.4352 35.8976 30.1013 35.2128 29.4336C34.7706 29.0025 34.3328 28.5958 33.9152 28.2209C33.0078 27.4061 32.1776 26.7248 31.574 26.2469Z" fill="white"/>
<path d="M34.093 32.5971C30.993 34.5025 27.4409 35.5352 24.5206 34.9595C24.2901 34.914 24.1341 34.6965 24.174 34.4649C24.6781 31.542 26.2562 28.8236 28.739 26.942C28.9709 26.7663 29.2902 26.771 29.5255 26.9423L29.5279 26.9441L29.5391 26.9523L29.5859 26.9868C29.6276 27.0177 29.6901 27.0643 29.771 27.1255C29.9328 27.2479 30.1682 27.4284 30.4588 27.6585C31.0405 28.1191 31.8411 28.7761 32.7149 29.5607C33.2222 30.0162 33.7484 30.5096 34.2674 31.0279C34.2905 31.051 34.302 31.0625 34.3255 31.0895C34.6875 31.5069 34.6021 32.2348 34.1533 32.5571C34.1242 32.5779 34.1138 32.5843 34.093 32.5971Z" fill="white"/>
</g>
<defs>
<clipPath id="clip0_1647_205">
<rect width="72" height="72" fill="white"/>
</clipPath>
</defs>
</svg>
