<svg width="72" height="72" viewBox="0 0 72 72" fill="none" xmlns="http://www.w3.org/2000/svg">
<g clip-path="url(#clip0_1647_192)">
<path d="M36 72C55.8823 72 72 55.8823 72 36C72 16.1177 55.8823 0 36 0C16.1177 0 0 16.1177 0 36C0 55.8823 16.1177 72 36 72Z" fill="#1B68FE"/>
<path d="M41.9715 25.8247C41.641 26.1493 41.641 26.6718 41.641 27.7169V42.1265C41.641 43.1715 41.641 43.6941 41.9715 44.0187C42.3019 44.3434 42.8338 44.3434 43.8974 44.3434C44.9611 44.3434 45.493 44.3434 45.8234 44.0187C46.1538 43.6941 46.1538 43.1715 46.1538 42.1265V27.7169C46.1538 26.6718 46.1538 26.1493 45.8234 25.8247C45.493 25.5 44.9611 25.5 43.8974 25.5C42.8338 25.5 42.3019 25.5 41.9715 25.8247Z" fill="white"/>
<path d="M33.7436 31.0421C33.7436 29.997 33.7436 29.4745 34.074 29.1499C34.4045 28.8252 34.9363 28.8252 36 28.8252C37.0637 28.8252 37.5955 28.8252 37.926 29.1499C38.2564 29.4745 38.2564 29.997 38.2564 31.0421V42.1264C38.2564 43.1714 38.2564 43.694 37.926 44.0186C37.5955 44.3433 37.0637 44.3433 36 44.3433C34.9363 44.3433 34.4045 44.3433 34.074 44.0186C33.7436 43.694 33.7436 43.1714 33.7436 42.1264V31.0421Z" fill="white"/>
<path d="M26.1766 33.5835C25.8462 33.9081 25.8462 34.4307 25.8462 35.4757V42.1263C25.8462 43.1713 25.8462 43.6939 26.1766 44.0185C26.507 44.3432 27.0389 44.3432 28.1026 44.3432C29.1662 44.3432 29.6981 44.3432 30.0285 44.0185C30.359 43.6939 30.359 43.1713 30.359 42.1263V35.4757C30.359 34.4307 30.359 33.9081 30.0285 33.5835C29.6981 33.2588 29.1662 33.2588 28.1026 33.2588C27.0389 33.2588 26.507 33.2588 26.1766 33.5835Z" fill="white"/>
<path d="M25.8462 46.8374C25.3788 46.8374 25 47.2096 25 47.6688C25 48.1279 25.3788 48.5001 25.8462 48.5001H46.1538C46.6212 48.5001 47 48.1279 47 47.6688C47 47.2096 46.6212 46.8374 46.1538 46.8374H25.8462Z" fill="white"/>
</g>
<defs>
<clipPath id="clip0_1647_192">
<rect width="72" height="72" fill="white"/>
</clipPath>
</defs>
</svg>
