<svg width="72" height="72" viewBox="0 0 72 72" fill="none" xmlns="http://www.w3.org/2000/svg">
<g clip-path="url(#clip0_1647_212)">
<path d="M36 72C55.8823 72 72 55.8823 72 36C72 16.1177 55.8823 0 36 0C16.1177 0 0 16.1177 0 36C0 55.8823 16.1177 72 36 72Z" fill="#1B68FE"/>
<path d="M32.7218 24.5H39.2782C41.4185 24.5 42.4886 24.5 43.3304 25.0332C43.4756 25.1252 43.6141 25.228 43.7448 25.3408C44.502 25.9947 44.8408 27.0407 45.5182 29.1326L45.56 29.2615C45.9312 30.4078 46.1168 30.981 45.9207 31.4143C45.8588 31.5511 45.7725 31.6746 45.6662 31.7784C45.3293 32.1072 44.7429 32.1072 43.57 32.1072L43.0737 35.6H28.9262L28.4299 32.1072C27.2571 32.1072 26.6707 32.1072 26.3338 31.7784C26.2275 31.6746 26.1412 31.5511 26.0793 31.4143C25.8832 30.981 26.0688 30.4078 26.44 29.2615L26.4817 29.1327C27.1592 27.0407 27.498 25.9948 28.2552 25.3408C28.3859 25.228 28.5244 25.1252 28.6696 25.0332C29.5114 24.5 30.5815 24.5 32.7218 24.5Z" fill="white"/>
<path d="M42.2211 41.5999H29.7787L29.1819 37.3999H42.8179L42.2211 41.5999Z" fill="white"/>
<path d="M37.2146 48.4999H34.7852C32.8652 48.4999 31.9051 48.4999 31.2491 47.9157C30.5931 47.3315 30.4541 46.3528 30.1759 44.3952L30.0345 43.3999H41.9654L41.824 44.3952C41.5458 46.3528 41.4067 47.3315 40.7507 47.9157C40.0947 48.4999 39.1347 48.4999 37.2146 48.4999Z" fill="white"/>
</g>
<defs>
<clipPath id="clip0_1647_212">
<rect width="72" height="72" fill="white"/>
</clipPath>
</defs>
</svg>
