<svg width="72" height="72" viewBox="0 0 72 72" fill="none" xmlns="http://www.w3.org/2000/svg">
<circle cx="36" cy="36" r="36" fill="url(#paint0_linear_619_10687)"/>
<g clip-path="url(#clip0_619_10687)">
<path d="M38.9148 24.523C37.3217 24.3406 35.8101 25.2575 35.2638 26.7374C35.1407 27.071 35.0975 27.4316 35.0772 27.8096C35.0619 28.0947 35.0583 28.4346 35.0574 28.8349L35.0571 29.3963C35.0571 29.4022 35.0571 29.4081 35.0571 29.414V34.8799C35.0571 36.4124 35.0571 37.1786 34.7823 37.4681C34.7648 37.4865 34.7641 37.4872 34.7456 37.5047C34.4562 37.7795 33.2946 37.7795 30.9714 37.7795C27.6735 37.7795 25 40.4032 25 43.6398C25 46.8763 27.6735 49.5 30.9714 49.5C34.2693 49.5 36.9428 46.8763 36.9428 43.6398V33.2777C36.9428 33.0585 37.1768 32.915 37.3736 33.0115L40.7773 34.6816C41.3031 34.9396 41.7311 35.1496 42.0817 35.2996C42.4353 35.4509 42.7832 35.5742 43.1423 35.6153C44.7354 35.7977 46.247 34.8808 46.7933 33.4009C46.9164 33.0673 46.9596 32.7067 46.9799 32.3287C47 31.9539 47 31.4844 47 30.9075L47 30.8053C47.0002 30.3762 47.0003 30.0406 46.9383 29.7226C46.7786 28.9038 46.3174 28.1715 45.6427 27.6652C45.3805 27.4685 45.0746 27.3185 44.6834 27.1268L41.2798 25.4567C40.7539 25.1987 40.326 24.9887 39.9754 24.8387C39.6218 24.6874 39.2739 24.5641 38.9148 24.523Z" fill="white"/>
</g>
<defs>
<linearGradient id="paint0_linear_619_10687" x1="0" y1="36" x2="72" y2="36" gradientUnits="userSpaceOnUse">
<stop stop-color="#078CFE"/>
<stop offset="1" stop-color="#2850FF"/>
</linearGradient>
<clipPath id="clip0_619_10687">
<rect width="30" height="30" fill="white" transform="translate(21 21.5)"/>
</clipPath>
</defs>
</svg>
