<svg width="72" height="72" viewBox="0 0 72 72" fill="none" xmlns="http://www.w3.org/2000/svg">
<circle cx="36" cy="36" r="36" fill="url(#paint0_linear_2255_4837)"/>
<path fill-rule="evenodd" clip-rule="evenodd" d="M25 30.0976C25 27.2823 27.2823 25 30.0976 25C32.9129 25 35.1951 27.2823 35.1951 30.0976C35.1951 32.9129 32.9129 35.1951 30.0976 35.1951C27.2823 35.1951 25 32.9129 25 30.0976Z" fill="white"/>
<path fill-rule="evenodd" clip-rule="evenodd" d="M36.8049 41.9024C36.8049 39.0871 39.0871 36.8049 41.9024 36.8049C44.7177 36.8049 47 39.0871 47 41.9024C47 44.7177 44.7177 47 41.9024 47C39.0871 47 36.8049 44.7177 36.8049 41.9024Z" fill="white"/>
<path d="M25 42.05C25 39.7165 25 38.5498 25.7249 37.8249C26.4498 37.1 27.6165 37.1 29.95 37.1C32.2835 37.1 33.4502 37.1 34.1751 37.8249C34.9 38.5498 34.9 39.7165 34.9 42.05C34.9 44.3835 34.9 45.5502 34.1751 46.2751C33.4502 47 32.2835 47 29.95 47C27.6165 47 26.4498 47 25.7249 46.2751C25 45.5502 25 44.3835 25 42.05Z" fill="white"/>
<path d="M37.1 29.95C37.1 27.6165 37.1 26.4498 37.8249 25.7249C38.5498 25 39.7165 25 42.05 25C44.3835 25 45.5502 25 46.2751 25.7249C47 26.4498 47 27.6165 47 29.95C47 32.2835 47 33.4502 46.2751 34.1751C45.5502 34.9 44.3835 34.9 42.05 34.9C39.7165 34.9 38.5498 34.9 37.8249 34.1751C37.1 33.4502 37.1 32.2835 37.1 29.95Z" fill="white"/>
<defs>
<linearGradient id="paint0_linear_2255_4837" x1="0" y1="36" x2="72" y2="36" gradientUnits="userSpaceOnUse">
<stop stop-color="#078CFE"/>
<stop offset="1" stop-color="#2850FF"/>
</linearGradient>
</defs>
</svg>
