<svg width="24" height="25" viewBox="0 0 24 25" fill="none" xmlns="http://www.w3.org/2000/svg">
<path fill-rule="evenodd" clip-rule="evenodd" d="M5.83201 22.7964C5.83174 22.7972 5.8308 22.7976 5.83007 22.7971C4.1336 21.7829 2.66448 20.3338 1.60633 18.499C0.580196 16.7197 0.061024 14.7867 0.00394877 12.8676C0.00124564 12.7767 0.0840327 12.7077 0.173246 12.7253C3.70766 13.4221 7.72859 12.1622 11.0336 10.1308C11.5331 9.82383 11.7829 9.67033 12.0235 9.65165C12.2185 9.63651 12.4215 9.68148 12.5919 9.77753C12.8022 9.89606 12.9394 10.1037 13.2137 10.519C13.3532 10.73 13.484 10.9408 13.605 11.1506C13.7871 11.4663 13.9621 11.8064 14.1301 12.1651C14.4699 12.891 14.6398 13.254 14.5263 13.6228C14.4128 13.9915 14.0174 14.2262 13.2266 14.6957C13.1551 14.7381 13.0839 14.7809 13.0131 14.8241C9.66709 16.8623 6.81249 19.8353 5.83201 22.7964ZM17.0283 22.9135C17.0657 23.1764 16.928 23.4345 16.6839 23.539C13.7516 24.7941 10.5308 24.7887 7.69824 23.7045C7.56182 23.6522 7.49253 23.5014 7.53844 23.3627C8.3337 20.961 10.7977 18.2803 13.9476 16.3615C14.2591 16.1717 14.4149 16.0769 14.5982 16.0437C14.9512 15.9799 15.3776 16.1521 15.5873 16.4431C15.6962 16.5943 15.745 16.7803 15.8424 17.1523C15.9635 17.6147 16.0757 18.0714 16.179 18.5147C16.4658 19.7451 16.6786 20.848 16.8197 21.643C16.8902 22.0402 16.9426 22.3598 16.9773 22.5792C16.9947 22.6889 17.0076 22.7735 17.0161 22.8301L17.0255 22.8938L17.0277 22.9092L17.0283 22.9135Z" fill="url(#paint0_linear_1_11065)"/>
<path d="M17.5655 16.635C17.3288 15.7353 17.2104 15.2855 17.423 14.926C17.6355 14.5664 18.0365 14.4659 18.8385 14.2649C20.5046 13.8473 22.1439 13.7522 23.6148 14.0753C23.7533 14.1057 23.8456 14.2375 23.8233 14.3776C23.6685 15.3522 23.3945 16.3053 23.0076 17.2138C22.1395 19.2525 20.7028 21.0664 18.7679 22.3928L18.753 22.2978C18.7167 22.0685 18.6624 21.7376 18.5897 21.3282C18.4445 20.5098 18.2255 19.3745 17.9297 18.1058C17.8198 17.634 17.6985 17.1404 17.5655 16.635Z" fill="url(#paint1_linear_1_11065)"/>
<path d="M14.8584 9.75037C14.3507 8.95182 14.0968 8.55255 14.1314 8.2082C14.1659 7.86385 14.4905 7.52665 15.1398 6.85226C16.5291 5.40901 17.5957 3.82328 18.128 2.23987C18.1345 2.22067 18.157 2.21234 18.1744 2.22279C19.8568 3.23606 21.3137 4.67823 22.3649 6.501C23.4229 8.33551 23.942 10.3335 23.9713 12.3111C22.1887 11.9254 20.2763 12.0473 18.3909 12.5219C17.441 12.761 16.9661 12.8805 16.6429 12.7287C16.3198 12.5768 16.112 12.1418 15.6963 11.2717C15.5259 10.915 15.3478 10.5731 15.1619 10.2507C15.0656 10.0838 14.9643 9.9169 14.8584 9.75037Z" fill="url(#paint2_linear_1_11065)"/>
<path d="M7.57398 2.24691C7.27191 2.00777 7.02594 1.81906 6.85459 1.68948L6.82779 1.66924C8.94008 0.65833 11.2242 0.321086 13.4188 0.587384C14.3865 0.704814 15.3368 0.939606 16.2473 1.28575C16.3993 1.34352 16.476 1.51174 16.4242 1.66583C16.0042 2.91523 15.1344 4.23888 13.9528 5.4907C13.3694 6.10878 13.0777 6.41781 12.6588 6.4265C12.2399 6.43518 11.8976 6.10132 11.2128 5.43359C10.7706 5.00245 10.3328 4.59585 9.91525 4.22091C9.00775 3.40607 8.17764 2.72482 7.57398 2.24691Z" fill="url(#paint3_linear_1_11065)"/>
<path d="M10.093 8.59713C6.99297 10.5025 3.44091 11.5352 0.520633 10.9595C0.29008 10.914 0.134066 10.6965 0.174006 10.4649C0.678135 7.54199 2.25621 4.8236 4.739 2.94203C4.97091 2.76628 5.29019 2.77105 5.52546 2.94227L5.52791 2.94406L5.5391 2.95226L5.58589 2.98679C5.62764 3.01774 5.69011 3.06435 5.77101 3.12552C5.93284 3.2479 6.16822 3.42845 6.45884 3.65853C7.04054 4.11906 7.84112 4.7761 8.7149 5.56067C9.22224 6.01621 9.74837 6.50958 10.2674 7.02792C10.2905 7.05096 10.302 7.06248 10.3255 7.08954C10.6875 7.50686 10.6021 8.23485 10.1533 8.55705C10.1242 8.57795 10.1138 8.58434 10.093 8.59713Z" fill="url(#paint4_linear_1_11065)"/>
<defs>
<linearGradient id="paint0_linear_1_11065" x1="12" y1="0.5" x2="12.0001" y2="41.9545" gradientUnits="userSpaceOnUse">
<stop stop-color="#078CFE"/>
<stop offset="1" stop-color="#2850FF"/>
</linearGradient>
<linearGradient id="paint1_linear_1_11065" x1="12" y1="0.5" x2="12.0001" y2="41.9545" gradientUnits="userSpaceOnUse">
<stop stop-color="#078CFE"/>
<stop offset="1" stop-color="#2850FF"/>
</linearGradient>
<linearGradient id="paint2_linear_1_11065" x1="12" y1="0.5" x2="12.0001" y2="41.9545" gradientUnits="userSpaceOnUse">
<stop stop-color="#078CFE"/>
<stop offset="1" stop-color="#2850FF"/>
</linearGradient>
<linearGradient id="paint3_linear_1_11065" x1="12" y1="0.5" x2="12.0001" y2="41.9545" gradientUnits="userSpaceOnUse">
<stop stop-color="#078CFE"/>
<stop offset="1" stop-color="#2850FF"/>
</linearGradient>
<linearGradient id="paint4_linear_1_11065" x1="12" y1="0.5" x2="12.0001" y2="41.9545" gradientUnits="userSpaceOnUse">
<stop stop-color="#078CFE"/>
<stop offset="1" stop-color="#2850FF"/>
</linearGradient>
</defs>
</svg>
