<svg width="28" height="28" viewBox="0 0 28 28" fill="none" xmlns="http://www.w3.org/2000/svg">
<rect width="28" height="28" rx="14" fill="#F6F6F6"/>
<path fill-rule="evenodd" clip-rule="evenodd" d="M14 5C11.6305 5 9.70968 6.8673 9.70968 9.17073C9.70968 11.4742 11.6305 13.3415 14 13.3415C16.3695 13.3415 18.2903 11.4742 18.2903 9.17073C18.2903 6.8673 16.3695 5 14 5ZM11.0645 9.17073C11.0645 7.5947 12.3788 6.31707 14 6.31707C15.6212 6.31707 16.9355 7.5947 16.9355 9.17073C16.9355 10.7468 15.6212 12.0244 14 12.0244C12.3788 12.0244 11.0645 10.7468 11.0645 9.17073Z" fill="#454648"/>
<path fill-rule="evenodd" clip-rule="evenodd" d="M9.19317 15.774C10.4571 15.0719 12.158 14.6585 14 14.6585C15.842 14.6585 17.5429 15.0719 18.8068 15.774C20.0516 16.4655 21 17.5211 21 18.8293C21 20.1374 20.0516 21.1931 18.8068 21.8845C17.5429 22.5867 15.842 23 14 23C12.158 23 10.4571 22.5867 9.19317 21.8845C7.94838 21.1931 7 20.1374 7 18.8293C7 17.5211 7.94838 16.4655 9.19317 15.774ZM9.86535 16.9175C8.82181 17.4972 8.35484 18.1977 8.35484 18.8293C8.35484 19.4608 8.82181 20.1613 9.86535 20.741C10.8897 21.31 12.3501 21.6829 14 21.6829C15.6499 21.6829 17.1103 21.31 18.1346 20.741C19.1782 20.1613 19.6452 19.4608 19.6452 18.8293C19.6452 18.1977 19.1782 17.4972 18.1346 16.9175C17.1103 16.3485 15.6499 15.9756 14 15.9756C12.3501 15.9756 10.8897 16.3485 9.86535 16.9175Z" fill="#454648"/>
<path fill-rule="evenodd" clip-rule="evenodd" d="M14 5C11.6305 5 9.70968 6.8673 9.70968 9.17073C9.70968 11.4742 11.6305 13.3415 14 13.3415C16.3695 13.3415 18.2903 11.4742 18.2903 9.17073C18.2903 6.8673 16.3695 5 14 5ZM11.0645 9.17073C11.0645 7.5947 12.3788 6.31707 14 6.31707C15.6212 6.31707 16.9355 7.5947 16.9355 9.17073C16.9355 10.7468 15.6212 12.0244 14 12.0244C12.3788 12.0244 11.0645 10.7468 11.0645 9.17073Z" stroke="#454648" stroke-width="0.2" stroke-linecap="round"/>
<path fill-rule="evenodd" clip-rule="evenodd" d="M9.19317 15.774C10.4571 15.0719 12.158 14.6585 14 14.6585C15.842 14.6585 17.5429 15.0719 18.8068 15.774C20.0516 16.4655 21 17.5211 21 18.8293C21 20.1374 20.0516 21.1931 18.8068 21.8845C17.5429 22.5867 15.842 23 14 23C12.158 23 10.4571 22.5867 9.19317 21.8845C7.94838 21.1931 7 20.1374 7 18.8293C7 17.5211 7.94838 16.4655 9.19317 15.774ZM9.86535 16.9175C8.82181 17.4972 8.35484 18.1977 8.35484 18.8293C8.35484 19.4608 8.82181 20.1613 9.86535 20.741C10.8897 21.31 12.3501 21.6829 14 21.6829C15.6499 21.6829 17.1103 21.31 18.1346 20.741C19.1782 20.1613 19.6452 19.4608 19.6452 18.8293C19.6452 18.1977 19.1782 17.4972 18.1346 16.9175C17.1103 16.3485 15.6499 15.9756 14 15.9756C12.3501 15.9756 10.8897 16.3485 9.86535 16.9175Z" stroke="#454648" stroke-width="0.2" stroke-linecap="round"/>
</svg>
