<svg width="153" height="154" viewBox="0 0 153 154" fill="none" xmlns="http://www.w3.org/2000/svg">
<g filter="url(#filter0_d_63_6048)">
<g filter="url(#filter1_d_63_6048)">
<circle cx="76.5" cy="75.5" r="67.5" fill="#078CFE"/>
</g>
<path d="M77.6252 100.826C86.9909 96.7308 93.769 89.74 97.4252 82.6615C101.025 75.6123 101.531 68.5923 98.3252 64.3803C95.4284 60.607 91.6596 59.1738 87.8346 59.2908C84.0096 59.4078 80.2971 61.1335 77.6252 63.5613C74.9534 61.1335 71.2409 59.4078 67.4159 59.2908C63.5909 59.1738 59.8221 60.607 56.9252 64.3803C53.719 68.5923 54.2252 75.6123 57.8815 82.6615C61.4815 89.74 68.2596 96.7308 77.6252 100.826Z" fill="white"/>
<path d="M91.6875 65.375C92.625 66.8375 94.5 70.055 94.5 71.225C94.5 72.395 93.875 75.6125 93.5625 77.075" stroke="#078CFE" stroke-width="2.25"/>
</g>
<defs>
<filter id="filter0_d_63_6048" x="5" y="8" width="143" height="143" filterUnits="userSpaceOnUse" color-interpolation-filters="sRGB">
<feFlood flood-opacity="0" result="BackgroundImageFix"/>
<feColorMatrix in="SourceAlpha" type="matrix" values="0 0 0 0 0 0 0 0 0 0 0 0 0 0 0 0 0 0 127 0" result="hardAlpha"/>
<feOffset dy="4"/>
<feGaussianBlur stdDeviation="2"/>
<feComposite in2="hardAlpha" operator="out"/>
<feColorMatrix type="matrix" values="0 0 0 0 0 0 0 0 0 0 0 0 0 0 0 0 0 0 0.25 0"/>
<feBlend mode="normal" in2="BackgroundImageFix" result="effect1_dropShadow_63_6048"/>
<feBlend mode="normal" in="SourceGraphic" in2="effect1_dropShadow_63_6048" result="shape"/>
</filter>
<filter id="filter1_d_63_6048" x="-9.53674e-07" y="0.824324" width="153" height="153" filterUnits="userSpaceOnUse" color-interpolation-filters="sRGB">
<feFlood flood-opacity="0" result="BackgroundImageFix"/>
<feColorMatrix in="SourceAlpha" type="matrix" values="0 0 0 0 0 0 0 0 0 0 0 0 0 0 0 0 0 0 127 0" result="hardAlpha"/>
<feOffset dy="1.82432"/>
<feGaussianBlur stdDeviation="4.5"/>
<feColorMatrix type="matrix" values="0 0 0 0 0.4875 0 0 0 0 0.47125 0 0 0 0 0.485875 0 0 0 1 0"/>
<feBlend mode="normal" in2="BackgroundImageFix" result="effect1_dropShadow_63_6048"/>
<feBlend mode="normal" in="SourceGraphic" in2="effect1_dropShadow_63_6048" result="shape"/>
</filter>
</defs>
</svg>
