<svg width="31" height="31" viewBox="0 0 31 31" fill="none" xmlns="http://www.w3.org/2000/svg">
<path d="M15.5 28.5C22.6797 28.5 28.5 22.6797 28.5 15.5C28.5 8.3203 22.6797 2.5 15.5 2.5C8.3203 2.5 2.5 8.3203 2.5 15.5C2.5 22.6797 8.3203 28.5 15.5 28.5Z" fill="#078CFE"/>
<path d="M15.5 29C22.9558 29 29 22.9558 29 15.5C29 8.04416 22.9558 2 15.5 2C8.04416 2 2 8.04416 2 15.5C2 22.9558 8.04416 29 15.5 29Z" stroke="#F6F6F6"/>
<path d="M10 15.5H21M15.5 21V10" stroke="white" stroke-width="2.5" stroke-linecap="round"/>
</svg>
