<svg width="176" height="594" viewBox="0 0 176 594" fill="none" xmlns="http://www.w3.org/2000/svg">
<path d="M1.41251 86.6574C0.632214 87.4383 0.632231 88.7038 1.41255 89.4847L25.0239 113.114C25.8051 113.896 27.0723 113.896 27.8534 113.114L65.8894 75.0473C67.1491 73.7866 69.3042 74.6788 69.3042 76.461L69.3042 592C69.3042 593.105 70.1997 594 71.3042 594L104.695 594C105.799 594 106.695 593.105 106.695 592L106.695 76.4609C106.695 74.6787 108.85 73.7866 110.109 75.0472L148.147 113.114C148.928 113.896 150.195 113.896 150.976 113.114L174.587 89.4847C175.368 88.7038 175.368 87.4383 174.587 86.6573L89.4141 1.41593C88.633 0.634122 87.3658 0.634131 86.5846 1.41594L1.41251 86.6574Z" fill="white"/>
</svg>
