<svg width="14" height="18" viewBox="0 0 14 18" fill="none" xmlns="http://www.w3.org/2000/svg">
<g clip-path="url(#clip0_797_4143)">
<path fill-rule="evenodd" clip-rule="evenodd" d="M14 8.26363V12.3416C14 14.8704 14 16.1349 13.4291 16.6874C13.1567 16.9509 12.813 17.1164 12.4469 17.1604C11.6791 17.2527 10.7826 16.42 8.98943 14.7548C8.19683 14.0187 7.80053 13.6506 7.34201 13.5536C7.11622 13.5059 6.88378 13.5059 6.658 13.5536C6.19948 13.6506 5.80318 14.0187 5.01057 14.7548C3.21746 16.42 2.32091 17.2527 1.55316 17.1604C1.18701 17.1164 0.843278 16.9509 0.570972 16.6874C0 16.1349 0 14.8704 0 12.3416V8.26363C0 4.76126 0 3.01008 1.02513 1.92203C2.05026 0.833984 3.70017 0.833984 7 0.833984C10.2999 0.833984 11.9498 0.833984 12.9749 1.92203C14 3.01008 14 4.76126 14 8.26363ZM4.08334 4.10065C4.08334 3.76238 4.3445 3.48815 4.66667 3.48815H9.33334C9.6555 3.48815 9.91667 3.76238 9.91667 4.10065C9.91667 4.43893 9.6555 4.71315 9.33334 4.71315H4.66667C4.3445 4.71315 4.08334 4.43893 4.08334 4.10065Z" fill="black"/>
</g>
<defs>
<clipPath id="clip0_797_4143">
<rect width="14" height="18" fill="white"/>
</clipPath>
</defs>
</svg>
