<svg width="20" height="20" viewBox="0 0 20 20" fill="none" xmlns="http://www.w3.org/2000/svg">
<path fill-rule="evenodd" clip-rule="evenodd" d="M10.0534 1.87152e-07H9.94663C7.79929 -1.13957e-05 6.11646 -2.04643e-05 4.80345 0.176509C3.45951 0.357197 2.39902 0.734258 1.56664 1.56664C0.734258 2.39902 0.357197 3.45951 0.176509 4.80345C-2.04643e-05 6.11646 -1.13957e-05 7.79928 1.87152e-07 9.94661V10.0534C-1.13957e-05 12.2007 -2.04643e-05 13.8835 0.176509 15.1966C0.357197 16.5405 0.734258 17.601 1.56664 18.4334C2.39902 19.2657 3.45951 19.6428 4.80345 19.8235C6.11646 20 7.79929 20 9.94663 20H10.0534C12.2007 20 13.8835 20 15.1966 19.8235C16.5405 19.6428 17.601 19.2657 18.4334 18.4334C19.2657 17.601 19.6428 16.5405 19.8235 15.1966C20 13.8835 20 12.2007 20 10.0534V9.94663C20 7.79929 20 6.11646 19.8235 4.80345C19.6428 3.45951 19.2657 2.39902 18.4334 1.56664C17.601 0.734258 16.5405 0.357197 15.1966 0.176509C13.8835 -2.04643e-05 12.2007 -1.13957e-05 10.0534 1.87152e-07ZM2.5533 2.5533C3.08321 2.02339 3.80016 1.7193 4.98937 1.55942C6.19866 1.39683 7.7877 1.39535 10 1.39535C12.2123 1.39535 13.8013 1.39683 15.0106 1.55942C16.1998 1.7193 16.9168 2.02339 17.4467 2.5533C17.9766 3.08321 18.2807 3.80016 18.4406 4.98937C18.6032 6.19866 18.6047 7.7877 18.6047 10C18.6047 12.2123 18.6032 13.8013 18.4406 15.0106C18.2807 16.1998 17.9766 16.9168 17.4467 17.4467C16.9168 17.9766 16.1998 18.2807 15.0106 18.4406C13.8013 18.6032 12.2123 18.6047 10 18.6047C7.7877 18.6047 6.19866 18.6032 4.98937 18.4406C3.80016 18.2807 3.08321 17.9766 2.5533 17.4467C2.02339 16.9168 1.7193 16.1998 1.55942 15.0106C1.39683 13.8013 1.39535 12.2123 1.39535 10C1.39535 7.7877 1.39683 6.19866 1.55942 4.98937C1.7193 3.80016 2.02339 3.08321 2.5533 2.5533Z" fill="#454648"/>
</svg>
