<svg width="16" height="16" viewBox="0 0 16 16" fill="none" xmlns="http://www.w3.org/2000/svg">
<path d="M4 5.66448C4 3.64064 5.79086 2 8 2C10.2091 2 12 3.64064 12 5.66448C12 7.67246 10.7233 10.0156 8.73147 10.8535C8.26713 11.0488 7.73287 11.0488 7.26853 10.8535C5.27666 10.0156 4 7.67246 4 5.66448Z" stroke="#1573FE" stroke-width="1.5"/>
<path d="M9 6C9 6.55228 8.55228 7 8 7C7.44772 7 7 6.55228 7 6C7 5.44772 7.44772 5 8 5C8.55228 5 9 5.44772 9 6Z" stroke="#1573FE" stroke-width="1.5"/>
<path d="M13.3763 10C13.7755 10.3708 14 10.7887 14 11.2308C14 12.7602 11.3137 14 8 14C4.68629 14 2 12.7602 2 11.2308C2 10.7887 2.22447 10.3708 2.62368 10" stroke="#1573FE" stroke-width="1.5" stroke-linecap="round"/>
</svg>
