<svg width="14" height="18" viewBox="0 0 14 18" fill="none" xmlns="http://www.w3.org/2000/svg">
<path fill-rule="evenodd" clip-rule="evenodd" d="M13.999 8.26265V12.3406C13.999 14.8694 13.999 16.1339 13.4281 16.6864C13.1557 16.9499 12.812 17.1154 12.4459 17.1594C11.6781 17.2517 10.7816 16.419 8.98845 14.7538C8.19585 14.0177 7.79955 13.6496 7.34103 13.5526C7.11524 13.5049 6.8828 13.5049 6.65702 13.5526C6.1985 13.6496 5.8022 14.0177 5.00959 14.7538C3.21648 16.419 2.31993 17.2517 1.55218 17.1594C1.18603 17.1154 0.842301 16.9499 0.569995 16.6864C-0.000976562 16.1339 -0.000976562 14.8694 -0.000976562 12.3406V8.26265C-0.000976562 4.76028 -0.000976562 3.0091 1.02415 1.92105C2.04928 0.833008 3.69919 0.833008 6.99902 0.833008C10.2989 0.833008 11.9488 0.833008 12.9739 1.92105C13.999 3.0091 13.999 4.76028 13.999 8.26265ZM4.08236 4.09967C4.08236 3.7614 4.34352 3.48717 4.66569 3.48717H9.33236C9.65452 3.48717 9.91569 3.7614 9.91569 4.09967C9.91569 4.43795 9.65452 4.71217 9.33236 4.71217H4.66569C4.34352 4.71217 4.08236 4.43795 4.08236 4.09967Z" fill="#078CFE"/>
</svg>
