<svg width="100" height="100" viewBox="0 0 100 100" fill="none" xmlns="http://www.w3.org/2000/svg">
<circle opacity="0.05" cx="50" cy="50" r="50" fill="#0689F9"/>
<circle opacity="0.1" cx="50" cy="50" r="42" fill="#0689F9"/>
<circle cx="50" cy="50" r="34" fill="url(#paint0_linear_14_8526)"/>
<path d="M36 49.3125V50.6875C36 55.2078 36 57.4679 37.2711 58.9892C37.5038 59.2677 37.7638 59.523 38.0474 59.7516C39.5963 61 41.8975 61 46.5 61C51.1025 61 53.4037 61 54.9526 59.7516C55.2362 59.523 55.4962 59.2677 55.7289 58.9892C56.7111 57.8137 56.9343 56.1971 56.9851 53.4375L57.9217 53.8901C60.6459 55.2279 62.0081 55.8968 63.004 55.2923C64 54.6877 64 53.192 64 50.2006V49.7994C64 46.808 64 45.3123 63.004 44.7077C62.0081 44.1032 60.6459 44.7721 57.9217 46.1099L56.9851 46.5625C56.9343 43.8029 56.7111 42.1863 55.7289 41.0108C55.4962 40.7323 55.2362 40.477 54.9526 40.2484C53.4037 39 51.1025 39 46.5 39C41.8975 39 39.5963 39 38.0474 40.2484C37.7638 40.477 37.5038 40.7323 37.2711 41.0108C36 42.5321 36 44.7922 36 49.3125Z" fill="white"/>
<defs>
<linearGradient id="paint0_linear_14_8526" x1="50" y1="16" x2="50" y2="84" gradientUnits="userSpaceOnUse">
<stop stop-color="#078CFE"/>
<stop offset="1" stop-color="#0266BB"/>
</linearGradient>
</defs>
</svg>
