<svg width="56" height="56" viewBox="0 0 56 56" fill="none" xmlns="http://www.w3.org/2000/svg">
<circle cx="28" cy="28" r="28" fill="#FF4343"/>
<path d="M19.796 33.7015L21.5153 33.2139C23.0668 32.7738 24.1501 31.2443 24.1501 29.4937C24.1501 29.4937 24.1501 29.4937 24.1501 29.4937C24.1501 29.4937 24.1501 27.3703 28.0001 27.3703C31.85 27.3703 31.8501 29.4937 31.8501 29.4937C31.8501 29.4937 31.8501 29.4937 31.8501 29.4937C31.8501 31.2444 32.9333 32.7738 34.4849 33.2139L36.2042 33.7015C38.5471 34.366 40.8334 32.4348 40.8334 29.7914C40.8334 28.203 40.4785 26.6121 39.4437 25.4958C37.7018 23.6166 34.1688 21 28.0001 21C21.8314 21 18.2984 23.6166 16.5565 25.4958C15.5217 26.6121 15.1667 28.203 15.1667 29.7914C15.1667 32.4348 17.4531 34.366 19.796 33.7015Z" fill="white"/>
</svg>
