<svg width="30" height="30" viewBox="0 0 30 30" fill="none" xmlns="http://www.w3.org/2000/svg">
<path d="M6 14.5625V15.4375C6 18.314 6 19.7523 6.81716 20.7204C6.96676 20.8976 7.1339 21.0601 7.31618 21.2055C8.3119 22 9.79127 22 12.75 22C15.7087 22 17.1881 22 18.1838 21.2055C18.3661 21.0601 18.5332 20.8976 18.6828 20.7204C19.3143 19.9724 19.4578 18.9436 19.4904 17.1875L20.0925 17.4755C21.8438 18.3269 22.7195 18.7525 23.3597 18.3678C24 17.9831 24 17.0313 24 15.1277V14.8723C24 12.9687 24 12.0169 23.3597 11.6322C22.7195 11.2475 21.8438 11.6731 20.0925 12.5245L19.4904 12.8125C19.4578 11.0564 19.3143 10.0276 18.6828 9.27962C18.5332 9.1024 18.3661 8.9399 18.1838 8.79446C17.1881 8 15.7087 8 12.75 8C9.79127 8 8.3119 8 7.31618 8.79446C7.1339 8.9399 6.96676 9.1024 6.81716 9.27962C6 10.2477 6 11.686 6 14.5625Z" fill="#1C1D20"/>
<line y1="-0.5" x2="24.759" y2="-0.5" transform="matrix(0.643706 -0.765273 0.771149 0.636655 6.0625 25)" stroke="white"/>
<line y1="-0.5" x2="24.759" y2="-0.5" transform="matrix(0.643706 -0.765273 0.771149 0.636655 6.0625 25)" stroke="white"/>
<line y1="-0.5" x2="24.759" y2="-0.5" transform="matrix(0.643706 -0.765273 0.771149 0.636655 6.0625 25)" stroke="white"/>
<line x1="0.75" y1="-0.75" x2="25.4988" y2="-0.75" transform="matrix(0.647648 -0.761939 0.767862 0.640615 5 25)" stroke="#1C1D20" stroke-width="1.5" stroke-linecap="round"/>
</svg>
