<svg width="24" height="22" viewBox="0 0 24 22" fill="none" xmlns="http://www.w3.org/2000/svg">
<path d="M9.33333 22H14.6667C18.4119 22 20.2845 22 21.6297 21.1172C22.2121 20.735 22.7121 20.244 23.1012 19.672C24 18.3508 24 16.5116 24 12.8332C24 9.15478 23.9998 7.31586 23.101 5.99467C22.7119 5.42271 22.2119 4.93163 21.6295 4.54946C20.2843 3.66667 18.4117 3.66667 14.6665 3.66667H9.33314C5.5879 3.66667 3.71529 3.66667 2.37009 4.54946C1.78775 4.93163 1.28774 5.42271 0.898631 5.99467C-7.15256e-08 7.31557 -4.36846e-08 9.15397 0 12.8308L0 12.8332C0 16.5116 7.15256e-08 18.3508 0.898829 19.672C1.28794 20.244 1.78795 20.735 2.37029 21.1172C3.71548 22 5.5881 22 9.33333 22Z" fill="#078CFE"/>
<path fill-rule="evenodd" clip-rule="evenodd" d="M12 9.88671C10.3431 9.88671 9 11.2059 9 12.8332C9 14.4605 10.3431 15.7797 12 15.7797C13.6569 15.7797 15 14.4605 15 12.8332C15 11.2059 13.6569 9.88671 12 9.88671ZM7 12.8332C7 10.121 9.23858 7.9224 12 7.9224C14.7614 7.9224 17 10.121 17 12.8332C17 15.5453 14.7614 17.744 12 17.744C9.23858 17.744 7 15.5453 7 12.8332Z" fill="white"/>
<path fill-rule="evenodd" clip-rule="evenodd" d="M18.3333 8.90455C18.3333 8.36212 18.781 7.9224 19.3333 7.9224H20C20.5523 7.9224 21 8.36212 21 8.90455C21 9.44699 20.5523 9.88671 20 9.88671H19.3333C18.781 9.88671 18.3333 9.44699 18.3333 8.90455Z" fill="white"/>
<path fill-rule="evenodd" clip-rule="evenodd" d="M7.2 1.22222C7.2 0.547208 7.69593 0 8.30769 0H15.6923C16.3041 0 16.8 0.547208 16.8 1.22222C16.8 1.89724 16.3041 2.44444 15.6923 2.44444H8.30769C7.69593 2.44444 7.2 1.89724 7.2 1.22222Z" fill="#078CFE"/>
</svg>
