<svg width="56" height="56" viewBox="0 0 56 56" fill="none" xmlns="http://www.w3.org/2000/svg">
<g clip-path="url(#clip0_853_624)">
<path d="M28 56C43.464 56 56 43.464 56 28C56 12.536 43.464 0 28 0C12.536 0 0 12.536 0 28C0 43.464 12.536 56 28 56Z" fill="white"/>
<path d="M17.8623 27.5189V28.5116C17.8623 31.7753 17.8623 33.4071 18.7895 34.5055C18.9592 34.7066 19.1488 34.891 19.3556 35.0559C20.4853 35.9574 22.1639 35.9574 25.5207 35.9574C28.8776 35.9574 30.5561 35.9574 31.6858 35.0559C31.8927 34.891 32.0823 34.7066 32.252 34.5055C32.9685 33.6569 33.1313 32.4896 33.1683 30.4972L33.8514 30.8239C35.8384 31.7899 36.832 32.2728 37.5583 31.8363C38.2848 31.3998 38.2848 30.3199 38.2848 28.1602V27.8704C38.2848 25.7106 38.2848 24.6307 37.5583 24.1942C36.832 23.7577 35.8384 24.2406 33.8514 25.2066L33.1683 25.5334C33.1313 23.5409 32.9685 22.3737 32.252 21.525C32.0823 21.3239 31.8927 21.1396 31.6858 20.9746C30.5561 20.0732 28.8776 20.0732 25.5207 20.0732C22.1639 20.0732 20.4853 20.0732 19.3556 20.9746C19.1488 21.1396 18.9592 21.3239 18.7895 21.525C17.8623 22.6234 17.8623 24.2553 17.8623 27.5189Z" fill="#454648"/>
<path d="M17.4951 39L35.5777 17.5026" stroke="white"/>
<path d="M17.4951 39L35.5777 17.5026" stroke="white"/>
<path d="M17.4951 39L35.5777 17.5026" stroke="white"/>
<path d="M16.625 38.1677L34.8107 16.7727" stroke="#454648" stroke-width="1.5" stroke-linecap="round"/>
</g>
<defs>
<clipPath id="clip0_853_624">
<rect width="56" height="56" fill="white"/>
</clipPath>
</defs>
</svg>
