<svg width="56" height="56" viewBox="0 0 56 56" fill="none" xmlns="http://www.w3.org/2000/svg">
<circle cx="28" cy="28" r="28" fill="white"/>
<path d="M17.5 27.4896V28.5104C17.5 31.8664 17.5 33.5444 18.4534 34.6738C18.6279 34.8805 18.8229 35.0701 19.0355 35.2398C20.1972 36.1667 21.9231 36.1667 25.375 36.1667C28.8269 36.1667 30.5528 36.1667 31.7145 35.2398C31.9271 35.0701 32.1221 34.8805 32.2966 34.6738C33.0333 33.8011 33.2007 32.6009 33.2388 30.5521L33.9413 30.8881C35.9845 31.8813 37.0061 32.378 37.753 31.9291C38.5 31.4803 38.5 30.3698 38.5 28.1489V27.8511C38.5 25.6302 38.5 24.5197 37.753 24.0709C37.0061 23.6221 35.9845 24.1187 33.9413 25.1119L33.2388 25.448C33.2007 23.3991 33.0333 22.1989 32.2966 21.3262C32.1221 21.1195 31.9271 20.9299 31.7145 20.7602C30.5528 19.8333 28.8269 19.8333 25.375 19.8333C21.9231 19.8333 20.1972 19.8333 19.0355 20.7602C18.8229 20.9299 18.6279 21.1195 18.4534 21.3262C17.5 22.4556 17.5 24.1336 17.5 27.4896Z" fill="#454648"/>
</svg>
