<svg width="26" height="24" viewBox="0 0 26 24" fill="none" xmlns="http://www.w3.org/2000/svg">
<path fill-rule="evenodd" clip-rule="evenodd" d="M15.8889 24H10.1111C6.05378 24 4.02511 24 2.56782 23.0195C1.93694 22.595 1.39527 22.0495 0.973731 21.4142C0 19.9467 0 17.9039 0 13.8182C0 9.73247 0 7.68962 0.973731 6.22214C1.39527 5.58685 1.93694 5.04139 2.56782 4.6169C3.50422 3.98685 4.67653 3.76164 6.47139 3.68114C7.32791 3.68114 8.06536 3.02757 8.23333 2.18182C8.4853 0.913184 9.59147 0 10.8762 0H15.1238C16.4085 0 17.5147 0.913184 17.7667 2.18182C17.9346 3.02757 18.6721 3.68114 19.5286 3.68114C21.3235 3.76164 22.4958 3.98685 23.4322 4.6169C24.0631 5.04139 24.6047 5.58685 25.0263 6.22214C26 7.68962 26 9.73247 26 13.8182C26 17.9039 26 19.9467 25.0263 21.4142C24.6047 22.0495 24.0631 22.595 23.4322 23.0195C21.9749 24 19.9462 24 15.8889 24ZM17.2506 8.79948C17.2506 8.24719 16.8141 7.79948 16.2756 7.79948C15.7371 7.79948 15.3006 8.24719 15.3006 8.79948V8.99088C13.3895 7.99818 10.9955 8.32088 9.39836 9.95898C7.4094 11.9989 7.4094 15.3064 9.39836 17.3463C11.3873 19.3863 14.6121 19.3863 16.601 17.3463C17.4473 16.4783 17.9344 15.3783 18.06 14.2458C18.1208 13.6971 17.7365 13.2016 17.2014 13.1392C16.6664 13.0768 16.1833 13.471 16.1225 14.0198C16.0449 14.7189 15.7456 15.3953 15.2222 15.9321C13.9947 17.191 12.0047 17.191 10.7772 15.9321C9.54978 14.6732 9.54978 12.6321 10.7772 11.3732C11.6193 10.5095 12.8203 10.2384 13.8877 10.5597C13.4858 10.7516 13.2506 11.2082 13.3459 11.6722C13.4569 12.2127 13.974 12.5585 14.5009 12.4447L16.4765 12.0179C16.9277 11.9205 17.2506 11.5123 17.2506 11.0394V8.79948Z" fill="white"/>
</svg>
