<svg width="26" height="26" viewBox="0 0 26 26" fill="none" xmlns="http://www.w3.org/2000/svg">
<path fill-rule="evenodd" clip-rule="evenodd" d="M26 13C26 20.1797 20.1797 26 13 26C5.8203 26 0 20.1797 0 13C0 5.8203 5.8203 0 13 0C20.1797 0 26 5.8203 26 13ZM9.06052 9.06054C9.44128 8.67978 10.0586 8.67978 10.4394 9.06054L13 11.6211L15.5605 9.06057C15.9413 8.67981 16.5586 8.67981 16.9394 9.06057C17.3201 9.44133 17.3201 10.0587 16.9394 10.4394L14.3788 13L16.9393 15.5605C17.3201 15.9413 17.3201 16.5586 16.9393 16.9394C16.5586 17.3201 15.9412 17.3201 15.5605 16.9394L13 14.3788L10.4394 16.9394C10.0586 17.3202 9.44131 17.3202 9.06054 16.9394C8.67978 16.5586 8.67978 15.9413 9.06054 15.5605L11.6211 13L9.06052 10.4394C8.67976 10.0586 8.67975 9.44131 9.06052 9.06054Z" fill="#454648"/>
</svg>
