<svg width="20" height="20" viewBox="0 0 20 20" fill="none" xmlns="http://www.w3.org/2000/svg">
<path fill-rule="evenodd" clip-rule="evenodd" d="M10 20C5.28595 20 2.92893 20 1.46447 18.5355C0 17.0711 0 14.714 0 10C0 5.28595 0 2.92893 1.46447 1.46447C2.92893 0 5.28595 0 10 0C14.714 0 17.0711 0 18.5355 1.46447C20 2.92893 20 5.28595 20 10C20 14.714 20 17.0711 18.5355 18.5355C17.0711 20 14.714 20 10 20ZM14.0303 6.96967C14.3232 7.26256 14.3232 7.73744 14.0303 8.03033L9.03033 13.0303C8.73744 13.3232 8.26256 13.3232 7.96967 13.0303L5.96967 11.0303C5.67678 10.7374 5.67678 10.2626 5.96967 9.96967C6.26256 9.67678 6.73744 9.67678 7.03033 9.96967L8.5 11.4393L12.9697 6.96967C13.2626 6.67678 13.7374 6.67678 14.0303 6.96967Z" fill="#078CFE"/>
</svg>
