<svg width="189" height="182" viewBox="0 0 189 182" fill="none" xmlns="http://www.w3.org/2000/svg">
<g filter="url(#filter0_d_1_5138)">
<path d="M80.7585 0.775167C83.2442 2.29477 84.0274 5.54175 82.5078 8.02749C81.4051 9.83128 81.6814 12.1556 83.1764 13.6506L83.8648 14.339C88.0052 18.4794 89.532 24.562 87.8377 30.1669C86.9948 32.9557 84.0506 34.5331 81.2618 33.6901C78.473 32.8471 76.8956 29.903 77.7386 27.1142C78.3075 25.2321 77.7948 23.1896 76.4045 21.7993L75.7161 21.1109C70.7748 16.1696 69.8613 8.48671 73.5061 2.52451C75.0257 0.0387661 78.2727 -0.744439 80.7585 0.775167Z" fill="url(#paint0_linear_1_5138)"/>
<path d="M144.401 33.7391C143.428 34.1142 142.565 34.9772 140.839 36.7032C139.113 38.4292 138.25 39.2922 137.874 40.2657C137.435 41.405 137.435 42.6668 137.874 43.8061C138.25 44.7797 139.113 45.6427 140.839 47.3687C142.565 49.0947 143.428 49.9577 144.401 50.3328C145.54 50.7717 146.802 50.7717 147.941 50.3328C148.915 49.9577 149.778 49.0947 151.504 47.3687C153.23 45.6427 154.093 44.7797 154.468 43.8061C154.907 42.6668 154.907 41.405 154.468 40.2657C154.093 39.2922 153.23 38.4292 151.504 36.7032C149.778 34.9772 148.915 34.1142 147.941 33.7391C146.802 33.3001 145.54 33.3001 144.401 33.7391Z" fill="url(#paint1_linear_1_5138)"/>
<path d="M154.483 72.5143C151.939 71.4019 148.981 71.8691 146.903 73.7114C141.211 78.7588 132.928 79.5976 126.339 75.7938L124.842 74.9295C122.319 73.4728 121.455 70.2465 122.911 67.7234C124.368 65.2003 127.594 64.3358 130.118 65.7925L131.615 66.6568C134.27 68.19 137.609 67.8519 139.903 65.8175C145.058 61.2468 152.398 60.0875 158.71 62.8474L160.76 63.7438C163.43 64.911 164.648 68.0212 163.48 70.6906C162.313 73.36 159.203 74.5779 156.534 73.4107L154.483 72.5143Z" fill="url(#paint2_linear_1_5138)"/>
<path opacity="0.9" d="M99.2895 15.0976C100.704 13.6834 101.411 12.9763 102.228 12.7171C102.92 12.4979 103.662 12.4979 104.354 12.7171C105.171 12.9763 105.878 13.6834 107.293 15.0976C108.707 16.5117 109.414 17.2188 109.673 18.0364C109.892 18.7279 109.892 19.4703 109.673 20.1619C109.414 20.9794 108.707 21.6865 107.293 23.1006C105.878 24.5148 105.171 25.2219 104.354 25.4811C103.662 25.7003 102.92 25.7003 102.228 25.4811C101.411 25.2219 100.704 24.5148 99.2895 23.1007C97.8753 21.6865 97.1682 20.9794 96.909 20.1619C96.6898 19.4703 96.6898 18.7279 96.909 18.0364C97.1682 17.2188 97.8753 16.5117 99.2895 15.0976Z" fill="url(#paint3_linear_1_5138)"/>
<path opacity="0.7" d="M137.949 91.8838C139.423 90.4105 141.811 90.4105 143.285 91.8838C144.758 93.3571 144.758 95.7459 143.285 97.2192C141.811 98.6925 139.423 98.6925 137.949 97.2192C136.476 95.7459 136.476 93.3571 137.949 91.8838Z" fill="url(#paint4_linear_1_5138)"/>
<path d="M52.625 11.8921C54.0984 10.4188 56.4871 10.4188 57.9604 11.8921C59.4338 13.3654 59.4338 15.7542 57.9604 17.2275C56.4871 18.7008 54.0984 18.7008 52.625 17.2275C51.1517 15.7542 51.1517 13.3654 52.625 11.8921Z" fill="url(#paint5_linear_1_5138)"/>
<path d="M128.322 17.3843C131.179 17.9556 133.031 20.7348 132.46 23.5916L131.447 28.6554C130.053 35.6245 125.032 41.3124 118.29 43.5598C115.139 44.61 112.793 47.2678 112.142 50.5243L111.129 55.588C110.558 58.4449 107.779 60.2977 104.922 59.7263C102.065 59.1549 100.212 56.3758 100.784 53.5189L101.796 48.4551C103.19 41.4861 108.211 35.7982 114.954 33.5507C118.104 32.5006 120.45 29.8428 121.102 26.5863L122.114 21.5225C122.686 18.6656 125.465 16.8129 128.322 17.3843Z" fill="url(#paint6_linear_1_5138)"/>
<path opacity="0.9" d="M126.994 52.6929C128.467 51.2196 130.856 51.2196 132.33 52.6929C133.803 54.1662 133.803 56.555 132.33 58.0283C130.856 59.5016 128.467 59.5016 126.994 58.0283C125.521 56.555 125.521 54.1662 126.994 52.6929Z" fill="url(#paint7_linear_1_5138)"/>
<path fill-rule="evenodd" clip-rule="evenodd" d="M66.1586 35.2334L65.8025 36.9568L65.7991 36.9738L65.7862 37.0369L65.7333 37.2981C65.6866 37.531 65.6173 37.8793 65.5291 38.3324C65.3527 39.2387 65.1008 40.5634 64.8021 42.2209C64.2043 45.5381 63.4211 50.1768 62.6805 55.4548C61.1849 66.1131 59.9201 78.998 60.5675 88.872C60.9595 94.85 62.2398 102.583 63.4619 108.963C64.0671 112.123 64.6472 114.895 65.0757 116.877C65.2898 117.867 65.4657 118.657 65.5875 119.198L65.7276 119.815L65.7634 119.971L66.5145 123.199L61.8431 124.756L61.842 124.756L61.8399 124.757C59.9572 125.385 58.1656 125.982 56.4605 126.544L55.4971 122.403L55.4834 122.345L55.4436 122.171L55.2949 121.516C55.1671 120.949 54.9847 120.129 54.7636 119.107C54.3218 117.064 53.7241 114.207 53.0998 110.948C51.8627 104.49 50.4766 96.2249 50.0397 89.5623C49.3177 78.5517 50.7192 64.7728 52.2324 53.9887C52.9961 48.5455 53.8028 43.7682 54.4189 40.3497C54.7271 38.6393 54.9882 37.2663 55.1729 36.3168C55.2654 35.842 55.3387 35.473 55.3895 35.2204L55.4267 35.0364C51.0669 38.213 48.4552 46.0481 44.0087 59.3875L32.1254 95.0375C25.6418 114.488 22.3999 124.214 27.5337 129.348C32.6674 134.481 42.3928 131.24 61.8437 124.756L61.8438 124.756L97.4938 112.873C113.657 107.485 121.739 104.791 123.244 98.4165C124.749 92.0422 118.725 86.0183 106.677 73.9707L82.9107 50.204C72.0787 39.372 66.1162 33.4095 60.3903 33.4102C62.2367 33.4101 64.1076 34.03 66.1586 35.2334ZM85.6103 116.834L95.6194 113.497L94.9711 111.547L94.9623 111.52L94.9231 111.4C94.8878 111.291 94.8343 111.126 94.7654 110.909C94.6274 110.474 94.4277 109.833 94.1868 109.029C93.7043 107.417 93.0607 105.16 92.4181 102.587C91.1028 97.3198 89.9089 91.1785 89.9089 86.5508C89.9089 81.9231 91.1028 75.7818 92.4181 70.5149C93.0607 67.9418 93.7043 65.6846 94.1868 64.0728C94.4277 63.2682 94.6274 62.6277 94.7654 62.193L94.7976 62.0916L86.4494 53.7433L84.9604 58.2233L89.9664 59.8871C84.9604 58.2233 84.9584 58.2295 84.9581 58.2301L84.9539 58.2428L84.9399 58.2855L84.8899 58.4385C84.8471 58.5699 84.786 58.7593 84.7092 59.0015C84.5555 59.4857 84.3386 60.1817 84.0795 61.0472C83.5621 62.7756 82.8726 65.1932 82.182 67.9587C80.8309 73.3689 79.3584 80.5595 79.3584 86.5508C79.3584 92.5421 80.8309 99.7327 82.182 105.143C82.8726 107.908 83.5621 110.326 84.0795 112.054C84.3386 112.92 84.5555 113.616 84.7092 114.1C84.786 114.342 84.8471 114.532 84.8899 114.663L84.9399 114.816L84.9539 114.859L84.9604 114.878L85.6103 116.834Z" fill="url(#paint8_linear_1_5138)"/>
</g>
<defs>
<filter id="filter0_d_1_5138" x="0" y="0" width="188.924" height="181.881" filterUnits="userSpaceOnUse" color-interpolation-filters="sRGB">
<feFlood flood-opacity="0" result="BackgroundImageFix"/>
<feColorMatrix in="SourceAlpha" type="matrix" values="0 0 0 0 0 0 0 0 0 0 0 0 0 0 0 0 0 0 127 0" result="hardAlpha"/>
<feOffset dy="25"/>
<feGaussianBlur stdDeviation="12.5"/>
<feColorMatrix type="matrix" values="0 0 0 0 0 0 0 0 0 0 0 0 0 0 0 0 0 0 0.1 0"/>
<feBlend mode="normal" in2="BackgroundImageFix" result="effect1_dropShadow_1_5138"/>
<feBlend mode="normal" in="SourceGraphic" in2="effect1_dropShadow_1_5138" result="shape"/>
</filter>
<linearGradient id="paint0_linear_1_5138" x1="134.967" y1="-5.03768" x2="90.3832" y2="103.29" gradientUnits="userSpaceOnUse">
<stop stop-color="white" stop-opacity="0.92"/>
<stop offset="1" stop-color="white"/>
</linearGradient>
<linearGradient id="paint1_linear_1_5138" x1="134.967" y1="-5.03768" x2="90.3832" y2="103.29" gradientUnits="userSpaceOnUse">
<stop stop-color="white" stop-opacity="0.92"/>
<stop offset="1" stop-color="white"/>
</linearGradient>
<linearGradient id="paint2_linear_1_5138" x1="134.967" y1="-5.03768" x2="90.3832" y2="103.29" gradientUnits="userSpaceOnUse">
<stop stop-color="white" stop-opacity="0.92"/>
<stop offset="1" stop-color="white"/>
</linearGradient>
<linearGradient id="paint3_linear_1_5138" x1="105.745" y1="11.7089" x2="97.3837" y2="28.8498" gradientUnits="userSpaceOnUse">
<stop stop-color="white" stop-opacity="0.92"/>
<stop offset="1" stop-color="white"/>
</linearGradient>
<linearGradient id="paint4_linear_1_5138" x1="142.031" y1="90.2925" x2="137.213" y2="100.171" gradientUnits="userSpaceOnUse">
<stop stop-color="white" stop-opacity="0.92"/>
<stop offset="1" stop-color="white"/>
</linearGradient>
<linearGradient id="paint5_linear_1_5138" x1="107.232" y1="7.62622" x2="85.6498" y2="80.739" gradientUnits="userSpaceOnUse">
<stop stop-color="white" stop-opacity="0.92"/>
<stop offset="1" stop-color="white"/>
</linearGradient>
<linearGradient id="paint6_linear_1_5138" x1="107.232" y1="7.62622" x2="85.6498" y2="80.739" gradientUnits="userSpaceOnUse">
<stop stop-color="white" stop-opacity="0.92"/>
<stop offset="1" stop-color="white"/>
</linearGradient>
<linearGradient id="paint7_linear_1_5138" x1="131.076" y1="51.1016" x2="126.257" y2="60.9799" gradientUnits="userSpaceOnUse">
<stop stop-color="white" stop-opacity="0.92"/>
<stop offset="1" stop-color="white"/>
</linearGradient>
<linearGradient id="paint8_linear_1_5138" x1="92.6918" y1="27.0635" x2="29.8067" y2="155.981" gradientUnits="userSpaceOnUse">
<stop stop-color="white" stop-opacity="0.92"/>
<stop offset="1" stop-color="white"/>
</linearGradient>
</defs>
</svg>
