<svg width="36" height="36" viewBox="0 0 36 36" fill="none" xmlns="http://www.w3.org/2000/svg">
<g clip-path="url(#clip0_3278_126)">
<path d="M36 18C36 8.05887 27.9411 0 18 0C8.05887 0 0 8.05887 0 18C0 27.9411 8.05887 36 18 36C27.9411 36 36 27.9411 36 18Z" fill="#F6F6F6"/>
<g clip-path="url(#clip1_3278_126)">
<path d="M26.668 26.2844L26.0176 22.8157C25.7921 21.6011 24.9071 20.6418 23.7076 20.3123L21.4632 19.7009C21.2491 19.5166 21.0113 19.3612 20.75 19.238V19.1064L21.4769 18.3795C21.5965 18.2599 21.7033 18.132 21.8046 18H22.1255C22.8835 18 23.5005 17.3831 23.5005 16.625V16.0819C24.0326 15.8921 24.4167 15.388 24.4167 14.7917V13.875C24.4167 13.1751 23.8887 12.6017 23.2113 12.517C23.7131 11.2588 23.5564 9.83387 22.7919 8.70454C22.0576 7.62104 20.9026 7 19.6225 7H15.1767C14.9855 7 14.8141 7.11871 14.7472 7.29792C14.7339 7.33321 14.6203 7.65129 14.541 8.11512C13.6898 8.49875 13.011 9.167 12.7003 9.94892C12.3845 10.7437 12.4473 11.6237 12.8827 12.494L12.8891 12.5069C12.1636 12.5435 11.5829 13.1403 11.5829 13.875V14.7917C11.5829 15.5497 12.1998 16.1667 12.9579 16.1667H13.4469C13.5473 17.0022 13.9185 17.7754 14.5226 18.3795L15.2495 19.1064V19.2283C14.9874 19.3512 14.7449 19.5134 14.5277 19.7032L12.291 20.3127C11.0925 20.6423 10.2074 21.6016 9.98238 22.8152L9.33109 26.2853C9.20596 26.9577 9.38425 27.6456 9.82196 28.1727C10.2588 28.6989 10.9009 29.0005 11.5829 29.0005H24.4162C25.0982 29.0005 25.7403 28.6989 26.1771 28.1727C26.6148 27.6461 26.7936 26.9581 26.6675 26.2848L26.668 26.2844ZM21.6667 22.125C21.6667 22.2474 21.6195 22.3601 21.5264 22.4513C21.443 22.5366 21.3303 22.5833 21.2083 22.5833H20.0442C20.4814 22.0961 20.75 21.4549 20.75 20.75V20.293C21.3151 20.7156 21.6667 21.3894 21.6667 22.125ZM16.1667 20.75V19.8159C16.7217 20.1248 17.3473 20.2917 18 20.2917C18.6527 20.2917 19.2783 20.1248 19.8333 19.8159V20.75C19.8333 21.7611 19.0111 22.5833 18 22.5833C16.9889 22.5833 16.1667 21.7611 16.1667 20.75ZM22.3464 17.0182C22.4472 16.7451 22.5173 16.46 22.5526 16.1667H22.5838V16.625C22.5838 16.796 22.4857 16.9394 22.3464 17.0182ZM23.5 13.875V14.7917C23.5 15.0442 23.2947 15.25 23.0417 15.25H22.5833V13.4167H23.0417C23.2947 13.4167 23.5 13.6225 23.5 13.875ZM15.519 7.91667H19.6225C20.5937 7.91667 21.4723 8.3915 22.0329 9.21879C22.604 10.0617 22.7341 11.1149 22.3991 12.0595C22.0489 11.2414 21.2363 10.6667 20.2921 10.6667H15.9311C15.1927 9.74954 15.377 8.48592 15.519 7.91667ZM13.5523 10.2872C13.7183 9.87054 14.0505 9.48783 14.4718 9.20092C14.4965 9.72158 14.6138 10.2872 14.914 10.817C14.3604 11.0232 13.9112 11.4353 13.6541 11.9619C13.3873 11.3679 13.3465 10.8046 13.5523 10.2872ZM12.5 14.7917V13.875C12.5 13.6225 12.7053 13.4167 12.9583 13.4167H13.4167V15.25H12.9583C12.7053 15.25 12.5 15.0442 12.5 14.7917ZM14.3333 15.7083V12.9583C14.3333 12.2002 14.9503 11.5833 15.7083 11.5833H20.2917C21.0498 11.5833 21.6667 12.2002 21.6667 12.9583V15.7083C21.6667 16.1974 21.5438 16.6667 21.3147 17.0833H20.1945C20.0171 16.6795 19.6147 16.3958 19.1458 16.3958H18.2292C17.5971 16.3958 17.0833 16.9101 17.0833 17.5417C17.0833 18.1732 17.5971 18.6875 18.2292 18.6875H19.1458C19.6147 18.6875 20.0171 18.4038 20.1945 18H20.5603L20.0231 18.5372C19.4823 19.0775 18.764 19.375 18 19.375C17.236 19.375 16.5178 19.0775 15.9769 18.5372L15.1712 17.7314C14.6308 17.191 14.3333 16.4728 14.3333 15.7083ZM19.375 17.5417C19.375 17.6682 19.2719 17.7708 19.1458 17.7708H18.2292C18.1031 17.7708 18 17.6682 18 17.5417C18 17.4152 18.1031 17.3125 18.2292 17.3125H19.1458C19.2719 17.3125 19.375 17.4152 19.375 17.5417ZM15.9558 22.5833H14.7917C14.5387 22.5833 14.3333 22.3775 14.3333 22.125C14.3333 21.5104 14.5717 20.9356 15.0085 20.503C15.0832 20.4269 15.1652 20.359 15.25 20.2949V20.75C15.25 21.4549 15.5186 22.0961 15.9558 22.5833ZM10.5273 27.587C10.2647 27.2702 10.157 26.8573 10.2322 26.454L10.8835 22.9835C11.0448 22.1167 11.6768 21.4325 12.533 21.1969L13.6619 20.8893C13.501 21.2748 13.4167 21.6932 13.4167 22.125C13.4167 22.8831 14.0336 23.5 14.7917 23.5H17.5417V28.0833H11.5833C11.1745 28.0833 10.79 27.9023 10.5273 27.587ZM25.4722 27.587C25.21 27.9023 24.825 28.0833 24.4162 28.0833H18.4579V23.5H21.2079C21.5796 23.5 21.9252 23.3547 22.1736 23.0994C22.4376 22.8427 22.5829 22.4967 22.5829 22.125C22.5829 21.6887 22.4862 21.2711 22.3244 20.8857L23.4656 21.1964C24.3223 21.432 24.9548 22.1167 25.1165 22.9839L25.7669 26.453C25.8425 26.8568 25.7353 27.2702 25.4722 27.587Z" fill="#454648"/>
<path d="M14.7918 24.4165H13.4168C13.1634 24.4165 12.9585 24.6218 12.9585 24.8748C12.9585 25.1278 13.1634 25.3332 13.4168 25.3332H14.7918C15.0453 25.3332 15.2502 25.1278 15.2502 24.8748C15.2502 24.6218 15.0453 24.4165 14.7918 24.4165Z" fill="#454648"/>
</g>
</g>
<defs>
<clipPath id="clip0_3278_126">
<rect width="36" height="36" fill="white"/>
</clipPath>
<clipPath id="clip1_3278_126">
<rect width="22" height="22" fill="white" transform="translate(7 7)"/>
</clipPath>
</defs>
</svg>
