<svg width="18" height="18" viewBox="0 0 18 18" fill="none" xmlns="http://www.w3.org/2000/svg">
<path d="M10.8782 8.99886L16.606 3.28357C17.1283 2.76117 17.1283 1.9142 16.606 1.3918C16.0837 0.869399 15.2368 0.869399 14.7145 1.3918L9.00001 7.12042L3.28553 1.3918C2.7632 0.869399 1.91635 0.869399 1.39402 1.3918C0.87169 1.91421 0.87169 2.76118 1.39402 3.28357L7.12182 8.99886L1.39402 14.7142C1.14185 14.9643 1 15.3048 1 15.66C1 16.0153 1.14185 16.3558 1.39402 16.6059C1.64413 16.8581 1.9846 17 2.33977 17C2.69494 17 3.0354 16.8581 3.28552 16.6059L9 10.8773L14.7145 16.6059C14.9646 16.8581 15.3051 17 15.6602 17C16.0154 17 16.3559 16.8581 16.606 16.6059C16.8582 16.3558 17 16.0153 17 15.66C17 15.3048 16.8582 14.9643 16.606 14.7142L10.8782 8.99886Z" fill="#777777" stroke="#777777"/>
</svg>
