<svg width="50" height="50" viewBox="0 0 50 50" fill="none" xmlns="http://www.w3.org/2000/svg">
<rect opacity="0.1" width="50" height="50" rx="25" fill="white"/>
<path fill-rule="evenodd" clip-rule="evenodd" d="M33.8544 24.2137L33.6481 26.4054C33.3082 30.0167 33.1383 31.8224 32.0739 32.9112C31.0096 34 29.4144 34 26.2239 34H23.7761C20.5856 34 18.9904 34 17.9261 32.9112C16.8617 31.8224 16.6918 30.0167 16.3519 26.4054L16.1456 24.2137C15.9836 22.4923 15.9026 21.6316 16.1971 21.2759C16.3564 21.0834 16.573 20.9655 16.8046 20.9451C17.2327 20.9075 17.7704 21.5196 18.8457 22.7438C19.4018 23.3768 19.6798 23.6934 19.99 23.7424C20.1619 23.7696 20.337 23.7416 20.4957 23.6618C20.7822 23.5176 20.9731 23.1263 21.3551 22.3437L23.3682 18.2184C24.09 16.7395 24.4508 16 25 16C25.5492 16 25.91 16.7395 26.6318 18.2184L28.6449 22.3437C29.0269 23.1263 29.2178 23.5176 29.5043 23.6618C29.663 23.7416 29.8381 23.7696 30.01 23.7424C30.3202 23.6934 30.5982 23.3768 31.1543 22.7438C32.2296 21.5196 32.7673 20.9075 33.1954 20.9451C33.427 20.9655 33.6436 21.0834 33.8029 21.2759C34.0974 21.6316 34.0164 22.4923 33.8544 24.2137ZM21.625 30.4C21.625 30.0272 21.9272 29.725 22.3 29.725H27.7C28.0728 29.725 28.375 30.0272 28.375 30.4C28.375 30.7728 28.0728 31.075 27.7 31.075H22.3C21.9272 31.075 21.625 30.7728 21.625 30.4Z" fill="white"/>
</svg>
