<svg width="28" height="28" viewBox="0 0 28 28" fill="none" xmlns="http://www.w3.org/2000/svg">
<rect width="28" height="28" rx="14" fill="#F6F6F6"/>
<path d="M22.2121 8.24219C19.2129 8.24219 16.1956 8.24219 13.1874 8.24219C11.404 8.24219 9.62071 8.24219 7.83737 8.24219H6" stroke="#454648" stroke-width="1.8" stroke-linecap="round" stroke-linejoin="round"/>
<path d="M10.8636 7.43182L11.0675 6.3592C11.2157 5.58134 11.3269 5 12.8925 5H15.3197C16.8853 5 17.0057 5.6141 17.1447 6.36739L17.3485 7.43182" stroke="#454648" stroke-width="1.8" stroke-linecap="round" stroke-linejoin="round"/>
<path d="M20.5912 11.4849L19.9758 20.3713C19.8717 21.7567 19.7865 22.8333 17.1452 22.8333H11.0674C8.42615 22.8333 8.34095 21.7567 8.23681 20.3713L7.62146 11.4849" stroke="#454648" stroke-width="1.8" stroke-linecap="round" stroke-linejoin="round"/>
<path d="M12.7524 17.5643H15.4519M12.0796 14.3218H16.1328" stroke="#454648" stroke-width="1.5" stroke-linecap="round" stroke-linejoin="round"/>
</svg>
