<svg width="18" height="20" viewBox="0 0 18 20" fill="none" xmlns="http://www.w3.org/2000/svg">
<path d="M0 4.52381C0 4.12932 0.32671 3.80952 0.729726 3.80952H5.51787C5.52437 2.9683 5.61554 1.81504 6.45037 1.01668C7.10737 0.388386 8.00808 0 8.99999 0C9.99191 0 10.8926 0.388385 11.5496 1.01668C12.3844 1.81504 12.4756 2.9683 12.4821 3.80952H17.2703C17.6733 3.80952 18 4.12932 18 4.52381C18 4.9183 17.6733 5.2381 17.2703 5.2381H0.729726C0.32671 5.2381 0 4.9183 0 4.52381Z" fill="white"/>
<path fill-rule="evenodd" clip-rule="evenodd" d="M8.5956 20H9.4044C12.1871 20 13.5785 20 14.4831 19.1141C15.3878 18.2281 15.4803 16.7749 15.6654 13.8685L15.9321 9.6806C16.0326 8.10361 16.0828 7.31511 15.6289 6.81545C15.1751 6.31579 14.4087 6.31579 12.876 6.31579H5.12404C3.59127 6.31579 2.82488 6.31579 2.37105 6.81545C1.91722 7.31511 1.96744 8.10361 2.06788 9.6806L2.33459 13.8685C2.5197 16.7749 2.61225 18.2281 3.51689 19.1141C4.42153 20 5.81289 20 8.5956 20ZM7.24628 10.1885C7.20506 9.75463 6.83753 9.43809 6.42537 9.48148C6.01321 9.52486 5.71251 9.91174 5.75372 10.3456L6.25372 15.6087C6.29494 16.0426 6.66247 16.3591 7.07463 16.3157C7.48678 16.2724 7.78749 15.8855 7.74628 15.4516L7.24628 10.1885ZM11.5746 9.48148C11.9868 9.52486 12.2875 9.91174 12.2463 10.3456L11.7463 15.6087C11.7051 16.0426 11.3375 16.3591 10.9254 16.3157C10.5132 16.2724 10.2125 15.8855 10.2537 15.4516L10.7537 10.1885C10.7949 9.75463 11.1625 9.43809 11.5746 9.48148Z" fill="white"/>
</svg>
