<svg width="28" height="28" viewBox="0 0 28 28" fill="none" xmlns="http://www.w3.org/2000/svg">
<rect width="28" height="28" rx="14" fill="#F6F6F6"/>
<path d="M7.59668 12.401C7.59668 9.38356 7.59668 7.87482 8.53409 6.93741C9.4715 6 10.9802 6 13.9977 6C17.0152 6 18.5239 6 19.4614 6.93741C20.3988 7.87482 20.3988 9.38356 20.3988 12.401V15.6016C20.3988 18.619 20.3988 20.1278 19.4614 21.0652C18.5239 22.0026 17.0152 22.0026 13.9977 22.0026C10.9802 22.0026 9.4715 22.0026 8.53409 21.0652C7.59668 20.1278 7.59668 18.619 7.59668 15.6016V12.401Z" stroke="#454648" stroke-width="1.5"/>
<path d="M16.4023 8.39795H11.6016" stroke="#454648" stroke-width="1.5" stroke-linecap="round"/>
<circle cx="13.9992" cy="18.0016" r="1.60026" stroke="#454648" stroke-width="1.5"/>
</svg>
