<svg width="22" height="25" viewBox="0 0 22 25" fill="none" xmlns="http://www.w3.org/2000/svg">
<path d="M21.1714 8.15772L21.9721 12.7876C22.172 13.944 21.2827 15.0017 20.1105 15.0017H14.2307C13.648 15.0017 13.2042 15.5248 13.2986 16.1005L14.0506 20.6904C14.1728 21.4361 14.1379 22.1991 13.9481 22.9305C13.791 23.5364 13.3235 24.0229 12.7088 24.2204L12.5442 24.2732C12.1727 24.3926 11.7672 24.3648 11.4169 24.196C11.0313 24.0102 10.7492 23.6713 10.6447 23.2683L10.1048 21.1871C9.93307 20.525 9.68286 19.8858 9.36026 19.2819C8.8889 18.3995 8.16012 17.6933 7.40257 17.0405L5.76983 15.6335C5.30947 15.2368 5.0677 14.6427 5.12009 14.0369L6.04177 3.37761C6.12631 2.3999 6.94374 1.64932 7.924 1.64932H13.1995C17.1502 1.64932 20.5219 4.40202 21.1714 8.15772Z" fill="#F27121"/>
<path fill-rule="evenodd" clip-rule="evenodd" d="M1.53636 15.8527C1.99174 15.8723 2.38177 15.5298 2.42103 15.0757L3.52365 2.32394C3.59447 1.50481 2.94927 0.798828 2.1254 0.798828C1.34937 0.798828 0.721924 1.42838 0.721924 2.20293V15.0023C0.721924 15.4581 1.08099 15.833 1.53636 15.8527Z" fill="#F27121"/>
</svg>
