<svg width="44" height="44" viewBox="0 0 44 44" fill="none" xmlns="http://www.w3.org/2000/svg">
<g filter="url(#filter0_d_576_9183)">
<circle cx="22" cy="18" r="18" fill="white"/>
</g>
<path opacity="0.5" d="M29.9663 15.0425C31.3486 13.6602 31.3486 11.419 29.9663 10.0367C28.584 8.65443 26.3428 8.65443 24.9605 10.0367L24.1621 10.8351C24.173 10.8682 24.1844 10.9016 24.1961 10.9355C24.4888 11.7791 25.041 12.8849 26.0797 13.9236C27.1184 14.9623 28.2242 15.5145 29.0677 15.8071C29.1015 15.8189 29.1348 15.8301 29.1677 15.841L29.9663 15.0425Z" fill="#454648"/>
<path d="M24.196 10.8018L24.1616 10.8361C24.1726 10.8692 24.1839 10.9026 24.1957 10.9365C24.4883 11.7801 25.0405 12.8858 26.0792 13.9246C27.118 14.9633 28.2238 15.5155 29.0673 15.8081C29.1007 15.8197 29.1338 15.8309 29.1664 15.8417L21.4611 23.547C20.9416 24.0665 20.6818 24.3263 20.3954 24.5497C20.0576 24.8132 19.692 25.0391 19.3052 25.2235C18.9773 25.3797 18.6288 25.4959 17.9318 25.7282L14.2564 26.9534C13.9134 27.0677 13.5353 26.9784 13.2796 26.7228C13.0239 26.4671 12.9347 26.089 13.049 25.746L14.2742 22.0705C14.5065 21.3736 14.6226 21.0251 14.7789 20.6972C14.9633 20.3104 15.1892 19.9448 15.4527 19.607C15.6761 19.3206 15.9358 19.0608 16.4553 18.5414L24.196 10.8018Z" fill="#454648"/>
<defs>
<filter id="filter0_d_576_9183" x="0" y="0" width="44" height="44" filterUnits="userSpaceOnUse" color-interpolation-filters="sRGB">
<feFlood flood-opacity="0" result="BackgroundImageFix"/>
<feColorMatrix in="SourceAlpha" type="matrix" values="0 0 0 0 0 0 0 0 0 0 0 0 0 0 0 0 0 0 127 0" result="hardAlpha"/>
<feOffset dy="4"/>
<feGaussianBlur stdDeviation="2"/>
<feComposite in2="hardAlpha" operator="out"/>
<feColorMatrix type="matrix" values="0 0 0 0 0 0 0 0 0 0 0 0 0 0 0 0 0 0 0.05 0"/>
<feBlend mode="normal" in2="BackgroundImageFix" result="effect1_dropShadow_576_9183"/>
<feBlend mode="normal" in="SourceGraphic" in2="effect1_dropShadow_576_9183" result="shape"/>
</filter>
</defs>
</svg>
