<svg width="24" height="24" viewBox="0 0 24 24" fill="none" xmlns="http://www.w3.org/2000/svg">
<path fill-rule="evenodd" clip-rule="evenodd" d="M9.40538 2.5852C11.0658 1.80493 12.9341 1.80493 14.5945 2.5852L21.4413 5.80263C22.5181 6.30862 23 7.40741 23 8.41028C23 9.41315 22.5181 10.5119 21.4413 11.0179L19.9302 11.728V16.744C19.9302 18.0292 19.2874 19.27 18.117 19.9197C17.3478 20.3466 16.337 20.8607 15.2732 21.2697C14.222 21.6739 13.058 22 12 22C10.942 22 9.77801 21.6739 8.72677 21.2697C7.66302 20.8607 6.65217 20.3466 5.88296 19.9197C4.71263 19.27 4.06977 18.0292 4.06977 16.744V11.728L2.55866 11.0179L2.53488 11.0066V14.0513C2.53488 14.4761 2.19129 14.8205 1.76744 14.8205C1.3436 14.8205 1 14.4761 1 14.0513V8.41026C1 7.40738 1.4819 6.30857 2.55866 5.80258L9.40538 2.5852ZM5.60465 12.4492V16.744C5.60465 17.5266 5.99221 18.2217 6.62656 18.5738C7.35987 18.9809 8.30275 19.4589 9.27655 19.8333C10.2629 20.2126 11.2202 20.4615 12 20.4615C12.7798 20.4615 13.7371 20.2126 14.7235 19.8333C15.6972 19.4589 16.6401 18.9809 17.3734 18.5738C18.0078 18.2217 18.3953 17.5266 18.3953 16.744V12.4493L14.5946 14.2353C12.9342 15.0156 11.0659 15.0156 9.40547 14.2353L5.60465 12.4492ZM3.2102 9.62491C2.79764 9.43105 2.53488 8.9686 2.53488 8.41023C2.53488 7.85187 2.79765 7.38942 3.2102 7.19556L10.0569 3.97818C11.3046 3.39189 12.6953 3.39189 13.943 3.97818L20.7898 7.1956C21.2024 7.38947 21.4651 7.85191 21.4651 8.41028C21.4651 8.96864 21.2024 9.43109 20.7898 9.62496L13.9431 12.8423C12.6954 13.4286 11.3047 13.4286 10.057 12.8423L3.2102 9.62491Z" fill="#929394"/>
</svg>
