<svg width="24" height="24" viewBox="0 0 24 24" fill="none" xmlns="http://www.w3.org/2000/svg">
<path fill-rule="evenodd" clip-rule="evenodd" d="M12 24C18.6274 24 24 18.6274 24 12C24 5.37258 18.6274 0 12 0C5.37258 0 0 5.37258 0 12C0 18.6274 5.37258 24 12 24ZM7.67697 16.2641C7.97296 15.8647 8.53662 15.781 8.93594 16.077C9.80994 16.7248 10.8649 17.1 12 17.1C13.1351 17.1 14.1901 16.7248 15.0641 16.077C15.4634 15.781 16.027 15.8647 16.323 16.2641C16.619 16.6634 16.5353 17.227 16.1359 17.523C14.969 18.388 13.542 18.9 12 18.9C10.458 18.9 9.03096 18.388 7.86406 17.523C7.46475 17.227 7.38098 16.6634 7.67697 16.2641ZM16.8 10.2C16.8 11.1941 16.2627 12 15.6 12C14.9373 12 14.4 11.1941 14.4 10.2C14.4 9.20589 14.9373 8.4 15.6 8.4C16.2627 8.4 16.8 9.20589 16.8 10.2ZM8.4 12C9.06274 12 9.6 11.1941 9.6 10.2C9.6 9.20589 9.06274 8.4 8.4 8.4C7.73726 8.4 7.2 9.20589 7.2 10.2C7.2 11.1941 7.73726 12 8.4 12Z" fill="#078CFE"/>
</svg>
