<svg width="48" height="48" viewBox="0 0 48 48" fill="none" xmlns="http://www.w3.org/2000/svg">
<circle opacity="0.05" cx="24" cy="24" r="24" fill="#2850FF"/>
<path fill-rule="evenodd" clip-rule="evenodd" d="M17.3301 20.9541C17.3301 17.2059 20.4395 13.8701 24.2751 13.8701C28.1107 13.8701 31.2201 17.2059 31.2201 20.9541C31.2201 24.6728 29.0035 28.7151 25.5451 30.2669C24.7389 30.6286 23.8113 30.6286 23.0051 30.2669C19.5467 28.7151 17.3301 24.6728 17.3301 20.9541ZM24.2751 22.2042C25.4258 22.2042 26.3586 21.2713 26.3586 20.1206C26.3586 18.97 25.4258 18.0371 24.2751 18.0371C23.1244 18.0371 22.1916 18.97 22.1916 20.1206C22.1916 21.2713 23.1244 22.2042 24.2751 22.2042Z" fill="#2850FF"/>
<path opacity="0.2" d="M24.4888 33.7436C27.4393 33.7436 29.8312 33.2653 29.8312 32.6752C29.8312 32.0851 27.4393 31.6067 24.4888 31.6067C21.5383 31.6067 19.1465 32.0851 19.1465 32.6752C19.1465 33.2653 21.5383 33.7436 24.4888 33.7436Z" fill="#5669FF"/>
</svg>
