<svg width="74" height="106" viewBox="0 0 74 106" fill="none" xmlns="http://www.w3.org/2000/svg">
<g opacity="0.25">
<path opacity="0.5" d="M34.884 72.9424C31.6741 62.054 30.1738 50.647 30.4477 39.2587C42.2685 41.0043 53.8018 44.6568 64.4551 50.0714C68.4357 52.0868 72.7514 55.0202 73.1281 59.5075C73.574 64.7478 67.9306 68.8914 62.7103 68.8697C57.4792 68.8429 52.7624 65.9481 48.3691 63.1518C49.4822 66.9706 50.6107 71.0101 49.6242 74.8841C48.6645 78.7575 44.7485 82.2038 40.9429 81.138C37.531 80.1903 35.8874 76.3761 34.8788 72.9534L34.884 72.9424Z" fill="#96C0FF"/>
<path opacity="0.8" d="M2.59211 76.7196C2.84663 74.5383 3.80922 72.5164 4.86791 70.6062C8.345 64.2056 12.7707 58.3433 17.9552 53.2229L19.194 53.9773C24.5339 61.1787 28.994 69.0178 32.4366 77.2703C33.9021 80.791 35.0068 85.3393 32.2358 87.9353C29.7774 90.2391 25.4659 89.3589 23.0376 86.9689C20.5931 84.5845 19.5454 81.1801 18.5844 77.9361C16.7723 79.9847 14.8963 82.0832 12.42 83.2748C9.95488 84.4716 6.71428 84.5596 4.63027 82.7301C2.95028 81.2765 2.35887 78.8843 2.60316 76.7248L2.59211 76.7196Z" fill="#96C0FF"/>
<path opacity="0.8" d="M62.9033 39.8816C61.044 40.1122 59.1708 39.7321 57.3747 39.2437C51.3536 37.6783 45.5932 35.2238 40.2867 31.9972L40.668 30.8231C45.5519 24.9843 51.1328 19.7486 57.2712 15.2738C59.8816 13.3595 63.4371 11.5475 66.157 13.2972C68.5759 14.853 68.7289 18.5636 67.2383 21.0429C65.7585 23.5272 63.1504 25.0747 60.6565 26.5181C62.7255 27.5944 64.843 28.7067 66.351 30.5049C67.8533 32.2873 68.5859 34.9301 67.489 37.0162C66.6264 38.6868 64.7626 39.6509 62.9247 39.8916L62.9033 39.8816Z" fill="#96C0FF"/>
</g>
</svg>
