<svg width="48" height="48" viewBox="0 0 48 48" fill="none" xmlns="http://www.w3.org/2000/svg">
<circle opacity="0.05" cx="24" cy="24" r="24" fill="#2850FF"/>
<path d="M32.2633 25.779V24.158C32.2633 23.4779 32.2633 22.8735 32.2528 22.3343H16.0632C16.0527 22.8735 16.0527 23.4779 16.0527 24.158V25.779C16.0527 28.8357 16.0527 30.3641 17.0023 31.3137C17.9519 32.2633 19.4803 32.2633 22.5369 32.2633H25.7791C28.8357 32.2633 30.3641 32.2633 31.3137 31.3137C32.2633 30.3641 32.2633 28.8357 32.2633 25.779Z" fill="#2850FF"/>
<path d="M20.7133 16.458C20.7133 16.1223 20.4411 15.8501 20.1054 15.8501C19.7696 15.8501 19.4975 16.1223 19.4975 16.458V17.738C18.3309 17.8314 17.565 18.0607 17.0023 18.6234C16.4397 19.186 16.2104 19.9519 16.117 21.1185H32.199C32.1056 19.9519 31.8763 19.186 31.3137 18.6234C30.751 18.0607 29.9851 17.8314 28.8185 17.738V16.458C28.8185 16.1223 28.5464 15.8501 28.2106 15.8501C27.8749 15.8501 27.6027 16.1223 27.6027 16.458V17.6842C27.0635 17.6738 26.4591 17.6738 25.7791 17.6738H22.5369C21.8569 17.6738 21.2525 17.6738 20.7133 17.6842V16.458Z" fill="#2850FF"/>
</svg>
