<svg width="28" height="28" viewBox="0 0 28 28" fill="none" xmlns="http://www.w3.org/2000/svg">
<rect width="28" height="28" rx="14" fill="#F6F6F6"/>
<path d="M12.4 21.9992C15.9346 21.9992 18.8 19.1338 18.8 15.5992C18.8 12.0646 15.9346 9.19922 12.4 9.19922C8.86538 9.19922 6 12.0646 6 15.5992C6 16.5876 6.22406 17.5237 6.62416 18.3594C6.76167 18.6467 6.80996 18.9721 6.72764 19.2797L6.46521 20.2605C6.25836 21.0336 6.96561 21.7409 7.73868 21.534L8.71951 21.2716C9.02715 21.1893 9.35257 21.2375 9.6398 21.3751C10.4755 21.7752 11.4116 21.9992 12.4 21.9992Z" stroke="#454648" stroke-width="1.5"/>
<path d="M18.8 16.0015C18.8532 15.9793 18.9059 15.9563 18.9582 15.9324C19.2479 15.8001 19.5729 15.7506 19.8805 15.8329L20.2613 15.9348C21.0344 16.1416 21.7416 15.4344 21.5348 14.6613L21.4329 14.2805C21.3506 13.9729 21.4001 13.6478 21.5324 13.3582C21.8327 12.7008 22 11.9699 22 11.2C22 8.32812 19.6719 6 16.8 6C14.6382 6 12.7845 7.31919 12 9.19648" stroke="#454648" stroke-width="1.5"/>
<path d="M10.3969 15.6008C10.3969 16.0426 10.0387 16.4008 9.59687 16.4008C9.15505 16.4008 8.79688 16.0426 8.79688 15.6008C8.79688 15.159 9.15505 14.8008 9.59687 14.8008C10.0387 14.8008 10.3969 15.159 10.3969 15.6008Z" fill="#454648"/>
<path d="M13.1969 15.6008C13.1969 16.0426 12.8387 16.4008 12.3969 16.4008C11.955 16.4008 11.5969 16.0426 11.5969 15.6008C11.5969 15.159 11.955 14.8008 12.3969 14.8008C12.8387 14.8008 13.1969 15.159 13.1969 15.6008Z" fill="#454648"/>
<path d="M15.9969 15.6008C15.9969 16.0426 15.6387 16.4008 15.1969 16.4008C14.755 16.4008 14.3969 16.0426 14.3969 15.6008C14.3969 15.159 14.755 14.8008 15.1969 14.8008C15.6387 14.8008 15.9969 15.159 15.9969 15.6008Z" fill="#454648"/>
</svg>
