<svg width="24" height="24" viewBox="0 0 24 24" fill="none" xmlns="http://www.w3.org/2000/svg">
<path d="M10.0001 13.5999C11.3256 13.5999 12.4001 14.6744 12.4001 15.9999C12.4001 17.3254 11.3256 18.3999 10.0001 18.3999C8.67461 18.3999 7.6001 17.3254 7.6001 15.9999C7.6001 14.6744 8.67461 13.5999 10.0001 13.5999Z" stroke="#929394" stroke-width="1.5"/>
<path d="M13.9999 5.59988C12.6744 5.59988 11.5999 6.6744 11.5999 7.99988C11.5999 9.32537 12.6744 10.3999 13.9999 10.3999C15.3254 10.3999 16.3999 9.32537 16.3999 7.99988C16.3999 6.6744 15.3254 5.59988 13.9999 5.59988Z" stroke="#929394" stroke-width="1.5"/>
<path d="M12.7998 16L19.9998 16" stroke="#929394" stroke-width="1.5" stroke-linecap="round"/>
<path d="M11.2 8L4 7.9668" stroke="#929394" stroke-width="1.5" stroke-linecap="round"/>
<path d="M4 16L7.2 16" stroke="#929394" stroke-width="1.5" stroke-linecap="round"/>
<path d="M19.9998 8L16.7998 8" stroke="#929394" stroke-width="1.5" stroke-linecap="round"/>
</svg>
