<svg width="28" height="28" viewBox="0 0 28 28" fill="none" xmlns="http://www.w3.org/2000/svg">
<mask id="mask0_741_12128" style="mask-type:alpha" maskUnits="userSpaceOnUse" x="0" y="0" width="28" height="28">
<rect x="0.714844" y="0.712891" width="26.5714" height="26.5714" fill="#D9D9D9"/>
</mask>
<g mask="url(#mask0_741_12128)">
<path d="M14.0001 26.1775C20.7262 26.1775 26.1787 20.7249 26.1787 13.9989C26.1787 7.27284 20.7262 1.82031 14.0001 1.82031C7.2741 1.82031 1.82157 7.27284 1.82157 13.9989C1.82157 15.9471 2.27901 17.7884 3.09235 19.4214C3.30849 19.8553 3.38044 20.3513 3.25513 20.8196L2.52977 23.5306C2.21488 24.7075 3.29154 25.7841 4.4684 25.4693L7.17939 24.7439C7.64771 24.6186 8.14372 24.6905 8.57767 24.9067C10.2106 25.72 12.052 26.1775 14.0001 26.1775Z" fill="white"/>
<path d="M12.7827 13.9991C12.7827 14.6717 13.328 15.217 14.0006 15.217C14.6732 15.217 15.2184 14.6717 15.2184 13.9991C15.2184 13.3265 14.6732 12.7812 14.0006 12.7812C13.328 12.7812 12.7827 13.3265 12.7827 13.9991Z" fill="#078CFE"/>
<path d="M7.91127 13.9991C7.91127 14.6717 8.45653 15.217 9.12913 15.217C9.80173 15.217 10.347 14.6717 10.347 13.9991C10.347 13.3265 9.80173 12.7812 9.12913 12.7812C8.45653 12.7812 7.91127 13.3265 7.91127 13.9991Z" fill="#078CFE"/>
<path d="M17.6541 13.9991C17.6541 14.6717 18.1994 15.217 18.872 15.217C19.5446 15.217 20.0898 14.6717 20.0898 13.9991C20.0898 13.3265 19.5446 12.7812 18.872 12.7812C18.1994 12.7812 17.6541 13.3265 17.6541 13.9991Z" fill="#078CFE"/>
</g>
</svg>
