<svg width="32" height="32" viewBox="0 0 32 32" fill="none" xmlns="http://www.w3.org/2000/svg">
<path d="M22.3999 11.7334C22.3999 12.9117 21.4447 13.8668 20.2665 13.8668C19.0883 13.8668 18.1332 12.9117 18.1332 11.7334C18.1332 10.5552 19.0883 9.60011 20.2665 9.60011C21.4447 9.60011 22.3999 10.5552 22.3999 11.7334Z" fill="#A5A5A5"/>
<path fill-rule="evenodd" clip-rule="evenodd" d="M16.0611 4.53345H15.9387C13.4764 4.53343 11.5467 4.53342 10.0412 4.73584C8.5001 4.94303 7.28408 5.3754 6.32962 6.32986C5.37515 7.28432 4.94279 8.50035 4.7356 10.0414C4.53318 11.547 4.53319 13.4766 4.5332 15.9389V16.0613C4.53319 18.5236 4.53318 20.4532 4.7356 21.9588C4.94279 23.4999 5.37515 24.7159 6.32962 25.6704C7.28408 26.6248 8.5001 27.0572 10.0412 27.2644C11.5467 27.4668 13.4764 27.4668 15.9387 27.4668H16.0611C18.5234 27.4668 20.453 27.4668 21.9586 27.2644C23.4996 27.0572 24.7157 26.6248 25.6701 25.6704C26.6246 24.7159 27.057 23.4999 27.2641 21.9588C27.4666 20.4532 27.4666 18.5236 27.4665 16.0613V15.9389C27.4666 13.4766 27.4666 11.547 27.2641 10.0414C27.057 8.50035 26.6246 7.28432 25.6701 6.32986C24.7157 5.3754 23.4996 4.94303 21.9586 4.73584C20.453 4.53342 18.5233 4.53343 16.0611 4.53345ZM7.46099 7.46123C8.06862 6.8536 8.89072 6.50491 10.2544 6.32158C11.641 6.13515 13.4631 6.13345 15.9999 6.13345C18.5366 6.13345 20.3587 6.13515 21.7454 6.32158C23.109 6.50491 23.9311 6.8536 24.5388 7.46123C25.1464 8.06886 25.4951 8.89097 25.6784 10.2546C25.8648 11.6412 25.8665 13.4633 25.8665 16.0001C25.8665 16.4804 25.8665 16.935 25.8651 17.3659L25.6282 17.3331C22.5949 16.9131 19.8191 18.49 18.4056 20.8669C16.5822 16.2536 11.7635 13.1074 6.37932 13.8805L6.1385 13.9152C6.15062 12.416 6.19046 11.228 6.32133 10.2546C6.50467 8.89097 6.85335 8.06886 7.46099 7.46123Z" fill="#A5A5A5"/>
</svg>
