<svg width="22" height="22" viewBox="0 0 22 22" fill="none" xmlns="http://www.w3.org/2000/svg">
<path fill-rule="evenodd" clip-rule="evenodd" d="M1.61091 1.61091C0 3.22183 0 5.81455 0 11C0 16.1854 0 18.7782 1.61091 20.3891C3.22183 22 5.81455 22 11 22C16.1854 22 18.7782 22 20.3891 20.3891C22 18.7782 22 16.1854 22 11C22 5.81455 22 3.22183 20.3891 1.61091C18.7782 0 16.1854 0 11 0C5.81455 0 3.22183 0 1.61091 1.61091ZM15.4 8.8C16.615 8.8 17.6 7.81503 17.6 6.6C17.6 5.38497 16.615 4.4 15.4 4.4C14.185 4.4 13.2 5.38497 13.2 6.6C13.2 7.81503 14.185 8.8 15.4 8.8ZM4.75301 12.2141C5.43952 11.5765 6.51191 11.6123 7.15437 12.2943L10.0666 15.3856C10.946 16.3191 12.3856 16.4449 13.4136 15.678C14.088 15.1749 15.0271 15.2321 15.6355 15.8133L18.1301 18.1965C18.4596 18.5113 18.9818 18.4993 19.2965 18.1699C19.6113 17.8404 19.5994 17.3182 19.2699 17.0035L16.7753 14.6203C15.5846 13.4828 13.7468 13.3708 12.4269 14.3555C12.0709 14.6211 11.5722 14.5776 11.2676 14.2542L8.35537 11.1629C7.09116 9.8209 4.98098 9.75047 3.63011 11.0052L2.73855 11.8333C2.40471 12.1433 2.38544 12.6653 2.69552 12.9992C3.0056 13.333 3.52761 13.3523 3.86145 13.0422L4.75301 12.2141Z" fill="#078CFE"/>
</svg>
