<svg width="24" height="11" viewBox="0 0 24 11" fill="none" xmlns="http://www.w3.org/2000/svg">
<path d="M5.44585 6.64334V4.80503H10.1651V8.90761C9.66027 9.55525 9.00504 10.0659 8.19938 10.4395C7.39881 10.8132 6.51412 11 5.54529 11C4.77532 11 4.04615 10.8555 3.35777 10.5666C2.66939 10.2776 2.08044 9.88655 1.59092 9.39334C1.10141 8.89515 0.713876 8.3048 0.428326 7.62228C0.142775 6.93976 0 6.21988 0 5.46264C0 4.44633 0.239658 3.52219 0.718975 2.69022C1.20339 1.85326 1.86883 1.19565 2.71528 0.717391C3.56173 0.23913 4.49997 0 5.52999 0C6.6416 0 7.63082 0.261549 8.49767 0.784647C9.36962 1.30276 9.94072 1.97034 10.211 2.78736L8.14583 3.75136C7.95717 3.28306 7.62318 2.90942 7.14386 2.63043C6.66964 2.34647 6.13168 2.20448 5.52999 2.20448C4.61215 2.20448 3.85748 2.51087 3.26598 3.12364C2.67449 3.73641 2.37874 4.51608 2.37874 5.46264C2.37874 6.4341 2.67704 7.23619 3.27363 7.86889C3.87023 8.50159 4.62745 8.81793 5.54529 8.81793C6.49372 8.81793 7.25604 8.58628 7.83224 8.12296V6.64334H5.44585Z" fill="#078CFE"/>
<path d="M12.5239 0.149457H14.8415V10.8655H12.5239V0.149457Z" fill="#078CFE"/>
<path d="M17.2845 0.149457H24V2.32405H19.602V4.55842H23.5181V6.73302H19.602V10.8655H17.2845V0.149457Z" fill="#078CFE"/>
</svg>
