<svg width="16" height="16" viewBox="0 0 16 16" fill="none" xmlns="http://www.w3.org/2000/svg">
<path fill-rule="evenodd" clip-rule="evenodd" d="M15.8706 7.30106L15.6872 9.24925C15.3851 12.4593 15.234 14.0644 14.2879 15.0322C13.3418 16 11.9239 16 9.08794 16H6.91206C4.07613 16 2.65817 16 1.71208 15.0322C0.765982 14.0644 0.614922 12.4593 0.312802 9.24924L0.129446 7.30105C-0.0145599 5.77096 -0.086563 5.00591 0.175188 4.68966C0.316783 4.51858 0.509326 4.41376 0.715189 4.39568C1.09575 4.36226 1.57366 4.90632 2.5295 5.99446C3.02381 6.55719 3.27097 6.83856 3.5467 6.88214C3.69947 6.90628 3.85514 6.88146 3.99621 6.81047C4.25081 6.68234 4.42056 6.3345 4.76006 5.63881L6.54955 1.97189C7.19108 0.657296 7.51184 0 8 0C8.48816 0 8.80892 0.657295 9.45045 1.97188L11.2399 5.63881C11.5794 6.33449 11.7492 6.68234 12.0038 6.81047C12.1449 6.88146 12.3005 6.90628 12.4533 6.88214C12.729 6.83856 12.9762 6.55719 13.4705 5.99446C14.4263 4.90632 14.9043 4.36226 15.2848 4.39568C15.4907 4.41376 15.6832 4.51858 15.8248 4.68966C16.0866 5.00591 16.0146 5.77096 15.8706 7.30106ZM5 12.8C5 12.4686 5.26863 12.2 5.6 12.2H10.4C10.7314 12.2 11 12.4686 11 12.8C11 13.1314 10.7314 13.4 10.4 13.4H5.6C5.26863 13.4 5 13.1314 5 12.8Z" fill="#696A6C"/>
</svg>
