<svg width="20" height="18" viewBox="0 0 20 18" fill="none" xmlns="http://www.w3.org/2000/svg">
<mask id="path-1-outside-1_1229_10344" maskUnits="userSpaceOnUse" x="-0.375" y="-0.125" width="20" height="18" fill="black">
<rect fill="white" x="-0.375" y="-0.125" width="20" height="18"/>
<path d="M9.9859 15.2347C8.56759 15.2347 7.15004 15.2377 5.73173 15.231C5.55227 15.2302 5.48033 15.2709 5.49699 15.4607C5.51668 15.6867 5.50607 15.9149 5.5144 16.1416C5.52198 16.348 5.66509 16.4241 5.84153 16.458C5.91953 16.473 6.00207 16.4723 6.08233 16.4723C7.75583 16.473 10.9438 16.4723 12.6173 16.4753C12.7786 16.4753 12.9603 16.4504 13.0421 16.6553C13.1428 16.9084 13.0088 17.1155 12.7385 17.1155C10.9378 17.1155 7.6218 17.1035 5.82109 17.1261C5.42278 17.1313 4.90331 16.7555 4.8238 16.296C4.79654 16.1378 4.77837 15.9804 4.77912 15.8185C4.78215 14.6811 4.77912 13.5445 4.78443 12.4071C4.78518 12.2618 4.75186 12.2256 4.5989 12.2113C4.04612 12.1608 3.54861 11.9356 3.04883 11.7051C2.66416 11.5274 2.38246 11.2261 2.04246 10.9979C1.91752 10.9143 1.85315 10.7764 1.7585 10.6657C0.973241 9.75806 0.587048 8.70882 0.627939 7.5112C0.649142 6.89581 0.847539 6.32638 1.0944 5.76598C1.32384 5.24475 1.68277 4.82295 2.07654 4.42901C2.36883 4.13676 2.70429 3.87012 3.07837 3.70893C3.95903 3.33082 4.86621 3.0235 5.8544 3.26529C5.9589 3.2909 6.05356 3.29768 6.11489 3.15908C6.24741 2.85779 6.48064 2.62656 6.68813 2.37423C7.04478 1.94112 7.48626 1.63607 7.97165 1.37997C8.44643 1.12915 8.95757 0.980766 9.48688 0.912223C10.438 0.787941 11.3436 0.980013 12.188 1.41161C12.6181 1.63155 12.9952 1.94112 13.3359 2.29288C13.5926 2.55801 13.7751 2.87211 13.9864 3.16737C14.0379 3.23968 14.0818 3.2924 14.1795 3.26604C14.6709 3.13573 15.1586 3.18695 15.6508 3.27508C16.1082 3.35718 16.5254 3.54699 16.951 3.71345C17.2085 3.81439 17.397 4.03207 17.631 4.17217C17.9657 4.37177 18.2035 4.67306 18.4359 4.96079C18.7441 5.34117 19.0183 5.77276 19.1493 6.24578C19.3938 7.13157 19.4756 8.02866 19.2144 8.94232C18.9213 9.96595 18.3367 10.7719 17.4818 11.385C16.8397 11.846 16.1264 12.1525 15.3252 12.2173C15.2078 12.2271 15.2222 12.2934 15.2222 12.3665C15.2222 12.6941 15.2222 13.0218 15.2222 13.3494C15.2222 14.1584 15.2139 14.9681 15.226 15.777C15.2321 16.1913 15.1177 16.5544 14.8406 16.8564C14.6997 17.0101 14.5127 17.1133 14.2916 17.114C13.6737 17.1163 13.055 17.1163 12.4371 17.114C12.2614 17.114 12.1304 16.998 12.1259 16.8195C12.1221 16.6658 12.1675 16.5363 12.3545 16.4964C12.4348 16.4791 12.5136 16.4745 12.5923 16.4745C13.0489 16.4715 13.5063 16.4723 13.9629 16.473C14.3264 16.4738 14.4983 16.3096 14.5006 15.9525C14.5013 15.7786 14.4877 15.6038 14.5021 15.4313C14.5157 15.2694 14.4582 15.2302 14.3014 15.231C12.9846 15.237 11.667 15.2347 10.3501 15.2347C10.229 15.2347 10.1086 15.2347 9.98742 15.2347H9.9859ZM5.49926 13.3517H5.50077C5.50077 13.6861 5.50607 14.0205 5.49775 14.355C5.49472 14.4808 5.53636 14.5131 5.65828 14.5109C6.08839 14.5049 6.5185 14.5049 6.94862 14.5124C7.07659 14.5147 7.12657 14.4838 7.12127 14.3467C7.11066 14.0665 7.11369 13.7848 7.11975 13.5038C7.12505 13.2417 7.28483 13.0587 7.49004 13.0647C7.70585 13.0707 7.8414 13.2432 7.84292 13.5129C7.84367 13.7938 7.84973 14.0748 7.84064 14.3557C7.83686 14.4838 7.88381 14.5131 8.00345 14.5116C8.46688 14.5056 8.93107 14.5034 9.3945 14.5131C9.54367 14.5162 9.57245 14.4619 9.56942 14.3279C9.5626 14.0273 9.56336 13.726 9.57775 13.4255C9.58987 13.1724 9.71632 13.0579 9.9382 13.0647C10.1449 13.0715 10.2578 13.1943 10.2638 13.439C10.2714 13.7464 10.2744 14.0544 10.2684 14.3617C10.2661 14.4762 10.3017 14.5124 10.416 14.5109C10.8931 14.5064 11.3701 14.5064 11.8472 14.5109C11.9608 14.5124 12.0002 14.4762 11.9986 14.3617C11.9933 14.0672 12.0153 13.772 11.9949 13.4797C11.979 13.2583 12.1622 13.0783 12.319 13.0647C12.5113 13.0481 12.6514 13.1604 12.7097 13.3908C12.7241 13.4481 12.7241 13.5099 12.7241 13.5694C12.7256 13.8368 12.7279 14.1041 12.7233 14.3715C12.721 14.4725 12.7483 14.5124 12.8589 14.5109C13.3564 14.5056 13.8531 14.5064 14.3506 14.5109C14.4597 14.5116 14.5051 14.4845 14.5036 14.3663C14.499 13.6906 14.5006 13.0157 14.5028 12.3401C14.5028 12.258 14.4831 12.2226 14.3915 12.2188C13.9235 12.1985 13.4896 12.0516 13.0656 11.8641C12.9709 11.8219 12.8892 11.7677 12.8248 11.6901C12.7263 11.5718 12.7271 11.4355 12.8119 11.3195C12.8945 11.2073 13.0012 11.1078 13.1686 11.1756C13.2738 11.2178 13.3829 11.2502 13.4889 11.2901C14.1431 11.5402 14.8224 11.6132 15.5031 11.4724C16.2369 11.3202 16.9003 11.0189 17.4599 10.4842C17.7696 10.1889 18.0157 9.862 18.2292 9.50497C18.417 9.19013 18.5344 8.85118 18.5987 8.48059C18.7502 7.61288 18.6836 6.7881 18.2603 6.00475C17.8105 5.17244 17.163 4.56911 16.2702 4.21585C15.7227 3.99892 15.1677 3.89875 14.5839 3.92812C14.3219 3.94093 14.3173 3.93942 14.3991 4.191C14.5202 4.56233 14.5611 4.94572 14.574 5.33137C14.5808 5.53324 14.4142 5.70648 14.2355 5.71552C14.0826 5.72305 13.9122 5.57165 13.8796 5.38937C13.8637 5.29748 13.8615 5.20333 13.8554 5.10993C13.8251 4.65573 13.7115 4.21585 13.5381 3.80233C13.3738 3.41066 13.1239 3.05288 12.8187 2.7546C12.3644 2.31096 11.8578 1.95694 11.224 1.77316C10.5765 1.58485 9.9435 1.5374 9.28394 1.66017C8.62287 1.78295 8.02844 2.05637 7.53548 2.49399C7.21289 2.78021 6.90697 3.09732 6.70857 3.50632C6.51547 3.90402 6.34585 4.29795 6.25726 4.73407C6.20501 4.99016 6.22545 5.24927 6.16109 5.50085C6.11338 5.68689 5.96648 5.7223 5.82184 5.70723C5.67191 5.69217 5.54469 5.61684 5.54697 5.42327C5.55378 4.9977 5.5038 4.5661 5.67948 4.15936C5.75596 3.98311 5.69993 3.92963 5.51365 3.92737C5.08278 3.92134 4.65797 3.91682 4.23846 4.05014C4.02794 4.11718 3.82728 4.20606 3.61752 4.27084C3.1609 4.41094 2.80576 4.72126 2.48469 5.03536C2.16362 5.34945 1.86148 5.70572 1.69489 6.14862C1.58736 6.4356 1.445 6.71504 1.40032 7.01633C1.31097 7.62719 1.30718 8.23806 1.51315 8.83536C1.62144 9.15096 1.74487 9.46957 1.92963 9.73621C2.37565 10.378 2.93903 10.8947 3.68189 11.2095C4.20514 11.431 4.74051 11.5394 5.30086 11.5311C5.82109 11.5229 6.31935 11.4001 6.79717 11.1929C6.98496 11.1116 7.17957 11.1907 7.26666 11.37C7.34389 11.5296 7.28407 11.7029 7.09173 11.797C6.63285 12.0222 6.1573 12.1992 5.63859 12.2151C5.51743 12.2188 5.49774 12.2603 5.50002 12.3672C5.50683 12.6949 5.50229 13.0225 5.50229 13.3502L5.49926 13.3517Z"/>
</mask>
<path d="M9.9859 15.2347C8.56759 15.2347 7.15004 15.2377 5.73173 15.231C5.55227 15.2302 5.48033 15.2709 5.49699 15.4607C5.51668 15.6867 5.50607 15.9149 5.5144 16.1416C5.52198 16.348 5.66509 16.4241 5.84153 16.458C5.91953 16.473 6.00207 16.4723 6.08233 16.4723C7.75583 16.473 10.9438 16.4723 12.6173 16.4753C12.7786 16.4753 12.9603 16.4504 13.0421 16.6553C13.1428 16.9084 13.0088 17.1155 12.7385 17.1155C10.9378 17.1155 7.6218 17.1035 5.82109 17.1261C5.42278 17.1313 4.90331 16.7555 4.8238 16.296C4.79654 16.1378 4.77837 15.9804 4.77912 15.8185C4.78215 14.6811 4.77912 13.5445 4.78443 12.4071C4.78518 12.2618 4.75186 12.2256 4.5989 12.2113C4.04612 12.1608 3.54861 11.9356 3.04883 11.7051C2.66416 11.5274 2.38246 11.2261 2.04246 10.9979C1.91752 10.9143 1.85315 10.7764 1.7585 10.6657C0.973241 9.75806 0.587048 8.70882 0.627939 7.5112C0.649142 6.89581 0.847539 6.32638 1.0944 5.76598C1.32384 5.24475 1.68277 4.82295 2.07654 4.42901C2.36883 4.13676 2.70429 3.87012 3.07837 3.70893C3.95903 3.33082 4.86621 3.0235 5.8544 3.26529C5.9589 3.2909 6.05356 3.29768 6.11489 3.15908C6.24741 2.85779 6.48064 2.62656 6.68813 2.37423C7.04478 1.94112 7.48626 1.63607 7.97165 1.37997C8.44643 1.12915 8.95757 0.980766 9.48688 0.912223C10.438 0.787941 11.3436 0.980013 12.188 1.41161C12.6181 1.63155 12.9952 1.94112 13.3359 2.29288C13.5926 2.55801 13.7751 2.87211 13.9864 3.16737C14.0379 3.23968 14.0818 3.2924 14.1795 3.26604C14.6709 3.13573 15.1586 3.18695 15.6508 3.27508C16.1082 3.35718 16.5254 3.54699 16.951 3.71345C17.2085 3.81439 17.397 4.03207 17.631 4.17217C17.9657 4.37177 18.2035 4.67306 18.4359 4.96079C18.7441 5.34117 19.0183 5.77276 19.1493 6.24578C19.3938 7.13157 19.4756 8.02866 19.2144 8.94232C18.9213 9.96595 18.3367 10.7719 17.4818 11.385C16.8397 11.846 16.1264 12.1525 15.3252 12.2173C15.2078 12.2271 15.2222 12.2934 15.2222 12.3665C15.2222 12.6941 15.2222 13.0218 15.2222 13.3494C15.2222 14.1584 15.2139 14.9681 15.226 15.777C15.2321 16.1913 15.1177 16.5544 14.8406 16.8564C14.6997 17.0101 14.5127 17.1133 14.2916 17.114C13.6737 17.1163 13.055 17.1163 12.4371 17.114C12.2614 17.114 12.1304 16.998 12.1259 16.8195C12.1221 16.6658 12.1675 16.5363 12.3545 16.4964C12.4348 16.4791 12.5136 16.4745 12.5923 16.4745C13.0489 16.4715 13.5063 16.4723 13.9629 16.473C14.3264 16.4738 14.4983 16.3096 14.5006 15.9525C14.5013 15.7786 14.4877 15.6038 14.5021 15.4313C14.5157 15.2694 14.4582 15.2302 14.3014 15.231C12.9846 15.237 11.667 15.2347 10.3501 15.2347C10.229 15.2347 10.1086 15.2347 9.98742 15.2347H9.9859ZM5.49926 13.3517H5.50077C5.50077 13.6861 5.50607 14.0205 5.49775 14.355C5.49472 14.4808 5.53636 14.5131 5.65828 14.5109C6.08839 14.5049 6.5185 14.5049 6.94862 14.5124C7.07659 14.5147 7.12657 14.4838 7.12127 14.3467C7.11066 14.0665 7.11369 13.7848 7.11975 13.5038C7.12505 13.2417 7.28483 13.0587 7.49004 13.0647C7.70585 13.0707 7.8414 13.2432 7.84292 13.5129C7.84367 13.7938 7.84973 14.0748 7.84064 14.3557C7.83686 14.4838 7.88381 14.5131 8.00345 14.5116C8.46688 14.5056 8.93107 14.5034 9.3945 14.5131C9.54367 14.5162 9.57245 14.4619 9.56942 14.3279C9.5626 14.0273 9.56336 13.726 9.57775 13.4255C9.58987 13.1724 9.71632 13.0579 9.9382 13.0647C10.1449 13.0715 10.2578 13.1943 10.2638 13.439C10.2714 13.7464 10.2744 14.0544 10.2684 14.3617C10.2661 14.4762 10.3017 14.5124 10.416 14.5109C10.8931 14.5064 11.3701 14.5064 11.8472 14.5109C11.9608 14.5124 12.0002 14.4762 11.9986 14.3617C11.9933 14.0672 12.0153 13.772 11.9949 13.4797C11.979 13.2583 12.1622 13.0783 12.319 13.0647C12.5113 13.0481 12.6514 13.1604 12.7097 13.3908C12.7241 13.4481 12.7241 13.5099 12.7241 13.5694C12.7256 13.8368 12.7279 14.1041 12.7233 14.3715C12.721 14.4725 12.7483 14.5124 12.8589 14.5109C13.3564 14.5056 13.8531 14.5064 14.3506 14.5109C14.4597 14.5116 14.5051 14.4845 14.5036 14.3663C14.499 13.6906 14.5006 13.0157 14.5028 12.3401C14.5028 12.258 14.4831 12.2226 14.3915 12.2188C13.9235 12.1985 13.4896 12.0516 13.0656 11.8641C12.9709 11.8219 12.8892 11.7677 12.8248 11.6901C12.7263 11.5718 12.7271 11.4355 12.8119 11.3195C12.8945 11.2073 13.0012 11.1078 13.1686 11.1756C13.2738 11.2178 13.3829 11.2502 13.4889 11.2901C14.1431 11.5402 14.8224 11.6132 15.5031 11.4724C16.2369 11.3202 16.9003 11.0189 17.4599 10.4842C17.7696 10.1889 18.0157 9.862 18.2292 9.50497C18.417 9.19013 18.5344 8.85118 18.5987 8.48059C18.7502 7.61288 18.6836 6.7881 18.2603 6.00475C17.8105 5.17244 17.163 4.56911 16.2702 4.21585C15.7227 3.99892 15.1677 3.89875 14.5839 3.92812C14.3219 3.94093 14.3173 3.93942 14.3991 4.191C14.5202 4.56233 14.5611 4.94572 14.574 5.33137C14.5808 5.53324 14.4142 5.70648 14.2355 5.71552C14.0826 5.72305 13.9122 5.57165 13.8796 5.38937C13.8637 5.29748 13.8615 5.20333 13.8554 5.10993C13.8251 4.65573 13.7115 4.21585 13.5381 3.80233C13.3738 3.41066 13.1239 3.05288 12.8187 2.7546C12.3644 2.31096 11.8578 1.95694 11.224 1.77316C10.5765 1.58485 9.9435 1.5374 9.28394 1.66017C8.62287 1.78295 8.02844 2.05637 7.53548 2.49399C7.21289 2.78021 6.90697 3.09732 6.70857 3.50632C6.51547 3.90402 6.34585 4.29795 6.25726 4.73407C6.20501 4.99016 6.22545 5.24927 6.16109 5.50085C6.11338 5.68689 5.96648 5.7223 5.82184 5.70723C5.67191 5.69217 5.54469 5.61684 5.54697 5.42327C5.55378 4.9977 5.5038 4.5661 5.67948 4.15936C5.75596 3.98311 5.69993 3.92963 5.51365 3.92737C5.08278 3.92134 4.65797 3.91682 4.23846 4.05014C4.02794 4.11718 3.82728 4.20606 3.61752 4.27084C3.1609 4.41094 2.80576 4.72126 2.48469 5.03536C2.16362 5.34945 1.86148 5.70572 1.69489 6.14862C1.58736 6.4356 1.445 6.71504 1.40032 7.01633C1.31097 7.62719 1.30718 8.23806 1.51315 8.83536C1.62144 9.15096 1.74487 9.46957 1.92963 9.73621C2.37565 10.378 2.93903 10.8947 3.68189 11.2095C4.20514 11.431 4.74051 11.5394 5.30086 11.5311C5.82109 11.5229 6.31935 11.4001 6.79717 11.1929C6.98496 11.1116 7.17957 11.1907 7.26666 11.37C7.34389 11.5296 7.28407 11.7029 7.09173 11.797C6.63285 12.0222 6.1573 12.1992 5.63859 12.2151C5.51743 12.2188 5.49774 12.2603 5.50002 12.3672C5.50683 12.6949 5.50229 13.0225 5.50229 13.3502L5.49926 13.3517Z" fill="#454648"/>
<path d="M9.9859 15.2347C8.56759 15.2347 7.15004 15.2377 5.73173 15.231C5.55227 15.2302 5.48033 15.2709 5.49699 15.4607C5.51668 15.6867 5.50607 15.9149 5.5144 16.1416C5.52198 16.348 5.66509 16.4241 5.84153 16.458C5.91953 16.473 6.00207 16.4723 6.08233 16.4723C7.75583 16.473 10.9438 16.4723 12.6173 16.4753C12.7786 16.4753 12.9603 16.4504 13.0421 16.6553C13.1428 16.9084 13.0088 17.1155 12.7385 17.1155C10.9378 17.1155 7.6218 17.1035 5.82109 17.1261C5.42278 17.1313 4.90331 16.7555 4.8238 16.296C4.79654 16.1378 4.77837 15.9804 4.77912 15.8185C4.78215 14.6811 4.77912 13.5445 4.78443 12.4071C4.78518 12.2618 4.75186 12.2256 4.5989 12.2113C4.04612 12.1608 3.54861 11.9356 3.04883 11.7051C2.66416 11.5274 2.38246 11.2261 2.04246 10.9979C1.91752 10.9143 1.85315 10.7764 1.7585 10.6657C0.973241 9.75806 0.587048 8.70882 0.627939 7.5112C0.649142 6.89581 0.847539 6.32638 1.0944 5.76598C1.32384 5.24475 1.68277 4.82295 2.07654 4.42901C2.36883 4.13676 2.70429 3.87012 3.07837 3.70893C3.95903 3.33082 4.86621 3.0235 5.8544 3.26529C5.9589 3.2909 6.05356 3.29768 6.11489 3.15908C6.24741 2.85779 6.48064 2.62656 6.68813 2.37423C7.04478 1.94112 7.48626 1.63607 7.97165 1.37997C8.44643 1.12915 8.95757 0.980766 9.48688 0.912223C10.438 0.787941 11.3436 0.980013 12.188 1.41161C12.6181 1.63155 12.9952 1.94112 13.3359 2.29288C13.5926 2.55801 13.7751 2.87211 13.9864 3.16737C14.0379 3.23968 14.0818 3.2924 14.1795 3.26604C14.6709 3.13573 15.1586 3.18695 15.6508 3.27508C16.1082 3.35718 16.5254 3.54699 16.951 3.71345C17.2085 3.81439 17.397 4.03207 17.631 4.17217C17.9657 4.37177 18.2035 4.67306 18.4359 4.96079C18.7441 5.34117 19.0183 5.77276 19.1493 6.24578C19.3938 7.13157 19.4756 8.02866 19.2144 8.94232C18.9213 9.96595 18.3367 10.7719 17.4818 11.385C16.8397 11.846 16.1264 12.1525 15.3252 12.2173C15.2078 12.2271 15.2222 12.2934 15.2222 12.3665C15.2222 12.6941 15.2222 13.0218 15.2222 13.3494C15.2222 14.1584 15.2139 14.9681 15.226 15.777C15.2321 16.1913 15.1177 16.5544 14.8406 16.8564C14.6997 17.0101 14.5127 17.1133 14.2916 17.114C13.6737 17.1163 13.055 17.1163 12.4371 17.114C12.2614 17.114 12.1304 16.998 12.1259 16.8195C12.1221 16.6658 12.1675 16.5363 12.3545 16.4964C12.4348 16.4791 12.5136 16.4745 12.5923 16.4745C13.0489 16.4715 13.5063 16.4723 13.9629 16.473C14.3264 16.4738 14.4983 16.3096 14.5006 15.9525C14.5013 15.7786 14.4877 15.6038 14.5021 15.4313C14.5157 15.2694 14.4582 15.2302 14.3014 15.231C12.9846 15.237 11.667 15.2347 10.3501 15.2347C10.229 15.2347 10.1086 15.2347 9.98742 15.2347H9.9859ZM5.49926 13.3517H5.50077C5.50077 13.6861 5.50607 14.0205 5.49775 14.355C5.49472 14.4808 5.53636 14.5131 5.65828 14.5109C6.08839 14.5049 6.5185 14.5049 6.94862 14.5124C7.07659 14.5147 7.12657 14.4838 7.12127 14.3467C7.11066 14.0665 7.11369 13.7848 7.11975 13.5038C7.12505 13.2417 7.28483 13.0587 7.49004 13.0647C7.70585 13.0707 7.8414 13.2432 7.84292 13.5129C7.84367 13.7938 7.84973 14.0748 7.84064 14.3557C7.83686 14.4838 7.88381 14.5131 8.00345 14.5116C8.46688 14.5056 8.93107 14.5034 9.3945 14.5131C9.54367 14.5162 9.57245 14.4619 9.56942 14.3279C9.5626 14.0273 9.56336 13.726 9.57775 13.4255C9.58987 13.1724 9.71632 13.0579 9.9382 13.0647C10.1449 13.0715 10.2578 13.1943 10.2638 13.439C10.2714 13.7464 10.2744 14.0544 10.2684 14.3617C10.2661 14.4762 10.3017 14.5124 10.416 14.5109C10.8931 14.5064 11.3701 14.5064 11.8472 14.5109C11.9608 14.5124 12.0002 14.4762 11.9986 14.3617C11.9933 14.0672 12.0153 13.772 11.9949 13.4797C11.979 13.2583 12.1622 13.0783 12.319 13.0647C12.5113 13.0481 12.6514 13.1604 12.7097 13.3908C12.7241 13.4481 12.7241 13.5099 12.7241 13.5694C12.7256 13.8368 12.7279 14.1041 12.7233 14.3715C12.721 14.4725 12.7483 14.5124 12.8589 14.5109C13.3564 14.5056 13.8531 14.5064 14.3506 14.5109C14.4597 14.5116 14.5051 14.4845 14.5036 14.3663C14.499 13.6906 14.5006 13.0157 14.5028 12.3401C14.5028 12.258 14.4831 12.2226 14.3915 12.2188C13.9235 12.1985 13.4896 12.0516 13.0656 11.8641C12.9709 11.8219 12.8892 11.7677 12.8248 11.6901C12.7263 11.5718 12.7271 11.4355 12.8119 11.3195C12.8945 11.2073 13.0012 11.1078 13.1686 11.1756C13.2738 11.2178 13.3829 11.2502 13.4889 11.2901C14.1431 11.5402 14.8224 11.6132 15.5031 11.4724C16.2369 11.3202 16.9003 11.0189 17.4599 10.4842C17.7696 10.1889 18.0157 9.862 18.2292 9.50497C18.417 9.19013 18.5344 8.85118 18.5987 8.48059C18.7502 7.61288 18.6836 6.7881 18.2603 6.00475C17.8105 5.17244 17.163 4.56911 16.2702 4.21585C15.7227 3.99892 15.1677 3.89875 14.5839 3.92812C14.3219 3.94093 14.3173 3.93942 14.3991 4.191C14.5202 4.56233 14.5611 4.94572 14.574 5.33137C14.5808 5.53324 14.4142 5.70648 14.2355 5.71552C14.0826 5.72305 13.9122 5.57165 13.8796 5.38937C13.8637 5.29748 13.8615 5.20333 13.8554 5.10993C13.8251 4.65573 13.7115 4.21585 13.5381 3.80233C13.3738 3.41066 13.1239 3.05288 12.8187 2.7546C12.3644 2.31096 11.8578 1.95694 11.224 1.77316C10.5765 1.58485 9.9435 1.5374 9.28394 1.66017C8.62287 1.78295 8.02844 2.05637 7.53548 2.49399C7.21289 2.78021 6.90697 3.09732 6.70857 3.50632C6.51547 3.90402 6.34585 4.29795 6.25726 4.73407C6.20501 4.99016 6.22545 5.24927 6.16109 5.50085C6.11338 5.68689 5.96648 5.7223 5.82184 5.70723C5.67191 5.69217 5.54469 5.61684 5.54697 5.42327C5.55378 4.9977 5.5038 4.5661 5.67948 4.15936C5.75596 3.98311 5.69993 3.92963 5.51365 3.92737C5.08278 3.92134 4.65797 3.91682 4.23846 4.05014C4.02794 4.11718 3.82728 4.20606 3.61752 4.27084C3.1609 4.41094 2.80576 4.72126 2.48469 5.03536C2.16362 5.34945 1.86148 5.70572 1.69489 6.14862C1.58736 6.4356 1.445 6.71504 1.40032 7.01633C1.31097 7.62719 1.30718 8.23806 1.51315 8.83536C1.62144 9.15096 1.74487 9.46957 1.92963 9.73621C2.37565 10.378 2.93903 10.8947 3.68189 11.2095C4.20514 11.431 4.74051 11.5394 5.30086 11.5311C5.82109 11.5229 6.31935 11.4001 6.79717 11.1929C6.98496 11.1116 7.17957 11.1907 7.26666 11.37C7.34389 11.5296 7.28407 11.7029 7.09173 11.797C6.63285 12.0222 6.1573 12.1992 5.63859 12.2151C5.51743 12.2188 5.49774 12.2603 5.50002 12.3672C5.50683 12.6949 5.50229 13.0225 5.50229 13.3502L5.49926 13.3517Z" stroke="#454648" stroke-width="0.4" mask="url(#path-1-outside-1_1229_10344)"/>
</svg>
