<svg width="12" height="14" viewBox="0 0 12 14" fill="none" xmlns="http://www.w3.org/2000/svg">
<path fill-rule="evenodd" clip-rule="evenodd" d="M11.5 6.41339V9.65909C11.5 11.6719 11.5 12.6782 11.0514 13.118C10.8374 13.3277 10.5674 13.4595 10.2797 13.4945C9.67643 13.5679 8.97199 12.9052 7.56312 11.5798C6.94036 10.9939 6.62898 10.701 6.26872 10.6238C6.09132 10.5858 5.90868 10.5858 5.73128 10.6238C5.37102 10.701 5.05963 10.9939 4.43687 11.5798C3.028 12.9052 2.32357 13.5679 1.72034 13.4945C1.43265 13.4595 1.16258 13.3277 0.94862 13.118C0.5 12.6782 0.5 11.6719 0.5 9.65909V6.41339C0.5 3.62579 0.5 2.23199 1.30546 1.366C2.11091 0.5 3.40728 0.5 6 0.5C8.59272 0.5 9.88909 0.5 10.6945 1.366C11.5 2.23199 11.5 3.62579 11.5 6.41339ZM3.70833 3.1C3.70833 2.83076 3.91354 2.6125 4.16667 2.6125H7.83333C8.08646 2.6125 8.29167 2.83076 8.29167 3.1C8.29167 3.36924 8.08646 3.5875 7.83333 3.5875H4.16667C3.91354 3.5875 3.70833 3.36924 3.70833 3.1Z" fill="#929394"/>
</svg>
