<svg width="19" height="19" viewBox="0 0 19 19" fill="none" xmlns="http://www.w3.org/2000/svg">
<path d="M8.43247 10.9482L8.42824 10.9395C8.95271 10.6841 9.47717 10.4286 10.0017 10.1732C11.925 9.23623 13.8486 8.29917 15.7739 7.36649C15.8012 7.35319 15.8296 7.33784 15.8592 7.32181C16.0034 7.24382 16.1771 7.14986 16.4008 7.19871C16.4009 7.19872 16.4009 7.19873 16.401 7.19874L8.43247 10.9482ZM8.43247 10.9482L8.42882 10.95C5.89624 12.1832 3.36311 13.4166 0.831147 14.6511C0.822361 14.6554 0.812352 14.6598 0.801474 14.6646C0.74717 14.6887 0.671225 14.7223 0.617764 14.7942C0.444185 15.0263 0.346623 15.2754 0.330653 15.5418C0.314715 15.8077 0.380348 16.0855 0.524545 16.3754C0.524554 16.3754 0.524564 16.3754 0.524574 16.3754L8.43247 10.9482ZM6.79171 15.037L6.79176 15.0371C6.8314 15.1226 6.85509 15.1384 6.86406 15.1415C6.87252 15.1445 6.89347 15.1454 6.96142 15.1119L6.96163 15.1118C9.59677 13.8233 12.2346 12.5388 14.8739 11.259C14.9361 11.2288 14.9433 11.2104 14.9449 11.2037C14.9479 11.1908 14.9451 11.1614 14.9087 11.0887L14.9087 11.0886C14.6217 10.5142 14.3371 9.93778 14.0668 9.35411C14.047 9.31159 14.0305 9.28128 14.0153 9.25998C14.0001 9.23882 13.9893 9.23071 13.9824 9.22736L6.79171 15.037ZM6.79171 15.037C6.51678 14.4466 6.2296 13.8622 5.937 13.2817C5.89705 13.2024 5.89506 13.1716 5.89849 13.1586C5.90068 13.1504 5.91049 13.1311 5.97837 13.0984C7.00897 12.6026 8.03706 12.1014 9.06494 11.6004C9.33613 11.4682 9.6073 11.336 9.87851 11.2039L9.87881 11.2045M6.79171 15.037L9.87881 11.2045M9.87881 11.2045L9.94624 11.1717M9.87881 11.2045L9.94624 11.1717M9.94624 11.1717C10.2438 11.0268 10.5415 10.8821 10.8392 10.7373C11.8513 10.2451 12.8637 9.75283 13.873 9.25426L9.94624 11.1717ZM3.71205 16.6888L3.71213 16.6887C3.85709 16.6183 4.00203 16.5475 4.14707 16.4767C4.49978 16.3044 4.85309 16.1318 5.20871 15.9646C5.26284 15.939 5.26743 15.9249 5.26808 15.9226C5.26987 15.9163 5.27108 15.8936 5.23819 15.8274C4.94047 15.2309 4.64864 14.6316 4.36352 14.0298L4.36349 14.0297C4.33044 13.9598 4.31039 13.9407 4.29994 13.9356C4.29612 13.9338 4.28044 13.9272 4.22319 13.9554M3.71205 16.6888L4.22319 13.9554M3.71205 16.6888C3.55203 16.7667 3.39213 16.8446 3.23227 16.9225C2.91265 17.0783 2.59319 17.2341 2.27317 17.3894L2.27308 17.3894C2.17661 17.4364 2.08639 17.4414 2.00859 17.413C1.93022 17.3843 1.8548 17.3181 1.79595 17.2046M3.71205 16.6888L1.32872 15.3694M4.22319 13.9554C3.66133 14.2326 3.09781 14.5069 2.53445 14.7811M4.22319 13.9554L2.53445 14.7811M1.32872 15.3694L1.32855 15.3695C1.22146 15.4216 1.15507 15.4998 1.12717 15.5913C1.09901 15.6838 1.10747 15.7987 1.16742 15.9274L1.16743 15.9274C1.36746 16.3572 1.57772 16.7835 1.79595 17.2046M1.32872 15.3694C1.73009 15.1727 2.13223 14.9769 2.53445 14.7811M1.32872 15.3694L2.53445 14.7811M1.79595 17.2046L1.72936 17.2391L1.79594 17.2046C1.79595 17.2046 1.79595 17.2046 1.79595 17.2046ZM15.156 9.87582L15.1561 9.87594C15.1808 9.92678 15.205 9.97738 15.2291 10.0277C15.2836 10.1415 15.3373 10.2539 15.3952 10.3644L15.3952 10.3645C15.4212 10.4141 15.4429 10.469 15.4626 10.5218C15.4686 10.538 15.4745 10.554 15.4802 10.5697C15.4936 10.6063 15.5064 10.6414 15.5203 10.6755C15.5618 10.7769 15.6005 10.8352 15.6459 10.8559L15.646 10.8559C15.6905 10.8762 15.7406 10.8637 15.8217 10.8151C15.8409 10.8036 15.8605 10.7909 15.8813 10.7774L15.8885 10.7727C15.9068 10.7608 15.9259 10.7483 15.9453 10.7363C15.9887 10.7094 16.0375 10.6822 16.0897 10.6655M15.156 9.87582L16.0899 10.6655C16.0898 10.6655 16.0898 10.6655 16.0897 10.6655M15.156 9.87582C15.1098 9.78122 15.0638 9.68594 15.0177 9.5904C14.9158 9.37919 14.8133 9.16672 14.7056 8.95758L14.6389 8.99193L14.7056 8.95765C14.6752 8.8984 14.6789 8.88056 14.6797 8.87796C14.6805 8.87559 14.6859 8.86293 14.7351 8.83671L14.7379 8.83524C14.8665 8.76703 14.9567 8.71918 15.0273 8.69231C15.0982 8.66534 15.1328 8.66626 15.1564 8.67576C15.1828 8.6864 15.2154 8.7155 15.2629 8.7931C15.3096 8.86926 15.3626 8.97784 15.4365 9.12959C15.4903 9.24039 15.544 9.3514 15.5977 9.46251C15.768 9.81477 15.9387 10.1679 16.115 10.5176M15.156 9.87582L16.115 10.5176M16.0897 10.6655C16.1454 10.6475 16.1488 10.6316 16.1494 10.6291M16.0897 10.6655L16.1494 10.6291M5.71741 14.583C5.74831 14.6469 5.77908 14.7111 5.80992 14.7755C5.91155 14.9876 6.01387 15.2011 6.12369 15.4102L6.19008 15.3753M5.71741 14.583L6.19008 15.3753M5.71741 14.583L5.71484 14.5842L5.682 14.5168C5.63888 14.4283 5.59518 14.3396 5.55139 14.2508C5.44143 14.0277 5.33087 13.8035 5.22742 13.5764L5.22742 13.5764C5.19648 13.5085 5.17574 13.5026 5.17314 13.502C5.16608 13.5004 5.14771 13.5016 5.09855 13.529C5.08588 13.5361 5.07635 13.5411 5.06796 13.5455C5.05782 13.5508 5.04934 13.5552 5.03898 13.5614C5.02317 13.5709 5.01737 13.5768 5.01517 13.5798C5.01513 13.5799 5.01509 13.5799 5.01505 13.58C5.01443 13.5808 5.01292 13.5828 5.01347 13.5908C5.01423 13.6019 5.01911 13.6227 5.03657 13.6573L5.03661 13.6574C5.34495 14.2716 5.64831 14.8891 5.94285 15.5103C5.96017 15.5468 5.97372 15.5637 5.98184 15.5711C5.98549 15.5743 5.9874 15.5751 5.98755 15.5752C5.98755 15.5752 5.98755 15.5752 5.98756 15.5752C5.98757 15.5752 5.98761 15.5752 5.98818 15.5752C5.99089 15.5753 5.9982 15.5743 6.01551 15.567C6.02377 15.5634 6.03249 15.5593 6.04329 15.5542C6.0536 15.5493 6.06565 15.5436 6.07833 15.5382L6.07878 15.538C6.10305 15.5278 6.12026 15.5194 6.13258 15.5112C6.14452 15.5033 6.14785 15.4982 6.14883 15.4963L6.14883 15.4962C6.1492 15.4956 6.15886 15.4774 6.12363 15.4101L6.19008 15.3753M5.71741 14.583L6.19008 15.3753M16.115 10.5176C16.1493 10.5861 16.1523 10.6167 16.1494 10.629M16.115 10.5176L16.1494 10.629M16.1494 10.629L16.1494 10.6291M16.1494 10.629L16.1494 10.6291M17.2957 9.92523L17.2958 9.92541C17.3329 9.99807 17.3373 10.0283 17.3345 10.0422C17.3334 10.0479 17.328 10.0663 17.2652 10.0961L17.2515 10.1027C17.1394 10.156 17.0606 10.1935 16.9987 10.2143C16.9347 10.2359 16.9047 10.2338 16.8847 10.2254C16.8621 10.2159 16.8334 10.1904 16.7907 10.1207C16.7488 10.0522 16.7012 9.95458 16.6343 9.81722L16.6338 9.81618L16.6333 9.81514L16.6328 9.81409L16.6323 9.81305L16.6318 9.81201L16.6313 9.81097L16.6308 9.80992L16.6303 9.80888L16.6298 9.80784L16.6293 9.8068L16.6288 9.80575L16.6282 9.80471L16.6277 9.80367L16.6272 9.80263L16.6267 9.80158L16.6262 9.80054L16.6257 9.7995L16.6252 9.79845L16.6247 9.79741L16.6242 9.79637L16.6237 9.79533L16.6232 9.79428L16.6227 9.79324L16.6222 9.7922L16.6216 9.79115L16.6211 9.79011L16.6206 9.78907L16.6201 9.78803L16.6196 9.78698L16.6191 9.78594L16.6186 9.7849L16.6181 9.78385L16.6176 9.78281L16.6171 9.78177L16.6166 9.78073L16.6161 9.77968L16.6156 9.77864L16.615 9.7776L16.6145 9.77655L16.614 9.77551L16.6135 9.77447L16.613 9.77342L16.6125 9.77238L16.612 9.77134L16.6115 9.77029L16.611 9.76925L16.6105 9.76821L16.61 9.76717L16.6095 9.76612L16.6089 9.76508L16.6084 9.76404L16.6079 9.76299L16.6074 9.76195L16.6069 9.76091L16.6064 9.75986L16.6059 9.75882L16.6054 9.75778L16.6049 9.75673L16.6044 9.75569L16.6039 9.75465L16.6034 9.7536L16.6029 9.75256L16.6023 9.75152L16.6018 9.75047L16.6013 9.74943L16.6008 9.74839L16.6003 9.74734L16.5998 9.7463L16.5993 9.74526L16.5988 9.74421L16.5983 9.74317L16.5978 9.74213L16.5973 9.74108L16.5968 9.74004L16.5962 9.739L16.5957 9.73795L16.5952 9.73691L16.5947 9.73587L16.5942 9.73482L16.5937 9.73378L16.5932 9.73274L16.5927 9.73169L16.5922 9.73065L16.5917 9.72961L16.5912 9.72856L16.5907 9.72752L16.5901 9.72647L16.5896 9.72543L16.5891 9.72439L16.5886 9.72334L16.5881 9.7223L16.5876 9.72126L16.5871 9.72021L16.5866 9.71917L16.5861 9.71813L16.5856 9.71708L16.5851 9.71604L16.5846 9.715L16.5841 9.71395L16.5835 9.71291L16.583 9.71186L16.5825 9.71082L16.582 9.70978L16.5815 9.70873L16.581 9.70769L16.5805 9.70665L16.58 9.7056L16.5795 9.70456L16.579 9.70351L16.5785 9.70247L16.578 9.70143L16.5774 9.70038L16.5769 9.69934L16.5764 9.6983L16.5759 9.69725L16.5754 9.69621L16.5749 9.69516L16.5744 9.69412L16.5739 9.69308L16.5734 9.69203L16.5729 9.69099L16.5724 9.68995L16.5719 9.6889L16.5713 9.68786L16.5708 9.68681L16.5703 9.68577L16.5698 9.68473L16.5693 9.68368L16.5688 9.68264L16.5683 9.68159L16.5678 9.68055L16.5673 9.67951L16.5668 9.67846L16.5663 9.67742L16.5658 9.67637L16.5652 9.67533L16.5647 9.67429L16.5642 9.67324L16.5637 9.6722L16.5632 9.67115L16.5627 9.67011L16.5622 9.66907L16.5617 9.66802L16.5612 9.66698L16.5607 9.66594L16.5602 9.66489L16.5597 9.66385L16.5591 9.6628L16.5586 9.66176L16.5581 9.66071L16.5576 9.65967L16.5571 9.65863L16.5566 9.65758L16.5561 9.65654L16.5556 9.65549L16.5551 9.65445L16.5546 9.65341L16.5541 9.65236L16.5536 9.65132L16.553 9.65027L16.5525 9.64923L16.552 9.64819L16.5515 9.64714L16.551 9.6461L16.5505 9.64505L16.55 9.64401L16.5495 9.64297L16.549 9.64192L16.5485 9.64088L16.548 9.63983L16.5475 9.63879L16.5469 9.63774L16.5464 9.6367L16.5459 9.63566L16.5454 9.63461L16.5449 9.63357L16.5444 9.63252L16.5439 9.63148L16.5434 9.63044L16.5429 9.62939L16.5424 9.62835L16.5419 9.6273L16.5414 9.62626L16.5408 9.62521L16.5403 9.62417L16.5398 9.62313L16.5393 9.62208L16.5388 9.62104L16.5383 9.61999L16.5378 9.61895L16.5373 9.61791L16.5368 9.61686L16.5363 9.61582L16.5358 9.61477L16.5352 9.61373L16.5347 9.61268L16.5342 9.61164L16.5337 9.6106L16.5332 9.60955L16.5327 9.60851L16.5322 9.60746L16.5317 9.60642L16.5312 9.60537L16.5307 9.60433L16.5302 9.60329L16.5297 9.60224L16.5291 9.6012L16.5286 9.60015L16.5281 9.59911L16.5276 9.59806L16.5271 9.59702L16.5266 9.59598L16.5261 9.59493L16.5256 9.59389L16.5251 9.59284L16.5246 9.5918L16.5241 9.59075L16.5236 9.58971L16.523 9.58867L16.5225 9.58762L16.522 9.58658L16.5215 9.58553L16.521 9.58449L16.5205 9.58344L16.52 9.5824L16.5195 9.58136L16.519 9.58031L16.5185 9.57927L16.518 9.57822L16.5175 9.57718L16.5169 9.57613L16.5164 9.57509L16.5159 9.57405L16.5154 9.573L16.5149 9.57196L16.5144 9.57091L16.5139 9.56987L16.5134 9.56882L16.5129 9.56778L16.5124 9.56674L16.5119 9.56569L16.5113 9.56465L16.5108 9.5636L16.5103 9.56256L16.5098 9.56151L16.5093 9.56047L16.5088 9.55942L16.5083 9.55838L16.5078 9.55734L16.5073 9.55629L16.5068 9.55525L16.5063 9.5542L16.5058 9.55316L16.5052 9.55211L16.5047 9.55107L16.5042 9.55003L16.5037 9.54898L16.5032 9.54794L16.5027 9.54689L16.5022 9.54585L16.5017 9.5448L16.5012 9.54376L16.5007 9.54272L16.5002 9.54167L16.4997 9.54063L16.4991 9.53958L16.4986 9.53854L16.4981 9.53749L16.4976 9.53645L16.4971 9.5354L16.4966 9.53436L16.4961 9.53332L16.4956 9.53227L16.4951 9.53123L16.4946 9.53018L16.4941 9.52914L16.4936 9.52809L16.493 9.52705L16.4925 9.52601L16.492 9.52496L16.4915 9.52392L16.491 9.52287L16.4905 9.52183L16.49 9.52078L16.4895 9.51974L16.489 9.5187L16.4885 9.51765L16.488 9.51661L16.4874 9.51556L16.4869 9.51452L16.4864 9.51347L16.4859 9.51243L16.4854 9.51139L16.4849 9.51034L16.4844 9.5093L16.4839 9.50825L16.4834 9.50721L16.4829 9.50616L16.4824 9.50512L16.4819 9.50408L16.4813 9.50303L16.4808 9.50199L16.4803 9.50094L16.4798 9.4999L16.4793 9.49885L16.4788 9.49781L16.4783 9.49677L16.4778 9.49572L16.4773 9.49468L16.4768 9.49363L16.4763 9.49259L16.4758 9.49154L16.4752 9.4905L16.4747 9.48946L16.4742 9.48841L16.4737 9.48737L16.4732 9.48632L16.4727 9.48528L16.4722 9.48423L16.4717 9.48319L16.4712 9.48215L16.4707 9.4811L16.4702 9.48006L16.4697 9.47901L16.4691 9.47797L16.4686 9.47692L16.4681 9.47588L16.4676 9.47484L16.4671 9.47379L16.4666 9.47275L16.4661 9.4717L16.4656 9.47066L16.4651 9.46962L16.4646 9.46857L16.4641 9.46753L16.4636 9.46648L16.463 9.46544L16.4625 9.46439L16.462 9.46335L16.4615 9.46231L16.461 9.46126L16.4605 9.46022L16.46 9.45917L16.4595 9.45813L16.459 9.45709L16.4585 9.45604L16.458 9.455L16.4574 9.45395L16.4569 9.45291L16.4564 9.45187L16.4559 9.45082L16.4554 9.44978L16.4549 9.44873L16.4544 9.44769L16.4539 9.44664L16.4534 9.4456L16.4529 9.44456L16.4524 9.44351L16.4519 9.44247L16.4513 9.44142L16.4508 9.44038L16.4503 9.43934L16.4498 9.43829L16.4493 9.43725L16.4488 9.4362L16.4483 9.43516L16.4478 9.43412L16.4473 9.43307L16.4468 9.43203L16.4463 9.43098L16.4458 9.42994L16.4452 9.4289L16.4447 9.42785L16.4442 9.42681L16.4437 9.42576L16.4432 9.42472L16.4427 9.42368L16.4422 9.42263L16.4417 9.42159L16.4412 9.42054L16.4407 9.4195L16.4402 9.41846L16.4397 9.41741L16.4391 9.41637L16.4386 9.41533L16.4381 9.41428L16.4376 9.41324L16.4371 9.41219L16.4366 9.41115L16.4361 9.41011L16.4356 9.40906L16.4351 9.40802L16.4346 9.40697L16.4341 9.40593L16.4336 9.40489L16.433 9.40384L16.4325 9.4028L16.432 9.40176L16.4315 9.40071L16.431 9.39967L16.4305 9.39862L16.43 9.39758L16.4295 9.39654L16.429 9.39549L16.4285 9.39445L16.428 9.39341L16.4275 9.39236L16.4269 9.39132L16.4264 9.39027L16.4259 9.38923L16.4254 9.38819L16.4249 9.38714L16.4244 9.3861L16.4239 9.38506L16.4234 9.38401L16.4229 9.38297L16.4224 9.38193L16.4219 9.38088L16.4214 9.37984L16.4209 9.37879L16.4203 9.37775L16.4198 9.37671L16.4193 9.37566L16.4188 9.37462L16.4183 9.37358L16.4178 9.37253L16.4173 9.37149L16.4168 9.37045L16.4163 9.3694L16.4158 9.36836L16.4153 9.36732L16.4148 9.36627L16.4142 9.36523L16.4137 9.36418L16.4132 9.36314L16.4127 9.3621L16.4122 9.36105L16.4117 9.36001L16.4112 9.35897L16.4107 9.35792L16.4102 9.35688L16.4097 9.35584L16.4092 9.35479L16.4087 9.35375L16.4081 9.35271L16.4076 9.35166L16.4071 9.35062L16.4066 9.34958L16.4061 9.34853L16.4056 9.34749L16.4051 9.34645L16.4046 9.3454L16.4041 9.34436L16.4036 9.34332L16.4031 9.34227L16.4026 9.34123L16.4021 9.34019L16.4015 9.33914L16.401 9.3381L16.4005 9.33706L16.4 9.33602L16.3995 9.33497L16.399 9.33393L16.3985 9.33289L16.398 9.33184L16.3975 9.3308L16.397 9.32976L16.3965 9.32871L16.396 9.32767L16.3954 9.32663L16.3949 9.32558L16.3944 9.32454L16.3939 9.3235L16.3934 9.32245L16.3929 9.32141L16.3924 9.32037L16.3919 9.31933L16.3914 9.31828L16.3909 9.31724L16.3904 9.3162L16.3899 9.31515L16.3894 9.31411L16.3888 9.31307L16.3883 9.31203L16.3878 9.31098L16.3873 9.30994L16.3868 9.3089L16.3863 9.30785L16.3858 9.30681L16.3853 9.30577L16.3848 9.30473L16.3843 9.30368L16.3838 9.30264L16.3833 9.3016L16.3828 9.30055L16.3822 9.29951L16.3817 9.29847L16.3812 9.29743L16.3807 9.29638L16.3802 9.29534L16.3797 9.2943L16.3792 9.29326L16.3787 9.29221L16.3782 9.29117L16.3777 9.29013L16.3772 9.28908L16.3767 9.28804L16.3762 9.287L16.3756 9.28596L16.3751 9.28491L16.3746 9.28387L16.3745 9.28357C16.337 9.20633 16.2998 9.12879 16.2624 9.05111C16.1554 8.82854 16.0479 8.60491 15.9347 8.38449L15.868 8.41876L15.9347 8.38448C15.9027 8.3223 15.8991 8.2968 15.901 8.28565L15.901 8.2856C15.9015 8.28247 15.9042 8.26686 15.9564 8.23977L15.9646 8.23548C16.0822 8.17449 16.1646 8.13171 16.2292 8.10759C16.2951 8.08301 16.326 8.08447 16.3464 8.09273C16.3695 8.10212 16.3992 8.12813 16.4435 8.2004C16.4869 8.27128 16.5363 8.37244 16.6054 8.51447C16.6696 8.64616 16.7334 8.77827 16.7973 8.91053C16.9611 9.24925 17.1253 9.58894 17.2957 9.92523Z" fill="#454648" stroke="#454648" stroke-width="0.15"/>
<path d="M13.7856 6.72317C13.7894 6.57279 13.7109 6.48701 13.6072 6.43802C13.4346 6.35675 13.2585 6.42363 13.0961 6.49936M13.7856 6.72317L9.79737 0.2861C9.53075 0.389801 9.29648 0.559514 9.08951 0.750508C8.83691 0.983446 8.62233 1.24878 8.45119 1.55554L8.38569 1.519C8.38569 1.519 8.38569 1.519 8.38569 1.519C8.06735 2.08956 7.93932 2.70024 8.00452 3.33079L8.00453 3.33084C8.09647 4.21434 8.4979 4.942 9.23989 5.47506C9.74184 5.83565 10.2901 6.03614 10.9047 6.07005L10.9089 5.99516M13.7856 6.72317C13.7803 6.92116 13.655 6.98716 13.524 7.0411L13.7856 6.72317ZM13.0961 6.49936L13.0645 6.43135M13.0961 6.49936L13.0644 6.43139C13.0645 6.43137 13.0645 6.43136 13.0645 6.43135M13.0961 6.49936C12.9501 6.56726 12.8023 6.58454 12.6455 6.56189C12.1103 6.48534 11.7791 6.18244 11.6617 5.66127L10.9247 5.28768M13.0645 6.43135C13.2248 6.35659 13.4316 6.27245 13.6391 6.37017L13.6392 6.37021C13.6995 6.39869 13.7568 6.43991 13.7984 6.49986C13.8404 6.5606 13.8629 6.63561 13.8606 6.72505L13.8606 6.72518C13.8575 6.84241 13.8176 6.92735 13.7542 6.98993C13.6949 7.04857 13.6192 7.08299 13.5537 7.10995C12.9344 7.41833 12.1139 7.28226 11.6425 6.90205L11.6425 6.90203C11.3818 6.69158 11.1702 6.45015 11.0424 6.13466L11.0424 6.13458C11.0296 6.10298 11.0156 6.09224 11.0013 6.08579C10.9814 6.0769 10.9534 6.07294 10.9044 6.07003L10.9089 5.99516M13.0645 6.43135C12.9329 6.49254 12.8 6.50843 12.6562 6.48766L12.6561 6.48764C12.4003 6.45105 12.1986 6.36127 12.0475 6.22298C11.8965 6.08476 11.7908 5.89338 11.7348 5.64478C11.706 5.51661 11.6438 5.42261 11.5554 5.36274C11.4683 5.30383 11.3635 5.28316 11.2574 5.28574L11.2572 5.28574C11.147 5.28866 11.0341 5.2897 10.9247 5.28768M10.9089 5.99516C10.3091 5.96207 9.7745 5.76677 9.28365 5.41415C8.55974 4.89408 8.16894 4.18612 8.07913 3.32308L11.6896 6.84367C11.4355 6.63848 11.2335 6.40671 11.1119 6.10651C11.0736 6.01156 11.0047 6.00086 10.9089 5.99516ZM10.9247 5.28768C10.3649 5.27728 9.87911 5.04568 9.49557 4.6704L9.49553 4.67037C9.06713 4.25175 8.81053 3.72395 8.79688 3.10282L8.79688 3.10282C8.78319 2.48193 8.96636 1.94038 9.38944 1.47529L10.9247 5.28768ZM10.9247 5.28768L10.9233 5.36266L10.9247 5.28768Z" fill="#454648" stroke="#454648" stroke-width="0.15"/>
<path d="M13.8101 2.2514C14.4358 2.58305 14.8757 3.07392 15.0223 3.80309C15.0789 4.08303 15.1244 4.36408 15.0716 4.66167L15.0716 4.66185C15.0645 4.70096 15.0675 4.73406 15.0782 4.76042C15.0886 4.78575 15.1081 4.80989 15.1441 4.8294L15.1083 4.89532M13.8101 2.2514L14.7025 6.86231C14.799 7.03767 14.9666 7.05954 15.2327 6.91848L15.2674 6.98496L15.2676 6.98486L15.268 6.98468L15.2683 6.98534L15.274 6.98131L15.2782 6.97909L15.2843 6.9759C15.2933 6.97109 15.3058 6.96431 15.3197 6.95571C15.3469 6.93898 15.3831 6.91336 15.4126 6.8785L15.4127 6.87842C15.6953 6.54355 15.8332 6.14345 15.7966 5.7685C15.7598 5.39126 15.5469 5.04701 15.144 4.82933L15.1083 4.89532M13.8101 2.2514C12.9393 1.78927 12.0778 1.84346 11.2423 2.37559C11.2423 2.37561 11.2423 2.37562 11.2422 2.37564L13.8101 2.2514ZM15.1083 4.89532C15.0082 4.841 14.9799 4.74777 14.9977 4.64858C15.0479 4.36601 15.0052 4.09705 14.9487 3.81787L15.1083 4.89532ZM12.7893 2.66373C12.3802 2.6307 12.0193 2.75995 11.676 2.95941C11.5518 3.03127 11.4387 3.02899 11.3157 2.9699C11.2207 2.92405 11.1365 2.86912 11.1474 2.75125C11.1485 2.73867 11.1495 2.72612 11.1504 2.71363C11.1582 2.61125 11.1657 2.51294 11.2825 2.43889C12.0965 1.92045 12.9292 1.86883 13.7749 2.31764L12.7893 2.66373ZM14.7647 6.35894L14.8144 6.41511L11.0727 2.74436C11.0652 2.82551 11.0915 2.88945 11.1367 2.93846C11.1786 2.98385 11.2347 3.01409 11.2831 3.03744L11.2832 3.0375C11.3525 3.07079 11.4232 3.09002 11.4967 3.08875C11.5706 3.08747 11.6422 3.06558 11.7136 3.02433L11.7137 3.02425C12.0495 2.82917 12.3949 2.70713 12.7832 2.73849C13.4979 2.79652 14.1074 3.333 14.2557 4.0051L14.2557 4.0051C14.3201 4.29639 14.3243 4.58454 14.2278 4.87339C14.18 5.01633 14.1699 5.13947 14.2377 5.23915C14.3015 5.33289 14.4215 5.3843 14.5667 5.42661C14.7211 5.47158 14.8579 5.53705 14.9347 5.67189L14.9348 5.672C15.0033 5.79156 15.0223 5.90497 14.9971 6.01413C14.9716 6.12485 14.8984 6.24064 14.7647 6.35894ZM14.9999 5.63474C14.9081 5.47368 14.747 5.40101 14.5877 5.3546L14.9999 5.63474Z" fill="#454648" stroke="#454648" stroke-width="0.15"/>
</svg>
