<svg width="11" height="16" viewBox="0 0 11 16" fill="none" xmlns="http://www.w3.org/2000/svg">
<path d="M4.6 15C2.90294 15 2.05442 15 1.52721 14.5899C1 14.1799 1 13.5199 1 12.2L1 3.8C1 2.48007 1 1.8201 1.52721 1.41005C2.05442 1 2.90294 1 4.6 1L6.4 1C8.09706 1 8.94559 1 9.47279 1.41005C10 1.8201 10 2.48007 10 3.8V12.2C10 13.5199 10 14.1799 9.47279 14.5899C8.94559 15 8.09706 15 6.4 15H4.6Z" stroke="#454648" stroke-width="1.3"/>
<path d="M1 9H4.33333M1 5L4.33333 5M1 11L6 11M1 7L6 7" stroke="#454648" stroke-width="1.2" stroke-linecap="round"/>
</svg>
