<svg width="16" height="13" viewBox="0 0 16 13" fill="none" xmlns="http://www.w3.org/2000/svg">
<path d="M5.87321 10.9846L6.31128 10.3758L5.87321 10.9846ZM8 2.41579L7.4839 2.95998C7.77325 3.23439 8.22675 3.23439 8.5161 2.95998L8 2.41579ZM10.1268 10.9846L10.5649 11.5934L10.1268 10.9846ZM6.31128 10.3758C5.23556 9.60174 4.10244 8.87418 3.20182 7.94845C2.32659 7.04883 1.75 6.0355 1.75 4.7394H0.25C0.25 6.55058 1.08021 7.91881 2.12668 8.99444C3.14776 10.044 4.45126 10.8854 5.43515 11.5934L6.31128 10.3758ZM1.75 4.7394C1.75 3.50541 2.51458 2.44034 3.6076 1.98428C4.66763 1.54198 6.10625 1.65343 7.4839 2.95998L8.5161 1.8716C6.74386 0.190834 4.68248 -0.089556 3.02998 0.599953C1.41047 1.2757 0.25 2.86609 0.25 4.7394H1.75ZM5.43515 11.5934C5.79202 11.8502 6.18875 12.1342 6.59367 12.3502C6.99975 12.5668 7.47615 12.75 8 12.75V11.25C7.82385 11.25 7.60025 11.187 7.29963 11.0267C6.99786 10.8657 6.68119 10.642 6.31128 10.3758L5.43515 11.5934ZM10.5649 11.5934C11.5487 10.8854 12.8522 10.044 13.8733 8.99444C14.9198 7.91881 15.75 6.55058 15.75 4.7394H14.25C14.25 6.0355 13.6734 7.04883 12.7982 7.94845C11.8976 8.87418 10.7644 9.60174 9.68872 10.3758L10.5649 11.5934ZM15.75 4.7394C15.75 2.86609 14.5895 1.2757 12.97 0.599953C11.3175 -0.089556 9.25614 0.190834 7.4839 1.8716L8.5161 2.95998C9.89375 1.65343 11.3324 1.54198 12.3924 1.98428C13.4854 2.44034 14.25 3.50541 14.25 4.7394H15.75ZM9.68872 10.3758C9.31881 10.642 9.00214 10.8657 8.70037 11.0267C8.39975 11.187 8.17615 11.25 8 11.25V12.75C8.52385 12.75 9.00025 12.5668 9.40633 12.3502C9.81125 12.1342 10.208 11.8502 10.5649 11.5934L9.68872 10.3758Z" fill="#454648"/>
</svg>
