<svg width="16" height="16" viewBox="0 0 16 16" fill="none" xmlns="http://www.w3.org/2000/svg">
<path d="M9.24494 7.61198L6.94844 9.26841L6.94795 9.26877C6.86682 9.32653 6.7712 9.35843 6.67249 9.35967L6.6719 9.35968C6.56295 9.36041 6.45758 9.3231 6.37142 9.25469C6.2854 9.18641 6.22326 9.091 6.19275 8.9835C6.16225 8.87603 6.1646 8.76095 6.19952 8.65494C6.23444 8.54893 6.3005 8.45646 6.38938 8.39224L9.24494 7.61198ZM9.24494 7.61198V10.4949H9.24482L9.24507 10.4998C9.24633 10.5252 9.24965 10.5505 9.25499 10.5753L8.42151 11.1609L8.4214 11.1607L8.41657 11.1646C8.31011 11.2497 8.24054 11.375 8.22036 11.5124C8.20024 11.6494 8.23038 11.7902 8.30564 11.9048L9.24494 7.61198ZM12.795 9.35003C12.8779 9.35038 12.9592 9.32869 13.0317 9.28739C13.1042 9.24611 13.1653 9.18669 13.2103 9.11505L13.2106 9.11461C13.2802 9.00248 13.3077 8.86719 13.2887 8.73535C13.2697 8.60348 13.2052 8.48247 13.1059 8.39731L13.1062 8.39705L13.0994 8.39219L10.2395 6.32329V4.39133C10.2395 4.25332 10.1888 4.11955 10.0965 4.01978C10.004 3.91974 9.87671 3.86191 9.74221 3.86191C9.6077 3.86191 9.48044 3.91974 9.38789 4.01978C9.29559 4.11955 9.24494 4.25332 9.24494 4.39133V6.32334L6.3895 8.39215L8.53316 11.9893C8.59075 12.0221 8.65493 12.0391 8.72004 12.0388L8.72021 12.1388C8.7203 12.1388 8.72039 12.1388 8.72049 12.1388C8.81992 12.1386 8.91631 12.1064 8.99743 12.0474C8.99748 12.0474 8.99754 12.0474 8.99759 12.0473L9.74237 11.5106L10.4913 12.0473C10.4914 12.0474 10.4915 12.0475 10.4916 12.0476C10.5728 12.1065 10.6692 12.1387 10.7687 12.1388L10.7694 12.1388C10.8778 12.1382 10.9823 12.1 11.0675 12.0312C11.1526 11.9624 11.2138 11.867 11.2436 11.7598C11.2734 11.6527 11.2707 11.5382 11.2356 11.4327C11.2006 11.3272 11.1346 11.2352 11.0461 11.1713L11.046 11.1712L10.222 10.5774C10.2227 10.5505 10.2211 10.5234 10.2172 10.4967V7.60213L12.5178 9.25851C12.5178 9.25856 12.5179 9.25862 12.518 9.25867C12.5991 9.31765 12.6956 9.34982 12.795 9.35003ZM12.795 9.35003C12.795 9.35003 12.7949 9.35003 12.7949 9.35003L12.7953 9.25003L12.7952 9.35003C12.7951 9.35003 12.7951 9.35003 12.795 9.35003Z" fill="#454648" stroke="#454648" stroke-width="0.2"/>
<path d="M1.89284 2.13202L1.89241 2.1321L3.70495 14.8476L3.69791 14.9474C3.69904 14.9474 3.70018 14.9475 3.70131 14.9476C3.80098 14.9545 3.90098 14.9544 4.00065 14.9474L4.0007 14.9481L4.01232 14.9458L4.81459 14.7931C5.01923 15.0427 5.27234 15.2442 5.55746 15.3834C5.86046 15.5314 6.19155 15.6052 6.52584 15.5991H13.4201C13.9815 15.6159 14.5254 15.3978 14.9334 14.9939C15.3415 14.5898 15.5806 14.0328 15.5999 13.4448L15.6 13.4448V13.4415V2.55847H15.6001L15.5999 2.55518C15.5806 1.96725 15.3415 1.4102 14.9334 1.00613C14.5254 0.602245 13.9815 0.38405 13.4201 0.400909H6.52542C6.11159 0.396922 5.7055 0.516356 5.35392 0.744894C5.01649 0.964242 4.74265 1.27537 4.56056 1.64436L1.89284 2.13202ZM4.3469 13.6979L4.34664 13.6979L4.34774 13.7051L4.36015 13.7859L3.83627 13.9012C3.62495 13.9391 3.40741 13.8876 3.23077 13.7566C3.05345 13.625 2.93142 13.4236 2.89322 13.1955C2.89321 13.1955 2.8932 13.1954 2.8932 13.1954L1.40112 4.15935C1.40111 4.15933 1.40111 4.1593 1.4011 4.15927C1.36375 3.9303 1.41377 3.69546 1.53932 3.50617C1.66472 3.3171 1.85471 3.18944 2.0669 3.14889C2.06701 3.14887 2.06712 3.14885 2.06722 3.14883L4.34658 2.73007V13.4376C4.33987 13.5242 4.33997 13.6113 4.3469 13.6979ZM13.4268 14.5649L13.4268 14.5648H13.4217L6.52493 14.5648L6.52323 14.5648C6.31262 14.5684 6.10452 14.5134 5.91979 14.4049C5.73502 14.2964 5.57992 14.1381 5.47061 13.9453L5.47022 13.9446C5.38298 13.7935 5.33676 13.6194 5.33706 13.4417V13.4415V2.55847H5.33708L5.33705 2.55678C5.33536 2.45645 5.3502 2.35664 5.38084 2.26184C5.46517 2.01313 5.62145 1.79984 5.82641 1.65175C6.03145 1.50361 6.27492 1.42808 6.52207 1.43514L6.52207 1.43518H6.52493H13.4217V1.43531L13.4268 1.43505C13.7228 1.41987 14.0135 1.52865 14.2354 1.73943C14.4569 1.94982 14.5919 2.24492 14.6095 2.5612V13.4388C14.5919 13.7551 14.4569 14.0502 14.2354 14.2606C14.0135 14.4714 13.7228 14.5801 13.4268 14.5649Z" fill="#454648" stroke="#454648" stroke-width="0.2"/>
</svg>
