<svg width="18" height="18" viewBox="0 0 18 18" fill="none" xmlns="http://www.w3.org/2000/svg">
<path fill-rule="evenodd" clip-rule="evenodd" d="M18 9C18 13.9706 13.9706 18 9 18C4.02944 18 0 13.9706 0 9C0 4.02944 4.02944 0 9 0C13.9706 0 18 4.02944 18 9ZM9 14.175C9.37279 14.175 9.675 13.8728 9.675 13.5V8.1C9.675 7.72721 9.37279 7.425 9 7.425C8.62721 7.425 8.325 7.72721 8.325 8.1V13.5C8.325 13.8728 8.62721 14.175 9 14.175ZM9 4.5C9.49706 4.5 9.9 4.90294 9.9 5.4C9.9 5.89706 9.49706 6.3 9 6.3C8.50294 6.3 8.1 5.89706 8.1 5.4C8.1 4.90294 8.50294 4.5 9 4.5Z" fill="#078CFE"/>
</svg>
