<svg width="79" height="119" viewBox="0 0 79 119" fill="none" xmlns="http://www.w3.org/2000/svg">
<path d="M6.68652 0.356682C7.04187 -0.066101 7.67268 -0.120765 8.09546 0.234585L14.9851 6.02535C15.4079 6.3807 15.4625 7.0115 15.1072 7.43428C14.7518 7.85707 14.121 7.91173 13.6983 7.55638L7.57414 2.40903L2.42679 8.53315C2.07144 8.95593 1.44064 9.0106 1.01785 8.65525C0.595076 8.2999 0.540412 7.6691 0.895759 7.24631L6.68652 0.356682ZM8.44831 0.913765C14.7862 74.0498 57.9864 108.842 78.572 117.071L77.8296 118.928C56.5588 110.425 12.8604 74.9921 6.45578 1.08644L8.44831 0.913765Z" fill="white"/>
</svg>
