<svg width="88" height="88" viewBox="0 0 88 88" fill="none" xmlns="http://www.w3.org/2000/svg">
<path opacity="0.5" d="M77.9525 80.7945C84.2294 77.3719 88 72.9841 88 68.1999C88 63.1288 83.7635 58.5029 76.7962 54.9999C68.7395 50.9492 57.0313 48.3999 44 48.3999C30.9687 48.3999 19.2605 50.9492 11.2038 54.9999C4.23652 58.5029 0 63.1288 0 68.1999C0 73.271 4.23651 77.8969 11.2037 81.3999C19.2604 85.4506 30.9687 87.9999 44 87.9999C57.669 87.9999 69.8823 85.195 77.9525 80.7945Z" fill="white"/>
<path fill-rule="evenodd" clip-rule="evenodd" d="M13.1997 28.6644C13.1997 12.8335 26.9893 0 43.9997 0C61.0101 0 74.7997 12.8335 74.7997 28.6644C74.7997 44.3712 64.9694 62.6997 49.632 69.2541C46.0566 70.782 41.9428 70.782 38.3674 69.2541C23.03 62.6997 13.1997 44.3712 13.1997 28.6644ZM43.9997 39.6C48.8598 39.6 52.7997 35.6601 52.7997 30.8C52.7997 25.9399 48.8598 22 43.9997 22C39.1396 22 35.1997 25.9399 35.1997 30.8C35.1997 35.6601 39.1396 39.6 43.9997 39.6Z" fill="white"/>
</svg>
