<svg width="13" height="18" viewBox="0 0 13 18" fill="none" xmlns="http://www.w3.org/2000/svg">
<path fill-rule="evenodd" clip-rule="evenodd" d="M0.0673828 6.16903C0.0673828 2.90495 2.7752 0 6.11546 0C9.45571 0 12.1635 2.90495 12.1635 6.16903C12.1635 9.40754 10.2332 12.9277 7.22145 14.2791C6.51936 14.5941 5.71155 14.5941 5.00947 14.2791C1.99772 12.9277 0.0673828 9.40754 0.0673828 6.16903ZM6.11542 7.25802C7.11749 7.25802 7.92984 6.44568 7.92984 5.4436C7.92984 4.44152 7.11749 3.62918 6.11542 3.62918C5.11334 3.62918 4.301 4.44152 4.301 5.4436C4.301 6.44568 5.11334 7.25802 6.11542 7.25802Z" fill="#454648"/>
<path opacity="0.2" d="M6.30153 17.3063C8.87096 17.3063 10.9539 16.8897 10.9539 16.3758C10.9539 15.8619 8.87096 15.4453 6.30153 15.4453C3.7321 15.4453 1.64917 15.8619 1.64917 16.3758C1.64917 16.8897 3.7321 17.3063 6.30153 17.3063Z" fill="#454648"/>
</svg>
