<svg width="18" height="19" viewBox="0 0 18 19" fill="none" xmlns="http://www.w3.org/2000/svg">
<path fill-rule="evenodd" clip-rule="evenodd" d="M3.00022 8.15957V6.33325C3.00022 3.01954 5.68651 0.333252 9.00022 0.333252C12.3139 0.333252 15.0002 3.01954 15.0002 6.33325V8.15957C15.9911 8.23357 16.6364 8.42041 17.1081 8.89208C17.8891 9.67313 17.8891 10.9302 17.8891 13.4444C17.8891 15.9585 17.8891 17.2156 17.1081 17.9966C16.327 18.7777 15.0699 18.7777 12.5558 18.7777H5.44466C2.9305 18.7777 1.67343 18.7777 0.892377 17.9966C0.111328 17.2156 0.111328 15.9585 0.111328 13.4444C0.111328 10.9302 0.111328 9.67313 0.892377 8.89208C1.36405 8.42041 2.00932 8.23357 3.00022 8.15957ZM4.33355 6.33325C4.33355 3.75592 6.42289 1.66659 9.00022 1.66659C11.5775 1.66659 13.6669 3.75592 13.6669 6.33325V8.11421C13.3264 8.11103 12.9571 8.11103 12.5558 8.11103H5.44466C5.04332 8.11103 4.67401 8.11103 4.33355 8.11421V6.33325ZM10.778 13.4444C10.778 14.4262 9.98206 15.2221 9.00022 15.2221C8.01838 15.2221 7.22244 14.4262 7.22244 13.4444C7.22244 12.4625 8.01838 11.6666 9.00022 11.6666C9.98206 11.6666 10.778 12.4625 10.778 13.4444Z" fill="#1C1D20"/>
</svg>
