<svg width="56" height="56" viewBox="0 0 56 56" fill="none" xmlns="http://www.w3.org/2000/svg">
<circle cx="28" cy="28" r="28" fill="white"/>
<path d="M27.9999 17.5C26.7966 17.5 25.6426 17.9609 24.7917 18.7814C23.9409 19.6019 23.4629 20.7147 23.4629 21.875V28C23.4629 29.1603 23.9409 30.2731 24.7917 31.0936C25.6426 31.9141 26.7966 32.375 27.9999 32.375C29.2032 32.375 30.3572 31.9141 31.2081 31.0936C32.0589 30.2731 32.537 29.1603 32.537 28V21.875C32.537 20.7147 32.0589 19.6019 31.2081 18.7814C30.3572 17.9609 29.2032 17.5 27.9999 17.5ZM20.7407 27.125C20.9813 27.125 21.2121 27.2172 21.3823 27.3813C21.5525 27.5454 21.6481 27.7679 21.6481 28C21.6481 29.6245 22.3173 31.1824 23.5085 32.331C24.6997 33.4797 26.3153 34.125 27.9999 34.125C29.6845 34.125 31.3002 33.4797 32.4914 32.331C33.6826 31.1824 34.3518 29.6245 34.3518 28C34.3518 27.7679 34.4474 27.5454 34.6175 27.3813C34.7877 27.2172 35.0185 27.125 35.2592 27.125C35.4998 27.125 35.7306 27.2172 35.9008 27.3813C36.071 27.5454 36.1666 27.7679 36.1666 28C36.167 29.9373 35.4268 31.8068 34.0875 33.2509C32.7483 34.6951 30.904 35.6125 28.9073 35.8277V37.625C28.9073 37.8571 28.8117 38.0796 28.6416 38.2437C28.4714 38.4078 28.2406 38.5 27.9999 38.5C27.7593 38.5 27.5285 38.4078 27.3583 38.2437C27.1881 38.0796 27.0925 37.8571 27.0925 37.625V35.8277C25.0959 35.6125 23.2516 34.6951 21.9123 33.2509C20.5731 31.8068 19.8329 29.9373 19.8333 28C19.8333 27.7679 19.9289 27.5454 20.099 27.3813C20.2692 27.2172 20.5 27.125 20.7407 27.125Z" fill="#454648"/>
</svg>
