<svg width="56" height="56" viewBox="0 0 56 56" fill="none" xmlns="http://www.w3.org/2000/svg">
<g clip-path="url(#clip0_730_7052)">
<path d="M28 56C43.464 56 56 43.464 56 28C56 12.536 43.464 0 28 0C12.536 0 0 12.536 0 28C0 43.464 12.536 56 28 56Z" fill="white"/>
<path d="M28 18C26.8213 18 25.6908 18.439 24.8573 19.2204C24.0238 20.0018 23.5556 21.0616 23.5556 22.1667V28C23.5556 29.1051 24.0238 30.1649 24.8573 30.9463C25.6908 31.7277 26.8213 32.1667 28 32.1667C29.1787 32.1667 30.3092 31.7277 31.1427 30.9463C31.9762 30.1649 32.4444 29.1051 32.4444 28V22.1667C32.4444 21.0616 31.9762 20.0018 31.1427 19.2204C30.3092 18.439 29.1787 18 28 18ZM20.8889 27.1667C21.1246 27.1667 21.3507 27.2545 21.5174 27.4107C21.6841 27.567 21.7778 27.779 21.7778 28C21.7778 29.5471 22.4333 31.0308 23.6002 32.1248C24.7671 33.2188 26.3498 33.8333 28 33.8333C29.6502 33.8333 31.2329 33.2188 32.3998 32.1248C33.5667 31.0308 34.2222 29.5471 34.2222 28C34.2222 27.779 34.3159 27.567 34.4826 27.4107C34.6493 27.2545 34.8754 27.1667 35.1111 27.1667C35.3469 27.1667 35.573 27.2545 35.7397 27.4107C35.9064 27.567 36 27.779 36 28C36.0004 29.8451 35.2753 31.6255 33.9634 33.0009C32.6514 34.3763 30.8448 35.25 28.8889 35.455V37.1667C28.8889 37.3877 28.7952 37.5996 28.6285 37.7559C28.4618 37.9122 28.2357 38 28 38C27.7643 38 27.5382 37.9122 27.3715 37.7559C27.2048 37.5996 27.1111 37.3877 27.1111 37.1667V35.455C25.1552 35.25 23.3486 34.3763 22.0366 33.0009C20.7247 31.6255 19.9996 29.8451 20 28C20 27.779 20.0937 27.567 20.2604 27.4107C20.4271 27.2545 20.6531 27.1667 20.8889 27.1667Z" fill="#454648"/>
<path d="M18.6608 37.6199L35.5358 17.7251" stroke="white" stroke-width="1.2"/>
<path d="M18.6608 37.6199L35.5358 17.7251" stroke="white" stroke-width="1.2"/>
<path d="M18.6608 37.6199L35.5358 17.7251" stroke="white" stroke-width="1.2"/>
<path d="M17.9102 36.9525L34.934 17.0914" stroke="#454648" stroke-width="1.5" stroke-linecap="round"/>
</g>
<defs>
<clipPath id="clip0_730_7052">
<rect width="56" height="56" fill="white"/>
</clipPath>
</defs>
</svg>
