<svg width="30" height="30" viewBox="0 0 30 30" fill="none" xmlns="http://www.w3.org/2000/svg">
<path d="M15 5C13.8213 5 12.6908 5.43899 11.8573 6.22039C11.0238 7.00179 10.5556 8.0616 10.5556 9.16667V15C10.5556 16.1051 11.0238 17.1649 11.8573 17.9463C12.6908 18.7277 13.8213 19.1667 15 19.1667C16.1787 19.1667 17.3092 18.7277 18.1427 17.9463C18.9762 17.1649 19.4444 16.1051 19.4444 15V9.16667C19.4444 8.0616 18.9762 7.00179 18.1427 6.22039C17.3092 5.43899 16.1787 5 15 5ZM7.88889 14.1667C8.12464 14.1667 8.35073 14.2545 8.51743 14.4107C8.68413 14.567 8.77778 14.779 8.77778 15C8.77778 16.5471 9.43333 18.0308 10.6002 19.1248C11.7671 20.2188 13.3498 20.8333 15 20.8333C16.6502 20.8333 18.2329 20.2188 19.3998 19.1248C20.5667 18.0308 21.2222 16.5471 21.2222 15C21.2222 14.779 21.3159 14.567 21.4826 14.4107C21.6493 14.2545 21.8754 14.1667 22.1111 14.1667C22.3469 14.1667 22.573 14.2545 22.7397 14.4107C22.9064 14.567 23 14.779 23 15C23.0004 16.8451 22.2753 18.6255 20.9634 20.0009C19.6514 21.3763 17.8448 22.25 15.8889 22.455V24.1667C15.8889 24.3877 15.7952 24.5996 15.6285 24.7559C15.4618 24.9122 15.2357 25 15 25C14.7643 25 14.5382 24.9122 14.3715 24.7559C14.2048 24.5996 14.1111 24.3877 14.1111 24.1667V22.455C12.1552 22.25 10.3486 21.3763 9.03664 20.0009C7.72472 18.6255 6.99962 16.8451 7 15C7 14.779 7.09365 14.567 7.26035 14.4107C7.42705 14.2545 7.65314 14.1667 7.88889 14.1667Z" fill="#1C1D20"/>
</svg>
