<svg width="94" height="94" viewBox="0 0 94 94" fill="none" xmlns="http://www.w3.org/2000/svg">
<g filter="url(#filter0_d_1_7405)">
<circle cx="39" cy="47" r="31" fill="url(#paint0_radial_1_7405)"/>
</g>
<path d="M47.6934 35.0391C47.46 34.954 47.1975 35.0107 47.0516 35.181C46.7891 35.3796 46.5265 35.6067 46.2348 35.8053C42.7341 38.3593 38.6791 40.062 34.3615 40.743C34.2448 40.743 34.1573 40.7998 34.0698 40.8849C34.0114 40.97 33.9823 41.0836 34.0114 41.1971C34.0114 41.9065 34.0114 42.6443 34.0114 43.3538C38.0664 44.4037 40.8962 47.9793 40.8962 52.0657C40.8962 52.2927 40.8962 52.5481 40.867 52.7752C41.7422 53.1725 42.5882 53.6265 43.405 54.1373C44.6595 54.9319 45.7972 55.8683 46.9641 56.748C47.0808 56.8332 47.1975 56.9183 47.3433 56.9751C47.7226 57.0886 47.9851 56.8048 47.9851 56.3224V35.635C48.0435 35.408 47.9268 35.1526 47.6934 35.0391Z" fill="white"/>
<path d="M33 43.0822V41C32.2944 41.0548 31.6452 41.1096 30.9677 41.137C30.2903 41.1644 29.6411 41.1644 28.9919 41.1918C27.3548 41.1918 26.0282 42.4521 26 44.0411C26 44.0685 26 44.0959 26 44.0959C26 44.3973 26 44.6986 26 45C27.9476 43.411 30.4879 42.726 33 43.0822Z" fill="white"/>
<path d="M49 42V49C50.1963 48.5475 51.0825 46.8175 50.9939 45.2205C50.8831 43.7567 49.9305 42.1863 49 42Z" fill="white"/>
<path d="M33.9715 44.3066C30.2416 43.1363 26.3785 45.4199 25.2862 49.3877C24.1939 53.3554 26.3252 57.523 30.0285 58.6934C33.7317 59.8637 37.6215 57.5801 38.7138 53.6123C39.8061 49.6446 37.6748 45.477 33.9715 44.3066ZM33.3055 46.7044C33.6518 46.8186 33.9982 46.9613 34.3179 47.1612L27.9504 53.9834C26.6716 51.5856 27.4442 48.5313 29.6821 47.1612C30.7745 46.4761 32.0799 46.3333 33.3055 46.7044ZM36.4759 52.8987C35.7565 55.5534 33.1722 57.0663 30.6945 56.2956C30.3482 56.1814 30.0018 56.0387 29.6821 55.8388L36.0496 49.0166C36.689 50.2155 36.8222 51.6142 36.4759 52.8987Z" fill="white"/>
<defs>
<filter id="filter0_d_1_7405" x="0" y="0" width="94" height="94" filterUnits="userSpaceOnUse" color-interpolation-filters="sRGB">
<feFlood flood-opacity="0" result="BackgroundImageFix"/>
<feColorMatrix in="SourceAlpha" type="matrix" values="0 0 0 0 0 0 0 0 0 0 0 0 0 0 0 0 0 0 127 0" result="hardAlpha"/>
<feOffset dx="8"/>
<feGaussianBlur stdDeviation="8"/>
<feComposite in2="hardAlpha" operator="out"/>
<feColorMatrix type="matrix" values="0 0 0 0 0.156863 0 0 0 0 0.313726 0 0 0 0 1 0 0 0 0.08 0"/>
<feBlend mode="normal" in2="BackgroundImageFix" result="effect1_dropShadow_1_7405"/>
<feBlend mode="normal" in="SourceGraphic" in2="effect1_dropShadow_1_7405" result="shape"/>
</filter>
<radialGradient id="paint0_radial_1_7405" cx="0" cy="0" r="1" gradientUnits="userSpaceOnUse" gradientTransform="translate(39 45) rotate(90.3588) scale(86.8438)">
<stop stop-color="#A7B7FF"/>
<stop offset="1" stop-color="#4D6EFF"/>
</radialGradient>
</defs>
</svg>
