<svg width="48" height="48" viewBox="0 0 48 48" fill="none" xmlns="http://www.w3.org/2000/svg">
<circle cx="24" cy="24" r="23.5" fill="white" stroke="#E6F0FF"/>
<path fill-rule="evenodd" clip-rule="evenodd" d="M24.5515 34.3349C24.4064 34.3815 24.2478 34.3702 24.1131 34.3052C23.9655 34.2342 23.868 34.1101 23.833 33.9751L23.3573 32.1412C23.1909 31.4999 22.9487 30.8813 22.6368 30.2973C22.1524 29.3906 21.4196 28.6933 20.7398 28.1074L19.301 26.8676C19.078 26.6755 18.9607 26.3875 18.9861 26.0935L19.7983 16.7008C19.8393 16.2263 20.2357 15.8633 20.7096 15.8633H25.3582C28.4946 15.8633 31.1371 18.0455 31.6439 20.9761L32.3494 25.0559C32.4465 25.6174 32.0147 26.1291 31.4481 26.1291H26.267C25.2898 26.1291 24.5477 27.0057 24.7054 27.9686L25.3681 32.0131C25.4589 32.5671 25.4329 33.1341 25.292 33.6774C25.2205 33.9532 25.0029 34.1899 24.6965 34.2883L24.5515 34.3349L24.7809 35.0489L24.5515 34.3349ZM23.4619 35.6565C23.9445 35.8891 24.5005 35.9267 25.0103 35.763L25.1552 35.7164L24.9258 35.0024L25.1552 35.7164C25.9322 35.4668 26.5385 34.8461 26.7439 34.0541C26.9373 33.3085 26.9729 32.5307 26.8484 31.7706L26.1857 27.726C26.1772 27.6743 26.2171 27.6291 26.267 27.6291H31.4481C32.9474 27.6291 34.0828 26.2768 33.8275 24.8003L33.1219 20.7205C32.4841 17.0322 29.1845 14.3633 25.3582 14.3633H20.7096C19.456 14.3633 18.4118 15.323 18.3038 16.5716L17.4917 25.9643C17.4248 26.738 17.7335 27.497 18.3218 28.004L19.7606 29.2437C20.4158 29.8084 20.9673 30.3556 21.3137 31.004C21.5703 31.4844 21.769 31.9922 21.9054 32.5179L22.3811 34.3517C22.5303 34.927 22.9299 35.4002 23.4619 35.6565ZM15.0809 27.6284C15.4822 27.6457 15.8259 27.3438 15.8605 26.9437L16.8321 15.7072C16.8945 14.9854 16.326 14.3633 15.6 14.3633C14.9162 14.3633 14.3633 14.918 14.3633 15.6005V26.8791C14.3633 27.2807 14.6797 27.6111 15.0809 27.6284Z" fill="#F27121"/>
</svg>
