<svg width="36" height="36" viewBox="0 0 36 36" fill="none" xmlns="http://www.w3.org/2000/svg">
<rect width="36" height="36" rx="18" fill="#F6F6F6"/>
<path d="M26.0947 15.0956V14.3035C26.0947 9.95409 22.5688 6.42822 18.2195 6.42822C13.8701 6.42822 10.3442 9.95409 10.3442 14.3035V15.0956C10.3442 16.0463 10.0628 16.9756 9.5355 17.7666L8.24328 19.7049C7.06296 21.4754 7.96403 23.8819 10.0169 24.4418C15.3872 25.9064 21.0517 25.9064 26.422 24.4418C28.4749 23.8819 29.3759 21.4754 28.1956 19.7049L26.9034 17.7666C26.3761 16.9756 26.0947 16.0463 26.0947 15.0956Z" stroke="#454648" stroke-width="1.8"/>
<path d="M12.8574 25.7138C13.5943 27.6801 15.5828 29.0889 17.9201 29.0889C20.2574 29.0889 22.2458 27.6801 22.9827 25.7138" stroke="#454648" stroke-width="1.8" stroke-linecap="round"/>
<path d="M18 11.2485V15.7487" stroke="#454648" stroke-width="1.8" stroke-linecap="round"/>
</svg>
