<svg width="16" height="16" viewBox="0 0 16 16" fill="none" xmlns="http://www.w3.org/2000/svg">
<mask id="mask0_1154_9686" style="mask-type:alpha" maskUnits="userSpaceOnUse" x="0" y="0" width="16" height="16">
<rect width="16" height="16" fill="#D9D9D9"/>
</mask>
<g mask="url(#mask0_1154_9686)">
<path d="M0.897461 7.69815C0.897461 5.03895 0.897461 3.70935 1.72357 2.88324C2.54968 2.05713 3.87928 2.05713 6.53849 2.05713H9.359C12.0182 2.05713 13.3478 2.05713 14.1739 2.88324C15 3.70935 15 5.03895 15 7.69815V9.10841C15 11.7676 15 13.0972 14.1739 13.9233C13.3478 14.7494 12.0182 14.7494 9.359 14.7494H6.53849C3.87928 14.7494 2.54968 14.7494 1.72357 13.9233C0.897461 13.0972 0.897461 11.7676 0.897461 9.10841V7.69815Z" stroke="#1573FE" stroke-width="1.5"/>
<path d="M4.42334 2.05769V1" stroke="#1573FE" stroke-width="1.5" stroke-linecap="round"/>
<path d="M11.4746 2.05769V1" stroke="#1573FE" stroke-width="1.5" stroke-linecap="round"/>
<path d="M1.25 5.58447H14.6474" stroke="#1573FE" stroke-width="1.5" stroke-linecap="round"/>
</g>
</svg>
