<svg width="28" height="28" viewBox="0 0 28 28" fill="none" xmlns="http://www.w3.org/2000/svg">
<rect width="28" height="28" rx="14" fill="#F6F6F6"/>
<path d="M14 10V13.6923L16 16" stroke="#454648" stroke-width="1.5" stroke-linecap="round" stroke-linejoin="round"/>
<path d="M8.31479 8.31479L7.78446 7.78446L7.78446 7.78446L8.31479 8.31479ZM7.18912 9.44046L6.43913 9.44423C6.4412 9.8555 6.77408 10.1884 7.18535 10.1905L7.18912 9.44046ZM9.44806 10.2018C9.86227 10.2039 10.1997 9.86981 10.2018 9.4556C10.2039 9.04139 9.86981 8.70392 9.4556 8.70184L9.44806 10.2018ZM7.92774 7.17398C7.92566 6.75977 7.58819 6.42568 7.17398 6.42776C6.75977 6.42984 6.42568 6.76731 6.42776 7.18152L7.92774 7.17398ZM6.81732 12.9312C6.87357 12.5209 6.5865 12.1426 6.17612 12.0863C5.76574 12.0301 5.38747 12.3172 5.33122 12.7275L6.81732 12.9312ZM20.1587 7.84131C16.731 4.4136 11.1908 4.3781 7.78446 7.78446L8.84512 8.84512C11.6557 6.03457 16.246 6.04998 19.098 8.90197L20.1587 7.84131ZM7.84131 20.1587C11.269 23.5864 16.8092 23.6219 20.2155 20.2155L19.1549 19.1549C16.3443 21.9654 11.754 21.95 8.90197 19.098L7.84131 20.1587ZM20.2155 20.2155C23.6219 16.8092 23.5864 11.269 20.1587 7.84131L19.098 8.90197C21.95 11.754 21.9654 16.3443 19.1549 19.1549L20.2155 20.2155ZM7.78446 7.78446L6.65879 8.91013L7.71945 9.97079L8.84512 8.84512L7.78446 7.78446ZM7.18535 10.1905L9.44806 10.2018L9.4556 8.70184L7.19289 8.69047L7.18535 10.1905ZM7.93911 9.43669L7.92774 7.17398L6.42776 7.18152L6.43913 9.44423L7.93911 9.43669ZM5.33122 12.7275C4.97098 15.3557 5.80993 18.1273 7.84131 20.1587L8.90197 19.098C7.21387 17.4099 6.51854 15.1111 6.81732 12.9312L5.33122 12.7275Z" fill="#454648"/>
</svg>
