<svg width="31" height="30" viewBox="0 0 31 30" fill="none" xmlns="http://www.w3.org/2000/svg">
<path d="M15.5 0C18.2678 0 20.4939 0 22.3101 0.131745L17.1479 7.87504H10.1021L15.3521 0H15.5Z" fill="#454648"/>
<path d="M2.69668 2.1967C4.57523 0.318149 7.43289 0.0460776 12.6435 0.00667343L7.3979 7.87504H0.65625C0.877124 5.22889 1.41018 3.48319 2.69668 2.1967Z" fill="#454648"/>
<path d="M30.3437 7.87504C30.1228 5.22889 29.5898 3.48319 28.3033 2.1967C27.4073 1.30071 26.2886 0.77018 24.7981 0.456041L19.8521 7.87504H30.3437Z" fill="#454648"/>
<path d="M0.539667 10.125C0.5 11.5331 0.5 13.1449 0.5 15C0.5 22.071 0.5 25.6066 2.6967 27.8033C4.8934 30 8.42893 30 15.5 30C17.5369 30 19.2804 30 20.783 29.9475C19.4568 29.8603 18.6054 29.6283 17.9885 29.0115C17 28.023 17 26.432 17 23.25C17 20.068 17 18.477 17.9885 17.4885C18.977 16.5 20.568 16.5 23.75 16.5C26.932 16.5 28.523 16.5 29.5115 17.4885C30.1284 18.1054 30.3603 18.9569 30.4475 20.2834C30.5 18.7806 30.5 17.037 30.5 15C30.5 13.1449 30.5 11.5331 30.4603 10.125H0.539667Z" fill="#454648"/>
<path fill-rule="evenodd" clip-rule="evenodd" d="M24 29C21.4073 29 20.1109 29 19.3055 28.1945C18.5 27.3891 18.5 26.0927 18.5 23.5C18.5 20.9073 18.5 19.6109 19.3055 18.8055C20.1109 18 21.4073 18 24 18C26.5927 18 27.8891 18 28.6945 18.8055C29.5 19.6109 29.5 20.9073 29.5 23.5C29.5 26.0927 29.5 27.3891 28.6945 28.1945C27.8891 29 26.5927 29 24 29ZM26.4815 22.2407L24.6482 20.4074C24.2902 20.0494 23.7098 20.0494 23.3518 20.4074L21.5185 22.2407C21.1605 22.5987 21.1605 23.1791 21.5185 23.5371C21.8765 23.8951 22.4569 23.8951 22.8148 23.5371L23.0833 23.2686V25.9444C23.0833 26.4507 23.4937 26.8611 24 26.8611C24.5063 26.8611 24.9167 26.4507 24.9167 25.9444V23.2686L25.1852 23.5371C25.5431 23.8951 26.1235 23.8951 26.4815 23.5371C26.8395 23.1791 26.8395 22.5987 26.4815 22.2407Z" fill="#454648"/>
</svg>
