<svg width="42" height="42" viewBox="0 0 42 42" fill="none" xmlns="http://www.w3.org/2000/svg">
<g clip-path="url(#clip0_1465_6495)">
<g filter="url(#filter0_d_1465_6495)">
<path d="M20.5 37.5C29.3366 37.5 36.5 30.3366 36.5 21.5C36.5 12.6634 29.3366 5.5 20.5 5.5C11.6634 5.5 4.5 12.6634 4.5 21.5C4.5 30.3366 11.6634 37.5 20.5 37.5Z" fill="white"/>
<path d="M20.5 38C29.6127 38 37 30.6127 37 21.5C37 12.3873 29.6127 5 20.5 5C11.3873 5 4 12.3873 4 21.5C4 30.6127 11.3873 38 20.5 38Z" stroke="#078CFE"/>
</g>
<path opacity="0.5" d="M27.5811 18.8711C28.8098 17.6424 28.8098 15.6502 27.5811 14.4215C26.3524 13.1928 24.3603 13.1928 23.1316 14.4215L22.4219 15.1312C22.4316 15.1606 22.4417 15.1903 22.4521 15.2205C22.7123 15.9703 23.2031 16.9532 24.1264 17.8765C25.0497 18.7998 26.0326 19.2907 26.7824 19.5508C26.8124 19.5612 26.8421 19.5712 26.8713 19.5809L27.5811 18.8711Z" fill="#078CFE"/>
<path d="M22.452 15.1016L22.4215 15.1321C22.4312 15.1615 22.4413 15.1912 22.4517 15.2214C22.7119 15.9712 23.2027 16.9541 24.126 17.8774C25.0493 18.8007 26.0322 19.2915 26.782 19.5517C26.8118 19.562 26.8411 19.5719 26.8701 19.5815L20.021 26.4307C19.5592 26.8925 19.3283 27.1234 19.0737 27.3219C18.7734 27.5562 18.4484 27.757 18.1046 27.9209C17.8132 28.0598 17.5034 28.163 16.8839 28.3695L13.6168 29.4586C13.3119 29.5602 12.9758 29.4808 12.7485 29.2536C12.5213 29.0263 12.4419 28.6902 12.5436 28.3853L13.6326 25.1183C13.8391 24.4987 13.9424 24.1889 14.0813 23.8975C14.2451 23.5537 14.4459 23.2287 14.6802 22.9284C14.8787 22.6739 15.1096 22.443 15.5714 21.9812L22.452 15.1016Z" fill="#078CFE"/>
</g>
<defs>
<filter id="filter0_d_1465_6495" x="-0.5" y="4.5" width="42" height="42" filterUnits="userSpaceOnUse" color-interpolation-filters="sRGB">
<feFlood flood-opacity="0" result="BackgroundImageFix"/>
<feColorMatrix in="SourceAlpha" type="matrix" values="0 0 0 0 0 0 0 0 0 0 0 0 0 0 0 0 0 0 127 0" result="hardAlpha"/>
<feOffset dy="4"/>
<feGaussianBlur stdDeviation="2"/>
<feComposite in2="hardAlpha" operator="out"/>
<feColorMatrix type="matrix" values="0 0 0 0 0 0 0 0 0 0 0 0 0 0 0 0 0 0 0.05 0"/>
<feBlend mode="normal" in2="BackgroundImageFix" result="effect1_dropShadow_1465_6495"/>
<feBlend mode="normal" in="SourceGraphic" in2="effect1_dropShadow_1465_6495" result="shape"/>
</filter>
<clipPath id="clip0_1465_6495">
<rect width="42" height="42" fill="white"/>
</clipPath>
</defs>
</svg>
