<svg width="75" height="83" viewBox="0 0 75 83" fill="none" xmlns="http://www.w3.org/2000/svg">
<path d="M66.9153 1.17471C67.3228 0.801873 67.9553 0.829928 68.3281 1.23737L74.4039 7.87706C74.7767 8.2845 74.7487 8.91705 74.3412 9.28989C73.9338 9.66272 73.3012 9.63467 72.9284 9.22722L67.5277 3.32528L61.6258 8.72593C61.2183 9.09877 60.5858 9.07071 60.213 8.66327C59.8401 8.25582 59.8682 7.62328 60.2756 7.25044L66.9153 1.17471ZM0.539821 80.4255C51.7133 57.5342 65.8598 18.3621 66.5914 1.86814L68.5894 1.95676C67.8242 19.209 53.2185 59.0519 1.35649 82.2511L0.539821 80.4255Z" fill="white"/>
</svg>
