<svg width="102" height="122" viewBox="0 0 102 122" fill="none" xmlns="http://www.w3.org/2000/svg">
<path d="M96.8578 0.485932C96.5738 0.0122098 95.9597 -0.141661 95.4859 0.142251L87.7662 4.76887C87.2925 5.05278 87.1386 5.66696 87.4225 6.14068C87.7064 6.61441 88.3206 6.76828 88.7943 6.48436L95.6563 2.37182L99.7689 9.23381C100.053 9.70753 100.667 9.8614 101.141 9.57749C101.614 9.29358 101.768 8.6794 101.484 8.20567L96.8578 0.485932ZM95.03 0.756981C74.0445 84.5214 23.2573 115.148 0.787997 120.023L1.212 121.977C24.5217 116.921 75.8251 85.6441 96.97 1.24302L95.03 0.756981Z" fill="white"/>
</svg>
