<svg width="8" height="13" viewBox="0 0 8 13" fill="none" xmlns="http://www.w3.org/2000/svg">
<path d="M7.24999 6.49985C7.25135 6.76611 7.14916 7.02181 6.96589 7.21615L6.96589 7.21615L6.96464 7.21746L2.44051 11.9458C2.35121 12.0418 2.24263 12.1182 2.12198 12.1704C2.00066 12.223 1.8696 12.25 1.73726 12.25C1.60493 12.25 1.47387 12.223 1.35255 12.1704C1.23131 12.118 1.12225 12.0411 1.0327 11.9443C0.851454 11.7494 0.75 11.4948 0.75 11.2295C0.75 10.9641 0.851564 10.7093 1.033 10.5144L1.03298 10.5144L1.03537 10.5119L4.87484 6.49982L1.03603 2.48777L1.03601 2.48778L1.03357 2.48517C0.85238 2.29029 0.750967 2.03573 0.750967 1.77047C0.750967 1.50536 0.852267 1.25093 1.03327 1.0561C1.12275 0.959263 1.23179 0.882265 1.35303 0.8297C1.47439 0.777081 1.60552 0.75 1.73793 0.75C1.87034 0.75 2.00147 0.777081 2.12284 0.8297C2.24348 0.882007 2.35205 0.958507 2.44128 1.05468L6.96531 5.78286L6.96531 5.78286L6.96676 5.78439C7.14952 5.97865 7.25137 6.23399 7.24999 6.49985ZM7.24999 6.49985C7.24998 6.50041 7.24998 6.50098 7.24998 6.50155L6.99998 6.49984L7.24998 6.49814C7.24998 6.49871 7.24998 6.49928 7.24999 6.49985Z" fill="#696A6C" stroke="#696A6C" stroke-width="0.5"/>
</svg>
