<svg width="28" height="28" viewBox="0 0 28 28" fill="none" xmlns="http://www.w3.org/2000/svg">
<rect width="28" height="28" rx="14" fill="#F6F6F6"/>
<path d="M20.2956 11.7408V11.1247C20.2956 7.74185 17.5533 4.99951 14.1704 4.99951C10.7876 4.99951 8.04522 7.74185 8.04522 11.1247V11.7408C8.04522 12.4802 7.82636 13.203 7.41623 13.8183L6.41117 15.3258C5.49314 16.7029 6.19398 18.5746 7.79065 19.0101C11.9676 20.1492 16.3733 20.1492 20.5502 19.0101C22.1469 18.5746 22.8477 16.7029 21.9297 15.3258L20.9246 13.8183C20.5145 13.203 20.2956 12.4802 20.2956 11.7408Z" stroke="#454648" stroke-width="1.5"/>
<path d="M10 19.9994C10.5732 21.5288 12.1197 22.6245 13.9376 22.6245C15.7555 22.6245 17.3021 21.5288 17.8752 19.9994" stroke="#454648" stroke-width="1.5" stroke-linecap="round"/>
<path d="M14 8.74854V12.2486" stroke="#454648" stroke-linecap="round"/>
</svg>
