<svg width="36" height="36" viewBox="0 0 36 36" fill="none" xmlns="http://www.w3.org/2000/svg">
<rect width="36" height="36" rx="18" fill="#F6F6F6"/>
<path fill-rule="evenodd" clip-rule="evenodd" d="M18 14.8372C15.9652 14.8372 14.3157 16.4771 14.3157 18.5C14.3157 20.5229 15.9652 22.1628 18 22.1628C20.0348 22.1628 21.6844 20.5229 21.6844 18.5C21.6844 16.4771 20.0348 14.8372 18 14.8372ZM15.7894 18.5C15.7894 17.2863 16.7791 16.3023 18 16.3023C19.2209 16.3023 20.2106 17.2863 20.2106 18.5C20.2106 19.7137 19.2209 20.6977 18 20.6977C16.7791 20.6977 15.7894 19.7137 15.7894 18.5Z" fill="#454648"/>
<path fill-rule="evenodd" clip-rule="evenodd" d="M17.9752 8C17.5385 7.99999 17.174 7.99999 16.8747 8.02029C16.5631 8.04142 16.2689 8.08698 15.9836 8.20446C15.3215 8.47708 14.7955 8.99998 14.5213 9.65814C14.3786 10.0008 14.3399 10.3619 14.3251 10.7544C14.3133 11.0699 14.1531 11.3331 13.9167 11.4688C13.6804 11.6045 13.371 11.6108 13.0902 11.4632C12.7409 11.2797 12.407 11.1324 12.0371 11.084C11.3267 10.991 10.6082 11.1824 10.0397 11.6161C9.79467 11.803 9.60784 12.0336 9.43366 12.2912C9.26633 12.5387 9.08407 12.8526 8.86574 13.2286L8.84092 13.2713C8.62258 13.6473 8.4403 13.9611 8.30835 14.2289C8.17098 14.5077 8.06353 14.7839 8.02322 15.0882C7.92969 15.7945 8.12221 16.5088 8.55843 17.074C8.78551 17.3682 9.08069 17.582 9.41517 17.791C9.68416 17.959 9.83343 18.2286 9.83341 18.5C9.8334 18.7714 9.68413 19.0409 9.41518 19.2089C9.08065 19.4179 8.78543 19.6317 8.55834 19.9259C8.12212 20.4911 7.92959 21.2054 8.02313 21.9117C8.06343 22.2161 8.17089 22.4922 8.30825 22.771C8.44021 23.0388 8.62248 23.3527 8.84082 23.7286L8.86564 23.7714C9.08397 24.1473 9.26624 24.4612 9.43356 24.7087C9.60775 24.9664 9.79457 25.197 10.0396 25.3838C10.6081 25.8175 11.3266 26.0089 12.037 25.9159C12.4069 25.8675 12.7407 25.7203 13.09 25.5367C13.3708 25.3892 13.6803 25.3955 13.9167 25.5311C14.1531 25.6668 14.3133 25.9301 14.3251 26.2457C14.3399 26.6382 14.3786 26.9992 14.5213 27.3419C14.7955 28 15.3215 28.5229 15.9836 28.7955C16.2689 28.913 16.5631 28.9586 16.8747 28.9797C17.174 29 17.5385 29 17.9752 29H18.0248C18.4615 29 18.826 29 19.1253 28.9797C19.4369 28.9586 19.7311 28.913 20.0164 28.7955C20.6785 28.5229 21.2045 28 21.4787 27.3419C21.6214 26.9992 21.6601 26.6381 21.6749 26.2456C21.6867 25.9301 21.8469 25.6668 22.0833 25.5311C22.3196 25.3954 22.6291 25.3891 22.9099 25.5367C23.2592 25.7202 23.5931 25.8675 23.9629 25.9159C24.6733 26.0088 25.3918 25.8174 25.9603 25.3838C26.2053 25.1969 26.3922 24.9663 26.5663 24.7086C26.7337 24.4611 26.9159 24.1473 27.1342 23.7714L27.1591 23.7286C27.3774 23.3527 27.5597 23.0387 27.6917 22.7709C27.829 22.4921 27.9365 22.216 27.9768 21.9116C28.0703 21.2053 27.8778 20.491 27.4416 19.9259C27.2145 19.6317 26.9193 19.4178 26.5848 19.2089C26.3158 19.0409 26.1666 18.7713 26.1666 18.4999C26.1666 18.2286 26.3158 17.9591 26.5848 17.7911C26.9193 17.5822 27.2146 17.3683 27.4417 17.0741C27.8779 16.5089 28.0704 15.7946 27.9769 15.0883C27.9366 14.7839 27.8291 14.5078 27.6917 14.229C27.5598 13.9612 27.3775 13.6474 27.1592 13.2714L27.1344 13.2287C26.9161 12.8527 26.7338 12.5388 26.5664 12.2913C26.3923 12.0336 26.2054 11.803 25.9604 11.6162C25.3919 11.1825 24.6734 10.9911 23.963 11.0841C23.5931 11.1325 23.2593 11.2797 22.91 11.4633C22.6292 11.6108 22.3197 11.6045 22.0833 11.4689C21.8469 11.3332 21.6867 11.0699 21.6749 10.7543C21.6601 10.3618 21.6214 10.0008 21.4787 9.65814C21.2045 8.99998 20.6785 8.47708 20.0164 8.20446C19.7311 8.08698 19.4369 8.04142 19.1253 8.02029C18.826 7.99999 18.4615 7.99999 18.0248 8H17.9752ZM16.5475 9.55805C16.6233 9.52684 16.7385 9.49805 16.975 9.48201C17.2181 9.46551 17.5321 9.46512 18 9.46512C18.4679 9.46512 18.7819 9.46551 19.025 9.48201C19.2615 9.49805 19.3767 9.52684 19.4525 9.55805C19.7534 9.68197 19.9925 9.91966 20.1171 10.2188C20.1564 10.3132 20.189 10.4603 20.2022 10.8091C20.2313 11.583 20.6331 12.3282 21.3464 12.7377C22.0598 13.1471 22.9099 13.1205 23.5986 12.7586C23.909 12.5955 24.0535 12.55 24.1553 12.5367C24.4783 12.4944 24.8049 12.5814 25.0633 12.7785C25.1284 12.8282 25.211 12.9129 25.3433 13.1085C25.4792 13.3096 25.6365 13.5797 25.8705 13.9826C26.1044 14.3854 26.2611 14.6559 26.3683 14.8735C26.4725 15.0851 26.505 15.1987 26.5157 15.2795C26.5583 15.6006 26.4708 15.9253 26.2725 16.1822C26.2099 16.2632 26.098 16.3648 25.8007 16.5506C25.1411 16.9626 24.6929 17.681 24.6929 18.4999C24.6928 19.3188 25.141 20.0374 25.8007 20.4494C26.098 20.6351 26.2098 20.7367 26.2724 20.8178C26.4707 21.0747 26.5582 21.3993 26.5157 21.7204C26.5049 21.8013 26.4724 21.9148 26.3682 22.1265C26.261 22.344 26.1043 22.6146 25.8704 23.0174C25.6364 23.4202 25.4791 23.6903 25.3432 23.8914C25.2109 24.087 25.1283 24.1718 25.0632 24.2214C24.8048 24.4185 24.4782 24.5055 24.1553 24.4633C24.0534 24.4499 23.909 24.4045 23.5986 24.2414C22.9098 23.8795 22.0597 23.8528 21.3463 24.2623C20.633 24.6718 20.2313 25.4169 20.2022 26.1908C20.189 26.5397 20.1564 26.6868 20.1171 26.7812C19.9925 27.0803 19.7534 27.318 19.4525 27.4419C19.3767 27.4732 19.2615 27.502 19.025 27.518C18.7819 27.5345 18.4679 27.5349 18 27.5349C17.5321 27.5349 17.2181 27.5345 16.975 27.518C16.7385 27.502 16.6233 27.4732 16.5475 27.4419C16.2466 27.318 16.0075 27.0803 15.8829 26.7812C15.8436 26.6868 15.811 26.5397 15.7978 26.1909C15.7687 25.417 15.3669 24.6718 14.6535 24.2623C13.9402 23.8529 13.0901 23.8795 12.4014 24.2414C12.091 24.4045 11.9465 24.45 11.8447 24.4633C11.5217 24.5056 11.1951 24.4186 10.9367 24.2215C10.8716 24.1718 10.789 24.0871 10.6567 23.8915C10.5208 23.6904 10.3635 23.4203 10.1295 23.0174C9.8956 22.6146 9.73894 22.3441 9.63174 22.1265C9.52746 21.9149 9.49496 21.8013 9.48425 21.7205C9.44174 21.3994 9.52925 21.0747 9.72753 20.8178C9.79008 20.7368 9.90194 20.6352 10.1992 20.4495C10.8589 20.0374 11.3071 19.3189 11.3071 18.5001C11.3072 17.6811 10.8589 16.9625 10.1992 16.5504C9.90201 16.3647 9.79017 16.2631 9.72763 16.1821C9.52934 15.9252 9.44184 15.6005 9.48435 15.2795C9.49506 15.1986 9.52756 15.0851 9.63184 14.8734C9.73904 14.6558 9.89569 14.3853 10.1296 13.9825C10.3636 13.5797 10.5209 13.3095 10.6568 13.1085C10.7891 12.9129 10.8717 12.8281 10.9368 12.7784C11.1952 12.5813 11.5218 12.4943 11.8447 12.5366C11.9466 12.5499 12.0911 12.5954 12.4015 12.7585C13.0902 13.1204 13.9403 13.1471 14.6536 12.7377C15.3669 12.3282 15.7687 11.5831 15.7978 10.8091C15.811 10.4603 15.8436 10.3132 15.8829 10.2188C16.0075 9.91966 16.2466 9.68197 16.5475 9.55805Z" fill="#454648"/>
</svg>
