<svg width="94" height="94" viewBox="0 0 94 94" fill="none" xmlns="http://www.w3.org/2000/svg">
<g filter="url(#filter0_d_1_7155)">
<circle cx="39" cy="47" r="31" fill="url(#paint0_radial_1_7155)"/>
</g>
<path d="M31.0869 44.4972L34.9146 39.5256C37.3888 36.3119 38.6259 34.7051 39.7801 35.0447C40.9343 35.3842 40.9343 37.355 40.9343 41.2965V41.6682C40.9343 43.0898 40.9343 43.8006 41.4075 44.2465L41.4325 44.2696C41.9159 44.706 42.6865 44.706 44.2278 44.706C47.0014 44.706 48.3882 44.706 48.8569 45.5136C48.8646 45.5269 48.8722 45.5404 48.8795 45.554C49.3219 46.374 48.519 47.417 46.9131 49.5028L43.0854 54.4744C40.6111 57.6881 39.374 59.2949 38.2198 58.9553C37.0656 58.6158 37.0656 56.645 37.0657 52.7034L37.0657 52.3319C37.0657 50.9102 37.0657 50.1994 36.5926 49.7535L36.5675 49.7305C36.0841 49.294 35.3135 49.294 33.7722 49.294C30.9986 49.294 29.6118 49.294 29.1431 48.4865C29.1354 48.4731 29.1278 48.4596 29.1205 48.4461C28.6781 47.626 29.481 46.5831 31.0869 44.4972Z" fill="white"/>
<defs>
<filter id="filter0_d_1_7155" x="0" y="0" width="94" height="94" filterUnits="userSpaceOnUse" color-interpolation-filters="sRGB">
<feFlood flood-opacity="0" result="BackgroundImageFix"/>
<feColorMatrix in="SourceAlpha" type="matrix" values="0 0 0 0 0 0 0 0 0 0 0 0 0 0 0 0 0 0 127 0" result="hardAlpha"/>
<feOffset dx="8"/>
<feGaussianBlur stdDeviation="8"/>
<feComposite in2="hardAlpha" operator="out"/>
<feColorMatrix type="matrix" values="0 0 0 0 0.156863 0 0 0 0 0.313726 0 0 0 0 1 0 0 0 0.08 0"/>
<feBlend mode="normal" in2="BackgroundImageFix" result="effect1_dropShadow_1_7155"/>
<feBlend mode="normal" in="SourceGraphic" in2="effect1_dropShadow_1_7155" result="shape"/>
</filter>
<radialGradient id="paint0_radial_1_7155" cx="0" cy="0" r="1" gradientUnits="userSpaceOnUse" gradientTransform="translate(39 45) rotate(90.3588) scale(86.8438)">
<stop stop-color="#A7B7FF"/>
<stop offset="1" stop-color="#4D6EFF"/>
</radialGradient>
</defs>
</svg>
