<svg width="82" height="81" viewBox="0 0 82 81" fill="none" xmlns="http://www.w3.org/2000/svg">
<g filter="url(#filter0_b_120_7112)">
<path d="M40.9137 1.97266C22.5696 1.97266 13.3976 1.97266 7.69878 7.67143C2 13.3702 2 22.5422 2 40.8863C2 59.2304 2 68.4025 7.69878 74.1012C13.3976 79.8 22.5696 79.8 40.9137 79.8C59.2578 79.8 68.4298 79.8 74.1286 74.1012C79.8273 68.4025 79.8273 59.2304 79.8273 40.8863C79.8273 22.5422 79.8273 13.3702 74.1286 7.67143C68.4298 1.97266 59.2578 1.97266 40.9137 1.97266Z" fill="white" fill-opacity="0.4"/>
<path d="M40.9137 1.37214H40.8651C31.7341 1.37213 24.8224 1.37213 19.4842 2.08984C14.1193 2.81114 10.2537 4.26724 7.27414 7.2468C4.29458 10.2264 2.83848 14.0919 2.11718 19.4569C1.39948 24.7951 1.39948 31.7068 1.39948 40.8378V40.8863V40.9349C1.39948 50.0659 1.39948 56.9776 2.11718 62.3158C2.83848 67.6807 4.29458 71.5463 7.27414 74.5259C10.2537 77.5054 14.1193 78.9615 19.4842 79.6828C24.8225 80.4005 31.7341 80.4005 40.8652 80.4005H40.9137H40.9622C50.0932 80.4005 57.0049 80.4005 62.3431 79.6828C67.7081 78.9615 71.5736 77.5054 74.5532 74.5259C77.5328 71.5463 78.9889 67.6807 79.7102 62.3158C80.4279 56.9775 80.4279 50.0659 80.4279 40.9348V40.8863V40.8378C80.4279 31.7068 80.4279 24.7951 79.7102 19.4569C78.9889 14.0919 77.5328 10.2264 74.5532 7.2468C71.5736 4.26724 67.7081 2.81114 62.3431 2.08984C57.0049 1.37213 50.0932 1.37213 40.9622 1.37214H40.9137Z" stroke="url(#paint0_linear_120_7112)" stroke-width="1.20104" stroke-linecap="round" stroke-linejoin="round"/>
</g>
<path fill-rule="evenodd" clip-rule="evenodd" d="M62.0521 40.4058C62.0521 52.3455 52.3731 62.0245 40.4334 62.0245C28.4937 62.0245 18.8147 52.3455 18.8147 40.4058C18.8147 28.4661 28.4937 18.7871 40.4334 18.7871C52.3731 18.7871 62.0521 28.4661 62.0521 40.4058ZM36.3498 36.4423C36.3498 38.2332 35.3819 39.6851 34.1879 39.6851C32.9939 39.6851 32.026 38.2332 32.026 36.4423C32.026 34.6513 32.9939 33.1994 34.1879 33.1994C35.3819 33.1994 36.3498 34.6513 36.3498 36.4423ZM47.1591 39.6851C48.3531 39.6851 49.321 38.2332 49.321 36.4423C49.321 34.6513 48.3531 33.1994 47.1591 33.1994C45.9652 33.1994 44.9973 34.6513 44.9973 36.4423C44.9973 38.2332 45.9652 39.6851 47.1591 39.6851ZM32.8853 47.367C33.4186 46.6476 34.434 46.4967 35.1534 47.03C36.728 48.1971 38.6286 48.873 40.6735 48.873C42.7184 48.873 44.619 48.1971 46.1936 47.03C46.913 46.4967 47.9285 46.6476 48.4617 47.367C48.9949 48.0864 48.844 49.1019 48.1246 49.6351C46.0224 51.1934 43.4515 52.1158 40.6735 52.1158C37.8956 52.1158 35.3246 51.1934 33.2224 49.6351C32.503 49.1019 32.3521 48.0864 32.8853 47.367Z" fill="white"/>
<defs>
<filter id="filter0_b_120_7112" x="-23.2217" y="-23.2493" width="128.271" height="128.271" filterUnits="userSpaceOnUse" color-interpolation-filters="sRGB">
<feFlood flood-opacity="0" result="BackgroundImageFix"/>
<feGaussianBlur in="BackgroundImageFix" stdDeviation="12.0104"/>
<feComposite in2="SourceAlpha" operator="in" result="effect1_backgroundBlur_120_7112"/>
<feBlend mode="normal" in="SourceGraphic" in2="effect1_backgroundBlur_120_7112" result="shape"/>
</filter>
<linearGradient id="paint0_linear_120_7112" x1="14.3888" y1="11.0396" x2="78.0113" y2="75.8502" gradientUnits="userSpaceOnUse">
<stop stop-color="white" stop-opacity="0.25"/>
<stop offset="1" stop-color="white" stop-opacity="0"/>
</linearGradient>
</defs>
</svg>
