<svg width="28" height="28" viewBox="0 0 28 28" fill="none" xmlns="http://www.w3.org/2000/svg">
<rect width="28" height="28" rx="14" fill="#F6F6F6"/>
<path d="M16.9867 8.02637C18.6107 8.03541 19.4902 8.10742 20.0639 8.68114C20.72 9.3372 20.72 10.3931 20.72 12.505V16.9849C20.72 19.0967 20.72 20.1526 20.0639 20.8087C19.4078 21.4648 18.3519 21.4648 16.2401 21.4648H11.7602C9.64833 21.4648 8.59241 21.4648 7.93634 20.8087C7.28027 20.1526 7.28027 19.0967 7.28027 16.9849V12.505C7.28027 10.3931 7.28027 9.3372 7.93634 8.68114C8.51005 8.10742 9.38954 8.03541 11.0135 8.02637" stroke="#454648" stroke-width="1.5"/>
<path d="M11.7603 15.0449L13.0402 16.2395L16.2402 13.2529" stroke="#454648" stroke-width="1.5" stroke-linecap="round" stroke-linejoin="round"/>
<path d="M11.0137 7.65318C11.0137 7.03463 11.5151 6.5332 12.1336 6.5332H15.8669C16.4854 6.5332 16.9869 7.03463 16.9869 7.65318V8.39983C16.9869 9.01837 16.4854 9.5198 15.8669 9.5198H12.1336C11.5151 9.5198 11.0137 9.01837 11.0137 8.39983V7.65318Z" stroke="#454648" stroke-width="1.5"/>
</svg>
