<svg width="146" height="146" viewBox="0 0 146 146" fill="none" xmlns="http://www.w3.org/2000/svg">
<g clip-path="url(#clip0_1241_10796)">
<path d="M50.1875 104.938C32.5769 104.938 18.25 90.6084 18.25 73C18.25 55.3916 32.5769 41.0625 50.1875 41.0625C67.7981 41.0625 82.125 55.3916 82.125 73C82.125 90.6084 67.7981 104.938 50.1875 104.938ZM50.1875 50.1875C37.6094 50.1875 27.375 60.4219 27.375 73C27.375 85.5781 37.6094 95.8125 50.1875 95.8125C62.7656 95.8125 73 85.5781 73 73C73 60.4219 62.7656 50.1875 50.1875 50.1875Z" fill="#454648"/>
<path d="M50.1875 146C47.6679 146 45.625 143.959 45.625 141.438V100.375C45.625 97.8531 47.6679 95.8125 50.1875 95.8125C52.7071 95.8125 54.75 97.8531 54.75 100.375V141.438C54.75 143.959 52.7071 146 50.1875 146Z" fill="#454648"/>
<path d="M63.875 127.75H36.5C33.9804 127.75 31.9375 125.709 31.9375 123.188C31.9375 120.666 33.9804 118.625 36.5 118.625H63.875C66.3946 118.625 68.4375 120.666 68.4375 123.188C68.4375 125.709 66.3946 127.75 63.875 127.75Z" fill="#454648"/>
<path d="M74.7927 84.8783C66.6145 84.8783 58.4363 81.7638 52.2119 75.5394C46.179 69.5066 42.8574 61.4866 42.8574 52.9541C42.8574 44.4262 46.179 36.4062 52.2119 30.3733C58.2425 24.3405 66.2625 21.0166 74.7949 21.0166C83.3251 21.0166 91.3451 24.3405 97.3779 30.3733C109.829 42.8222 109.829 63.0861 97.3779 75.5394C91.1513 81.7638 82.9731 84.8783 74.7927 84.8783ZM74.7949 30.1416C68.6997 30.1416 62.972 32.5165 58.6635 36.825C54.355 41.1335 51.9824 46.8634 51.9824 52.9541C51.9824 59.0494 54.355 64.7792 58.6635 69.0878C67.5568 77.9811 82.0285 77.9811 90.9263 69.0878C99.8196 60.19 99.8196 45.7183 90.9263 36.825C86.6177 32.5165 80.8879 30.1416 74.7949 30.1416Z" fill="#454648"/>
<path d="M123.188 33.6039C120.668 33.6039 118.625 31.5632 118.625 29.0414V9.125H98.7109C96.1913 9.125 94.1484 7.08435 94.1484 4.5625C94.1484 2.04065 96.1913 0 98.7109 0H123.188C125.707 0 127.75 2.04065 127.75 4.5625V29.0414C127.75 31.5632 125.707 33.6039 123.188 33.6039Z" fill="#454648"/>
<path d="M94.1524 38.1619C92.985 38.1619 91.8177 37.7164 90.9266 36.8253C89.1443 35.043 89.1443 32.1558 90.9266 30.3736L119.962 1.33667C121.744 -0.445557 124.631 -0.445557 126.413 1.33667C128.196 3.1189 128.196 6.0061 126.413 7.78833L97.3782 36.8253C96.4871 37.7164 95.3198 38.1619 94.1524 38.1619Z" fill="#454648"/>
</g>
<defs>
<clipPath id="clip0_1241_10796">
<rect width="146" height="146" fill="white"/>
</clipPath>
</defs>
</svg>
