<svg width="146" height="146" viewBox="0 0 146 146" fill="none" xmlns="http://www.w3.org/2000/svg">
<path d="M50.1875 104.938C32.5769 104.938 18.25 90.6084 18.25 73C18.25 55.3916 32.5769 41.0625 50.1875 41.0625C67.7981 41.0625 82.125 55.3916 82.125 73C82.125 90.6084 67.7981 104.938 50.1875 104.938ZM50.1875 50.1875C37.6094 50.1875 27.375 60.4219 27.375 73C27.375 85.5781 37.6094 95.8125 50.1875 95.8125C62.7656 95.8125 73 85.5781 73 73C73 60.4219 62.7656 50.1875 50.1875 50.1875Z" fill="white"/>
<path d="M50.1875 146C47.6679 146 45.625 143.959 45.625 141.438V100.375C45.625 97.8531 47.6679 95.8125 50.1875 95.8125C52.7071 95.8125 54.75 97.8531 54.75 100.375V141.438C54.75 143.959 52.7071 146 50.1875 146Z" fill="white"/>
<path d="M63.875 127.75H36.5C33.9804 127.75 31.9375 125.709 31.9375 123.188C31.9375 120.666 33.9804 118.625 36.5 118.625H63.875C66.3946 118.625 68.4375 120.666 68.4375 123.188C68.4375 125.709 66.3946 127.75 63.875 127.75Z" fill="white"/>
<path d="M74.7934 84.8785C66.6152 84.8785 58.437 81.764 52.2126 75.5396C46.1797 69.5068 42.8581 61.4868 42.8581 52.9543C42.8581 44.4264 46.1797 36.4064 52.2126 30.3735C58.2432 24.3407 66.2632 21.0168 74.7956 21.0168C83.3258 21.0168 91.3458 24.3407 97.3786 30.3735C109.83 42.8224 109.83 63.0863 97.3786 75.5396C91.152 81.764 82.9738 84.8785 74.7934 84.8785ZM74.7956 30.1418C68.7004 30.1418 62.9727 32.5167 58.6642 36.8252C54.3557 41.1337 51.9831 46.8636 51.9831 52.9543C51.9831 59.0496 54.3557 64.7794 58.6642 69.088C67.5575 77.9813 82.0292 77.9813 90.927 69.088C99.8203 60.1902 99.8203 45.7185 90.927 36.8252C86.6184 32.5167 80.8886 30.1418 74.7956 30.1418Z" fill="white"/>
<path d="M123.188 33.6039C120.668 33.6039 118.625 31.5632 118.625 29.0414V9.125H98.7108C96.1912 9.125 94.1483 7.08435 94.1483 4.5625C94.1483 2.04065 96.1912 0 98.7108 0H123.188C125.707 0 127.75 2.04065 127.75 4.5625V29.0414C127.75 31.5632 125.707 33.6039 123.188 33.6039Z" fill="white"/>
<path d="M94.1528 38.1619C92.9854 38.1619 91.8181 37.7164 90.927 36.8253C89.1447 35.043 89.1447 32.1558 90.927 30.3736L119.962 1.33667C121.744 -0.445557 124.631 -0.445557 126.413 1.33667C128.196 3.1189 128.196 6.0061 126.413 7.78833L97.3786 36.8253C96.4875 37.7164 95.3202 38.1619 94.1528 38.1619Z" fill="white"/>
</svg>
