<svg width="45" height="45" viewBox="0 0 45 45" fill="none" xmlns="http://www.w3.org/2000/svg">
<rect width="45" height="45" rx="15" fill="white" fill-opacity="0.7"/>
<path d="M28.8332 17.1664C32.1565 20.3397 32.1765 25.6805 28.8332 28.833M14.6665 25.4655V20.533C14.6665 20.0547 15.0398 19.6664 15.4998 19.6664H18.4882C18.5984 19.666 18.7075 19.6432 18.8088 19.5996C18.91 19.5559 19.0014 19.4921 19.0773 19.4122L21.5773 16.5889C22.1023 16.0422 22.9998 16.4297 22.9998 17.2022V28.7972C22.9998 29.5755 22.0915 29.9597 21.5698 29.4022L19.0782 26.5947C19.002 26.5125 18.9097 26.4468 18.8071 26.4018C18.7044 26.3568 18.5936 26.3334 18.4815 26.333H15.4998C15.0398 26.333 14.6665 25.9447 14.6665 25.4655ZM26.3332 20.083C27.444 21.5647 27.444 24.4347 26.3332 25.9164V20.083Z" stroke="black" stroke-width="1.66667" stroke-linecap="round" stroke-linejoin="round"/>
</svg>
