<svg width="31" height="31" viewBox="0 0 31 31" fill="none" xmlns="http://www.w3.org/2000/svg">
<path d="M30.9758 16.3015C30.9736 18.5408 30.9565 20.4442 30.8293 22.006C30.6816 23.8183 30.379 25.3327 29.7017 26.5904C29.403 27.1452 29.0359 27.642 28.5889 28.0889C27.3205 29.3573 25.7046 29.9319 23.6567 30.2072C21.6559 30.4762 19.0916 30.4762 15.8194 30.4762H15.6568C12.3846 30.4762 9.82032 30.4762 7.81954 30.2072C5.77163 29.9319 4.15565 29.3573 2.88726 28.0889C1.76279 26.9645 1.1821 25.5649 0.873299 23.8287C0.569953 22.1232 0.514462 20.0013 0.502933 17.3664C0.5 16.6962 0.5 15.9874 0.5 15.2395V15.1568C0.499982 11.8846 0.499968 9.32031 0.768966 7.31954C1.0443 5.27163 1.61887 3.65565 2.88726 2.38726C4.15565 1.11887 5.77163 0.5443 7.81954 0.268966C9.59884 0.0297447 11.8881 0.00327546 14.6745 0.000359539C15.2617 -0.000254902 15.7381 0.475975 15.7381 1.06312C15.7381 1.65027 15.2615 2.12602 14.6743 2.12664C11.8486 2.12962 9.74572 2.15537 8.10286 2.37625C6.29072 2.61989 5.19823 3.08326 4.39074 3.89074C3.58326 4.69823 3.11989 5.79072 2.87625 7.60286C2.6285 9.44557 2.62625 11.867 2.62625 15.2381C2.62625 15.6498 2.62625 16.0479 2.62673 16.4334L4.04584 15.1917C5.33756 14.0615 7.28438 14.1263 8.49805 15.34L14.5787 21.4206C15.5529 22.3948 17.0863 22.5276 18.2135 21.7355L18.6362 21.4384C20.2581 20.2985 22.4525 20.4306 23.9261 21.7568L27.9383 25.3678C28.3421 24.5197 28.5819 23.4053 28.71 21.8333C28.8307 20.3521 28.8473 18.5531 28.8496 16.3015C28.8502 15.7144 29.3259 15.2381 29.9131 15.2381C30.5002 15.2381 30.9764 15.7143 30.9758 16.3015Z" fill="#454648"/>
<path fill-rule="evenodd" clip-rule="evenodd" d="M24.119 13.7143C20.8866 13.7143 19.2703 13.7143 18.2661 12.7101C17.2619 11.7059 17.2619 10.0896 17.2619 6.85714C17.2619 3.62466 17.2619 2.00841 18.2661 1.00421C19.2703 0 20.8866 0 24.119 0C27.3515 0 28.9678 0 29.972 1.00421C30.9762 2.00841 30.9762 3.62466 30.9762 6.85714C30.9762 10.0896 30.9762 11.7059 29.972 12.7101C28.9678 13.7143 27.3515 13.7143 24.119 13.7143ZM27.2129 5.28712L24.9272 3.0014C24.4809 2.55509 23.7572 2.55509 23.3109 3.0014L21.0252 5.28712C20.5789 5.73343 20.5789 6.45705 21.0252 6.90336C21.4715 7.34967 22.1951 7.34967 22.6415 6.90336L22.9762 6.56863V9.90476C22.9762 10.5359 23.4879 11.0476 24.119 11.0476C24.7502 11.0476 25.2619 10.5359 25.2619 9.90476V6.56863L25.5966 6.90336C26.043 7.34967 26.7666 7.34967 27.2129 6.90336C27.6592 6.45705 27.6592 5.73343 27.2129 5.28712Z" fill="#454648"/>
</svg>
