<svg width="11" height="11" viewBox="0 0 11 11" fill="none" xmlns="http://www.w3.org/2000/svg">
<path d="M4.90588 1.32878C5.20686 1.07139 5.69976 1.07139 6.0051 1.32878L6.6943 1.92209C6.82516 2.03552 7.06943 2.12713 7.24391 2.12713H7.98545C8.44782 2.12713 8.82732 2.50667 8.82732 2.9691V3.71073C8.82732 3.88087 8.91892 4.12954 9.03233 4.26042L9.62556 4.9497C9.88292 5.25071 9.88292 5.74368 9.62556 6.04906L9.03233 6.73834C8.91892 6.86922 8.82732 7.11352 8.82732 7.28802V8.02966C8.82732 8.49209 8.44782 8.87163 7.98545 8.87163H7.24391C7.07379 8.87163 6.82516 8.96324 6.6943 9.07667L6.0051 9.66997C5.70412 9.92736 5.21122 9.92736 4.90588 9.66997L4.21668 9.07667C4.08582 8.96324 3.84155 8.87163 3.66707 8.87163H2.91244C2.45007 8.87163 2.07058 8.49209 2.07058 8.02966V7.28366C2.07058 7.11352 1.97898 6.86922 1.86993 6.73834L1.28106 6.0447C1.02806 5.74368 1.02806 5.25508 1.28106 4.95406L1.86993 4.26042C1.97898 4.12954 2.07058 3.88524 2.07058 3.7151V2.96474C2.07058 2.50231 2.45007 2.12277 2.91244 2.12277H3.66707C3.83719 2.12277 4.08582 2.03115 4.21668 1.91773L4.90588 1.32878Z" fill="#078CFE" stroke="#078CFE" stroke-width="1.5" stroke-linecap="round" stroke-linejoin="round"/>
<path d="M3.80957 5.50039L4.90502 6.60039L7.10048 4.40039" stroke="white" stroke-width="1.5" stroke-linecap="round" stroke-linejoin="round"/>
</svg>
