<svg width="25" height="24" viewBox="0 0 25 24" fill="none" xmlns="http://www.w3.org/2000/svg">
<path d="M10.8344 1.24769C11.6104 0.584104 12.8812 0.584104 13.6684 1.24769L15.4452 2.77731C15.7826 3.06973 16.4123 3.30592 16.8622 3.30592H18.774C19.966 3.30592 20.9444 4.28443 20.9444 5.47663V7.38865C20.9444 7.82729 21.1806 8.46838 21.4729 8.8058L23.0024 10.5829C23.6659 11.3589 23.6659 12.6298 23.0024 13.4171L21.4729 15.1942C21.1806 15.5316 20.9444 16.1615 20.9444 16.6113V18.5234C20.9444 19.7156 19.966 20.6941 18.774 20.6941H16.8622C16.4236 20.6941 15.7826 20.9303 15.4452 21.2227L13.6684 22.7523C12.8924 23.4159 11.6216 23.4159 10.8344 22.7523L9.0576 21.2227C8.72023 20.9303 8.09047 20.6941 7.64063 20.6941H5.69511C4.50306 20.6941 3.52468 19.7156 3.52468 18.5234V16.6001C3.52468 16.1615 3.28852 15.5316 3.00737 15.1942L1.48919 13.4059C0.836936 12.6298 0.836936 11.3702 1.48919 10.5941L3.00737 8.8058C3.28852 8.46838 3.52468 7.83854 3.52468 7.3999V5.46538C3.52468 4.27318 4.50306 3.29468 5.69511 3.29468H7.64063C8.07922 3.29468 8.72023 3.05849 9.0576 2.76606L10.8344 1.24769Z" fill="white" stroke="white" stroke-width="1.5" stroke-linecap="round" stroke-linejoin="round"/>
<path d="M8.5 12.17L10.91 14.59L15.74 9.75" fill="white"/>
<path d="M8.5 12.17L10.91 14.59L15.74 9.75" stroke="#109CF1" stroke-width="2.5" stroke-linecap="round" stroke-linejoin="round"/>
</svg>
