<svg width="24" height="24" viewBox="0 0 24 24" fill="none" xmlns="http://www.w3.org/2000/svg">
<path opacity="0.2" d="M10.6159 1.48663C11.3746 0.837791 12.6171 0.837791 13.3869 1.48663L15.1242 2.98225C15.4541 3.26818 16.0698 3.49913 16.5097 3.49913H18.379C19.5445 3.49913 20.5012 4.45589 20.5012 5.62159V7.49113C20.5012 7.92002 20.7321 8.54686 21.018 8.87678L22.5134 10.6143C23.1622 11.3732 23.1622 12.6158 22.5134 13.3857L21.018 15.1232C20.7321 15.4531 20.5012 16.069 20.5012 16.5089V18.3784C20.5012 19.5441 19.5445 20.5009 18.379 20.5009H16.5097C16.0808 20.5009 15.4541 20.7318 15.1242 21.0177L13.3869 22.5134C12.6281 23.1622 11.3856 23.1622 10.6159 22.5134L8.87855 21.0177C8.54867 20.7318 7.9329 20.5009 7.49306 20.5009H5.59078C4.42522 20.5009 3.46857 19.5441 3.46857 18.3784V16.4979C3.46857 16.069 3.23766 15.4531 2.96276 15.1232L1.47832 13.3747C0.84056 12.6158 0.84056 11.3842 1.47832 10.6253L2.96276 8.87678C3.23766 8.54686 3.46857 7.93102 3.46857 7.50212V5.6106C3.46857 4.44489 4.42522 3.48813 5.59078 3.48813H7.49306C7.9219 3.48813 8.54867 3.25719 8.87855 2.97126L10.6159 1.48663Z" stroke="#078CFE" stroke-width="1.5" stroke-linecap="round" stroke-linejoin="round"/>
<path d="M10.9934 4.35391C11.5452 3.88203 12.4488 3.88203 13.0086 4.35391L14.2721 5.44164C14.5121 5.64959 14.9599 5.81755 15.2798 5.81755H16.6393C17.4869 5.81755 18.1827 6.51337 18.1827 7.36116V8.72082C18.1827 9.03274 18.3506 9.48863 18.5585 9.72857L19.6461 10.9923C20.118 11.5441 20.118 12.4479 19.6461 13.0077L18.5585 14.2714C18.3506 14.5114 18.1827 14.9593 18.1827 15.2792V16.6388C18.1827 17.4866 17.4869 18.1825 16.6393 18.1825H15.2798C14.9679 18.1825 14.5121 18.3504 14.2721 18.5584L13.0086 19.6461C12.4568 20.118 11.5532 20.118 10.9934 19.6461L9.72985 18.5584C9.48994 18.3504 9.04211 18.1825 8.72223 18.1825H7.33875C6.49107 18.1825 5.79533 17.4866 5.79533 16.6388V15.2712C5.79533 14.9593 5.62739 14.5114 5.42746 14.2714L4.34787 12.9998C3.88404 12.4479 3.88404 11.5521 4.34787 11.0003L5.42746 9.72857C5.62739 9.48863 5.79533 9.04074 5.79533 8.72882V7.35316C5.79533 6.50537 6.49107 5.80955 7.33875 5.80955H8.72223C9.03411 5.80955 9.48994 5.64159 9.72985 5.43364L10.9934 4.35391Z" fill="#078CFE" stroke="#078CFE" stroke-width="1.5" stroke-linecap="round" stroke-linejoin="round"/>
<path d="M8.9834 12.0001L10.9917 14.0167L15.0167 9.9834" stroke="white" stroke-width="1.5" stroke-linecap="round" stroke-linejoin="round"/>
</svg>
