<svg width="26" height="26" viewBox="0 0 26 26" fill="none" xmlns="http://www.w3.org/2000/svg">
<path opacity="0.2" d="M11.4901 1.53087C12.3178 0.823044 13.6732 0.823044 14.5129 1.53087L16.4082 3.16246C16.7681 3.47438 17.4398 3.72632 17.9197 3.72632H19.9589C21.2304 3.72632 22.274 4.77006 22.274 6.04174V8.08123C22.274 8.54911 22.5259 9.23294 22.8378 9.59285L24.4692 11.4884C25.1769 12.3162 25.1769 13.6718 24.4692 14.5116L22.8378 16.4071C22.5259 16.7671 22.274 17.4389 22.274 17.9188V19.9583C22.274 21.2299 21.2304 22.2737 19.9589 22.2737H17.9197C17.4518 22.2737 16.7681 22.5256 16.4082 22.8375L14.5129 24.4691C13.6852 25.177 12.3298 25.177 11.4901 24.4691L9.59478 22.8375C9.23491 22.5256 8.56316 22.2737 8.08334 22.2737H6.00812C4.7366 22.2737 3.69299 21.2299 3.69299 19.9583V17.9068C3.69299 17.4389 3.44108 16.7671 3.1412 16.4071L1.5218 14.4996C0.826065 13.6718 0.826065 12.3282 1.5218 11.5004L3.1412 9.59285C3.44108 9.23294 3.69299 8.56111 3.69299 8.09323V6.02974C3.69299 4.75806 4.7366 3.71432 6.00812 3.71432H8.08334C8.55117 3.71432 9.23491 3.46238 9.59478 3.15046L11.4901 1.53087Z" stroke="#CCCCCC" stroke-width="1.5" stroke-linecap="round" stroke-linejoin="round"/>
<path d="M11.9021 4.65855C12.504 4.14377 13.4899 4.14377 14.1005 4.65855L15.4789 5.84516C15.7406 6.07201 16.2292 6.25524 16.5782 6.25524H18.0612C18.986 6.25524 19.745 7.01432 19.745 7.93918V9.42245C19.745 9.76272 19.9282 10.2601 20.155 10.5218L21.3415 11.9004C21.8562 12.5024 21.8562 13.4883 21.3415 14.0991L20.155 15.4777C19.9282 15.7394 19.745 16.228 19.745 16.577V18.0603C19.745 18.9851 18.986 19.7442 18.0612 19.7442H16.5782C16.2379 19.7442 15.7406 19.9275 15.4789 20.1543L14.1005 21.3409C13.4986 21.8557 12.5128 21.8557 11.9021 21.3409L10.5237 20.1543C10.262 19.9275 9.77343 19.7442 9.42447 19.7442H7.91522C6.99048 19.7442 6.23149 18.9851 6.23149 18.0603V16.5683C6.23149 16.228 6.04828 15.7394 5.83018 15.4777L4.65244 14.0904C4.14645 13.4883 4.14645 12.5111 4.65244 11.9091L5.83018 10.5218C6.04828 10.2601 6.23149 9.77145 6.23149 9.43117V7.93046C6.23149 7.0056 6.99048 6.24651 7.91522 6.24651H9.42447C9.76471 6.24651 10.262 6.06329 10.5237 5.83643L11.9021 4.65855Z" fill="#CCCCCC" stroke="#CCCCCC" stroke-width="1.5" stroke-linecap="round" stroke-linejoin="round"/>
<path d="M9.70898 13.0008L11.8999 15.2008L16.2908 10.8008" stroke="white" stroke-width="1.5" stroke-linecap="round" stroke-linejoin="round"/>
</svg>
