<svg width="56" height="56" viewBox="0 0 56 56" fill="none" xmlns="http://www.w3.org/2000/svg">
<path opacity="0.5" d="M28 56C43.464 56 56 43.464 56 28C56 12.536 43.464 0 28 0C12.536 0 0 12.536 0 28C0 43.464 12.536 56 28 56Z" fill="#1C274C"/>
<path d="M30.9906 20.506C30.3184 20.0478 29.5571 19.5739 28.7688 19.1087L28.7688 19.1087C25.7303 17.3153 24.2111 16.4186 22.8485 17.4114C21.4859 18.4042 21.3621 20.4825 21.1144 24.6391C21.0444 25.8146 21 26.9669 21 28C21 29.0331 21.0444 30.1854 21.1144 31.3609C21.3621 35.5175 21.4859 37.5958 22.8485 38.5886C24.2111 39.5814 25.7303 38.6847 28.7688 36.8913C29.5571 36.4261 30.3184 35.9522 30.9906 35.494C31.7569 34.9717 32.5908 34.345 33.4316 33.6793C36.4772 31.2679 38 30.0622 38 28C38 25.9378 36.4772 24.7321 33.4316 22.3207C32.5908 21.655 31.7569 21.0283 30.9906 20.506Z" fill="white"/>
</svg>
