<svg width="18" height="18" viewBox="0 0 18 18" fill="none" xmlns="http://www.w3.org/2000/svg">
<path fill-rule="evenodd" clip-rule="evenodd" d="M17.8544 8.21369L17.6481 10.4054C17.3082 14.0167 17.1383 15.8224 16.0739 16.9112C15.0096 18 13.4144 18 10.2239 18H7.77607C4.58565 18 2.99044 18 1.92608 16.9112C0.86173 15.8224 0.691787 14.0167 0.351902 10.4054L0.145627 8.21368C-0.0163799 6.49233 -0.0973833 5.63165 0.197087 5.27587C0.356381 5.08341 0.572992 4.96548 0.804588 4.94514C1.23272 4.90754 1.77037 5.51961 2.84568 6.74376C3.40179 7.37684 3.67984 7.69338 3.99004 7.7424C4.16191 7.76956 4.33703 7.74164 4.49573 7.66177C4.78216 7.51763 4.97313 7.12631 5.35506 6.34366L7.36824 2.21837C8.08996 0.739457 8.45082 0 9 0C9.54918 0 9.91004 0.739456 10.6318 2.21837L12.6449 6.34366C13.0269 7.12631 13.2178 7.51763 13.5043 7.66177C13.663 7.74164 13.8381 7.76956 14.01 7.7424C14.3202 7.69338 14.5982 7.37684 15.1543 6.74376C16.2296 5.51961 16.7673 4.90754 17.1954 4.94514C17.427 4.96548 17.6436 5.08341 17.8029 5.27587C18.0974 5.63165 18.0164 6.49233 17.8544 8.21369ZM5.625 14.4C5.625 14.0272 5.92721 13.725 6.3 13.725H11.7C12.0728 13.725 12.375 14.0272 12.375 14.4C12.375 14.7728 12.0728 15.075 11.7 15.075H6.3C5.92721 15.075 5.625 14.7728 5.625 14.4Z" fill="white"/>
</svg>
