<svg width="150" height="150" viewBox="0 0 150 150" fill="none" xmlns="http://www.w3.org/2000/svg">
<g filter="url(#filter0_d_14_5500)">
<path fill-rule="evenodd" clip-rule="evenodd" d="M25 50C25 22.43 47.4311 0 75 0C102.569 0 125 22.43 125 50C125 77.5689 102.569 100 75 100C47.4311 100 25 77.5689 25 50ZM91.108 28.5178C87.238 28.5178 84.0891 31.6667 84.0891 35.5389C84.0891 39.41 87.238 42.56 91.108 42.56C94.9802 42.56 98.1291 39.4111 98.1291 35.5389C98.1291 31.6667 94.9802 28.5178 91.108 28.5178ZM51.8701 35.5389C51.8701 31.6667 55.0201 28.5178 58.8901 28.5178C62.7623 28.5178 65.9134 31.6667 65.9123 35.5389C65.9123 39.4111 62.7623 42.56 58.8901 42.56C55.019 42.56 51.8701 39.41 51.8701 35.5389Z" fill="url(#paint0_linear_14_5500)"/>
</g>
<defs>
<filter id="filter0_d_14_5500" x="0" y="0" width="150" height="150" filterUnits="userSpaceOnUse" color-interpolation-filters="sRGB">
<feFlood flood-opacity="0" result="BackgroundImageFix"/>
<feColorMatrix in="SourceAlpha" type="matrix" values="0 0 0 0 0 0 0 0 0 0 0 0 0 0 0 0 0 0 127 0" result="hardAlpha"/>
<feOffset dy="25"/>
<feGaussianBlur stdDeviation="12.5"/>
<feColorMatrix type="matrix" values="0 0 0 0 0 0 0 0 0 0 0 0 0 0 0 0 0 0 0.1 0"/>
<feBlend mode="normal" in2="BackgroundImageFix" result="effect1_dropShadow_14_5500"/>
<feBlend mode="normal" in="SourceGraphic" in2="effect1_dropShadow_14_5500" result="shape"/>
</filter>
<linearGradient id="paint0_linear_14_5500" x1="93.7428" y1="-6.44519" x2="29.8813" y2="124.473" gradientUnits="userSpaceOnUse">
<stop stop-color="white" stop-opacity="0.92"/>
<stop offset="1" stop-color="white"/>
</linearGradient>
</defs>
</svg>
