<svg width="30" height="30" viewBox="0 0 30 30" fill="none" xmlns="http://www.w3.org/2000/svg">
<path opacity="0.9" d="M5 15C5 10.286 5 7.92893 6.46447 6.46447C7.92893 5 10.286 5 15 5C19.714 5 22.0711 5 23.5355 6.46447C25 7.92893 25 10.286 25 15C25 19.714 25 22.0711 23.5355 23.5355C22.0711 25 19.714 25 15 25C10.286 25 7.92893 25 6.46447 23.5355C5 22.0711 5 19.714 5 15Z" fill="white"/>
<path d="M16.25 10C16.25 10.4142 16.5858 10.75 17 10.75H18.1893L15.9697 12.9697C15.6768 13.2626 15.6768 13.7374 15.9697 14.0303C16.2626 14.3232 16.7374 14.3232 17.0303 14.0303L19.25 11.8107V13C19.25 13.4142 19.5858 13.75 20 13.75C20.4142 13.75 20.75 13.4142 20.75 13V10C20.75 9.58579 20.4142 9.25 20 9.25H17C16.5858 9.25 16.25 9.58579 16.25 10Z" fill="#1C1D20"/>
<path d="M14.0303 17.0303C14.3232 16.7374 14.3232 16.2626 14.0303 15.9697C13.7374 15.6768 13.2626 15.6768 12.9697 15.9697L10.75 18.1893V17C10.75 16.5858 10.4142 16.25 10 16.25C9.58579 16.25 9.25 16.5858 9.25 17V20C9.25 20.4142 9.58579 20.75 10 20.75H13C13.4142 20.75 13.75 20.4142 13.75 20C13.75 19.5858 13.4142 19.25 13 19.25H11.8107L14.0303 17.0303Z" fill="#1C1D20"/>
<path d="M13.75 10C13.75 10.4142 13.4142 10.75 13 10.75H11.8107L14.0303 12.9697C14.3232 13.2626 14.3232 13.7374 14.0303 14.0303C13.7374 14.3232 13.2626 14.3232 12.9697 14.0303L10.75 11.8107V13C10.75 13.4142 10.4142 13.75 10 13.75C9.58579 13.75 9.25 13.4142 9.25 13V10C9.25 9.58579 9.58579 9.25 10 9.25H13C13.4142 9.25 13.75 9.58579 13.75 10Z" fill="#1C1D20"/>
<path d="M15.9697 17.0303C15.6768 16.7374 15.6768 16.2626 15.9697 15.9697C16.2626 15.6768 16.7374 15.6768 17.0303 15.9697L19.25 18.1893V17C19.25 16.5858 19.5858 16.25 20 16.25C20.4142 16.25 20.75 16.5858 20.75 17V20C20.75 20.4142 20.4142 20.75 20 20.75H17C16.5858 20.75 16.25 20.4142 16.25 20C16.25 19.5858 16.5858 19.25 17 19.25H18.1893L15.9697 17.0303Z" fill="#1C1D20"/>
</svg>
